<svg xmlns="http://www.w3.org/2000/svg" width="30.254" height="22.58" viewBox="0 0 30.254 22.58">
  <path id="bxs-quote-alt-right" d="M32.089,10.612l-.038-.253-.039.009a6.949,6.949,0,1,0-5.654,8.108,5.4,5.4,0,0,1-.383,1.026,6.354,6.354,0,0,1-.707,1.273,7.514,7.514,0,0,1-.906,1.112,10.253,10.253,0,0,1-1.044.911,6.409,6.409,0,0,1-1.077.7,5.724,5.724,0,0,1-.98.528l-.813.335-.715.3.73,2.924.9-.217c.288-.072.639-.157,1.039-.258a8.181,8.181,0,0,0,1.33-.471,9.436,9.436,0,0,0,1.55-.7,14.164,14.164,0,0,0,1.645-1.044,11.817,11.817,0,0,0,1.584-1.424,10.573,10.573,0,0,0,1.371-1.753,12.25,12.25,0,0,0,1.059-1.959,16.706,16.706,0,0,0,.706-2.015,18.2,18.2,0,0,0,.579-3.675,18.787,18.787,0,0,0-.042-2.635q-.032-.408-.1-.813Zm-16.59,0-.038-.253-.039.009a6.787,6.787,0,1,0-6.634,8.206,6.746,6.746,0,0,0,.98-.1A5.4,5.4,0,0,1,9.385,19.5a6.353,6.353,0,0,1-.707,1.273,7.514,7.514,0,0,1-.906,1.112,10.253,10.253,0,0,1-1.044.911,6.409,6.409,0,0,1-1.077.7,5.724,5.724,0,0,1-.98.528l-.813.335c-.454.186-.713.294-.713.294l.73,2.924.9-.217c.288-.072.639-.157,1.039-.258a8.181,8.181,0,0,0,1.33-.471,9.436,9.436,0,0,0,1.55-.7,14.164,14.164,0,0,0,1.645-1.044,11.817,11.817,0,0,0,1.584-1.424,10.573,10.573,0,0,0,1.371-1.753,12.25,12.25,0,0,0,1.059-1.959,16.706,16.706,0,0,0,.706-2.015,18.206,18.206,0,0,0,.579-3.675,18.786,18.786,0,0,0-.042-2.635q-.034-.407-.1-.81Z" transform="translate(-1.998 -5)" fill="#fff"/>
</svg>
