<svg xmlns="http://www.w3.org/2000/svg" width="14.239" height="17.404" viewBox="0 0 14.239 17.404">
  <path id="cal-Location" d="M90.12,1507a7.306,7.306,0,0,0-7.12,7.12,7.9,7.9,0,0,0,.93,3.287c.017.032.035.063.055.095,4.305,6.9,5.588,6.9,6.135,6.9.854,0,1.78-.6,3.972-3.667,1.143-1.6,2.122-3.168,2.163-3.236.02-.032.038-.063.054-.095a7.9,7.9,0,0,0,.93-3.287A7.306,7.306,0,0,0,90.12,1507Zm5.128,9.876s-3.947,6.34-5.128,6.34-5.128-6.34-5.128-6.34a6.752,6.752,0,0,1-.8-2.757,5.933,5.933,0,1,1,11.866,0A6.751,6.751,0,0,1,95.248,1516.876Zm-5.128-6.317a3.164,3.164,0,1,0,3.164,3.164A3.164,3.164,0,0,0,90.12,1510.56Zm0,5.142a1.978,1.978,0,1,1,1.978-1.978A1.978,1.978,0,0,1,90.12,1515.7Z" transform="translate(-83 -1507)" fill="#58595b" fill-rule="evenodd"/>
</svg>
