<svg xmlns="http://www.w3.org/2000/svg" width="14.258" height="14.258" viewBox="0 0 14.258 14.258">
  <path id="calendar-dates" d="M14.832,6.277V4.139H13.406v.713H11.98V4.139h-5.7v.713H4.852V4.139H3.426V6.277Zm0,1.426H3.426v7.129H14.832Zm-1.426-4.99h1.426a1.426,1.426,0,0,1,1.426,1.426V14.832a1.426,1.426,0,0,1-1.426,1.426H3.426A1.426,1.426,0,0,1,2,14.832V4.139A1.426,1.426,0,0,1,3.426,2.713H4.852V2H6.277v.713h5.7V2h1.426ZM6.99,10.555H5.564V9.129H6.99Zm2.852,0H8.416V9.129H9.842Zm2.852,0H11.268V9.129h1.426Zm-5.7,2.852H5.564V11.98H6.99Zm2.852,0H8.416V11.98H9.842Z" transform="translate(-2 -2)" fill="#fff" fill-rule="evenodd"/>
</svg>
