<svg xmlns="http://www.w3.org/2000/svg" width="22.631" height="23.411" viewBox="0 0 22.631 23.411">
  <g id="E-mail-_" data-name="E-mail-@" transform="translate(-4 -2)">
    <path id="Layer-1" d="M16.841,18.622a4.059,4.059,0,0,1-3.25,1.32c-3.455-.182-4.684-3.293-3.9-7.251.674-3.407,3.194-5.915,5.988-5.74a3.541,3.541,0,0,1,2.57,1.278,1.078,1.078,0,0,1,2.062.621l-.467,1.83L18.57,16.91c.083,1,.641,1.394,1.725,1.394,2.327,0,4.18-2.261,4.18-6.148,0-4.785-3.2-8-7.964-8A10.391,10.391,0,0,0,6.155,14.7c0,5.324,3.552,8.556,8.27,8.556a11.7,11.7,0,0,0,7.3-2.28,1.077,1.077,0,1,1,1.2,1.786,13.833,13.833,0,0,1-8.5,2.647C8.559,25.411,4,21.262,4,14.7A12.542,12.542,0,0,1,16.512,2,9.7,9.7,0,0,1,26.631,12.155c0,4.991-2.713,8.3-6.336,8.3A3.651,3.651,0,0,1,16.841,18.622Zm.256-5.835c.413-2.073-.3-3.639-1.553-3.717-1.591-.1-3.273,1.575-3.759,4.031-.568,2.87.125,4.626,1.918,4.72C15.341,17.908,16.451,16.026,17.1,12.787Z" fill="#0096b6"/>
  </g>
</svg>
