<svg xmlns="http://www.w3.org/2000/svg" xmlns:xlink="http://www.w3.org/1999/xlink" width="507" height="215.836" viewBox="0 0 507 215.836">
  <defs>
    <clipPath id="clip-path">
      <rect id="Rectangle_369" data-name="Rectangle 369" width="507" height="215.836" transform="translate(507 215.836) rotate(180)" fill="none" stroke="#fff" stroke-width="1"/>
    </clipPath>
  </defs>
  <g id="footer-pattern" transform="translate(507 215.836) rotate(180)">
    <g id="ArtWork" transform="translate(0 0)" clip-path="url(#clip-path)">
      <g id="Group_1186" data-name="Group 1186" transform="translate(68.714 44.808)" style="isolation: isolate">
        <path id="Path_1331" data-name="Path 1331" d="M1019.125-817.957a55.7,55.7,0,0,1-11.455-9.025l-1.206-1.245,1.338-1.1a82.337,82.337,0,0,1,26.8-14.369l1.548-.44.448,1.537c.125.431,3.028,10.762-.484,30.315l-.338,1.878-1.8-.652A84.006,84.006,0,0,1,1019.125-817.957Z" transform="translate(-1006.464 844.139)" fill="none" stroke="#fff" stroke-width="1"/>
      </g>
      <g id="Group_1187" data-name="Group 1187" transform="translate(174.687 39.442)" style="isolation: isolate">
        <path id="Path_1332" data-name="Path 1332" d="M1060.657-830.918a33.314,33.314,0,0,1-7.667,4.174l-.971.372-.3-.99a48.65,48.65,0,0,1-1.714-18.032l.115-.951.956.112c.269.031,6.667.847,16.679,7.329l.961.623-.78.834A49.952,49.952,0,0,1,1060.657-830.918Z" transform="translate(-1049.796 846.345)" fill="none" stroke="#fff" stroke-width="1"/>
      </g>
      <g id="Group_1188" data-name="Group 1188" transform="translate(224.524 83.96)" style="isolation: isolate">
        <path id="Path_1333" data-name="Path 1333" d="M1082.8-801.989a55.018,55.018,0,0,1-11.416-8.8L1070.174-812l1.309-1.1a81.369,81.369,0,0,1,26.327-14.486l1.526-.453.459,1.516c.127.423,3.109,10.6-.151,29.962l-.313,1.859-1.79-.625A82.893,82.893,0,0,1,1082.8-801.989Z" transform="translate(-1070.174 828.044)" fill="none" stroke="#fff" stroke-width="1"/>
      </g>
      <g id="Group_1189" data-name="Group 1189" transform="translate(264.898 132.693)" style="isolation: isolate">
        <path id="Path_1334" data-name="Path 1334" d="M1100.314-780.335a55.2,55.2,0,0,1-12.3-7.521l-1.33-1.082,1.184-1.238a81.191,81.191,0,0,1,24.605-17.218l1.467-.615.621,1.457c.173.409,4.238,10.21,3.091,29.806l-.11,1.88-1.846-.428A83.057,83.057,0,0,1,1100.314-780.335Z" transform="translate(-1086.683 808.01)" fill="none" stroke="#fff" stroke-width="1"/>
      </g>
      <g id="Group_1190" data-name="Group 1190" transform="translate(100.483 165.08)" style="isolation: isolate">
        <path id="Path_1335" data-name="Path 1335" d="M1039.782-772.107a54.18,54.18,0,0,1-11.431,8.375l-1.482.807-.7-1.53a78.979,78.979,0,0,1-6.7-28.66l-.022-1.554,1.565-.027c.438,0,10.917-.073,28.447,8.2l1.685.8-1.076,1.513A81.148,81.148,0,0,1,1039.782-772.107Z" transform="translate(-1019.454 794.696)" fill="none" stroke="#fff" stroke-width="1"/>
      </g>
      <g id="Group_1191" data-name="Group 1191" transform="translate(120.529 82.274)" style="isolation: isolate">
        <path id="Path_1336" data-name="Path 1336" d="M1055.266-772.674a110.049,110.049,0,0,1-24.913-14.59l-2.7-2.116,2.328-2.532c21.409-23.274,47.648-35.043,48.753-35.532l2.92-1.292,1.294,2.9c.36.807,8.838,20.3,7.2,59.658l-.159,3.778-3.712-.786A166.268,166.268,0,0,1,1055.266-772.674Z" transform="translate(-1027.651 828.737)" fill="none" stroke="#fff" stroke-width="1"/>
      </g>
      <g id="Group_1192" data-name="Group 1192" transform="translate(-180.451 1.671)" style="isolation: isolate">
        <path id="Path_1337" data-name="Path 1337" d="M1056.536-639.546c-35.725,24.865-71.879,43.713-109.762,57.449l-13.861,5.026-4.026-14.17c-37.024-130.229-20.932-252-20.228-257.124l1.858-13.508,13.549,1.851c3.783.523,94.423,13.776,235.036,108.606l13.5,9.1-11.271,11.7C1126.006-693.943,1091.479-663.869,1056.536-639.546Z" transform="translate(-904.581 861.872)" fill="none" stroke="#fff" stroke-width="1"/>
      </g>
      <g id="Group_1193" data-name="Group 1193" transform="translate(334.591 82.738)" style="isolation: isolate">
        <path id="Path_1338" data-name="Path 1338" d="M1120-818.283a24.332,24.332,0,0,1-4.38-4.668l-.442-.618.655-.392a36.177,36.177,0,0,1,12.587-4.493l.7-.093.093.7c.024.194.607,4.872-2.21,13.136l-.269.793-.741-.4A36.9,36.9,0,0,1,1120-818.283Z" transform="translate(-1115.18 828.546)" fill="none" stroke="#fff" stroke-width="1"/>
      </g>
      <g id="Group_1194" data-name="Group 1194" transform="translate(400.114 131.334)" style="isolation: isolate">
        <path id="Path_1339" data-name="Path 1339" d="M1150.091-797.379a24.525,24.525,0,0,1-5.573,3.167l-.709.285-.232-.723a35.733,35.733,0,0,1-1.5-13.219l.073-.7.7.071c.2.019,4.906.535,12.343,5.162l.715.443-.56.625A36.833,36.833,0,0,1,1150.091-797.379Z" transform="translate(-1141.972 808.569)" fill="none" stroke="#fff" stroke-width="1"/>
      </g>
      <g id="Group_1195" data-name="Group 1195" transform="translate(445.702 72.862)" style="isolation: isolate">
        <path id="Path_1340" data-name="Path 1340" d="M1166.912-820.467a21.82,21.82,0,0,1-5.647-.71l-.653-.173.222-.635a31.848,31.848,0,0,1,6.016-10.163l.428-.457.46.423c.13.119,3.192,2.978,5.982,10.2l.269.693-.734.143A32.773,32.773,0,0,1,1166.912-820.467Z" transform="translate(-1160.613 832.606)" fill="none" stroke="#fff" stroke-width="1" style="mix-blend-mode: multiply;isolation: isolate"/>
      </g>
      <g id="Group_1196" data-name="Group 1196" transform="translate(275.977 35.111)" style="isolation: isolate">
        <path id="Path_1341" data-name="Path 1341" d="M1102.837-827.524a40.193,40.193,0,0,1-10.008,3.189l-1.23.219-.127-1.238a58.439,58.439,0,0,1,2.111-21.674l.355-1.1,1.1.35c.309.1,7.675,2.513,18.007,12.433l.993.954-1.113.81A60.341,60.341,0,0,1,1102.837-827.524Z" transform="translate(-1091.213 848.125)" fill="none" stroke="#fff" stroke-width="1"/>
      </g>
      <g id="Group_1197" data-name="Group 1197" transform="translate(-7.887 8.312)" style="isolation: isolate">
        <path id="Path_1342" data-name="Path 1342" d="M993.694-823.4a64.319,64.319,0,0,1-16.625-2.09L975.142-826l.655-1.873a93.655,93.655,0,0,1,17.721-29.923l1.255-1.348,1.357,1.246c.379.348,9.4,8.772,17.616,30.032l.79,2.041-2.157.426A96.576,96.576,0,0,1,993.694-823.4Z" transform="translate(-975.142 859.142)" fill="none" stroke="#fff" stroke-width="1"/>
      </g>
    </g>
  </g>
</svg>
