<svg xmlns="http://www.w3.org/2000/svg" xmlns:xlink="http://www.w3.org/1999/xlink" width="160.256" height="53.974" viewBox="0 0 160.256 53.974">
  <defs>
    <linearGradient id="linear-gradient" x2="1" y2="1" gradientUnits="objectBoundingBox">
      <stop offset="0" stop-color="#379a71"/>
      <stop offset="0.499" stop-color="#1ea4d7"/>
      <stop offset="1" stop-color="#24509f"/>
    </linearGradient>
  </defs>
  <g id="Gov.sa-logo" transform="translate(-2.197 -2.958)">
    <g id="lYg6nJ_3_" transform="translate(63.989 12.442)">
      <g id="XMLID_498_">
        <path id="XMLID_508_" d="M292.021,53.482c.064-.448.128-.9.213-1.322a5.576,5.576,0,0,1,4.861-4.371,8.205,8.205,0,0,1,4.414.448,5.367,5.367,0,0,1,3.241,4.009.529.529,0,0,1,.021.192c-.064,0-.107.021-.149.021h-3.2a.258.258,0,0,1-.277-.149,2.789,2.789,0,0,0-3.113-1.706,2.565,2.565,0,0,0-2.281,1.983,5.092,5.092,0,0,0,.107,3.284,2.3,2.3,0,0,0,1.919,1.578,3.485,3.485,0,0,0,2.6-.469,2.09,2.09,0,0,0,.746-.853h-2.708V53.8h6.418V60.22h-2.708V58.706a.686.686,0,0,0-.149.085,4.458,4.458,0,0,1-3.582,1.6,6.828,6.828,0,0,1-3.859-.981,5.519,5.519,0,0,1-2.388-3.753c-.064-.341-.107-.682-.149-1.023C292.021,54.271,292.021,53.866,292.021,53.482Z" transform="translate(-292 -47.627)" fill="#399b73"/>
        <path id="XMLID_505_" d="M375.787,53.869a7.42,7.42,0,0,1-.725,3.241,5.365,5.365,0,0,1-3.411,2.772,8.23,8.23,0,0,1-4.968-.043,5.494,5.494,0,0,1-3.9-4.669,7.672,7.672,0,0,1,.192-3.475,5.44,5.44,0,0,1,3.753-3.859,8.165,8.165,0,0,1,5.1.021,5.523,5.523,0,0,1,3.881,4.733C375.744,53.037,375.744,53.442,375.787,53.869Zm-9.552,0v.362a3.919,3.919,0,0,0,.554,1.876,2.773,2.773,0,0,0,2.729,1.215,2.648,2.648,0,0,0,2.345-1.6,4.665,4.665,0,0,0,.213-3.092,2.715,2.715,0,0,0-2.409-2.2,2.832,2.832,0,0,0-3.049,1.514A3.878,3.878,0,0,0,366.235,53.869Z" transform="translate(-347.599 -47.437)" fill="#399b73"/>
        <path id="XMLID_504_" d="M509.765,55.876h3.518v.49a1.09,1.09,0,0,0,.853,1.151,4.469,4.469,0,0,0,1.983.171,4.2,4.2,0,0,0,1.023-.235,1.647,1.647,0,0,0,.618-.469.743.743,0,0,0-.277-1.173,8.987,8.987,0,0,0-1.642-.469,17.477,17.477,0,0,1-3.475-.789,4.491,4.491,0,0,1-1.237-.725,3.388,3.388,0,0,1,.213-5.139,5.339,5.339,0,0,1,2.388-.959,9.82,9.82,0,0,1,4.52.235,6.054,6.054,0,0,1,1.3.618A3.189,3.189,0,0,1,520.9,51.7h-3.5c0-.085-.021-.171-.021-.235a1,1,0,0,0-.725-1.045,3.412,3.412,0,0,0-2.345,0,1.459,1.459,0,0,0-.576.448.65.65,0,0,0,.234,1.045,7.959,7.959,0,0,0,1.535.469,22.457,22.457,0,0,1,3.326.682,4.009,4.009,0,0,1,1.94,1.237,3.541,3.541,0,0,1-1.045,5.181,5.8,5.8,0,0,1-2.452.768,11.545,11.545,0,0,1-4.52-.235,5.692,5.692,0,0,1-1.514-.682,3.125,3.125,0,0,1-1.471-2.644C509.744,56.431,509.765,56.175,509.765,55.876Z" transform="translate(-463.326 -47.548)" fill="#399b73"/>
        <path id="XMLID_501_" d="M582.358,60.967H578.84c-.213-.554-.448-1.087-.661-1.642a.308.308,0,0,0-.341-.235h-5.16a.283.283,0,0,0-.32.213c-.192.512-.384,1-.6,1.514-.021.064-.128.171-.192.171h-3.3c-.021,0-.021-.021-.064-.021a1.04,1.04,0,0,1,.085-.235c1.578-3.966,3.177-7.91,4.755-11.876a.316.316,0,0,1,.363-.256c1.258.021,2.516,0,3.8,0a.283.283,0,0,1,.32.213c1.6,4.009,3.2,8,4.8,12A.305.305,0,0,0,582.358,60.967Zm-5.245-4.456c-.021-.085-.043-.171-.064-.235l-1.6-4.222c-.021-.085-.128-.128-.171-.213a1.624,1.624,0,0,0-.192.192c-.533,1.407-1.066,2.836-1.6,4.243-.021.064-.043.128-.064.213C574.661,56.51,575.876,56.51,577.113,56.51Z" transform="translate(-509.309 -48.352)" fill="#399b73"/>
        <path id="XMLID_500_" d="M440.642,48.364c-.043.128-.064.213-.085.3-1.322,3.923-2.665,7.868-3.987,11.791a.336.336,0,0,1-.384.277c-1.365-.021-2.729,0-4.094,0-.171,0-.235-.043-.277-.213q-2.015-5.981-4.051-11.962a2.022,2.022,0,0,1-.064-.192h3.518l.7,2.3c.661,2.175,1.322,4.35,2,6.524.043.128.043.256.235.256.213,0,.192-.149.235-.277.874-2.878,1.77-5.736,2.644-8.614.064-.192.128-.256.32-.256h3.006A.59.59,0,0,0,440.642,48.364Z" transform="translate(-398.766 -48.116)" fill="#399b73"/>
        <path id="XMLID_499_" d="M488.543,95.284A1.646,1.646,0,1,1,488.415,92a2.649,2.649,0,0,1,.7.085,1.5,1.5,0,0,1,1.109,1.748,1.53,1.53,0,0,1-1.386,1.429A1.621,1.621,0,0,1,488.543,95.284Z" transform="translate(-445.217 -82.498)" fill="#399b73"/>
      </g>
    </g>
    <g id="Group_23397" data-name="Group 23397" transform="translate(63.989 32.391)">
      <path id="Path_1666" data-name="Path 1666" d="M294.6,149.1c-1.876,0-2.6-.874-2.6-2.239a2.349,2.349,0,0,1,2.537-2.452,1.982,1.982,0,0,1,2.2,2.239V149.1Zm-.96-6.5a.64.64,0,1,1-.64.64A.671.671,0,0,1,293.642,142.6Zm1.855,4.2c0-.981-.384-1.386-1.045-1.386a1.171,1.171,0,0,0-1.151,1.322c0,.917.448,1.365,1.45,1.365h.746Zm-.3-4.2a.64.64,0,1,1-.64.64A.671.671,0,0,1,295.2,142.6Z" transform="translate(-292 -142.259)" fill="#acacac"/>
      <path id="Path_1667" data-name="Path 1667" d="M318.6,154.4h2.878a2.714,2.714,0,0,0-2.3-2.729l.32-1.066a3.8,3.8,0,0,1,3.241,3.8h.554v1h-4.669v-1Z" transform="translate(-312.928 -148.553)" fill="#acacac"/>
      <path id="Path_1668" data-name="Path 1668" d="M337.676,155.948c-.192,0-.576-.192-.576-.512,0-.3.384-.512.576-.512h3.39c.021-.235.043-.49.043-.746,0-1.237-.512-1.876-1.9-1.876a5.877,5.877,0,0,0-1.087.107v-1a7.159,7.159,0,0,1,1.215-.107c2.2,0,3.049.959,3.049,2.836a9.837,9.837,0,0,1-.171,1.791h-4.542Z" transform="translate(-327.484 -149.104)" fill="#acacac"/>
      <path id="Path_1669" data-name="Path 1669" d="M368.385,158.115l.085-1.045a8.044,8.044,0,0,0,1.514.171c1,0,1.684-.384,1.684-1.3v-.149H370.9c-1.876,0-2.6-.874-2.6-2.26a2.327,2.327,0,0,1,2.559-2.431,6.355,6.355,0,0,1,2.047.341v3.348h1v1h-1v.021c0,1.343-.874,2.431-3.049,2.431A10.035,10.035,0,0,1,368.385,158.115Zm3.262-5.842a2.338,2.338,0,0,0-.917-.171,1.171,1.171,0,0,0-1.151,1.322c0,.874.448,1.365,1.45,1.365h.618Z" transform="translate(-352.031 -148.947)" fill="#acacac"/>
      <path id="Path_1670" data-name="Path 1670" d="M393.275,154.966c-.171.448-.554.746-1.386.746h-.213c-.192,0-.576-.192-.576-.512,0-.3.384-.512.576-.512h.064c.576,0,.96-.32.96-1.322A2.33,2.33,0,0,1,395.236,151a1.991,1.991,0,0,1,2.2,2.239v1.45h.768v1h-2.772C394.064,155.712,393.616,155.414,393.275,154.966Zm2.921-1.556c0-.981-.384-1.386-1.045-1.386A1.171,1.171,0,0,0,394,153.345c0,.917.448,1.365,1.45,1.365h.746Z" transform="translate(-369.97 -148.868)" fill="#acacac"/>
      <path id="Path_1671" data-name="Path 1671" d="M421.676,147.844c-.192,0-.576-.192-.576-.512,0-.3.384-.512.576-.512h1.151V141h1.279v6.844Z" transform="translate(-393.574 -141)" fill="#acacac"/>
      <path id="Path_1672" data-name="Path 1672" d="M442.5,141h1.279v6.844H442.5Z" transform="translate(-410.411 -141)" fill="#acacac"/>
      <path id="Path_1673" data-name="Path 1673" d="M467,149.1c-1.876,0-2.6-.874-2.6-2.26a2.327,2.327,0,0,1,2.559-2.431,6.355,6.355,0,0,1,2.047.341V148.1h1v1Zm-.917-6.5a.64.64,0,1,1-.64.64A.671.671,0,0,1,466.084,142.6Zm1.706,2.985a2.338,2.338,0,0,0-.917-.171,1.171,1.171,0,0,0-1.151,1.322c0,.874.448,1.365,1.45,1.365h.618Zm-.149-2.985a.64.64,0,1,1-.64.64A.656.656,0,0,1,467.641,142.6Z" transform="translate(-427.641 -142.259)" fill="#acacac"/>
      <path id="Path_1674" data-name="Path 1674" d="M487.4,155.672c0-.3.384-.512.576-.512h1.151V151.6h1.279v3.561h1v1h-3.433A.566.566,0,0,1,487.4,155.672Zm1.578,1.215a.64.64,0,1,1-.64.64A.628.628,0,0,1,488.978,156.888Zm1.556,0a.64.64,0,1,1-.64.64A.628.628,0,0,1,490.534,156.888Z" transform="translate(-445.737 -149.34)" fill="#acacac"/>
      <path id="Path_1675" data-name="Path 1675" d="M502.8,148.591c0-.3.384-.512.576-.512h1.151v-3.561h1.279v3.561h1v1h-3.433A.566.566,0,0,1,502.8,148.591Zm2.367-5.991a.664.664,0,0,1,.661.661.661.661,0,1,1-1.322,0A.664.664,0,0,1,505.167,142.6Z" transform="translate(-457.854 -142.259)" fill="#acacac"/>
      <path id="Path_1676" data-name="Path 1676" d="M518.776,147.844c-.192,0-.576-.192-.576-.512,0-.3.384-.512.576-.512h1.151V141h1.279v2.537a8.206,8.206,0,0,1-.107,1.429h.021a2.626,2.626,0,0,1,2.452-1.812,1.929,1.929,0,0,1,2.047,2.2c0,1.407-.81,2.495-2.964,2.495Zm3.987-1c1.215,0,1.535-.618,1.535-1.407s-.32-1.258-1-1.258c-1.045,0-1.919,1.3-2.111,2.665Z" transform="translate(-469.97 -141)" fill="#acacac"/>
      <path id="Path_1677" data-name="Path 1677" d="M557.585,158.115l.085-1.045a8.044,8.044,0,0,0,1.514.171c1,0,1.684-.384,1.684-1.3v-.149H560.1c-1.876,0-2.6-.874-2.6-2.26a2.327,2.327,0,0,1,2.559-2.431,6.355,6.355,0,0,1,2.047.341v3.348h1v1h-1v.021c0,1.343-.874,2.431-3.049,2.431A10.035,10.035,0,0,1,557.585,158.115Zm3.262-5.842a2.338,2.338,0,0,0-.917-.171,1.171,1.171,0,0,0-1.151,1.322c0,.874.448,1.365,1.45,1.365h.618Z" transform="translate(-500.891 -148.947)" fill="#acacac"/>
      <path id="Path_1678" data-name="Path 1678" d="M580.976,147.844c-.192,0-.576-.192-.576-.512,0-.3.384-.512.576-.512h1.151V141h1.279v6.844Z" transform="translate(-518.908 -141)" fill="#acacac"/>
      <path id="Path_1679" data-name="Path 1679" d="M601.8,141h1.279v6.844H601.8Z" transform="translate(-535.745 -141)" fill="#acacac"/>
      <path id="Path_1680" data-name="Path 1680" d="M626.3,149.1c-1.876,0-2.6-.874-2.6-2.26a2.327,2.327,0,0,1,2.559-2.431,6.355,6.355,0,0,1,2.047.341V148.1h1v1Zm-.917-6.5a.64.64,0,1,1-.64.64A.641.641,0,0,1,625.384,142.6Zm1.684,2.985a2.338,2.338,0,0,0-.917-.171A1.171,1.171,0,0,0,625,146.736c0,.874.448,1.365,1.45,1.365h.618Zm-.128-2.985a.64.64,0,1,1-.64.64A.642.642,0,0,1,626.941,142.6Z" transform="translate(-552.976 -142.259)" fill="#acacac"/>
      <path id="Path_1681" data-name="Path 1681" d="M647.276,155.633c-.192,0-.576-.192-.576-.512,0-.3.384-.512.576-.512h1.151v-3.561h1.279v.235a8.206,8.206,0,0,1-.107,1.429h.021a2.625,2.625,0,0,1,2.452-1.812,1.929,1.929,0,0,1,2.047,2.2,2.442,2.442,0,0,1-.426,1.471h1.045v1h-7.463Zm3.966-1c1.215,0,1.535-.618,1.535-1.407s-.32-1.258-1-1.258c-1.045,0-1.919,1.3-2.111,2.665Z" transform="translate(-571.072 -148.789)" fill="#acacac"/>
      <path id="Path_1682" data-name="Path 1682" d="M681,148.591c0-.3.384-.512.576-.512h1.151v-3.561h1.279v3.561h1v1h-3.433A.566.566,0,0,1,681,148.591Zm2.367-5.991a.664.664,0,0,1,.661.661.661.661,0,1,1-.661-.661Z" transform="translate(-598.058 -142.259)" fill="#acacac"/>
      <path id="Path_1683" data-name="Path 1683" d="M698.575,154.966c-.171.448-.554.746-1.386.746h-.213c-.192,0-.576-.192-.576-.512,0-.3.384-.512.576-.512h.064c.576,0,.959-.32.959-1.322A2.33,2.33,0,0,1,700.536,151a1.991,1.991,0,0,1,2.2,2.239v1.45h.768v1h-2.772C699.342,155.712,698.916,155.414,698.575,154.966Zm2.9-1.556c0-.981-.384-1.386-1.045-1.386a1.171,1.171,0,0,0-1.151,1.322c0,.917.448,1.365,1.45,1.365h.746v-1.3Z" transform="translate(-610.174 -148.868)" fill="#acacac"/>
      <path id="Path_1684" data-name="Path 1684" d="M726.976,147.844c-.192,0-.576-.192-.576-.512,0-.3.384-.512.576-.512h1.151V141h1.279v6.844Z" transform="translate(-633.778 -141)" fill="#acacac"/>
      <path id="Path_1685" data-name="Path 1685" d="M747.8,141h1.279v6.844H747.8Z" transform="translate(-650.615 -141)" fill="#acacac"/>
    </g>
    <g id="Group_23398" data-name="Group 23398" transform="translate(63.989 44.865)">
      <path id="Path_1686" data-name="Path 1686" d="M294.324,208.1c-1.9,0-2.324-1.023-2.324-2.175V202h1.151v3.838c0,.746.256,1.279,1.237,1.279.9,0,1.258-.362,1.258-1.386V202H296.8v3.667A2.17,2.17,0,0,1,294.324,208.1Z" transform="translate(-292 -201.467)" fill="#acacac"/>
      <path id="Path_1687" data-name="Path 1687" d="M322.808,213.678v-2.814c0-.448-.128-.725-.554-.725-.576,0-1.023.64-1.023,1.429V213.7H320.1v-4.414h1.066a5.126,5.126,0,0,1-.064.789h0a1.615,1.615,0,0,1,1.493-.874c1,0,1.322.64,1.322,1.407V213.7h-1.109Z" transform="translate(-314.109 -207.132)" fill="#acacac"/>
      <path id="Path_1688" data-name="Path 1688" d="M344.6,201.365a.683.683,0,1,1,.7-.682A.706.706,0,0,1,344.6,201.365Zm-.576,5.075v-4.414h1.13v4.414Z" transform="translate(-332.834 -199.893)" fill="#acacac"/>
      <path id="Path_1689" data-name="Path 1689" d="M356.256,200.5a1.671,1.671,0,0,0-.554-.085c-.49,0-.725.256-.725.853v.362H356v.874h-1v3.539h-1.13v-3.539H353.1v-.874h.768v-.362a1.538,1.538,0,0,1,1.748-1.77,4.162,4.162,0,0,1,.725.064Z" transform="translate(-340.072 -199.5)" fill="#acacac"/>
      <path id="Path_1690" data-name="Path 1690" d="M370.4,201.365a.683.683,0,1,1,.7-.682A.706.706,0,0,1,370.4,201.365Zm-.576,5.075v-4.414h1.13v4.414Z" transform="translate(-353.133 -199.893)" fill="#acacac"/>
      <path id="Path_1691" data-name="Path 1691" d="M383.881,211.516h-2.729c0,.789.362,1.194,1.215,1.194a3.421,3.421,0,0,0,1.279-.256l.128.853a4.937,4.937,0,0,1-1.6.277,1.966,1.966,0,0,1-2.175-2.26A2.105,2.105,0,0,1,382.09,209a1.7,1.7,0,0,1,1.834,1.876C383.923,211.047,383.9,211.324,383.881,211.516Zm-1.855-1.663a.9.9,0,0,0-.874.917h1.642C382.814,210.173,382.495,209.853,382.026,209.853Z" transform="translate(-361.237 -206.974)" fill="#acacac"/>
      <path id="Path_1692" data-name="Path 1692" d="M404.364,206.282c0-.213.021-.49.043-.746h-.021a1.478,1.478,0,0,1-1.386.832c-1.066,0-1.6-.81-1.6-2.068a2.271,2.271,0,0,1,2.324-2.516,2.432,2.432,0,0,1,.554.043V199.8h1.13v6.482Zm-.064-3.539a3,3,0,0,0-.6-.064c-.64,0-1.109.405-1.109,1.493,0,.832.234,1.258.746,1.258.6,0,.959-.682.959-1.45Z" transform="translate(-378.074 -199.736)" fill="#acacac"/>
      <path id="Path_1693" data-name="Path 1693" d="M438.633,208.013l-1.855-3.3a9.218,9.218,0,0,1-.533-1.173c.043.533.064,1.983.064,2.857v1.62H435.2v-5.991h1.535l1.812,3.22a8.767,8.767,0,0,1,.576,1.194c-.043-.6-.064-2.068-.064-2.921V202h1.109v5.991h-1.535Z" transform="translate(-404.667 -201.467)" fill="#acacac"/>
      <path id="Path_1694" data-name="Path 1694" d="M465.623,213.678a4.261,4.261,0,0,1,.043-.746h0a1.5,1.5,0,0,1-1.407.853A1.186,1.186,0,0,1,463,212.526c0-1.045,1-1.535,2.537-1.535v-.149c0-.533-.213-.768-.789-.768a3.611,3.611,0,0,0-1.322.3l-.192-.874a4.923,4.923,0,0,1,1.663-.3c1.365,0,1.77.576,1.77,1.557v1.812a10.008,10.008,0,0,0,.043,1.13h-1.087Zm-.085-1.962c-1.151,0-1.45.277-1.45.661a.51.51,0,0,0,.533.512,1,1,0,0,0,.917-1.066Z" transform="translate(-426.54 -207.132)" fill="#acacac"/>
      <path id="Path_1695" data-name="Path 1695" d="M485.047,207.862c-.981,0-1.279-.362-1.279-1.386v-2.239H483v-.874h.768V202l1.13-.3v1.663h1.066v.874H484.9v1.94c0,.576.128.725.533.725a1.865,1.865,0,0,0,.512-.064l.085.9A5.386,5.386,0,0,1,485.047,207.862Z" transform="translate(-442.275 -201.231)" fill="#acacac"/>
      <path id="Path_1696" data-name="Path 1696" d="M501.3,201.365a.683.683,0,1,1,.7-.682A.706.706,0,0,1,501.3,201.365Zm-.576,5.075v-4.414h1.13v4.414Z" transform="translate(-456.123 -199.893)" fill="#acacac"/>
      <path id="Path_1697" data-name="Path 1697" d="M512.868,213.684c-1.258,0-2.068-.64-2.068-2.217a2.212,2.212,0,0,1,2.26-2.367c1.258,0,2.068.682,2.068,2.217A2.236,2.236,0,0,1,512.868,213.684Zm.107-3.625c-.512,0-1,.384-1,1.3,0,.9.341,1.365.981,1.365.554,0,1-.448,1-1.343C513.956,210.507,513.636,210.059,512.975,210.059Z" transform="translate(-464.148 -207.053)" fill="#acacac"/>
      <path id="Path_1698" data-name="Path 1698" d="M538.008,213.678v-2.814c0-.448-.128-.725-.554-.725-.576,0-1.023.64-1.023,1.429V213.7H535.3v-4.414h1.066a5.13,5.13,0,0,1-.064.789h0a1.615,1.615,0,0,1,1.492-.874c1,0,1.322.64,1.322,1.407V213.7h-1.109Z" transform="translate(-483.424 -207.132)" fill="#acacac"/>
      <path id="Path_1699" data-name="Path 1699" d="M560.523,213.678a4.27,4.27,0,0,1,.043-.746h0a1.5,1.5,0,0,1-1.407.853,1.186,1.186,0,0,1-1.258-1.258c0-1.045,1-1.535,2.537-1.535v-.149c0-.533-.213-.768-.789-.768a3.61,3.61,0,0,0-1.322.3l-.192-.874a4.923,4.923,0,0,1,1.663-.3c1.365,0,1.77.576,1.77,1.557v1.812a10.008,10.008,0,0,0,.043,1.13h-1.087Zm-.107-1.962c-1.151,0-1.45.277-1.45.661a.51.51,0,0,0,.533.512,1,1,0,0,0,.917-1.066Z" transform="translate(-501.205 -207.132)" fill="#acacac"/>
      <path id="Path_1700" data-name="Path 1700" d="M580.9,206.282V199.8h1.13v6.482Z" transform="translate(-519.301 -199.736)" fill="#acacac"/>
      <path id="Path_1701" data-name="Path 1701" d="M602.678,205.887c-.213,0-.426-.021-.426-.021v2.068H601.1v-5.991s.832-.043,1.684-.043c1.471,0,2.281.661,2.281,1.855A2.148,2.148,0,0,1,602.678,205.887Zm.021-3.028h-.448v2a2.775,2.775,0,0,0,.49.043.979.979,0,0,0,1.109-1.066C603.851,203.222,603.509,202.859,602.7,202.859Z" transform="translate(-535.194 -201.388)" fill="#acacac"/>
      <path id="Path_1702" data-name="Path 1702" d="M623.4,206.282V199.8h1.13v6.482Z" transform="translate(-552.739 -199.736)" fill="#acacac"/>
      <path id="Path_1703" data-name="Path 1703" d="M635.923,213.678a4.258,4.258,0,0,1,.043-.746h0a1.5,1.5,0,0,1-1.407.853,1.186,1.186,0,0,1-1.258-1.258c0-1.045,1-1.535,2.537-1.535v-.149c0-.533-.213-.768-.789-.768a3.61,3.61,0,0,0-1.322.3l-.192-.874a4.922,4.922,0,0,1,1.663-.3c1.365,0,1.77.576,1.77,1.557v1.812a10.022,10.022,0,0,0,.043,1.13h-1.087Zm-.085-1.962c-1.151,0-1.45.277-1.45.661a.51.51,0,0,0,.533.512,1,1,0,0,0,.917-1.066Z" transform="translate(-560.529 -207.132)" fill="#acacac"/>
      <path id="Path_1704" data-name="Path 1704" d="M655.347,207.862c-.981,0-1.279-.362-1.279-1.386v-2.239H653.3v-.874h.768V202l1.13-.3v1.663h1.066v.874H655.2v1.94c0,.576.128.725.533.725a1.866,1.866,0,0,0,.512-.064l.085.9A5.155,5.155,0,0,1,655.347,207.862Z" transform="translate(-576.264 -201.231)" fill="#acacac"/>
      <path id="Path_1705" data-name="Path 1705" d="M672.177,200.5a1.67,1.67,0,0,0-.554-.085c-.49,0-.725.256-.725.853v.362h1.023v.874H670.9v3.539h-1.13v-3.539H669v-.874h.768v-.362a1.538,1.538,0,0,1,1.748-1.77,4.162,4.162,0,0,1,.725.064Z" transform="translate(-588.617 -199.5)" fill="#acacac"/>
      <path id="Path_1706" data-name="Path 1706" d="M686.268,213.684c-1.258,0-2.068-.64-2.068-2.217a2.212,2.212,0,0,1,2.26-2.367c1.258,0,2.068.682,2.068,2.217A2.261,2.261,0,0,1,686.268,213.684Zm.107-3.625c-.512,0-1,.384-1,1.3,0,.9.341,1.365.981,1.365.554,0,1-.448,1-1.343C687.334,210.507,687.036,210.059,686.375,210.059Z" transform="translate(-600.576 -207.053)" fill="#acacac"/>
      <path id="Path_1707" data-name="Path 1707" d="M711.045,210.188c-.81-.149-1.215.362-1.215,1.6v1.791H708.7v-4.414h1.066a5.007,5.007,0,0,1-.085.9h.021a1.343,1.343,0,0,1,1.407-.981Z" transform="translate(-619.852 -207.032)" fill="#acacac"/>
      <path id="Path_1708" data-name="Path 1708" d="M728.809,213.441v-2.793c0-.469-.107-.768-.533-.768-.49,0-1,.576-1,1.429v2.111h-1.109v-2.793c0-.426-.085-.746-.533-.746-.533,0-1,.618-1,1.429v2.111H723.5v-4.414h1.066c0,.213-.021.533-.043.789h0a1.577,1.577,0,0,1,1.45-.9,1.125,1.125,0,0,1,1.215.874,1.563,1.563,0,0,1,1.429-.874c.853,0,1.322.469,1.322,1.471V213.4h-1.13Z" transform="translate(-631.496 -206.896)" fill="#acacac"/>
    </g>
    <g id="XMLID_509_" transform="translate(2.197 2.958)">
      <g id="XMLID_510_" transform="translate(0 0)">
        <path id="Union_13" data-name="Union 13" d="M32.644,53.207a1.168,1.168,0,0,1,.7-1.514,1.18,1.18,0,1,1,.81,2.217,1.341,1.341,0,0,1-.405.064A1.174,1.174,0,0,1,32.644,53.207ZM10.427,50.584a1.175,1.175,0,1,1,1.642-.256,1.154,1.154,0,0,1-1.642.256Zm14.03.064a1.19,1.19,0,0,1-1.13-1.237,1.176,1.176,0,0,1,1.237-1.13,1.189,1.189,0,0,1,1.13,1.237,1.174,1.174,0,0,1-1.173,1.13Zm3.561-1.3a1.183,1.183,0,1,1,1.386.938.877.877,0,0,1-.235.021A1.244,1.244,0,0,1,28.018,49.348Zm-8.465.469a1.129,1.129,0,1,1,.341.064A.966.966,0,0,1,19.553,49.817Zm13.006-1.663a1.173,1.173,0,1,1,1.556.576,1.074,1.074,0,0,1-.49.107A1.215,1.215,0,0,1,32.559,48.154Zm-17.569-.3a1.185,1.185,0,1,1,1.62-.427A1.152,1.152,0,0,1,15.587,48,1.24,1.24,0,0,1,14.99,47.855Zm-8.273-.6a1.161,1.161,0,1,1,.874.384A1.179,1.179,0,0,1,6.717,47.258ZM36.7,45.915a1.182,1.182,0,1,1,1.834-1.492,1.182,1.182,0,0,1-.171,1.663,1.216,1.216,0,0,1-.746.256l-.068,0A1.026,1.026,0,0,1,36.7,45.915Zm-13.2-.171a1.061,1.061,0,1,1,.128.021A.751.751,0,0,0,23.5,45.744Zm3.561-1.109a1.183,1.183,0,1,1,1.386.938.875.875,0,0,1-.235.021A1.164,1.164,0,0,1,27.058,44.636Zm17.761.234a1.2,1.2,0,0,1-.064-1.663,1.177,1.177,0,1,1,.874,1.983A1.145,1.145,0,0,1,44.819,44.87Zm-33.774-.021a1.176,1.176,0,1,1,1.642-1.684,1.178,1.178,0,0,1,.021,1.663,1.2,1.2,0,0,1-.853.362A1.315,1.315,0,0,1,11.045,44.849Zm7.7-.448a1.176,1.176,0,1,1,.49.107A1.453,1.453,0,0,1,18.742,44.4Zm12.751-.981a1.174,1.174,0,1,1,1.6.448,1.162,1.162,0,0,1-.576.149A1.148,1.148,0,0,1,31.493,43.42Zm8.657-.661a1.171,1.171,0,1,1,1.642-.213,1.192,1.192,0,0,1-.938.469A1.487,1.487,0,0,1,40.15,42.759Zm-25.5-1.109a1.161,1.161,0,1,1,.81.32A1.367,1.367,0,0,1,14.649,41.65ZM7.911,40.99a1.19,1.19,0,0,1,.362-1.621,1.178,1.178,0,0,1,1.237,2,1.088,1.088,0,0,1-.618.171A1.187,1.187,0,0,1,7.911,40.99Zm27.4-.107a1.2,1.2,0,0,1-.064-1.663A1.177,1.177,0,1,1,36.12,41.2,1.29,1.29,0,0,1,35.31,40.883ZM1.536,38.815a1.168,1.168,0,0,1,.7-1.514,1.18,1.18,0,1,1,.81,2.217,1.338,1.338,0,0,1-.405.064A1.217,1.217,0,0,1,1.536,38.815Zm41.236.043a1.184,1.184,0,1,1,1.556-.618,1.161,1.161,0,0,1-1.087.7A1.147,1.147,0,0,1,42.772,38.857ZM11.578,37.749a1.174,1.174,0,1,1,1.6.448,1.106,1.106,0,0,1-.576.149h-.051A1.166,1.166,0,0,1,11.578,37.749Zm26.588-.469a1.176,1.176,0,1,1,.49.107A1.076,1.076,0,0,1,38.167,37.279ZM5.8,36.491a1.18,1.18,0,1,1,1.493.746,1.085,1.085,0,0,1-.362.064A1.211,1.211,0,0,1,5.8,36.491Zm22.473.405c-1.109-.576-2.516-1.45-2.537-1.45l-.085-.043-.085.043c-.021,0-1.429.874-2.537,1.45a2.133,2.133,0,0,1-1.045.277c-.7,0-1.194-.384-1.194-.725v-.107a.445.445,0,0,1,.128.043l.064.021a1.258,1.258,0,0,0,.3.043,1.725,1.725,0,0,0,.576-.107,27.807,27.807,0,0,0,2.516-1.471l.192-.128-.192-.128a16.662,16.662,0,0,0-6.4-2.836,2.717,2.717,0,0,1,1.343-.256,10.437,10.437,0,0,1,5.288,2l.192.128.043-.235c.192-1.535.32-4.456.341-6.631a4.774,4.774,0,0,0-2.218,3.582,4.638,4.638,0,0,1-.256-1.535,4.778,4.778,0,0,1,1.578-3.561l.128-.128h-.32a3.775,3.775,0,0,0-3.582,2.772,2.054,2.054,0,0,1-.021-.362,3.717,3.717,0,0,1,3.348-3.731l.149-.021-.107-.107a2.737,2.737,0,0,0-1.77-.9,2.416,2.416,0,0,1,1.151-.277,2.615,2.615,0,0,1,1.62.554l.085.064.021-.085a2.805,2.805,0,0,1,.618-1.066,2.975,2.975,0,0,1,.618,1.066l.021.085.085-.064a2.66,2.66,0,0,1,1.62-.554A2.692,2.692,0,0,1,29.1,22.8a2.84,2.84,0,0,0-1.77.9l-.107.107.149.021a3.687,3.687,0,0,1,3.348,3.731,2.071,2.071,0,0,1-.021.362,3.775,3.775,0,0,0-3.582-2.772H26.8l.128.128a4.778,4.778,0,0,1,1.578,3.561,4.638,4.638,0,0,1-.256,1.535,4.774,4.774,0,0,0-2.218-3.582c.043,2.153.149,5.1.362,6.631l.043.235.192-.128a10.248,10.248,0,0,1,5.288-2,2.787,2.787,0,0,1,1.343.256,16.66,16.66,0,0,0-6.4,2.836l-.192.128.192.128c1.045.64,2.175,1.343,2.516,1.471a1.83,1.83,0,0,0,.576.107,1.259,1.259,0,0,0,.3-.043l.064-.021a.426.426,0,0,1,.192-.043v.107c0,.341-.49.725-1.194.725A2.391,2.391,0,0,1,28.273,36.9ZM.3,34a1.176,1.176,0,1,1,1.343.981A.59.59,0,0,1,1.45,35,1.186,1.186,0,0,1,.3,34Zm44.072.448a1.157,1.157,0,1,1,.213.021A.658.658,0,0,1,44.371,34.444Zm-34.5-1.322a1.183,1.183,0,1,1,1.386.938.874.874,0,0,1-.234.021A1.245,1.245,0,0,1,9.873,33.122Zm29.915-.128a1.18,1.18,0,0,1-1.023-1.322v-.043a1.17,1.17,0,0,1,2.324.277v.064a1.159,1.159,0,0,1-1.173,1.023ZM6.013,32.7a1.174,1.174,0,0,1-.085-2.346,1.16,1.16,0,0,1,1.258,1.087A1.172,1.172,0,0,1,6.1,32.7Zm42.409-1.684v-.064a1.184,1.184,0,0,1,1.215-1.13,1.17,1.17,0,0,1,1.13,1.215v.043A1.175,1.175,0,0,1,49.6,32.2c-.021.021-.021.021-.043.021A1.17,1.17,0,0,1,48.422,31.011ZM0,29.007a1.184,1.184,0,0,1,2.367.085,1.175,1.175,0,0,1-1.173,1.13.078.078,0,0,1-.064.021A1.19,1.19,0,0,1,0,29.007Zm44.776.768A1.167,1.167,0,0,1,43.6,28.687v-.043a1.16,1.16,0,0,1,1.087-1.258,1.172,1.172,0,0,1,1.258,1.087v.043a1.186,1.186,0,0,1-1.087,1.258Zm-34.051-.3a1.063,1.063,0,1,1,.128.021A.318.318,0,0,1,10.725,29.476Zm27.868-2.047a1.175,1.175,0,1,1,1.365.917.875.875,0,0,1-.235.021A1.16,1.16,0,0,1,38.593,27.429ZM6.035,28a1.157,1.157,0,1,1,.213.021A.657.657,0,0,1,6.035,28Zm42.132-1.556a1.176,1.176,0,1,1,1.343.981c-.064,0-.128.021-.192.021A1.185,1.185,0,0,1,48.167,26.448ZM1.557,25.51a1.245,1.245,0,1,1,.277.021.307.307,0,0,1-.075.009A1.075,1.075,0,0,1,1.557,25.51Zm41.172-1.173a1.167,1.167,0,1,1,1.13.81A1.191,1.191,0,0,1,42.729,24.337Zm-31.109.64a1.175,1.175,0,1,1,.49.107A.971.971,0,0,1,11.621,24.977Zm25.522-1.493a1.174,1.174,0,0,1,2.047-1.151,1.18,1.18,0,0,1-.448,1.6,1.108,1.108,0,0,1-.576.149A1.172,1.172,0,0,1,37.143,23.484ZM7.08,23.442a1.184,1.184,0,1,1,1.556-.618,1.161,1.161,0,0,1-1.087.7A1.213,1.213,0,0,1,7.08,23.442Zm39.957-1.365a1.18,1.18,0,1,1,1.514.7,1.341,1.341,0,0,1-.405.064A1.174,1.174,0,0,1,47.037,22.077ZM13.86,20.968a1.161,1.161,0,1,1,.81.32A1.178,1.178,0,0,1,13.86,20.968ZM2.9,20.947a1.176,1.176,0,1,1,.49.107A1.075,1.075,0,0,1,2.9,20.947Zm37.953-.6a1.174,1.174,0,1,1,1.983-1.258,1.171,1.171,0,0,1-.363,1.62,1.086,1.086,0,0,1-.618.171l-.058,0A1.131,1.131,0,0,1,40.853,20.35Zm-6.333-.171a1.179,1.179,0,0,1-.064-1.663,1.16,1.16,0,0,1,1.663-.064,1.183,1.183,0,0,1-.789,2.047A1.291,1.291,0,0,1,34.521,20.179ZM9.19,19.241A1.173,1.173,0,1,1,10.6,17.365a1.16,1.16,0,0,1,.213,1.642,1.192,1.192,0,0,1-.938.469q-.032,0-.066,0A1.024,1.024,0,0,1,9.19,19.241ZM45.054,18a1.178,1.178,0,1,1,1.621.384,1.087,1.087,0,0,1-.618.171H46A1.1,1.1,0,0,1,45.054,18Zm-27.825-.149a1.174,1.174,0,1,1,1.6.448,1.108,1.108,0,0,1-.576.149A1.173,1.173,0,0,1,17.229,17.855Zm13.8-.021a1.176,1.176,0,1,1,.49.107A1.458,1.458,0,0,1,31.024,17.834Zm7.079-.9a1.176,1.176,0,1,1,1.663-.021,1.2,1.2,0,0,1-.853.362A1.265,1.265,0,0,1,38.1,16.938ZM21.386,15.915a1.183,1.183,0,1,1,1.386.938.875.875,0,0,1-.234.021A1.2,1.2,0,0,1,21.386,15.915Zm5.586.768a1.063,1.063,0,1,1,.128.021A.376.376,0,0,1,26.973,16.683Zm22.75-1.706a1.174,1.174,0,0,1,1.983-1.258,1.171,1.171,0,0,1-.362,1.62,1.087,1.087,0,0,1-.618.171l-.058,0A1.131,1.131,0,0,1,49.723,14.977Zm-7.4-.554a1.162,1.162,0,1,1,.874.384A1.367,1.367,0,0,1,42.324,14.422Zm-7.74-.149a1.185,1.185,0,1,1,1.62-.427,1.152,1.152,0,0,1-1.023.576.816.816,0,0,1-.082,0A1.054,1.054,0,0,1,34.585,14.273ZM16.077,12.951a1.174,1.174,0,1,1,1.557.576,1.078,1.078,0,0,1-.49.107A1.168,1.168,0,0,1,16.077,12.951ZM8.1,13.058a1.161,1.161,0,1,1,.853.384A1.362,1.362,0,0,1,8.1,13.058Zm22.431-.533a1.129,1.129,0,1,1,.341.064A1.056,1.056,0,0,1,30.533,12.525Zm-4.328-.7a1.19,1.19,0,0,1-1.13-1.237,1.185,1.185,0,1,1,1.194,1.237Zm12.751-.405A1.175,1.175,0,1,1,40.6,11.16a1.192,1.192,0,0,1-.959.49A1.381,1.381,0,0,1,38.956,11.416Zm-3.9-2.3a1.176,1.176,0,1,1,.49.107A1.023,1.023,0,0,1,35.054,9.113ZM2.112,8.794A1.2,1.2,0,0,1,2.282,7.13,1.2,1.2,0,0,1,3.945,7.3a1.183,1.183,0,0,1-.171,1.663,1.206,1.206,0,0,1-1.663-.171Zm12.175-.7a1.186,1.186,0,0,1,.7-1.514,1.169,1.169,0,0,1,1.514.7,1.186,1.186,0,0,1-.7,1.514,1.341,1.341,0,0,1-.405.064A1.174,1.174,0,0,1,14.286,8.09Zm16.972-.448a1.245,1.245,0,1,1,.277.021A1.125,1.125,0,0,1,31.258,7.642ZM20.448,6.3a1.176,1.176,0,1,1,1.343.981c-.064,0-.128.021-.192.021A1.2,1.2,0,0,1,20.448,6.3ZM31.727,2.312a1.129,1.129,0,1,1,.341.064C31.941,2.354,31.834,2.333,31.727,2.312Z" fill="url(#linear-gradient)"/>
      </g>
    </g>
  </g>
</svg>
