<svg xmlns="http://www.w3.org/2000/svg" width="26" height="26" viewBox="0 0 26 26">
  <path id="help-icon" d="M17.211,7.207a4.8,4.8,0,0,1,1.13,3.872,3.913,3.913,0,0,1-4.07,3.674H14.13v.678a1.13,1.13,0,0,1-2.261,0v-.9c0-.933.4-2.035,2.4-2.035a1.66,1.66,0,0,0,1.809-1.7A2.624,2.624,0,0,0,15.487,8.7a3.369,3.369,0,0,0-2.6-.9c-2.543,0-2.628,1.667-2.628,1.837A1.13,1.13,0,0,1,8,9.637c0-1.13.876-4.1,4.889-4.1A5.489,5.489,0,0,1,17.211,7.207Zm-4.3,10.315a1.326,1.326,0,0,0-.989.424,1.439,1.439,0,0,0-.424.989,1.326,1.326,0,0,0,.424.989,1.439,1.439,0,0,0,.989.424,1.326,1.326,0,0,0,.989-.424,1.439,1.439,0,0,0,.424-.989,1.326,1.326,0,0,0-.424-.989A1.387,1.387,0,0,0,12.915,17.522ZM26,13A13,13,0,1,1,13,0,13,13,0,0,1,26,13Zm-2.261,0A10.739,10.739,0,1,0,13,23.739,10.734,10.734,0,0,0,23.739,13Z" fill="#58595b"/>
</svg>
