<svg xmlns="http://www.w3.org/2000/svg" width="70.456" height="54.498" viewBox="0 0 70.456 54.498">
  <g id="icon-2" transform="translate(8.093 -0.744)">
    <g id="Group_23454" data-name="Group 23454" transform="translate(-8.093 0.744)">
      <g id="Group_32" data-name="Group 32" transform="translate(0 0)">
        <g id="Group_31" data-name="Group 31">
          <path id="Path_140" data-name="Path 140" d="M67.761,73.249l-1.536-1.626-5.39-14.528A6.321,6.321,0,0,0,54.95,53H16.455a6.3,6.3,0,0,0-5.886,4.095L5.254,71.442,3.041,73.489A8.65,8.65,0,0,0,0,80.068v21.167A6.293,6.293,0,0,0,6.293,107.5h3.974a6.293,6.293,0,0,0,6.293-6.263V98.164H53.9v3.071a6.293,6.293,0,0,0,6.293,6.263h3.974a6.293,6.293,0,0,0,6.293-6.263V79.511A8.73,8.73,0,0,0,67.761,73.249ZM13.4,58.119a3.256,3.256,0,0,1,3.056-2.108h38.51a3.278,3.278,0,0,1,3.056,2.108l4.7,12.646H59.21a10.326,10.326,0,0,0-20.429,0H8.7Zm42.74,12.646H41.822a7.313,7.313,0,0,1,14.317,0Zm-42.59,30.471a3.274,3.274,0,0,1-3.282,3.252H6.293a3.274,3.274,0,0,1-3.282-3.252V97.291a6.114,6.114,0,0,0,3.282.873h7.256Zm53.9,0a3.274,3.274,0,0,1-3.282,3.252H60.189a3.283,3.283,0,0,1-3.282-3.252V98.164h7.256a6.114,6.114,0,0,0,3.282-.873Zm-3.282-6.082H6.293a3.248,3.248,0,0,1-3.282-3.222V80.068a5.652,5.652,0,0,1,2-4.306l.06-.06,2.047-1.927H64.133l1.445,1.551c.015.03.06.045.075.075a5.674,5.674,0,0,1,1.776,4.11v12.42h.015A3.258,3.258,0,0,1,64.163,95.153Z" transform="translate(0 -53)" fill="#0096b6"/>
        </g>
      </g>
      <g id="Group_34" data-name="Group 34" transform="translate(7.076 26.797)">
        <g id="Group_33" data-name="Group 33" transform="translate(0 0)">
          <path id="Path_141" data-name="Path 141" d="M59.8,231H48.505A1.51,1.51,0,0,0,47,232.505v7.828a1.51,1.51,0,0,0,1.505,1.505H59.8a1.51,1.51,0,0,0,1.505-1.505v-7.828A1.51,1.51,0,0,0,59.8,231Zm-1.505,7.828h-8.28v-4.818h8.28Z" transform="translate(-47 -231)" fill="#0096b6"/>
        </g>
      </g>
      <g id="Group_36" data-name="Group 36" transform="translate(49.078 26.797)">
        <g id="Group_35" data-name="Group 35" transform="translate(0 0)">
          <path id="Path_142" data-name="Path 142" d="M338.8,231H327.505A1.51,1.51,0,0,0,326,232.505v7.828a1.51,1.51,0,0,0,1.505,1.505H338.8a1.51,1.51,0,0,0,1.505-1.505v-7.828A1.51,1.51,0,0,0,338.8,231Zm-1.506,7.828h-8.28v-4.818h8.28Z" transform="translate(-326 -231)" fill="#0096b6"/>
        </g>
      </g>
      <g id="Group_38" data-name="Group 38" transform="translate(26.451 33.12)">
        <g id="Group_37" data-name="Group 37" transform="translate(0 0)">
          <path id="Path_143" data-name="Path 143" d="M191.748,273H177.205a1.506,1.506,0,0,0,0,3.011h14.543a1.506,1.506,0,0,0,0-3.011Z" transform="translate(-175.7 -273)" fill="#0096b6"/>
        </g>
      </g>
      <g id="Group_40" data-name="Group 40" transform="translate(26.451 28.453)">
        <g id="Group_39" data-name="Group 39">
          <path id="Path_144" data-name="Path 144" d="M191.748,242H177.205a1.505,1.505,0,1,0,0,3.011h14.543a1.505,1.505,0,0,0,0-3.011Z" transform="translate(-175.7 -242)" fill="#0096b6"/>
        </g>
      </g>
    </g>
  </g>
</svg>
