<svg id="icon-1" xmlns="http://www.w3.org/2000/svg" width="58.056" height="55.985" viewBox="0 0 58.056 55.985">
  <g id="Group_42" data-name="Group 42">
    <path id="Path_145" data-name="Path 145" d="M56.809,6.227H13.876a1.247,1.247,0,0,0-1.247,1.247V32.266H1.247A1.247,1.247,0,0,0,0,33.513V54.65a7.57,7.57,0,0,0,7.562,7.562H50.494a7.571,7.571,0,0,0,7.562-7.562V7.474A1.247,1.247,0,0,0,56.809,6.227ZM2.494,54.65V34.76H12.629V54.65a5.068,5.068,0,1,1-10.135,0Zm53.068,0a5.074,5.074,0,0,1-5.068,5.068H13.169a7.534,7.534,0,0,0,1.954-5.068V8.721H55.562Z" transform="translate(0 -6.227)" fill="#0096b6"/>
    <path id="Path_146" data-name="Path 146" d="M195.77,80.349h15.983a1.247,1.247,0,1,0,0-2.494H195.77a1.247,1.247,0,1,0,0,2.494Z" transform="translate(-162.179 -65.945)" fill="#0096b6"/>
    <path id="Path_147" data-name="Path 147" d="M195.77,162.742h15.983a1.247,1.247,0,0,0,0-2.494H195.77a1.247,1.247,0,1,0,0,2.494Z" transform="translate(-162.179 -134.638)" fill="#0096b6"/>
    <path id="Path_148" data-name="Path 148" d="M195.77,245.137h15.983a1.247,1.247,0,1,0,0-2.494H195.77a1.247,1.247,0,1,0,0,2.494Z" transform="translate(-162.179 -203.333)" fill="#0096b6"/>
    <path id="Path_149" data-name="Path 149" d="M117.2,53.13a1.248,1.248,0,0,0,.907.391h.01a1.247,1.247,0,0,0,.911-.406l6.85-7.5a1.247,1.247,0,0,0-1.842-1.682L118.1,50.442l-1.85-1.96a1.247,1.247,0,0,0-1.814,1.712Z" transform="translate(-95.121 -37.323)" fill="#0096b6"/>
    <path id="Path_150" data-name="Path 150" d="M124.04,129.9l-5.945,6.51-1.851-1.959a1.247,1.247,0,1,0-1.813,1.712L117.2,139.1a1.248,1.248,0,0,0,.907.391h.01a1.247,1.247,0,0,0,.911-.406l6.85-7.5a1.247,1.247,0,1,0-1.842-1.682Z" transform="translate(-95.121 -109.001)" fill="#0096b6"/>
    <path id="Path_151" data-name="Path 151" d="M124.04,215.877l-5.945,6.51-1.851-1.959a1.247,1.247,0,1,0-1.813,1.712l2.773,2.936a1.248,1.248,0,0,0,.907.391h.01a1.248,1.248,0,0,0,.911-.406l6.85-7.5a1.247,1.247,0,0,0-1.842-1.682Z" transform="translate(-95.121 -180.679)" fill="#0096b6"/>
  </g>
</svg>
