<svg xmlns="http://www.w3.org/2000/svg" width="54.977" height="54.977" viewBox="0 0 54.977 54.977">
  <g id="icon-3" transform="translate(-0.001 -0.001)">
    <g id="Union_2" data-name="Union 2" transform="translate(0 0)" fill="none">
      <path d="M32.551,54.576,27.49,51.654l-5.061,2.922a3,3,0,0,1-4.1-1.1l-2.922-5.062H9.563a3,3,0,0,1-3-3V39.571L1.5,36.649a3,3,0,0,1-1.1-4.1L3.326,27.49.4,22.428a3,3,0,0,1,1.1-4.1l5.062-2.922V9.563a3,3,0,0,1,3-3h5.845L18.33,1.5a3,3,0,0,1,4.1-1.1L27.49,3.326,32.551.4a3,3,0,0,1,4.1,1.1l2.922,5.062h5.845a3,3,0,0,1,3,3v5.845l5.062,2.922a3,3,0,0,1,1.1,4.1L51.654,27.49l2.922,5.062a3,3,0,0,1-1.1,4.1l-5.062,2.922v5.844a3,3,0,0,1-3,3H39.572L36.65,53.478a3,3,0,0,1-4.1,1.1Z" stroke="none"/>
      <path d="M 20.92907333374023 51.97782516479492 L 27.49004936218262 48.18966293334961 L 34.05121994018555 51.97771835327148 C 34.05148315429688 51.97765350341797 34.05174255371094 51.97758102416992 34.052001953125 51.97750473022461 L 37.83995056152344 45.41640090942383 L 45.41642379760742 45.41625213623047 C 45.41641235351562 45.4161262512207 45.41640472412109 45.41598129272461 45.41640090942383 45.41580200195312 L 45.41640090942383 37.83935165405273 L 51.97770309448242 34.05083465576172 L 48.18968963623047 27.48960113525391 L 51.97766876220703 20.92818069458008 L 45.41640090942383 17.13995170593262 L 45.41622924804688 9.562801361083984 L 37.83995056152344 9.562801361083984 L 34.05173492431641 3.001564025878906 C 34.05149459838867 3.001499176025391 34.05125427246094 3.001438140869141 34.0510139465332 3.001381874084473 L 27.48968887329102 6.789751052856445 L 20.92817497253418 3.001559019088745 L 17.14015007019043 9.562801361083984 L 9.563673973083496 9.56295108795166 C 9.563687324523926 9.563074111938477 9.563695907592773 9.563222885131836 9.563699722290039 9.563401222229004 L 9.563699722290039 17.13985061645508 L 3.00239372253418 20.92836761474609 L 6.790409564971924 27.48960113525391 L 3.002443552017212 34.051025390625 L 9.563699722290039 37.83935165405273 L 9.563869476318359 45.41640090942383 L 17.14015007019043 45.41640090942383 L 20.92837524414062 51.9776496887207 C 20.92860794067383 51.97771072387695 20.92884254455566 51.9777717590332 20.92907333374023 51.97782516479492 M 20.93151473999023 54.97819519042969 C 19.89459800720215 54.97820663452148 18.88630676269531 54.4402961730957 18.33029937744141 53.47800064086914 L 15.4080696105957 48.41640090942383 L 9.563399314880371 48.41640090942383 C 7.90649938583374 48.41640090942383 6.563699245452881 47.07270050048828 6.563699245452881 45.41580200195312 L 6.563699245452881 39.57136154174805 L 1.502099394798279 36.64890289306641 C 0.06659936159849167 35.82089996337891 -0.4248006343841553 33.98580169677734 0.4040993750095367 32.55120086669922 L 3.326329469680786 27.48960113525391 L 0.4040993750095367 22.42800140380859 C -0.4248006343841553 20.99340057373047 0.06749936193227768 19.15830039978027 1.502099394798279 18.33030128479004 L 6.563699245452881 15.40784072875977 L 6.563699245452881 9.563401222229004 C 6.563699245452881 7.906501293182373 7.90649938583374 6.562801361083984 9.563399314880371 6.562801361083984 L 15.4080696105957 6.562801361083984 L 18.33029937744141 1.501201152801514 C 19.15830039978027 0.06660182029008865 20.99340057373047 -0.4247996509075165 22.42799949645996 0.4032011330127716 L 27.48966979980469 3.325621128082275 L 32.55120086669922 0.4032011330127716 C 33.98669052124023 -0.424796462059021 35.82089233398438 0.0665990337729454 36.64979934692383 1.501201152801514 L 39.57202911376953 6.562801361083984 L 45.41669845581055 6.562801361083984 C 47.07360076904297 6.562801361083984 48.41640090942383 7.906501293182373 48.41640090942383 9.563401222229004 L 48.41640090942383 15.40792083740234 L 53.47800064086914 18.33030128479004 C 54.91259765625 19.15830039978027 55.40489959716797 20.99340057373047 54.57600021362305 22.42800140380859 L 51.65377044677734 27.48960113525391 L 54.57600021362305 32.55120086669922 C 55.40489959716797 33.98580169677734 54.91259765625 35.82089996337891 53.47800064086914 36.64890289306641 L 48.41640090942383 39.57136154174805 L 48.41640090942383 45.41580200195312 C 48.41640090942383 47.07270050048828 47.07360076904297 48.41640090942383 45.41669845581055 48.41640090942383 L 39.57202911376953 48.41640090942383 L 36.64979934692383 53.47800064086914 C 35.82090759277344 54.91260147094727 33.98669052124023 55.40400314331055 32.55120086669922 54.57600021362305 L 27.49004936218262 51.65380096435547 L 22.42889976501465 54.57600021362305 C 21.956298828125 54.84859848022461 21.44044494628906 54.97818756103516 20.93151473999023 54.97819519042969 Z" stroke="none" fill="#0096b6"/>
    </g>
    <path id="Path_152" data-name="Path 152" d="M18.3,7.392H0V0" transform="translate(19.985 27.649) rotate(-45)" fill="none" stroke="#0096b6" stroke-linecap="round" stroke-width="5"/>
  </g>
</svg>
