<svg id="icon-4" xmlns="http://www.w3.org/2000/svg" width="55.736" height="55.737" viewBox="0 0 55.736 55.737">
  <g id="Group_46" data-name="Group 46" transform="translate(0 12.773)">
    <g id="Group_45" data-name="Group 45">
      <path id="Path_153" data-name="Path 153" d="M31.611,151.588,19.743,133.241V118.494a1.161,1.161,0,0,0-1.161-1.161H12.776a1.161,1.161,0,0,0-1.161,1.161v14.779L.794,151.669A5.725,5.725,0,0,0,5.727,160.3H26.873a5.644,5.644,0,0,0,4.739-8.709Zm-4.739,6.387H5.727a3.4,3.4,0,0,1-2.938-5.128l10.987-18.668a1.161,1.161,0,0,0,.16-.589V119.655h3.484V133.59a1.161,1.161,0,0,0,.186.631l12.053,18.629a3.321,3.321,0,0,1-2.787,5.125Z" transform="translate(-0.003 -117.333)" fill="#0096b6"/>
    </g>
  </g>
  <g id="Group_48" data-name="Group 48" transform="translate(4.705 32.583)">
    <g id="Group_47" data-name="Group 47">
      <path id="Path_154" data-name="Path 154" d="M55.244,300.483l-2-1.176-9.86,16.759a1.161,1.161,0,0,0,1,1.75h8.067v-2.322H46.413Z" transform="translate(-43.222 -299.307)" fill="#0096b6"/>
    </g>
  </g>
  <g id="Group_50" data-name="Group 50" transform="translate(30.191 26.707)">
    <g id="Group_49" data-name="Group 49">
      <path id="Path_155" data-name="Path 155" d="M300.078,245.333h-18.1a4.645,4.645,0,0,0-4.645,4.645v18.579a5.813,5.813,0,0,0,5.806,5.806h10.451a5.813,5.813,0,0,0,5.806-5.806V252.781l2.664-2.663a2.8,2.8,0,0,0-1.983-4.785Zm.34,3.143-3,3a1.161,1.161,0,0,0-.34.821v16.257a3.484,3.484,0,0,1-3.484,3.484H283.141a3.484,3.484,0,0,1-3.484-3.484V249.978a2.322,2.322,0,0,1,2.322-2.322h18.1a.481.481,0,0,1,.34.821Z" transform="translate(-277.335 -245.333)" fill="#0096b6"/>
    </g>
  </g>
  <g id="Group_52" data-name="Group 52" transform="translate(41.802 33.674)">
    <g id="Group_51" data-name="Group 51">
      <path id="Path_156" data-name="Path 156" d="M387.486,309.333v15.1H384v2.322h4.645a1.161,1.161,0,0,0,1.161-1.161V309.333Z" transform="translate(-384.002 -309.333)" fill="#0096b6"/>
    </g>
  </g>
  <g id="Group_54" data-name="Group 54" transform="translate(17.998)">
    <g id="Group_53" data-name="Group 53">
      <path id="Path_157" data-name="Path 157" d="M179.85,16.819V1.161A1.161,1.161,0,0,0,178.689,0H170.56A1.161,1.161,0,0,0,169.4,1.161V17.148a19.711,19.711,0,0,0-4.064,1.773l1.161,2.01a17.4,17.4,0,0,1,4.354-1.78,1.161,1.161,0,0,0,.871-1.125V2.322h5.806V17.756a1.161,1.161,0,0,0,.944,1.14A17.434,17.434,0,0,1,188.8,25.112l1.81-1.454A19.769,19.769,0,0,0,179.85,16.819Z" transform="translate(-165.335)" fill="#0096b6"/>
    </g>
  </g>
  <g id="Group_60" data-name="Group 60" transform="translate(42.874 12.719)">
    <g id="Group_59" data-name="Group 59">
      <path id="Path_160" data-name="Path 160" d="M4.066,85.333A4.064,4.064,0,1,0,8.13,89.4,4.064,4.064,0,0,0,4.066,85.333Zm0,5.806A1.742,1.742,0,1,1,5.808,89.4,1.742,1.742,0,0,1,4.066,91.139Z" transform="translate(-0.002 -85.333)" fill="#0096b6"/>
    </g>
  </g>
  <g id="Group_62" data-name="Group 62" transform="translate(48.68 4.591)">
    <g id="Group_61" data-name="Group 61">
      <path id="Path_161" data-name="Path 161" d="M56.819,10.667A3.484,3.484,0,1,0,60.3,14.151,3.484,3.484,0,0,0,56.819,10.667Zm0,4.645a1.161,1.161,0,1,1,1.161-1.161A1.161,1.161,0,0,1,56.819,15.312Z" transform="translate(-53.335 -10.667)" fill="#0096b6"/>
    </g>
  </g>
  <g id="Group_64" data-name="Group 64" transform="translate(34.835 33.674)">
    <g id="Group_63" data-name="Group 63">
      <rect id="Rectangle_109" data-name="Rectangle 109" width="3.484" height="2.322" fill="#0096b6"/>
    </g>
  </g>
  <g id="Group_66" data-name="Group 66" transform="translate(34.835 38.319)">
    <g id="Group_65" data-name="Group 65">
      <rect id="Rectangle_110" data-name="Rectangle 110" width="2.322" height="2.322" fill="#0096b6"/>
    </g>
  </g>
  <g id="Group_68" data-name="Group 68" transform="translate(34.835 42.964)">
    <g id="Group_67" data-name="Group 67">
      <rect id="Rectangle_111" data-name="Rectangle 111" width="3.484" height="2.322" fill="#0096b6"/>
    </g>
  </g>
  <g id="Group_70" data-name="Group 70" transform="translate(34.835 47.608)">
    <g id="Group_69" data-name="Group 69">
      <rect id="Rectangle_112" data-name="Rectangle 112" width="2.322" height="2.322" fill="#0096b6"/>
    </g>
  </g>
  <g id="Group_76" data-name="Group 76" transform="translate(25.546 31.352)">
    <g id="Group_75" data-name="Group 75">
      <rect id="Rectangle_115" data-name="Rectangle 115" width="2.322" height="2.322" fill="#0096b6"/>
    </g>
  </g>
  <g id="Group_78" data-name="Group 78" transform="translate(23.223 26.707)">
    <g id="Group_77" data-name="Group 77">
      <rect id="Rectangle_116" data-name="Rectangle 116" width="2.322" height="2.322" fill="#0096b6"/>
    </g>
  </g>
  <g id="Group_80" data-name="Group 80" transform="translate(22.062 22.062)">
    <g id="Group_79" data-name="Group 79">
      <rect id="Rectangle_117" data-name="Rectangle 117" width="2.322" height="2.322" fill="#0096b6"/>
    </g>
  </g>
  <g id="Group_82" data-name="Group 82" transform="translate(23.223 47.608)">
    <g id="Group_81" data-name="Group 81">
      <rect id="Rectangle_118" data-name="Rectangle 118" width="2.322" height="2.322" fill="#0096b6"/>
    </g>
  </g>
  <g id="Group_84" data-name="Group 84" transform="translate(19.74 42.964)">
    <g id="Group_83" data-name="Group 83">
      <rect id="Rectangle_119" data-name="Rectangle 119" width="2.322" height="2.322" fill="#0096b6"/>
    </g>
  </g>
</svg>
