<svg xmlns="http://www.w3.org/2000/svg" xmlns:xlink="http://www.w3.org/1999/xlink" width="304.694" height="263.563" viewBox="0 0 304.694 263.563">
  <defs>
    <linearGradient id="linear-gradient" x1="0.5" y1="1" x2="0.5" gradientUnits="objectBoundingBox">
      <stop offset="0" stop-color="gray" stop-opacity="0.251"/>
      <stop offset="0.54" stop-color="gray" stop-opacity="0.122"/>
      <stop offset="1" stop-color="gray" stop-opacity="0.102"/>
    </linearGradient>
  </defs>
  <g id="join-us-bg" transform="translate(0.616 -3.636)">
    <rect id="Rectangle_11259" data-name="Rectangle 11259" width="218.444" height="263.563" rx="10" transform="translate(42.51 3.636)" fill="url(#linear-gradient)"/>
    <g id="Group_23443" data-name="Group 23443" transform="translate(24)">
      <rect id="Rectangle_11260" data-name="Rectangle 11260" width="212.861" height="256.828" rx="14" transform="translate(21.302 7.007)" fill="#fff"/>
      <rect id="Rectangle_11261" data-name="Rectangle 11261" width="134.544" height="4.187" transform="translate(55.301 35.97)" fill="#c0bccf"/>
      <rect id="Rectangle_11262" data-name="Rectangle 11262" width="134.544" height="4.187" transform="translate(55.301 49.23)" fill="#c0bccf"/>
      <rect id="Rectangle_11263" data-name="Rectangle 11263" width="70.007" height="4.187" transform="translate(87.57 62.49)" fill="#0096b6"/>
      <rect id="Rectangle_11267" data-name="Rectangle 11267" width="134.544" height="4.187" transform="translate(55.301 204.165)" fill="#c0bccf" opacity="0.5"/>
      <rect id="Rectangle_11268" data-name="Rectangle 11268" width="134.544" height="4.187" transform="translate(55.301 217.425)" fill="#c0bccf" opacity="0.5"/>
      <rect id="Rectangle_11269" data-name="Rectangle 11269" width="70.007" height="4.187" transform="translate(87.57 230.685)" fill="#0096b6" opacity="0.5"/>
    </g>
    <path id="Path_1712" data-name="Path 1712" d="M196.946,164.393Z" transform="translate(-42.95 -10.076)" fill="#e3e7ef"/>
    <g id="Group_23442" data-name="Group 23442" transform="translate(8.384 54.155)">
      <path id="Path_3921" data-name="Path 3921" d="M249.029,149.334,216,161.484l.889,2.167h0l-3.552,1.3-17.194,6.307.561,1.625-4.039,1.492-11.384,4.208L144.618,174.9a7.876,7.876,0,0,0-4.536.91l-18.2,9.846-17.788,4.122-9.651-4.218-3.467-1.515L92,181.811l-16.332-7.866-3.58-1.724,0,0,1.1-2.064L41.49,154.85,0,129.764V213.45l3.761,2.2,0,0a5.86,5.86,0,0,0,6.6,3.855l0,0L38.36,235.853l8.256-15.578,7.431,3.374L69.58,230.7l2.148-4.685,7.192,3.445,4.858,2.327c2.678,1.975,7.084,5.48,11.246,8.842a2.6,2.6,0,0,0-2.032.482c-2.927,2.074.743,9.169,4.643,10.976a5.987,5.987,0,0,0,3.335.571,4.528,4.528,0,0,0,2.522-1.175c-.337.992-.595,1.931-.791,2.76a6.412,6.412,0,0,0,4.835,7.765,12.09,12.09,0,0,0,7.1-1.049s-.631,2.675,2.419,5.26c.217.185.451.367.707.549a10.067,10.067,0,0,0,8.785,1.069,6.1,6.1,0,0,0,2.394,3.881,7.011,7.011,0,0,0,.6.4l0,0,.122.068a7.761,7.761,0,0,0,1.262.591c.064.023.122.041.184.063,1.753.666,4.678,1.35,7.216-.123,2.363-1.372,4.295-2.542,5.46-3.257a18,18,0,0,0,8.212,1.947,5.687,5.687,0,0,0,4.737-2.383,9.382,9.382,0,0,0,1.608-4.01,11.018,11.018,0,0,0,2.852,1.619,8.363,8.363,0,0,0,8.943-2.464,9.4,9.4,0,0,0,.839-1.155,6.39,6.39,0,0,0,.7-5.943l0,0c1.913.63,8.871.235,11.131-4.915.017-.037.031-.071.045-.107,2.145-5.048-.869-9.649-.939-9.757,7.6,4.253,11.346,1.458,13.153-1.2,1.341-1.972,1.436-5.039,1.4-6.488,0-.029,0-.06-.005-.089a3.8,3.8,0,0,0-.321-1.355l0,0-1.717-3.853s1.324-.741,3.231-2.049c.314-.215.646-.447.988-.692l.225-.164c.274-.2.549-.4.836-.613.106-.08.216-.167.323-.249.262-.2.522-.4.79-.61.129-.1.26-.212.39-.316.251-.2.5-.4.756-.618.147-.123.294-.254.441-.381.239-.206.478-.41.717-.625.162-.145.321-.3.482-.444.224-.206.446-.412.667-.625.173-.167.342-.339.513-.511.205-.205.41-.409.611-.621.179-.187.353-.381.528-.573.136-.148.276-.292.409-.443.107-.123.215-.245.321-.37l5.449-1.993,1.62,4.69,17.259-5.891,6.605-2.255v0l6.7,16.3,42.419-19.524V131.3ZM104.415,248.29l.285.234c-.064.132-.123.264-.183.4A5.543,5.543,0,0,0,104.415,248.29Z" transform="translate(0 -123.292)" fill="#092830" opacity="0.25" style="mix-blend-mode: multiply;isolation: isolate"/>
      <g id="Group_2318" data-name="Group 2318">
        <path id="Path_3922" data-name="Path 3922" d="M225.914,356.74s4.863,2.873,8.784.6,6.668-4,6.668-4l-8.615-5.053Z" transform="translate(-96.377 -214.385)" fill="#fab29a"/>
        <path id="Path_3923" data-name="Path 3923" d="M225.914,356.74s4.863,2.873,8.784.6,6.668-4,6.668-4l-8.615-5.053Z" transform="translate(-96.377 -214.385)" fill="#cc8a79" opacity="0.5" style="mix-blend-mode: multiply;isolation: isolate"/>
        <path id="Path_3924" data-name="Path 3924" d="M224.075,258.115c-1.806,2.655-5.55,5.453-13.154,1.2a.071.071,0,0,1,.011.017,11.372,11.372,0,0,1,1.411,8.3,9.292,9.292,0,0,1-.482,1.445c-.017.034-.029.069-.046.1-2.259,5.155-9.214,5.545-11.13,4.914v.006a6.375,6.375,0,0,1-.7,5.94,9.958,9.958,0,0,1-.843,1.158,8.354,8.354,0,0,1-8.939,2.46,10.966,10.966,0,0,1-2.855-1.617,9.389,9.389,0,0,1-1.605,4.008,5.679,5.679,0,0,1-4.736,2.385,19.473,19.473,0,0,1-9.954-2.827c-.757-.407-1.531-.854-2.345-1.336-1.049-.625-2.162-1.307-3.36-2.041-6.267-3.836-30.653-15.871-30.653-15.871s-4.507-3.727-9.656-7.89c-4.438-3.6-9.352-7.523-12.248-9.656l-4.857-2.328-14.174-6.789L87.11,236.5l-19.1-9.145,26.261-37.534,12.947,5.659,16.238,7.093,9.65,4.22,22-5.1,5.269-1.239,17.637,11.181,43.664,27.689,1.743,7,1.72,3.853.006.006a3.8,3.8,0,0,1,.321,1.353.5.5,0,0,0,.006.092C225.514,253.075,225.417,256.142,224.075,258.115Z" transform="translate(-29.014 -146.786)" fill="#fac49a"/>
        <path id="Path_3925" data-name="Path 3925" d="M187.865,317.468c-1.049-.624-2.159-1.308-3.361-2.042-6.267-3.833-30.649-15.867-30.649-15.867s-4.512-3.729-9.656-7.895c-4.442-3.6-9.355-7.518-12.249-9.652l-4.858-2.327-14.176-6.791,3.009-5.242,21.442,10.12s26.614,22.417,34.3,27.253,15.915,11.131,15.915,11.131Z" transform="translate(-48.171 -179.987)" fill="#c4978c" opacity="0.17" style="mix-blend-mode: multiply;isolation: isolate"/>
        <path id="Path_3926" data-name="Path 3926" d="M137.664,206.788l-15.52,43.905-20.827-9.977,20.11-41.023Z" transform="translate(-43.223 -150.996)" fill="#c4978c" opacity="0.12" style="mix-blend-mode: multiply;isolation: isolate"/>
        <path id="Path_3927" data-name="Path 3927" d="M276.452,258.1l0,0-1.717-3.853-1.744-6.994-43.663-27.689h0l-17.639-11.186-5.267,1.238-3.32,4.773L188.276,234.7s2.533,6.37,10.656,5.687,14.984-11.953,17.851-13.294c1.139-.532,7.5,1.733,15.383,5.06,11.648,6.45,34.372,19.107,39.212,22.362a21.859,21.859,0,0,1,5.394,4.933A3.8,3.8,0,0,0,276.452,258.1Z" transform="translate(-80.321 -154.698)" fill="#c4978c" opacity="0.2" style="mix-blend-mode: multiply;isolation: isolate"/>
        <path id="Path_3928" data-name="Path 3928" d="M303.44,309.781c-4.581-3.217-12.288-8.463-16.221-11.158-6.445-4.415-5.642-9.988-5.642-9.988l20.441,12.832a.076.076,0,0,1,.011.017A11.372,11.372,0,0,1,303.44,309.781Z" transform="translate(-120.11 -188.939)" fill="#c4978c" opacity="0.5" style="mix-blend-mode: multiply;isolation: isolate"/>
        <path id="Path_3929" data-name="Path 3929" d="M285.532,333.912c-3.259-2.2-8.6-5.806-11.853-8.015-4.929-3.348-5.144-9.786-5.144-9.786l17.7,11.857,0,0A6.39,6.39,0,0,1,285.532,333.912Z" transform="translate(-114.56 -200.661)" fill="#c4978c" opacity="0.5" style="mix-blend-mode: multiply;isolation: isolate"/>
        <path id="Path_3930" data-name="Path 3930" d="M264.834,343.93a9.381,9.381,0,0,1-1.608,4.01A106.475,106.475,0,0,1,253.7,341.7c-4.287-3.331-4.065-6.8-4.065-6.8Z" transform="translate(-106.496 -208.679)" fill="#c4978c" opacity="0.5" style="mix-blend-mode: multiply;isolation: isolate"/>
        <path id="Path_3931" data-name="Path 3931" d="M338.093,205.224,301.37,218.659l-14.92,5.458c-.105.124-.213.247-.321.37a47.543,47.543,0,0,1-8.677,7.485c-1.907,1.308-3.231,2.049-3.231,2.049l-1.034-1.326a13.74,13.74,0,0,0-3.781-3.343l-6.229-3.733-11.795-7.072-2.2-1.317-1.409-.844-25-14.989a4.241,4.241,0,0,0-3.051-.514,4.419,4.419,0,0,0-.511.141l-7.2,2.484-.411.141a4.022,4.022,0,0,0-.412.169,4.222,4.222,0,0,0-1.223.863,4.14,4.14,0,0,0-.561.707c-5.507,8.7-11.242,11.42-15.547,11.935a13.241,13.241,0,0,1-1.553.1,12.825,12.825,0,0,1-2.936-.321,2.968,2.968,0,0,1-2.073-4L195.12,196a7.87,7.87,0,0,1,3.564-4l21.211-11.474a7.876,7.876,0,0,1,4.536-.91L261.1,183.3l11.384-4.208,14.851-5.486,34.183-12.632,13.943,37.211Z" transform="translate(-79.812 -134.479)" fill="#fab29a"/>
        <path id="Path_3932" data-name="Path 3932" d="M120.484,195.75,98.068,244.64l-15.533-7.053-15.758-7.154,26.4-47.835,10.974,5.286Z" transform="translate(-28.487 -143.703)" fill="#f2f2f2"/>
        <path id="Path_3933" data-name="Path 3933" d="M213.484,336.67c-1.728-.934-3.573-2.074-5.705-3.378-6.267-3.833-30.649-15.867-30.649-15.867s-4.512-3.729-9.656-7.9c2.315.071,6.96.9,11.74,5.731l6.352-3.015s6.932.57,9.584,9.71l6.542-2.914a10.693,10.693,0,0,1,5.378,8.248s5.257,1.877,6.135,5.181A10.56,10.56,0,0,1,213.484,336.67Z" transform="translate(-71.446 -197.853)" fill="#c4978c" opacity="0.5" style="mix-blend-mode: multiply;isolation: isolate"/>
        <path id="Path_3934" data-name="Path 3934" d="M169.372,320.132a5.986,5.986,0,0,1-3.335-.571c-3.9-1.807-7.57-8.9-4.643-10.976,0,0,1.566-1.574,5.63.867a14.891,14.891,0,0,1,4.853,4.182,6.073,6.073,0,0,1,1.06,2.882C173.078,318.131,171.592,319.832,169.372,320.132Z" transform="translate(-68.401 -197.237)" fill="#fab29a"/>
        <path id="Path_3935" data-name="Path 3935" d="M176.095,324.26a34.71,34.71,0,0,1,2.5-6.5,6.073,6.073,0,0,1,1.06,2.882C179.8,322.259,178.315,323.96,176.095,324.26Z" transform="translate(-75.124 -201.365)" fill="#cc8a79" opacity="0.5" style="mix-blend-mode: multiply;isolation: isolate"/>
        <path id="Path_3936" data-name="Path 3936" d="M183.82,331.533a6.412,6.412,0,0,1-4.835-7.765,26.234,26.234,0,0,1,3.256-7.989c3.464-5.4,13.592-3.112,12.58,5.931l-3.9,8.773A12.09,12.09,0,0,1,183.82,331.533Z" transform="translate(-76.282 -199.289)" fill="#fab29a"/>
        <path id="Path_3937" data-name="Path 3937" d="M216.5,330.937l-4.7,9.781a10.068,10.068,0,0,1-8.786-1.069c-.256-.182-.49-.364-.707-.549-3.05-2.584-2.419-5.26-2.419-5.26l3.9-8.773s2.8-5.361,7.653-4.118c.1.024.2.052.3.083C216.786,322.581,217.757,327.238,216.5,330.937Z" transform="translate(-85.253 -202.645)" fill="#fab29a"/>
        <path id="Path_3938" data-name="Path 3938" d="M234.107,343.928c-.508,2.557-2.654,9.1-2.654,9.1-.891.845-2.363,1.771-6.377.313a7.437,7.437,0,0,1-1.977-1.06A6.1,6.1,0,0,1,220.7,348.4l3.851-8.018a5.494,5.494,0,0,1,4.774-1.523C232.315,339.458,234.334,342.79,234.107,343.928Z" transform="translate(-94.155 -210.324)" fill="#fab29a"/>
        <path id="Path_3939" data-name="Path 3939" d="M211.443,320.949a17.528,17.528,0,0,0-5.7,8.076c-1.3,3.468-2.547,7.255-3.435,10.076-3.05-2.584-2.419-5.26-2.419-5.26l3.9-8.773S206.588,319.706,211.443,320.949Z" transform="translate(-85.253 -202.645)" fill="#cc8a79" opacity="0.5" style="mix-blend-mode: multiply;isolation: isolate"/>
        <path id="Path_3940" data-name="Path 3940" d="M229.33,338.855c-.922.8-2.291,2.463-3.575,5.863-1.073,2.843-1.992,5.54-2.656,7.56A6.1,6.1,0,0,1,220.7,348.4l3.851-8.018A5.494,5.494,0,0,1,229.33,338.855Z" transform="translate(-94.155 -210.324)" fill="#cc8a79" opacity="0.5" style="mix-blend-mode: multiply;isolation: isolate"/>
        <path id="Path_3941" data-name="Path 3941" d="M340.5,223.09c-27.015,9.119-58.245,19.828-61.04,21.534a22.74,22.74,0,0,1-6.768,2.7c-2.923-1.862-6.661-4.218-10.748-6.771,6.816-5.385,6.218-14.087,6.218-14.087-2.1,6.676-5.543,10.387-8.85,12.445-14.432-8.986-31.759-19.523-33.032-19.557-2.122-.057-11.242,2.911-11.242,2.911s-.566,9.19-8.048,14.911a46.871,46.871,0,0,1-8.087,5.052c4.306-.515,10.04-3.234,15.547-11.935a4.146,4.146,0,0,1,.561-.707c.079-.08.163-.156.248-.229l.055-.047c.085-.072.173-.141.264-.205l.024-.016q.131-.091.268-.172l.05-.03c.1-.058.206-.114.314-.163q.1-.046.194-.086c.072-.029.144-.057.217-.083l.411-.141,7.2-2.484c.081-.028.162-.052.244-.075l.067-.017c.057-.015.114-.029.171-.042a4.244,4.244,0,0,1,3.081.506l25,14.989,3.606,2.161,11.795,7.071h0l6.229,3.733a13.74,13.74,0,0,1,3.781,3.343l1.034,1.326s1.324-.741,3.231-2.049a46.877,46.877,0,0,0,9-7.855l51.643-18.893Z" transform="translate(-84.854 -159.382)" fill="#cc8a79" opacity="0.5" style="mix-blend-mode: multiply;isolation: isolate"/>
        <path id="Path_3942" data-name="Path 3942" d="M364.905,228.058l-14.92,5.458c-.105.124-.213.247-.32.37l-13.651-45.392,14.851-5.486Z" transform="translate(-143.347 -143.877)" fill="#cc8a79" opacity="0.5" style="mix-blend-mode: multiply;isolation: isolate"/>
        <path id="Path_3943" data-name="Path 3943" d="M392.165,219.107,376.9,224.317l-17.259,5.891-17.563-50.836,17.195-6.308,11.258-4.13Z" transform="translate(-145.934 -137.874)" fill="#f2f2f2"/>
        <path id="Path_3944" data-name="Path 3944" d="M404.958,219.107l-15.265,5.211-17.627-51.252,11.259-4.13Z" transform="translate(-158.727 -137.874)" fill="#b3b3b3" style="mix-blend-mode: multiply;isolation: isolate"/>
        <path id="Path_3945" data-name="Path 3945" d="M447.4,117.444v79.432L404.984,216.4l-6.7-16.3-2.1-5.1-3.073-7.483-4.931-12-1.25-3.045-8.693-21.135-.636-1.542-.889-2.167,33.027-12.15Z" transform="translate(-160.709 -115.908)" fill="#2eafcb"/>
        <path id="Path_3946" data-name="Path 3946" d="M104.152,187.885l-21.618,49.7-15.758-7.154,26.4-47.835Z" transform="translate(-28.487 -143.703)" fill="#b3b3b3" style="mix-blend-mode: multiply;isolation: isolate"/>
        <path id="Path_3947" data-name="Path 3947" d="M73.182,155.154l-1.1,2.064-1.537,2.9L60.6,178.886l-1.537,2.907-9.788,18.463-2.661,5.017L38.36,220.853,10.367,204.505l-6.605-3.859L0,198.45V114.764L41.49,139.85Z" transform="translate(0 -114.764)" fill="#5a7897" style="isolation: isolate"/>
        <path id="Path_3948" data-name="Path 3948" d="M26.109,238.56a5.884,5.884,0,1,1-5.592-6.163A5.885,5.885,0,0,1,26.109,238.56Z" transform="translate(-6.121 -164.945)" fill="#e9e9e9"/>
        <path id="Path_3949" data-name="Path 3949" d="M50.969,252.5a5.884,5.884,0,1,1-5.591-6.162A5.884,5.884,0,0,1,50.969,252.5Z" transform="translate(-16.726 -170.893)" fill="#e9e9e9"/>
        <path id="Path_3950" data-name="Path 3950" d="M447.381,247.079a5.884,5.884,0,1,1-8.291.717A5.884,5.884,0,0,1,447.381,247.079Z" transform="translate(-186.732 -170.622)" fill="#e9e9e9"/>
        <path id="Path_3951" data-name="Path 3951" d="M473.53,235.74a5.884,5.884,0,1,1-8.29.717A5.884,5.884,0,0,1,473.53,235.74Z" transform="translate(-197.888 -165.785)" fill="#e9e9e9"/>
      </g>
    </g>
  </g>
</svg>
