<svg xmlns="http://www.w3.org/2000/svg" width="26" height="26" viewBox="0 0 26 26">
  <path id="lang-icon" d="M15.805,2.8a13,13,0,1,0,13,13A13,13,0,0,0,15.805,2.8Zm1.046,23.683c-.057,0-.2,0-.2.028V20.378c1.413-.028,2.8-.057,4.013-.141A15.862,15.862,0,0,1,16.851,26.483Zm-2.091,0a16.336,16.336,0,0,1-3.815-6.246c1.187.085,2.6.141,4.013.141v6.133A1.007,1.007,0,0,0,14.76,26.483ZM5.066,15.8a12.789,12.789,0,0,1,.2-2.091c.622-.113,1.809-.283,3.476-.452a15.014,15.014,0,0,0-.226,2.572,17.868,17.868,0,0,0,.2,2.544c-1.639-.17-2.854-.339-3.476-.452A17.849,17.849,0,0,1,5.066,15.8Zm5.172,0a13.774,13.774,0,0,1,.283-2.713c1.3-.085,2.741-.17,4.437-.17v5.765c-1.7-.028-3.137-.085-4.465-.2A15.751,15.751,0,0,1,10.238,15.8ZM16.823,5.117a17.223,17.223,0,0,1,3.815,6.246c-1.187-.085-2.572-.141-3.985-.141V5.089A1,1,0,0,0,16.823,5.117Zm-1.865-.028v6.133c-1.413.028-2.8.057-3.985.141A17.276,17.276,0,0,1,14.76,5.117,1,1,0,0,0,14.957,5.089Zm1.7,13.593V12.917c1.7.028,3.137.085,4.437.17a13.843,13.843,0,0,1,.028,5.426C19.818,18.6,18.349,18.654,16.653,18.683Zm6.189-5.426c1.667.17,2.854.339,3.476.452a10.288,10.288,0,0,1,.2,2.091,12.789,12.789,0,0,1-.2,2.091c-.622.113-1.809.283-3.476.452a15.066,15.066,0,0,0,.2-2.572A12.263,12.263,0,0,0,22.842,13.256ZM25.81,11.9c-.791-.113-1.922-.254-3.363-.4a18.558,18.558,0,0,0-2.854-5.765A10.771,10.771,0,0,1,25.81,11.9ZM12.018,5.739a17.494,17.494,0,0,0-2.854,5.737c-1.413.113-2.543.283-3.363.4A10.885,10.885,0,0,1,12.018,5.739ZM5.8,19.7c.791.113,1.922.254,3.335.4a17.5,17.5,0,0,0,2.826,5.737A10.871,10.871,0,0,1,5.8,19.7Zm13.848,6.133a17.322,17.322,0,0,0,2.826-5.709c1.413-.113,2.543-.283,3.335-.4A10.906,10.906,0,0,1,19.649,25.833Z" transform="translate(-2.805 -2.8)" fill="#58595b"/>
</svg>
