<svg id="linkedin" xmlns="http://www.w3.org/2000/svg" width="28" height="25" viewBox="0 0 28 25">
  <rect id="base" width="28" height="25" fill="none"/>
  <g id="Group_23271" data-name="Group 23271" transform="translate(-700 -264)">
    <path id="Path_1648" data-name="Path 1648" d="M727,287.727h-5.526v-7.99c0-2.091-.864-3.519-2.765-3.519a2.788,2.788,0,0,0-2.638,1.892,3.508,3.508,0,0,0-.119,1.262v8.355h-5.474s.07-14.153,0-15.439h5.474v2.423c.323-1.06,2.073-2.572,4.864-2.572,3.463,0,6.184,2.22,6.184,7v8.585Zm-22.057-17.37h-.035A2.694,2.694,0,0,1,702,267.681a2.972,2.972,0,1,1,2.943,2.676Zm-2.312,1.931H707.5v15.439h-4.873V272.288Z" fill="#0096b6" fill-rule="evenodd"/>
  </g>
</svg>
