<svg xmlns="http://www.w3.org/2000/svg" width="15.601" height="19.068" viewBox="0 0 15.601 19.068">
  <path id="Location222" d="M90.8,1507a8,8,0,0,0-7.8,7.8,8.651,8.651,0,0,0,1.019,3.6q.027.052.06.1c4.717,7.562,6.122,7.562,6.722,7.562.936,0,1.95-.659,4.352-4.017,1.253-1.751,2.325-3.472,2.37-3.545.022-.035.041-.069.059-.1a8.654,8.654,0,0,0,1.019-3.6A8,8,0,0,0,90.8,1507Zm5.619,10.821s-4.324,6.947-5.619,6.947-5.619-6.947-5.619-6.947a7.4,7.4,0,0,1-.882-3.02,6.5,6.5,0,1,1,13,0A7.4,7.4,0,0,1,96.419,1517.821ZM90.8,1510.9a3.467,3.467,0,1,0,3.467,3.467A3.467,3.467,0,0,0,90.8,1510.9Zm0,5.634a2.167,2.167,0,1,1,2.167-2.167A2.167,2.167,0,0,1,90.8,1516.534Z" transform="translate(-83 -1507)" fill="#fff" fill-rule="evenodd"/>
</svg>
