<svg xmlns="http://www.w3.org/2000/svg" width="18.326" height="22.398" viewBox="0 0 18.326 22.398">
  <path id="Location" d="M92.163,1507A9.4,9.4,0,0,0,83,1516.163a10.161,10.161,0,0,0,1.2,4.23q.032.061.07.122c5.541,8.883,7.191,8.883,7.9,8.883,1.1,0,2.291-.774,5.112-4.719,1.472-2.057,2.731-4.078,2.784-4.164.025-.041.048-.081.07-.122a10.165,10.165,0,0,0,1.2-4.23A9.4,9.4,0,0,0,92.163,1507Zm0,11.2a2.545,2.545,0,1,1,2.545-2.545A2.545,2.545,0,0,1,92.163,1518.2Z" transform="translate(-83 -1507)" fill="#0096b6" fill-rule="evenodd"/>
</svg>
