<svg xmlns="http://www.w3.org/2000/svg" width="42.199" height="42.199" viewBox="0 0 42.199 42.199">
  <g id="new-rules-icon" opacity="0.7">
    <rect id="icon_Base" data-name="icon Base" width="42.199" height="42.199" transform="translate(0)" fill="none"/>
    <g id="Group_1032" data-name="Group 1032" transform="translate(0.641 0.884)">
      <path id="Path_642" data-name="Path 642" d="M35.65,19.331H10.36a4.791,4.791,0,0,0-4.614,4.952l-.168,24.3H1.258A1.29,1.29,0,0,0,0,49.95v3.316a6.293,6.293,0,0,0,5.746,6.5H27.388a6.261,6.261,0,0,0,6-6.5V31.96h5.788A1.29,1.29,0,0,0,40.432,30.6V24.51A4.99,4.99,0,0,0,35.65,19.331ZM6,57.037a3.626,3.626,0,0,1-3.481-3.771V51.313H21.39v1.953a6.7,6.7,0,0,0,1.132,3.771Zm24.871-3.771a3.626,3.626,0,0,1-3.481,3.771,3.626,3.626,0,0,1-3.481-3.771V49.95a1.29,1.29,0,0,0-1.258-1.363H8.095l.168-24.3a2.156,2.156,0,0,1,2.1-2.226h21.1a5.254,5.254,0,0,0-.587,2.453V53.266Zm7.046-24.032h-4.53V24.51a2.272,2.272,0,1,1,4.53,0v4.725Z" transform="translate(0 -19.331)" fill="#fff"/>
      <g id="Group_1031" data-name="Group 1031" transform="translate(10.947 7.587)">
        <path id="Path_643" data-name="Path 643" d="M144.118,109.307h-6.5a1.367,1.367,0,0,1,0-2.726h6.5a1.367,1.367,0,0,1,0,2.726Z" transform="translate(-136.359 -106.581)" fill="#fff"/>
        <path id="Path_644" data-name="Path 644" d="M151.669,172h-14.05a1.367,1.367,0,0,1,0-2.726h14.05a1.367,1.367,0,0,1,0,2.726Z" transform="translate(-136.36 -163.823)" fill="#fff"/>
        <path id="Path_645" data-name="Path 645" d="M151.669,234.694h-14.05a1.367,1.367,0,0,1,0-2.726h14.05a1.367,1.367,0,0,1,0,2.726Z" transform="translate(-136.36 -221.065)" fill="#fff"/>
        <path id="Path_646" data-name="Path 646" d="M151.669,297.388h-14.05a1.367,1.367,0,0,1,0-2.726h14.05a1.367,1.367,0,0,1,0,2.726Z" transform="translate(-136.36 -278.308)" fill="#fff"/>
      </g>
    </g>
  </g>
</svg>
