<svg xmlns="http://www.w3.org/2000/svg" width="46.569" height="36.416" viewBox="0 0 46.569 36.416">
  <g id="popup-new" transform="translate(-539.823 -3796.142)">
    <path id="Subtraction_9" data-name="Subtraction 9" d="M11.915,32.792h0L8.952,27.806,3.291,26.527l.535-5.776L0,16.395l3.826-4.357L3.291,6.261,8.952,4.985,11.915,0l5.329,2.289L22.573,0l.978,1.645-.831.279L19.085,6.743l-5.733.672V14.63L9.376,19.352l4.447,5.19v7.429l-1.908.82ZM34.059,16.88v0L33.8,15.619l.682.776-.424.484Z" transform="translate(539.823 3796.142)" fill="#e7e9ee"/>
    <g id="new" transform="translate(551.909 3799.767)">
      <path id="ic_new_releases_48px" d="M36.484,19.475l-3.825-4.357.533-5.776L27.534,8.064,24.571,3.08,19.242,5.368,13.913,3.08,10.95,8.064,5.292,9.342l.533,5.776L2,19.475l3.825,4.357-.533,5.776,5.658,1.277,2.962,4.984,5.329-2.288,5.329,2.288,2.962-4.984,5.658-1.277-.533-5.776Z" transform="translate(-2 -3.08)" fill="#0096b6"/>
      <path id="Path_1615" data-name="Path 1615" d="M-26.789-6.547a4.292,4.292,0,0,1,.823-.061,3.218,3.218,0,0,1,2.264.787,2.326,2.326,0,0,1,.766,1.789v.5q0,.286.011.429h.286v1.319h-.149l-.423-.47h-.034q-.1.1-.183.174a1.573,1.573,0,0,1-.9.3h-3.614V-3.1h3.088q.16,0,.16-.143v-.664a1.334,1.334,0,0,0-.429-1.022,1.572,1.572,0,0,0-1.115-.4,2.825,2.825,0,0,0-.549.041Zm7.879.061V-3.05a1.157,1.157,0,0,1-.332.808,1.446,1.446,0,0,1-1.1.46h-2.39V-3.1h1.887a.2.2,0,0,0,.114-.031.131.131,0,0,0,.057-.112V-6.485ZM-21.8-1.313a.912.912,0,0,1,.629.235.74.74,0,0,1,.263.572.729.729,0,0,1-.263.562A.912.912,0,0,1-21.8.292a.906.906,0,0,1-.635-.235.736.736,0,0,1-.257-.562.747.747,0,0,1,.257-.572A.906.906,0,0,1-21.8-1.313Zm2.047,0a.912.912,0,0,1,.629.235.74.74,0,0,1,.263.572.729.729,0,0,1-.263.562.912.912,0,0,1-.629.235A.906.906,0,0,1-20.39.057a.736.736,0,0,1-.257-.562.747.747,0,0,1,.257-.572A.906.906,0,0,1-19.756-1.313ZM-16.5-6.547a4.292,4.292,0,0,1,.823-.061,3.218,3.218,0,0,1,2.264.787,2.326,2.326,0,0,1,.766,1.789v.5q0,.286.011.429h.286v1.319h-.149l-.423-.47h-.034q-.1.1-.183.174a1.573,1.573,0,0,1-.9.3h-3.614V-3.1h3.088q.16,0,.16-.143v-.664a1.334,1.334,0,0,0-.429-1.022,1.572,1.572,0,0,0-1.115-.4,2.825,2.825,0,0,0-.549.041Zm5.581.235a8.057,8.057,0,0,1,1.978-.3,3.576,3.576,0,0,1,2.322.767,2.186,2.186,0,0,1,.869,1.748V-3.05a1.151,1.151,0,0,1-.412.889,1.474,1.474,0,0,1-1.018.378h-5.261V-3.1h4.757q.16,0,.16-.143v-.675a1.167,1.167,0,0,0-.652-1.053,2.34,2.34,0,0,0-1.189-.3,7.111,7.111,0,0,0-1.555.215Zm1.83,5a.912.912,0,0,1,.629.235.74.74,0,0,1,.263.572.729.729,0,0,1-.263.562.912.912,0,0,1-.629.235A.906.906,0,0,1-9.721.057a.736.736,0,0,1-.257-.562.747.747,0,0,1,.257-.572A.906.906,0,0,1-9.086-1.313Z" transform="translate(34.087 21.309)" fill="#fff"/>
    </g>
  </g>
</svg>
