<svg xmlns="http://www.w3.org/2000/svg" width="38.317" height="36.795" viewBox="0 0 38.317 36.795">
  <g id="ppppp" transform="translate(-127.762 0)">
    <path id="Path_1608" data-name="Path 1608" d="M3670.734,160.037c-3.191-9.038-8.783-17.365-17-22.6v0c-10.94,7.1-17.769,19.675-19.155,32.51,11.775,5.819,26.477,5.607,38.317-.033A52.687,52.687,0,0,0,3670.734,160.037Z" transform="translate(-3506.819 -137.439)" fill="#0096b6"/>
    <path id="calendar-dates-white" d="M18.289,7.43V4.715h-1.81v.9h-1.81v-.9H7.43v.9H5.62v-.9H3.81V7.43Zm0,1.81H3.81v9.049H18.289ZM16.479,2.9h1.81a1.81,1.81,0,0,1,1.81,1.81V18.289a1.81,1.81,0,0,1-1.81,1.81H3.81A1.81,1.81,0,0,1,2,18.289V4.715A1.81,1.81,0,0,1,3.81,2.9H5.62V2H7.43v.9h7.239V2h1.81ZM8.334,12.859H6.525v-1.81h1.81Zm3.62,0h-1.81v-1.81h1.81Zm3.62,0h-1.81v-1.81h1.81Zm-7.239,3.62H6.525v-1.81h1.81Zm3.62,0h-1.81v-1.81h1.81Z" transform="translate(136.074 10.787)" fill="#fff" fill-rule="evenodd"/>
  </g>
</svg>
