<svg xmlns="http://www.w3.org/2000/svg" width="394.513" height="318.513" viewBox="0 0 394.513 318.513">
  <g id="rules-bg" transform="translate(400.398 -171.732)">
    <g id="icon" transform="translate(-339.069 263.269)" opacity="0.1">
      <rect id="icon_Base" data-name="icon Base" width="27.984" height="27.984" transform="translate(0)" fill="none"/>
      <g id="Group_1032" data-name="Group 1032" transform="translate(0.425 0.586)">
        <path id="Path_642" data-name="Path 642" d="M23.641,19.331H6.87A3.177,3.177,0,0,0,3.81,22.615L3.7,38.732H.834a.856.856,0,0,0-.834.9v2.2a4.173,4.173,0,0,0,3.81,4.308H18.162a4.152,4.152,0,0,0,3.977-4.308V27.706h3.838a.856.856,0,0,0,.834-.9V22.765A3.309,3.309,0,0,0,23.641,19.331Zm-19.664,25a2.4,2.4,0,0,1-2.308-2.5v-1.3H14.185v1.3a4.446,4.446,0,0,0,.751,2.5Zm16.493-2.5a2.4,2.4,0,0,1-2.308,2.5,2.4,2.4,0,0,1-2.308-2.5v-2.2a.856.856,0,0,0-.834-.9H5.368l.111-16.117A1.43,1.43,0,0,1,6.87,21.139H20.86a3.484,3.484,0,0,0-.389,1.627V41.835ZM25.143,25.9h-3V22.765a1.507,1.507,0,1,1,3,0V25.9Z" transform="translate(0 -19.331)" fill="#fff"/>
        <g id="Group_1031" data-name="Group 1031" transform="translate(7.259 5.031)">
          <path id="Path_643" data-name="Path 643" d="M141.5,108.388h-4.311a.907.907,0,0,1,0-1.807H141.5a.907.907,0,0,1,0,1.807Z" transform="translate(-136.359 -106.581)" fill="#fff"/>
          <path id="Path_644" data-name="Path 644" d="M146.512,171.082h-9.317a.907.907,0,0,1,0-1.807h9.317a.907.907,0,0,1,0,1.807Z" transform="translate(-136.36 -165.659)" fill="#fff"/>
          <path id="Path_645" data-name="Path 645" d="M146.512,233.775h-9.317a.907.907,0,0,1,0-1.807h9.317a.907.907,0,0,1,0,1.807Z" transform="translate(-136.36 -224.738)" fill="#fff"/>
          <path id="Path_646" data-name="Path 646" d="M146.512,296.469h-9.317a.907.907,0,0,1,0-1.807h9.317a.907.907,0,0,1,0,1.807Z" transform="translate(-136.36 -283.817)" fill="#fff"/>
        </g>
      </g>
    </g>
    <g id="Group_23177" data-name="Group 23177" transform="translate(-400.398 171.732)" opacity="0.2">
      <g id="icon-2" data-name="icon" transform="translate(281.727 205.727)">
        <rect id="icon_Base-2" data-name="icon Base" width="112.786" height="112.786" transform="translate(0 0)" fill="none"/>
        <g id="Group_1032-2" data-name="Group 1032" transform="translate(1.714 2.362)">
          <path id="Path_642-2" data-name="Path 642" d="M95.282,19.331H27.688c-6.838,0-12.331,5.949-12.331,13.235l-.448,64.958H3.363A3.448,3.448,0,0,0,0,101.166v8.864c0,9.349,6.838,17,15.357,17.363H73.2c8.856,0,16.03-7.771,16.03-17.363V53.085H104.7a3.448,3.448,0,0,0,3.363-3.642V33.173C108.061,25.523,102.344,19.331,95.282,19.331ZM16.03,120.107c-5.157,0-9.3-4.492-9.3-10.078v-5.221H57.169v5.221A17.918,17.918,0,0,0,60.2,120.107ZM82.5,110.03c0,5.585-4.148,10.078-9.3,10.078s-9.3-4.492-9.3-10.078v-8.864a3.448,3.448,0,0,0-3.363-3.642h-38.9l.448-64.958a5.762,5.762,0,0,1,5.6-5.949H84.073A14.041,14.041,0,0,0,82.5,33.173V110.03ZM101.335,45.8H89.229V33.173a6.072,6.072,0,1,1,12.106,0V45.8Z" transform="translate(0 -19.331)" fill="#fff"/>
          <g id="Group_1031-2" data-name="Group 1031" transform="translate(29.257 20.277)">
            <path id="Path_643-2" data-name="Path 643" d="M157.1,113.866H139.722a3.654,3.654,0,0,1,0-7.285H157.1a3.654,3.654,0,0,1,0,7.285Z" transform="translate(-136.359 -106.581)" fill="#fff"/>
            <path id="Path_644-2" data-name="Path 644" d="M177.275,176.559H139.723a3.654,3.654,0,0,1,0-7.285h37.552a3.654,3.654,0,0,1,0,7.285Z" transform="translate(-136.36 -154.704)" fill="#fff"/>
            <path id="Path_645-2" data-name="Path 645" d="M177.275,239.253H139.723a3.654,3.654,0,0,1,0-7.285h37.552a3.654,3.654,0,0,1,0,7.285Z" transform="translate(-136.36 -202.828)" fill="#fff"/>
            <path id="Path_646-2" data-name="Path 646" d="M177.275,301.947H139.723a3.654,3.654,0,0,1,0-7.285h37.552a3.654,3.654,0,0,1,0,7.285Z" transform="translate(-136.36 -250.952)" fill="#fff"/>
          </g>
        </g>
      </g>
      <g id="icon-3" data-name="icon" transform="translate(0 205.727)">
        <rect id="icon_Base-3" data-name="icon Base" width="112.786" height="112.786" transform="translate(0 0)" fill="none"/>
        <g id="Group_1032-3" data-name="Group 1032" transform="translate(1.714 2.362)">
          <path id="Path_642-3" data-name="Path 642" d="M95.282,19.331H27.688c-6.838,0-12.331,5.949-12.331,13.235l-.448,64.958H3.363A3.448,3.448,0,0,0,0,101.166v8.864c0,9.349,6.838,17,15.357,17.363H73.2c8.856,0,16.03-7.771,16.03-17.363V53.085H104.7a3.448,3.448,0,0,0,3.363-3.642V33.173C108.061,25.523,102.344,19.331,95.282,19.331ZM16.03,120.107c-5.157,0-9.3-4.492-9.3-10.078v-5.221H57.169v5.221A17.918,17.918,0,0,0,60.2,120.107ZM82.5,110.03c0,5.585-4.148,10.078-9.3,10.078s-9.3-4.492-9.3-10.078v-8.864a3.448,3.448,0,0,0-3.363-3.642h-38.9l.448-64.958a5.762,5.762,0,0,1,5.6-5.949H84.073A14.041,14.041,0,0,0,82.5,33.173V110.03ZM101.335,45.8H89.229V33.173a6.072,6.072,0,1,1,12.106,0V45.8Z" transform="translate(0 -19.331)" fill="#fff"/>
          <g id="Group_1031-3" data-name="Group 1031" transform="translate(29.257 20.277)">
            <path id="Path_643-3" data-name="Path 643" d="M157.1,113.866H139.722a3.654,3.654,0,0,1,0-7.285H157.1a3.654,3.654,0,0,1,0,7.285Z" transform="translate(-136.359 -106.581)" fill="#fff"/>
            <path id="Path_644-3" data-name="Path 644" d="M177.275,176.559H139.723a3.654,3.654,0,0,1,0-7.285h37.552a3.654,3.654,0,0,1,0,7.285Z" transform="translate(-136.36 -154.704)" fill="#fff"/>
            <path id="Path_645-3" data-name="Path 645" d="M177.275,239.253H139.723a3.654,3.654,0,0,1,0-7.285h37.552a3.654,3.654,0,0,1,0,7.285Z" transform="translate(-136.36 -202.828)" fill="#fff"/>
            <path id="Path_646-3" data-name="Path 646" d="M177.275,301.947H139.723a3.654,3.654,0,0,1,0-7.285h37.552a3.654,3.654,0,0,1,0,7.285Z" transform="translate(-136.36 -250.952)" fill="#fff"/>
          </g>
        </g>
      </g>
      <g id="icon-4" data-name="icon" transform="translate(143.316 177.133)">
        <rect id="icon_Base-4" data-name="icon Base" width="104.835" height="104.835" transform="translate(0 0)" fill="none"/>
        <g id="Group_1032-4" data-name="Group 1032" transform="translate(1.593 2.195)">
          <path id="Path_642-4" data-name="Path 642" d="M88.566,19.331H25.736c-6.356,0-11.461,5.53-11.461,12.3l-.417,60.379H3.126A3.205,3.205,0,0,0,0,95.4v8.239c0,8.69,6.356,15.8,14.275,16.139H68.039c8.231,0,14.9-7.223,14.9-16.139V50.705H97.318a3.205,3.205,0,0,0,3.126-3.386V32.2C100.444,25.087,95.13,19.331,88.566,19.331ZM14.9,113c-4.793,0-8.648-4.176-8.648-9.367V98.783H53.139v4.853A16.655,16.655,0,0,0,55.953,113Zm61.787-9.367c0,5.192-3.855,9.367-8.648,9.367s-8.648-4.176-8.648-9.367V95.4a3.205,3.205,0,0,0-3.126-3.386H20.11l.417-60.379a5.356,5.356,0,0,1,5.21-5.53h52.41A13.052,13.052,0,0,0,76.687,32.2v71.439Zm17.5-59.7H82.939V32.2a5.644,5.644,0,1,1,11.253,0V43.934Z" transform="translate(0 -19.331)" fill="#fff"/>
          <g id="Group_1031-4" data-name="Group 1031" transform="translate(27.195 18.848)">
            <path id="Path_643-4" data-name="Path 643" d="M155.635,113.352h-16.15a3.4,3.4,0,0,1,0-6.771h16.15a3.4,3.4,0,0,1,0,6.771Z" transform="translate(-136.359 -106.581)" fill="#fff"/>
            <path id="Path_644-4" data-name="Path 644" d="M174.391,176.045H139.486a3.4,3.4,0,0,1,0-6.771h34.905a3.4,3.4,0,0,1,0,6.771Z" transform="translate(-136.36 -155.731)" fill="#fff"/>
            <path id="Path_645-4" data-name="Path 645" d="M174.391,238.739H139.486a3.4,3.4,0,0,1,0-6.771h34.905a3.4,3.4,0,0,1,0,6.771Z" transform="translate(-136.36 -204.882)" fill="#fff"/>
            <path id="Path_646-4" data-name="Path 646" d="M174.391,301.433H139.486a3.4,3.4,0,0,1,0-6.771h34.905a3.4,3.4,0,0,1,0,6.771Z" transform="translate(-136.36 -254.033)" fill="#fff"/>
          </g>
        </g>
      </g>
      <g id="Path_1432" data-name="Path 1432" transform="translate(-3491.265 -137.439)" fill="none">
        <path d="M3745.081,206.508c-9.752-27.623-26.845-53.076-51.954-69.069v.011c-33.439,21.709-54.309,60.136-58.547,99.366,35.99,17.786,80.925,17.137,117.118-.1A161.087,161.087,0,0,0,3745.081,206.508Z" stroke="none"/>
        <path d="M 3692.41357421875 244.9008331298828 C 3711.09716796875 244.9008331298828 3729.62451171875 241.0430145263672 3746.23974609375 233.7170715332031 C 3745.677978515625 229.9138031005859 3744.99267578125 226.0896606445312 3744.224365234375 222.4859008789062 C 3743.08935546875 217.1625518798828 3741.788818359375 212.3392944335938 3740.3583984375 208.1495971679688 C 3735.435546875 194.2116546630859 3728.86376953125 181.5653533935547 3720.82568359375 170.5614624023438 C 3712.85498046875 159.6498565673828 3703.55908203125 150.5420074462891 3693.159423828125 143.4483184814453 C 3686.339599609375 148.1691589355469 3679.951904296875 153.7309417724609 3674.138427734375 160.0138702392578 C 3667.768310546875 166.8987579345703 3662.081298828125 174.6524963378906 3657.23583984375 183.0597229003906 C 3648.306396484375 198.552734375 3642.371337890625 216.0403594970703 3639.97705078125 233.8445739746094 C 3647.465087890625 237.2600555419922 3655.445068359375 239.92431640625 3663.7470703125 241.7774963378906 C 3673.031005859375 243.8498992919922 3682.67529296875 244.9007415771484 3692.412841796875 244.9008331298828 L 3692.41357421875 244.9008331298828 M 3692.412109375 249.9008331298828 C 3672.3740234375 249.9006195068359 3652.38232421875 245.6134948730469 3634.58056640625 236.8160552978516 C 3638.818603515625 197.5861358642578 3659.688720703125 159.1596221923828 3693.12744140625 137.4503936767578 L 3693.12744140625 137.4389801025391 C 3718.236083984375 153.4317626953125 3735.329345703125 178.8848419189453 3745.081298828125 206.5081787109375 C 3748.247802734375 215.7743225097656 3750.464111328125 227.0003204345703 3751.698486328125 236.7143707275391 C 3733.407470703125 245.4261474609375 3712.885498046875 249.9010620117188 3692.412109375 249.9008331298828 Z" stroke="none" fill="#fff"/>
      </g>
      <line id="Line_91" data-name="Line 91" x2="108.158" y2="103.185" transform="translate(232.621 107.136)" fill="none" stroke="#fff" stroke-width="1"/>
      <line id="Line_93" data-name="Line 93" x1="108.158" y2="106.915" transform="translate(56.087 103.407)" fill="none" stroke="#fff" stroke-width="1"/>
      <line id="Line_92" data-name="Line 92" y2="75.835" transform="translate(196.569 107.136)" fill="none" stroke="#fff" stroke-width="1"/>
    </g>
  </g>
</svg>
