<svg xmlns="http://www.w3.org/2000/svg" width="51.396" height="49.408" viewBox="0 0 51.396 49.408">
  <g id="saso-news" transform="translate(0)" opacity="0.8">
    <path id="Path_1303" data-name="Path 1303" d="M267.047,8.8a60.9,60.9,0,0,0-5.632,7.5c-.572.888-1.108,1.79-1.625,2.7s-1.043,1.816-1.53,2.748a61.48,61.48,0,0,0-3.686,8.636,64.177,64.177,0,0,0-2.9,12.558l16.605-9.569a51.259,51.259,0,0,1,3.425-7.483h.01v-.01a51.312,51.312,0,0,1,4.764-6.69V.01A64.22,64.22,0,0,0,267.047,8.8" transform="translate(-251.67 -0.005)" fill="#fff"/>
    <path id="XMLID_25_" d="M304.67,19.193a50.708,50.708,0,0,1,4.774,6.69l.005.01h.005a51.788,51.788,0,0,1,3.425,7.483l16.605,9.569a63.821,63.821,0,0,0-2.9-12.558,60.322,60.322,0,0,0-3.686-8.636q-.737-1.407-1.53-2.748c-.517-.908-1.053-1.81-1.625-2.7a61.407,61.407,0,0,0-5.632-7.5A63.827,63.827,0,0,0,304.67,0Z" transform="translate(-278.089)" fill="#fff"/>
    <path id="Subtraction_5" data-name="Subtraction 5" d="M24.1,14.562c-.871,0-1.665-.016-2.43-.049a62.392,62.392,0,0,1-9.313-1.1A64.858,64.858,0,0,1,0,9.659L16.6.019a51.335,51.335,0,0,0,8.19.773h.014A51.017,51.017,0,0,0,32.99,0L49.606,9.564a64.847,64.847,0,0,1-12.327,3.8A61.443,61.443,0,0,1,27.965,14.5c-.821.039-1.653.058-2.544.058l-.606,0C24.571,14.561,24.329,14.562,24.1,14.562Zm1.578-4.7h0l-.6,1a3.324,3.324,0,0,0,2.161.705c.061,0,.115,0,.166,0A2.215,2.215,0,0,0,29.8,9.3a1.709,1.709,0,0,0-.586-1.319,5.139,5.139,0,0,0-1.662-.864,3.084,3.084,0,0,1-.816-.379.513.513,0,0,1-.181-.406.583.583,0,0,1,.157-.433,1.19,1.19,0,0,1,.841-.319H27.6a2.741,2.741,0,0,1,1.375.462l.617-.958,0,0a3.146,3.146,0,0,0-2.009-.657c-.052,0-.105,0-.158,0a2.527,2.527,0,0,0-1.793.734,1.861,1.861,0,0,0-.488,1.373A1.751,1.751,0,0,0,25.723,7.8a4.318,4.318,0,0,0,1.483.769,2.9,2.9,0,0,1,.925.445.719.719,0,0,1,.211.471.736.736,0,0,1-.2.539,1.22,1.22,0,0,1-.863.333h-.068a2.924,2.924,0,0,1-1.493-.468l-.01-.006-.039-.023Zm-5.843-.02h0l2.447.155.417,1.449,1.485.091L22.117,4.578l-1.445-.09-2.884,6.65,1.455.086L19.83,9.84Zm14.32-6.017a3.9,3.9,0,0,0-.579.044,3.245,3.245,0,0,0-2.763,3.972,3.338,3.338,0,0,0,3.276,3.131,3.814,3.814,0,0,0,.561-.043c1.956-.3,3.054-1.937,2.733-4.082A3.255,3.255,0,0,0,34.151,3.823ZM12.86,8.716h0l-.787.867a3.343,3.343,0,0,0,2.141,1.15,3.5,3.5,0,0,0,.563.048A2.113,2.113,0,0,0,17.017,9a1.732,1.732,0,0,0-.3-1.41A5.207,5.207,0,0,0,15.26,6.41a3.047,3.047,0,0,1-.725-.538.5.5,0,0,1-.105-.431c.057-.35.385-.567.855-.567a1.678,1.678,0,0,1,.278.024,2.59,2.59,0,0,1,1.294.738l.8-.808a3.117,3.117,0,0,0-2-1.088,3.242,3.242,0,0,0-.543-.047A1.982,1.982,0,0,0,13,5.346,1.761,1.761,0,0,0,13.321,6.7a4.246,4.246,0,0,0,1.3,1.057,2.835,2.835,0,0,1,.812.619.69.69,0,0,1,.111.506.835.835,0,0,1-.928.661,1.805,1.805,0,0,1-.286-.024A2.891,2.891,0,0,1,12.9,8.749l-.037-.034ZM34.2,9.746c-.99,0-1.75-.8-1.934-2.038-.215-1.432.357-2.5,1.424-2.668a1.888,1.888,0,0,1,.28-.021,1.755,1.755,0,0,1,1.288.559,2.672,2.672,0,0,1,.675,1.473,3.237,3.237,0,0,1-.142,1.664,1.581,1.581,0,0,1-1.308,1.009A1.85,1.85,0,0,1,34.2,9.746Zm-12.225-.89h0l-1.715-.106L21.3,6.073l.681,2.783Z" transform="translate(0.942 34.846)" fill="#fff"/>
  </g>
</svg>
