<svg xmlns="http://www.w3.org/2000/svg" width="71.881" height="48.445" viewBox="0 0 71.881 48.445">
  <g id="Scroller" transform="translate(-52.126 -884.862)">
    <path id="Path_1322" data-name="Path 1322" d="M2406.488,316.169a75.884,75.884,0,0,1,12.265,20.68l.991,2.578-3.649.525a241.094,241.094,0,0,1-64.881,0l-3.351-.531.728-2.425c.208-.678,5.3-16.89,31.823-40.982l2.543-2.316,2.715,2.209A141.959,141.959,0,0,1,2406.488,316.169Z" transform="translate(-2295.737 591.161)" fill="#f2f4f7"/>
    <g id="Scroller-2" data-name="Scroller" transform="translate(79.368 904.647)">
      <g id="Group_23118" data-name="Group 23118" transform="translate(0 0)">
        <path id="Path_440" data-name="Path 440" d="M16.666,0,8,6.664,0,0" transform="translate(0 7.187)" fill="none" stroke="#0096b6" stroke-linecap="round" stroke-width="2"/>
        <path id="Path_441" data-name="Path 441" d="M16.666,0,8,6.664,0,0" fill="none" stroke="#0096b6" stroke-linecap="round" stroke-width="2"/>
      </g>
    </g>
  </g>
</svg>
