<svg id="Service-banner-en" xmlns="http://www.w3.org/2000/svg" xmlns:xlink="http://www.w3.org/1999/xlink" width="254.501" height="74.5" viewBox="0 0 254.501 74.5">
  <defs>
    <clipPath id="clip-path">
      <rect id="mask" width="254" height="74" rx="18" fill="none"/>
    </clipPath>
    <filter id="Union_7" x="178.572" y="5.772" width="53.218" height="62.691" filterUnits="userSpaceOnUse">
      <feOffset dy="3" input="SourceAlpha"/>
      <feGaussianBlur stdDeviation="3" result="blur"/>
      <feFlood flood-opacity="0.161"/>
      <feComposite operator="in" in2="blur"/>
      <feComposite in="SourceGraphic"/>
    </filter>
  </defs>
  <g id="Group_1198" data-name="Group 1198">
    <g id="bg" fill="#fbfeff" stroke="#0096b6" stroke-width="1">
      <rect width="254" height="74" rx="18" stroke="none"/>
      <rect x="0.5" y="0.5" width="253" height="73" rx="17.5" fill="none"/>
    </g>
    <g id="Group_1202" data-name="Group 1202" transform="translate(0.501 0.5)">
      <g id="Group_1201" data-name="Group 1201" clip-path="url(#clip-path)">
        <g id="Mask_Group_8" data-name="Mask Group 8" transform="translate(14.695 -15.446)">
          <path id="Path_1343" data-name="Path 1343" d="M3677.07,198.759a132.744,132.744,0,0,1-24.339-24.813l-2.472-3.319,3.462-2.249c31.791-20.668,65.664-26.347,67.092-26.579l3.765-.61.613,3.8c.17,1.061,4.044,26.539-9.81,72.174l-1.329,4.382-4.043-2.069a198.2,198.2,0,0,1-32.939-20.717Z" transform="translate(-3499.68 -141.19)" fill="#0096b6"/>
          <path id="Path_1343-2" data-name="Path 1343" d="M3.757,3.158A18.513,18.513,0,0,0,.346,6.6L0,7.056l.484.311a27.266,27.266,0,0,0,9.4,3.679l.527.084L10.5,10.6c.024-.147.567-3.677-1.371-10L8.938,0,8.372.287A27.8,27.8,0,0,0,3.757,3.158Z" transform="matrix(0.515, -0.857, 0.857, 0.515, 0, 47.751)" fill="#d6eef3"/>
          <path id="Path_1343-3" data-name="Path 1343" d="M6.631,14.057A32.674,32.674,0,0,1,.611,7.988L0,7.176l.855-.549A48.007,48.007,0,0,1,17.423.148L18.352,0,18.5.928c.042.259,1,6.486-2.406,17.635l-.328,1.071-1-.506a49.14,49.14,0,0,1-8.135-5.071Z" transform="matrix(-0.174, -0.985, 0.985, -0.174, 21.522, 83.416)" fill="#eaf7f9"/>
          <g id="shape" transform="translate(129.162 26.615)" opacity="0.06">
            <path id="Path_1337" data-name="Path 1337" d="M3721.75,200.983a24.965,24.965,0,0,1-2.148,6.136l-.35.69-.659-.4a36.3,36.3,0,0,1-9.919-9.139l-.41-.586.586-.418c.163-.116,4.1-2.853,12.842-4.25l.839-.134-.018.856A37.582,37.582,0,0,1,3721.75,200.983Z" transform="translate(-3685.909 -154.07)" fill="none" stroke="#002a33" stroke-width="1"/>
            <path id="Path_1344" data-name="Path 1344" d="M3722.01,178.6a18.178,18.178,0,0,1-.623-4.689v-.563l.558.039a26.232,26.232,0,0,1,9.434,2.632l.458.242-.242.463c-.068.129-1.719,3.209-6.927,7.019l-.5.366-.271-.559a27.045,27.045,0,0,1-1.888-4.95Z" transform="translate(-3710.785 -157.85)" fill="none" stroke="#002a33" stroke-width="1"/>
            <path id="Path_1345" data-name="Path 1345" d="M3736.94,192.029a9.491,9.491,0,0,1-2.476-.279l-.289-.073.093-.283a14.05,14.05,0,0,1,2.553-4.538l.183-.2.206.185a12.587,12.587,0,0,1,2.7,4.479l.124.3-.32.069a14.154,14.154,0,0,1-2.774.34Z" transform="translate(-3734.175 -159.527)" fill="none" stroke="#002a33" stroke-width="1"/>
            <path id="Path_1346" data-name="Path 1346" d="M3725.22,163.229a9.753,9.753,0,0,1-.862-2.411l-.063-.3.3-.042a14.211,14.211,0,0,1,5.295.325l.27.078-.076.272a12.9,12.9,0,0,1-2.885,4.5l-.225.251-.2-.27a14.671,14.671,0,0,1-1.554-2.4Z" transform="translate(-3712.544 -160.364)" fill="none" stroke="#002a33" stroke-width="1"/>
          </g>
          <g id="shape-2" data-name="shape" transform="translate(120.182 20.162)">
            <path id="Union_8" data-name="Union 8" d="M2.93.69A24.94,24.94,0,0,0,.782,6.826a37.509,37.509,0,0,0-.765,7.245L0,14.926l.838-.133c8.746-1.4,12.68-4.135,12.842-4.251l.587-.418-.409-.585A36.3,36.3,0,0,0,3.938.4L3.281,0ZM35.1,18.825a15.483,15.483,0,0,0,1.995,6.1l.194.277.278-.2a17.147,17.147,0,0,0,4.292-4.709l.188-.312-.324-.167a11.7,11.7,0,0,0-2.88-1.019,17.338,17.338,0,0,0-3.4-.363l-.4-.006Zm-7.61,11.4c-5.208,3.81-6.859,6.89-6.926,7.019l-.242.464.458.242a26.237,26.237,0,0,0,9.434,2.632l.558.04v-.564a18.206,18.206,0,0,0-.622-4.689,27.087,27.087,0,0,0-1.889-4.951l-.271-.559ZM24.471,52.945a15.783,15.783,0,0,0-5.546,3.514l-.225.264.26.228a17.546,17.546,0,0,0,5.736,3.13l.357.111.083-.365a12.017,12.017,0,0,0,.286-3.14,18.167,18.167,0,0,0-.486-3.5l-.085-.406Z" transform="translate(42.048 60.191) rotate(180)" fill="none" stroke="#c1e6ee" stroke-width="1"/>
          </g>
          <g id="Group_1200" data-name="Group 1200" transform="translate(172.373 26.66)">
            <g transform="matrix(1, 0, 0, 1, -187.57, -11.71)" filter="url(#Union_7)">
              <path id="Union_7-2" data-name="Union 7" d="M27.416.677,21.6,11.639,15.884,5.756a1.361,1.361,0,0,0-2.312.8l-3.252,27.4a1.341,1.341,0,0,0,.261.969,1.362,1.362,0,0,0,1.9.274l22.2-16.51a1.351,1.351,0,0,0-.462-2.391l-7.537-1.814L32.5,3.524h0a1.351,1.351,0,0,0-.5-1.85L29.272.181a1.362,1.362,0,0,0-1.856.5ZM.963,25.567a1.349,1.349,0,0,0,.519,1.842l3.7,2.127a1.355,1.355,0,1,0,1.359-2.344l-3.7-2.127-.03-.016a1.359,1.359,0,0,0-1.848.519Zm4.178,6.9-4.132,1.1h0a1.354,1.354,0,1,0,.707,2.614l4.132-1.1a1.353,1.353,0,0,0-.36-2.659,1.376,1.376,0,0,0-.347.048Zm14.083,2.471A1.352,1.352,0,0,0,18.9,37.42l3.7,2.127.03.018A1.355,1.355,0,1,0,23.96,37.2l-3.7-2.127a1.346,1.346,0,0,0-.677-.182,1.369,1.369,0,0,0-.359.046Zm-11.2,2.753L5.89,41.377a1.351,1.351,0,0,0,.5,1.851,1.365,1.365,0,0,0,1.858-.5l2.136-3.684A1.359,1.359,0,1,0,8.028,37.69Zm6.679.277h0a1.354,1.354,0,0,0-.961,1.659l1.106,4.109h0a1.359,1.359,0,0,0,2.624-.7l-1.106-4.11a1.358,1.358,0,0,0-1.311-1,1.378,1.378,0,0,0-.352.046Z" transform="translate(222.8 56.46) rotate(180)" fill="#64e4ff"/>
            </g>
          </g>
        </g>
      </g>
    </g>
  </g>
  <text id="E-_services" data-name="E- services" transform="translate(26 44.5)" fill="#0096b6" font-size="23" font-family="Almarai-Bold, Almarai" font-weight="700" letter-spacing="-0.01em"><tspan x="0" y="0">E-Services</tspan></text>
</svg>
