<svg xmlns="http://www.w3.org/2000/svg" width="26.663" height="26.873" viewBox="0 0 26.663 26.873">
  <g id="settings-outline" transform="translate(-2)">
    <g id="Group_23405" data-name="Group 23405" transform="translate(11.002 9.108)">
      <g id="Group_23404" data-name="Group 23404" transform="translate(0)">
        <path id="Path_1709" data-name="Path 1709" d="M180.329,176a4.329,4.329,0,1,0,4.329,4.329A4.334,4.334,0,0,0,180.329,176Zm0,6.494a2.165,2.165,0,1,1,2.165-2.165A2.167,2.167,0,0,1,180.329,182.494Z" transform="translate(-176 -176)" fill="#58595b"/>
      </g>
    </g>
    <g id="Group_23407" data-name="Group 23407" transform="translate(2)">
      <g id="Group_23406" data-name="Group 23406" transform="translate(0)">
        <path id="Path_1710" data-name="Path 1710" d="M28.252,16.567l-2.718-2.083a9.9,9.9,0,0,0,0-2.095l2.718-2.083a1.05,1.05,0,0,0,.266-1.367l-2.632-4.46A1.05,1.05,0,0,0,24.6,4.036l-3.225,1.27a10.259,10.259,0,0,0-1.884-1.068L19,.9A1.05,1.05,0,0,0,17.964,0H12.7A1.05,1.05,0,0,0,11.66.9l-.484,3.34A10.262,10.262,0,0,0,9.291,5.307L6.066,4.036a1.05,1.05,0,0,0-1.289.443L2.145,8.94a1.05,1.05,0,0,0,.266,1.367l2.718,2.083a9.9,9.9,0,0,0,0,2.095L2.411,16.567a1.05,1.05,0,0,0-.266,1.367l2.632,4.46a1.05,1.05,0,0,0,1.289.443l3.225-1.27a10.261,10.261,0,0,0,1.884,1.068l.484,3.34a1.05,1.05,0,0,0,1.039.9h5.265a1.05,1.05,0,0,0,1.039-.9l.484-3.34a10.258,10.258,0,0,0,1.884-1.068l3.225,1.27a1.05,1.05,0,0,0,1.289-.443l2.632-4.46A1.05,1.05,0,0,0,28.252,16.567Zm-3.72,3.988L21.59,19.4a1.05,1.05,0,0,0-1.046.162A8.178,8.178,0,0,1,18.176,20.9a1.05,1.05,0,0,0-.681.836l-.441,3.04H13.607l-.441-3.04a1.05,1.05,0,0,0-.681-.836,8.18,8.18,0,0,1-2.368-1.339A1.05,1.05,0,0,0,9.072,19.4L6.13,20.555l-1.7-2.888,2.465-1.889a1.05,1.05,0,0,0,.4-1.012,7.822,7.822,0,0,1,0-2.661,1.05,1.05,0,0,0-.4-1.012L4.426,9.206l1.7-2.888L9.072,7.477a1.05,1.05,0,0,0,1.046-.162,8.18,8.18,0,0,1,2.368-1.339,1.05,1.05,0,0,0,.681-.836l.441-3.04h3.448L17.5,5.14a1.05,1.05,0,0,0,.681.836,8.18,8.18,0,0,1,2.368,1.339,1.05,1.05,0,0,0,1.046.162l2.942-1.159,1.7,2.888-2.465,1.889a1.05,1.05,0,0,0-.4,1.012,7.822,7.822,0,0,1,0,2.661,1.05,1.05,0,0,0,.4,1.012l2.465,1.889Z" transform="translate(-2)" fill="#58595b"/>
      </g>
    </g>
  </g>
</svg>
