<svg xmlns="http://www.w3.org/2000/svg" width="18.299" height="20.9" viewBox="0 0 18.299 20.9">
  <g id="share" transform="translate(717.604 1959.119) rotate(-135)">
    <path id="Path_1047" data-name="Path 1047" d="M348.547,167.7a3.594,3.594,0,0,0-3.592,3.592,4.636,4.636,0,0,0,.062.65l-5.418,3.344a3.587,3.587,0,1,0-2.167,6.44,3.706,3.706,0,0,0,2.167-.712l5.418,3.344a4.622,4.622,0,0,0-.062.65,3.592,3.592,0,1,0,3.592-3.592,3.78,3.78,0,0,0-2.167.712l-5.418-3.344a3.445,3.445,0,0,0,0-1.3l5.418-3.344a3.529,3.529,0,0,0,2.167.743,3.592,3.592,0,0,0,0-7.183Z" transform="translate(2247.371 760.404) rotate(135)" fill="#fff"/>
  </g>
</svg>
