<svg xmlns="http://www.w3.org/2000/svg" xmlns:xlink="http://www.w3.org/1999/xlink" width="273.168" height="317.057" viewBox="0 0 273.168 317.057">
  <defs>
    <clipPath id="clip-path">
      <rect id="Rectangle_369" data-name="Rectangle 369" width="273.168" height="317.057" transform="translate(273.168 317.057) rotate(180)" fill="#58595b"/>
    </clipPath>
  </defs>
  <g id="ArtWork" transform="translate(-109.832)" opacity="0.15">
    <g id="ArtWork-2" data-name="ArtWork" transform="translate(383 317.057) rotate(180)" clip-path="url(#clip-path)">
      <g id="shape" transform="translate(-15.59 37.003)">
        <g id="Group_1186" data-name="Group 1186" transform="translate(74.346 37.733)" style="isolation: isolate">
          <path id="Path_1331" data-name="Path 1331" d="M1017.168-822a47.1,47.1,0,0,1-9.685-7.63l-1.019-1.053,1.131-.932a69.613,69.613,0,0,1,22.658-12.149l1.308-.372.379,1.3c.105.364,2.56,9.1-.41,25.63l-.286,1.588-1.524-.551A71.026,71.026,0,0,1,1017.168-822Z" transform="translate(-1006.464 844.139)" fill="#58595b"/>
        </g>
        <g id="Group_1187" data-name="Group 1187" transform="translate(163.943 33.196)" style="isolation: isolate">
          <path id="Path_1332" data-name="Path 1332" d="M1058.979-833.3a28.159,28.159,0,0,1-6.482,3.529l-.821.315-.252-.837a41.139,41.139,0,0,1-1.45-15.246l.1-.8.809.095c.228.027,5.636.716,14.1,6.2l.813.526-.66.705A42.232,42.232,0,0,1,1058.979-833.3Z" transform="translate(-1049.796 846.345)" fill="#58595b"/>
        </g>
        <g id="Group_1188" data-name="Group 1188" transform="translate(206.079 70.835)" style="isolation: isolate">
          <path id="Path_1333" data-name="Path 1333" d="M1080.845-806.015a46.518,46.518,0,0,1-9.652-7.437l-1.02-1.028,1.106-.934a68.8,68.8,0,0,1,22.259-12.247l1.291-.383.388,1.281c.108.358,2.628,8.963-.128,25.332l-.265,1.571-1.513-.529A70.089,70.089,0,0,1,1080.845-806.015Z" transform="translate(-1070.174 828.044)" fill="#58595b"/>
        </g>
        <g id="Group_1189" data-name="Group 1189" transform="translate(240.214 112.038)" style="isolation: isolate">
          <path id="Path_1334" data-name="Path 1334" d="M1098.208-784.611a46.661,46.661,0,0,1-10.4-6.359l-1.125-.915,1-1.047a68.645,68.645,0,0,1,20.8-14.557l1.24-.52.525,1.232c.146.346,3.583,8.632,2.613,25.2l-.093,1.59-1.561-.362A70.215,70.215,0,0,1,1098.208-784.611Z" transform="translate(-1086.683 808.01)" fill="#58595b"/>
        </g>
        <g id="Group_1190" data-name="Group 1190" transform="translate(101.205 139.42)" style="isolation: isolate">
          <path id="Path_1335" data-name="Path 1335" d="M1036.641-775.6a45.8,45.8,0,0,1-9.665,7.081l-1.253.683-.59-1.294a66.772,66.772,0,0,1-5.661-24.232l-.019-1.314,1.323-.023c.37,0,9.23-.062,24.052,6.931l1.425.672-.91,1.279A68.593,68.593,0,0,1,1036.641-775.6Z" transform="translate(-1019.454 794.696)" fill="#58595b"/>
        </g>
        <g id="Group_1191" data-name="Group 1191" transform="translate(118.154 69.41)" style="isolation: isolate">
          <path id="Path_1336" data-name="Path 1336" d="M1051-781.337a93.045,93.045,0,0,1-21.063-12.336l-2.285-1.789,1.968-2.141a138.392,138.392,0,0,1,41.22-30.042l2.469-1.092,1.094,2.451c.3.683,7.473,17.165,6.083,50.44l-.135,3.194-3.139-.664A140.581,140.581,0,0,1,1051-781.337Z" transform="translate(-1027.651 828.737)" fill="#58595b"/>
        </g>
        <g id="Group_1192" data-name="Group 1192" transform="translate(-136.317 1.262)" style="isolation: isolate">
          <path id="Path_1337" data-name="Path 1337" d="M1033.055-673.9c-30.2,21.023-60.772,36.958-92.8,48.572l-11.719,4.249-3.4-11.98c-31.3-110.106-17.7-213.06-17.1-217.391l1.571-11.421,11.455,1.565c3.2.442,79.832,11.647,198.716,91.824l11.414,7.7-9.53,9.891C1091.79-719.892,1062.6-694.466,1033.055-673.9Z" transform="translate(-904.581 861.872)" fill="#58595b"/>
        </g>
        <g id="Group_1193" data-name="Group 1193" transform="translate(305.138 69.803)" style="isolation: isolate">
          <path id="Path_1338" data-name="Path 1338" d="M1117.671-823.245a12.572,12.572,0,0,1-2.262-2.411l-.228-.319.338-.2a18.69,18.69,0,0,1,6.5-2.321l.363-.048.048.361c.012.1.313,2.517-1.142,6.785l-.139.409-.383-.206A19.059,19.059,0,0,1,1117.671-823.245Z" transform="translate(-1112.86 830.952)" fill="#58595b"/>
        </g>
        <g id="Group_1194" data-name="Group 1194" transform="translate(354.536 110.889)" style="isolation: isolate">
          <path id="Path_1339" data-name="Path 1339" d="M1148.836-799.108a20.732,20.732,0,0,1-4.712,2.678l-.6.241-.2-.611a30.208,30.208,0,0,1-1.27-11.176l.062-.592.6.06c.166.016,4.148.452,10.436,4.364l.6.374-.474.529A31.13,31.13,0,0,1,1148.836-799.108Z" transform="translate(-1141.972 808.569)" fill="#58595b"/>
        </g>
        <g id="Group_1195" data-name="Group 1195" transform="translate(393.08 61.453)" style="isolation: isolate">
          <path id="Path_1340" data-name="Path 1340" d="M1165.939-822.343a18.448,18.448,0,0,1-4.774-.6l-.552-.146.188-.537a26.92,26.92,0,0,1,5.086-8.593l.362-.387.389.358c.109.1,2.7,2.517,5.058,8.623l.228.586-.62.121A27.71,27.71,0,0,1,1165.939-822.343Z" transform="translate(-1160.613 832.606)" fill="#58595b" style="mix-blend-mode: multiply;isolation: isolate"/>
        </g>
        <g id="Group_1196" data-name="Group 1196" transform="translate(249.581 29.535)" style="isolation: isolate">
          <path id="Path_1341" data-name="Path 1341" d="M1101.04-830.707a33.982,33.982,0,0,1-8.461,2.7l-1.04.185-.108-1.047a49.406,49.406,0,0,1,1.785-18.325l.3-.927.932.3c.261.082,6.489,2.125,15.225,10.512l.839.806-.941.685A51.021,51.021,0,0,1,1101.04-830.707Z" transform="translate(-1091.213 848.125)" fill="#58595b"/>
        </g>
        <g id="Group_1197" data-name="Group 1197" transform="translate(9.581 6.877)" style="isolation: isolate">
          <path id="Path_1342" data-name="Path 1342" d="M990.827-828.921a54.379,54.379,0,0,1-14.056-1.767l-1.629-.432.554-1.584A79.182,79.182,0,0,1,990.678-858l1.061-1.139,1.148,1.053c.321.294,7.944,7.416,14.894,25.391l.668,1.726-1.824.36A81.654,81.654,0,0,1,990.827-828.921Z" transform="translate(-975.142 859.142)" fill="#58595b"/>
        </g>
      </g>
    </g>
  </g>
</svg>
