<svg xmlns="http://www.w3.org/2000/svg" xmlns:xlink="http://www.w3.org/1999/xlink" width="550.355" height="317.057" viewBox="0 0 550.355 317.057">
  <defs>
    <clipPath id="clip-path">
      <rect id="Rectangle_369" data-name="Rectangle 369" width="383" height="317.057" transform="translate(383 163.048) rotate(180)" fill="#58595b"/>
    </clipPath>
  </defs>
  <g id="topNav-left-pattern" transform="translate(384 -116)" opacity="0.15">
    <g id="Group_23251" data-name="Group 23251" transform="translate(20 20)">
      <g id="Group_23247" data-name="Group 23247" transform="matrix(-0.914, 0.407, -0.407, -0.914, 136.712, 186.069)" style="isolation: isolate">
        <path id="Path_1333" data-name="Path 1333" d="M1079.708-808.361a41.564,41.564,0,0,1-8.624-6.645l-.911-.919.989-.834A61.467,61.467,0,0,1,1091.05-827.7l1.153-.342.347,1.145c.1.32,2.348,8.008-.114,22.634l-.237,1.4-1.352-.472A62.627,62.627,0,0,1,1079.708-808.361Z" transform="translate(-1070.174 828.044)" fill="#58595b"/>
      </g>
      <g id="Group_23248" data-name="Group 23248" transform="translate(77.898 163.063) rotate(180)" style="isolation: isolate">
        <path id="Path_1334" data-name="Path 1334" d="M1096.98-787.1a41.693,41.693,0,0,1-9.292-5.682l-1-.818.894-.935a61.333,61.333,0,0,1,18.587-13.007l1.108-.465.469,1.1c.131.309,3.2,7.713,2.335,22.516l-.083,1.421-1.395-.323A62.739,62.739,0,0,1,1096.98-787.1Z" transform="translate(-1086.683 808.01)" fill="#58595b"/>
      </g>
      <g id="Group_23249" data-name="Group 23249" transform="translate(130.725 200.583) rotate(60)" style="isolation: isolate">
        <path id="Path_1336" data-name="Path 1336" d="M1041.419-800.786A54.864,54.864,0,0,1,1029-808.06l-1.347-1.055,1.161-1.263a81.606,81.606,0,0,1,24.307-17.715l1.456-.644.645,1.446c.179.4,4.406,10.122,3.587,29.743l-.079,1.883-1.851-.392A82.9,82.9,0,0,1,1041.419-800.786Z" transform="translate(-1027.651 828.737)" fill="#58595b"/>
      </g>
      <g id="Group_23250" data-name="Group 23250" transform="translate(86.521 213.727) rotate(180)" style="isolation: isolate">
        <path id="Path_1341" data-name="Path 1341" d="M1099.994-832.562a30.36,30.36,0,0,1-7.56,2.409l-.929.165-.1-.935A44.141,44.141,0,0,1,1093-847.3l.268-.829.833.264c.233.074,5.8,1.9,13.6,9.392l.75.72-.84.612A45.586,45.586,0,0,1,1099.994-832.562Z" transform="translate(-1091.213 848.125)" fill="#58595b"/>
      </g>
    </g>
    <g id="ArtWork" transform="translate(-1 279.048) rotate(180)" clip-path="url(#clip-path)">
      <g id="Group_23245" data-name="Group 23245">
        <g id="Group_1186" data-name="Group 1186" transform="translate(51.908 33.849)" style="isolation: isolate">
          <path id="Path_1331" data-name="Path 1331" d="M1016.028-824.361a42.079,42.079,0,0,1-8.654-6.818l-.911-.941,1.01-.833a62.2,62.2,0,0,1,20.245-10.855l1.169-.333.338,1.161c.094.325,2.287,8.13-.366,22.9l-.255,1.418-1.361-.492A63.463,63.463,0,0,1,1016.028-824.361Z" transform="translate(-1006.464 844.139)" fill="#58595b"/>
        </g>
        <g id="Group_1187" data-name="Group 1187" transform="translate(131.962 29.795)" style="isolation: isolate">
          <path id="Path_1332" data-name="Path 1332" d="M1058-834.691a25.16,25.16,0,0,1-5.792,3.153l-.734.281-.225-.748a36.756,36.756,0,0,1-1.3-13.622l.087-.718.723.084c.2.024,5.036.64,12.6,5.537l.726.47-.589.63A37.736,37.736,0,0,1,1058-834.691Z" transform="translate(-1049.796 846.345)" fill="#58595b"/>
        </g>
        <g id="Group_1188" data-name="Group 1188" transform="translate(169.611 63.425)" style="isolation: isolate">
          <path id="Path_1333-2" data-name="Path 1333" d="M1079.708-808.361a41.564,41.564,0,0,1-8.624-6.645l-.911-.919.989-.834A61.467,61.467,0,0,1,1091.05-827.7l1.153-.342.347,1.145c.1.32,2.348,8.008-.114,22.634l-.237,1.4-1.352-.472A62.627,62.627,0,0,1,1079.708-808.361Z" transform="translate(-1070.174 828.044)" fill="#58595b"/>
        </g>
        <g id="Group_1189" data-name="Group 1189" transform="translate(200.111 100.24)" style="isolation: isolate">
          <path id="Path_1334-2" data-name="Path 1334" d="M1096.98-787.1a41.693,41.693,0,0,1-9.292-5.682l-1-.818.894-.935a61.333,61.333,0,0,1,18.587-13.007l1.108-.465.469,1.1c.131.309,3.2,7.713,2.335,22.516l-.083,1.421-1.395-.323A62.739,62.739,0,0,1,1096.98-787.1Z" transform="translate(-1086.683 808.01)" fill="#58595b"/>
        </g>
        <g id="Group_1190" data-name="Group 1190" transform="translate(75.907 124.705)" style="isolation: isolate">
          <path id="Path_1335" data-name="Path 1335" d="M1034.81-777.632a40.925,40.925,0,0,1-8.635,6.327l-1.119.61-.527-1.156a59.661,59.661,0,0,1-5.058-21.651l-.017-1.174,1.182-.02c.331,0,8.247-.055,21.49,6.193l1.273.6-.813,1.143A61.285,61.285,0,0,1,1034.81-777.632Z" transform="translate(-1019.454 794.696)" fill="#58595b"/>
        </g>
        <g id="Group_1191" data-name="Group 1191" transform="translate(91.051 62.152)" style="isolation: isolate">
          <path id="Path_1336-2" data-name="Path 1336" d="M1048.512-786.385a83.136,83.136,0,0,1-18.82-11.022l-2.042-1.6,1.759-1.913a123.651,123.651,0,0,1,36.829-26.842l2.206-.976.977,2.19c.272.61,6.677,15.337,5.435,45.067l-.12,2.854-2.8-.594A125.611,125.611,0,0,1,1048.512-786.385Z" transform="translate(-1027.651 828.737)" fill="#58595b"/>
        </g>
        <g id="Group_1192" data-name="Group 1192" transform="translate(-136.317 1.262)" style="isolation: isolate">
          <path id="Path_1337" data-name="Path 1337" d="M1019.371-693.922a357.266,357.266,0,0,1-82.917,43.4l-10.471,3.8-3.041-10.7C894.974-755.809,907.13-847.8,907.662-851.668l1.4-10.2,10.235,1.4c2.858.4,71.329,10.406,177.551,82.044l10.2,6.878-8.515,8.837C1071.85-735.014,1045.768-712.3,1019.371-693.922Z" transform="translate(-904.581 861.872)" fill="#58595b"/>
        </g>
        <g id="Group_1193" data-name="Group 1193" transform="translate(252.758 62.503)" style="isolation: isolate">
          <path id="Path_1338" data-name="Path 1338" d="M1118.823-820.793a18.384,18.384,0,0,1-3.309-3.526l-.334-.467.495-.3a27.332,27.332,0,0,1,9.509-3.394l.53-.07.07.527c.018.147.458,3.681-1.67,9.923l-.2.6-.56-.3A27.859,27.859,0,0,1,1118.823-820.793Z" transform="translate(-1115.18 828.546)" fill="#58595b"/>
        </g>
        <g id="Group_1194" data-name="Group 1194" transform="translate(302.256 99.213)" style="isolation: isolate">
          <path id="Path_1339" data-name="Path 1339" d="M1148.105-800.116a18.527,18.527,0,0,1-4.21,2.392l-.536.215-.175-.546a26.993,26.993,0,0,1-1.135-9.986l.056-.529.532.053c.148.015,3.706.4,9.324,3.9l.54.334-.423.472A27.829,27.829,0,0,1,1148.105-800.116Z" transform="translate(-1141.972 808.569)" fill="#58595b"/>
        </g>
        <g id="Group_1195" data-name="Group 1195" transform="translate(336.694 55.042)" style="isolation: isolate">
          <path id="Path_1340" data-name="Path 1340" d="M1165.371-823.436a16.486,16.486,0,0,1-4.266-.537l-.493-.13.168-.48a24.053,24.053,0,0,1,4.545-7.677l.323-.345.347.32c.1.09,2.411,2.249,4.519,7.7l.2.524-.554.108A24.759,24.759,0,0,1,1165.371-823.436Z" transform="translate(-1160.613 832.606)" fill="#58595b" style="mix-blend-mode: multiply;isolation: isolate"/>
        </g>
        <g id="Group_1196" data-name="Group 1196" transform="translate(208.48 26.524)" style="isolation: isolate">
          <path id="Path_1341-2" data-name="Path 1341" d="M1099.994-832.562a30.36,30.36,0,0,1-7.56,2.409l-.929.165-.1-.935A44.141,44.141,0,0,1,1093-847.3l.268-.829.833.264c.233.074,5.8,1.9,13.6,9.392l.75.72-.84.612A45.586,45.586,0,0,1,1099.994-832.562Z" transform="translate(-1091.213 848.125)" fill="#58595b"/>
        </g>
        <g id="Group_1197" data-name="Group 1197" transform="translate(14.042 16.294)" style="isolation: isolate">
          <path id="Path_1342" data-name="Path 1342" d="M989.157-832.14a48.589,48.589,0,0,1-12.559-1.579l-1.456-.386.495-1.415a70.749,70.749,0,0,1,13.387-22.6l.948-1.018L991-858.2c.286.263,7.1,6.626,13.307,22.687l.6,1.542-1.63.322A72.959,72.959,0,0,1,989.157-832.14Z" transform="translate(-975.142 859.142)" fill="#58595b"/>
        </g>
      </g>
      <g id="Group_23246" data-name="Group 23246" transform="translate(0 -124)">
        <g id="Group_1186-2" data-name="Group 1186" transform="translate(51.908 33.849)" style="isolation: isolate">
          <path id="Path_1331-2" data-name="Path 1331" d="M1016.028-824.361a42.079,42.079,0,0,1-8.654-6.818l-.911-.941,1.01-.833a62.2,62.2,0,0,1,20.245-10.855l1.169-.333.338,1.161c.094.325,2.287,8.13-.366,22.9l-.255,1.418-1.361-.492A63.463,63.463,0,0,1,1016.028-824.361Z" transform="translate(-1006.464 844.139)" fill="#58595b"/>
        </g>
        <g id="Group_1187-2" data-name="Group 1187" transform="translate(131.962 29.795)" style="isolation: isolate">
          <path id="Path_1332-2" data-name="Path 1332" d="M1058-834.691a25.16,25.16,0,0,1-5.792,3.153l-.734.281-.225-.748a36.756,36.756,0,0,1-1.3-13.622l.087-.718.723.084c.2.024,5.036.64,12.6,5.537l.726.47-.589.63A37.736,37.736,0,0,1,1058-834.691Z" transform="translate(-1049.796 846.345)" fill="#58595b"/>
        </g>
        <g id="Group_1188-2" data-name="Group 1188" transform="translate(169.611 63.425)" style="isolation: isolate">
          <path id="Path_1333-3" data-name="Path 1333" d="M1079.708-808.361a41.564,41.564,0,0,1-8.624-6.645l-.911-.919.989-.834A61.467,61.467,0,0,1,1091.05-827.7l1.153-.342.347,1.145c.1.32,2.348,8.008-.114,22.634l-.237,1.4-1.352-.472A62.627,62.627,0,0,1,1079.708-808.361Z" transform="translate(-1070.174 828.044)" fill="#58595b"/>
        </g>
        <g id="Group_1189-2" data-name="Group 1189" transform="translate(200.111 100.24)" style="isolation: isolate">
          <path id="Path_1334-3" data-name="Path 1334" d="M1096.98-787.1a41.693,41.693,0,0,1-9.292-5.682l-1-.818.894-.935a61.333,61.333,0,0,1,18.587-13.007l1.108-.465.469,1.1c.131.309,3.2,7.713,2.335,22.516l-.083,1.421-1.395-.323A62.739,62.739,0,0,1,1096.98-787.1Z" transform="translate(-1086.683 808.01)" fill="#58595b"/>
        </g>
        <g id="Group_1190-2" data-name="Group 1190" transform="translate(75.907 124.705)" style="isolation: isolate">
          <path id="Path_1335-2" data-name="Path 1335" d="M1034.81-777.632a40.925,40.925,0,0,1-8.635,6.327l-1.119.61-.527-1.156a59.661,59.661,0,0,1-5.058-21.651l-.017-1.174,1.182-.02c.331,0,8.247-.055,21.49,6.193l1.273.6-.813,1.143A61.285,61.285,0,0,1,1034.81-777.632Z" transform="translate(-1019.454 794.696)" fill="#58595b"/>
        </g>
        <g id="Group_1191-2" data-name="Group 1191" transform="translate(91.051 62.152)" style="isolation: isolate">
          <path id="Path_1336-3" data-name="Path 1336" d="M1048.512-786.385a83.136,83.136,0,0,1-18.82-11.022l-2.042-1.6,1.759-1.913a123.651,123.651,0,0,1,36.829-26.842l2.206-.976.977,2.19c.272.61,6.677,15.337,5.435,45.067l-.12,2.854-2.8-.594A125.611,125.611,0,0,1,1048.512-786.385Z" transform="translate(-1027.651 828.737)" fill="#58595b"/>
        </g>
        <g id="Group_1192-2" data-name="Group 1192" transform="translate(-136.317 1.262)" style="isolation: isolate">
          <path id="Path_1337-2" data-name="Path 1337" d="M1019.371-693.922a357.266,357.266,0,0,1-82.917,43.4l-10.471,3.8-3.041-10.7C894.974-755.809,907.13-847.8,907.662-851.668l1.4-10.2,10.235,1.4c2.858.4,71.329,10.406,177.551,82.044l10.2,6.878-8.515,8.837C1071.85-735.014,1045.768-712.3,1019.371-693.922Z" transform="translate(-904.581 861.872)" fill="#58595b"/>
        </g>
        <g id="Group_1193-2" data-name="Group 1193" transform="translate(252.758 62.503)" style="isolation: isolate">
          <path id="Path_1338-2" data-name="Path 1338" d="M1118.823-820.793a18.384,18.384,0,0,1-3.309-3.526l-.334-.467.495-.3a27.332,27.332,0,0,1,9.509-3.394l.53-.07.07.527c.018.147.458,3.681-1.67,9.923l-.2.6-.56-.3A27.859,27.859,0,0,1,1118.823-820.793Z" transform="translate(-1115.18 828.546)" fill="#58595b"/>
        </g>
        <g id="Group_1194-2" data-name="Group 1194" transform="translate(302.256 99.213)" style="isolation: isolate">
          <path id="Path_1339-2" data-name="Path 1339" d="M1148.105-800.116a18.527,18.527,0,0,1-4.21,2.392l-.536.215-.175-.546a26.993,26.993,0,0,1-1.135-9.986l.056-.529.532.053c.148.015,3.706.4,9.324,3.9l.54.334-.423.472A27.829,27.829,0,0,1,1148.105-800.116Z" transform="translate(-1141.972 808.569)" fill="#58595b"/>
        </g>
        <g id="Group_1195-2" data-name="Group 1195" transform="translate(336.694 55.042)" style="isolation: isolate">
          <path id="Path_1340-2" data-name="Path 1340" d="M1165.371-823.436a16.486,16.486,0,0,1-4.266-.537l-.493-.13.168-.48a24.053,24.053,0,0,1,4.545-7.677l.323-.345.347.32c.1.09,2.411,2.249,4.519,7.7l.2.524-.554.108A24.759,24.759,0,0,1,1165.371-823.436Z" transform="translate(-1160.613 832.606)" fill="#58595b" style="mix-blend-mode: multiply;isolation: isolate"/>
        </g>
        <g id="Group_1196-2" data-name="Group 1196" transform="translate(208.48 26.524)" style="isolation: isolate">
          <path id="Path_1341-3" data-name="Path 1341" d="M1099.994-832.562a30.36,30.36,0,0,1-7.56,2.409l-.929.165-.1-.935A44.141,44.141,0,0,1,1093-847.3l.268-.829.833.264c.233.074,5.8,1.9,13.6,9.392l.75.72-.84.612A45.586,45.586,0,0,1,1099.994-832.562Z" transform="translate(-1091.213 848.125)" fill="#58595b"/>
        </g>
        <g id="Group_1197-2" data-name="Group 1197" transform="translate(-5.958 6.279)" style="isolation: isolate">
          <path id="Path_1342-2" data-name="Path 1342" d="M989.157-832.14a48.589,48.589,0,0,1-12.559-1.579l-1.456-.386.495-1.415a70.749,70.749,0,0,1,13.387-22.6l.948-1.018L991-858.2c.286.263,7.1,6.626,13.307,22.687l.6,1.542-1.63.322A72.959,72.959,0,0,1,989.157-832.14Z" transform="translate(-975.142 859.142)" fill="#58595b"/>
        </g>
      </g>
    </g>
  </g>
</svg>
