<svg id="play-cricle_bold" data-name="play-cricle/bold" xmlns="http://www.w3.org/2000/svg" width="24" height="24" viewBox="0 0 24 24">
  <g id="vuesax_bold_play-cricle" data-name="vuesax/bold/play-cricle">
    <g id="play-cricle">
      <path id="Vector" d="M24,0H0V24H24Z" fill="none" opacity="0"/>
      <path id="Vector-2" data-name="Vector" d="M3.673,15.637a.742.742,0,0,0,.53-.22.754.754,0,0,0,0-1.06,9.252,9.252,0,0,1,0-13.08A.75.75,0,0,0,3.143.218a10.761,10.761,0,0,0,0,15.2A.742.742,0,0,0,3.673,15.637Z" transform="translate(1.257 4.182)" fill="#fff"/>
      <path id="Vector-3" data-name="Vector" d="M.748,15.637a.742.742,0,0,0,.53-.22,10.761,10.761,0,0,0,0-15.2.75.75,0,0,0-1.06,1.06,9.252,9.252,0,0,1,0,13.08.754.754,0,0,0,0,1.06A.742.742,0,0,0,.748,15.637Z" transform="translate(18.323 4.182)" fill="#fff"/>
      <path id="Vector-4" data-name="Vector" d="M4.063,2.063a10.928,10.928,0,0,0,3.55-.6.753.753,0,0,0-.5-1.42,9.354,9.354,0,0,1-3.06.51A9.294,9.294,0,0,1,1,.043.763.763,0,0,0,.043.5a.754.754,0,0,0,.46.96A10.77,10.77,0,0,0,4.063,2.063Z" transform="translate(7.937 20.647)" fill="#fff"/>
      <path id="Vector-5" data-name="Vector" d="M.753,2.05A.727.727,0,0,0,1,2.01a9.04,9.04,0,0,1,3.05-.51,9.339,9.339,0,0,1,3.05.51A.753.753,0,0,0,7.6.59,10.749,10.749,0,0,0,4.053,0,10.706,10.706,0,0,0,.5.59a.751.751,0,0,0,.25,1.46Z" transform="translate(7.947 1.29)" fill="#fff"/>
      <path id="Vector-6" data-name="Vector" d="M7.52,4V2.334C7.52.254,6.05-.6,4.25.444l-1.45.84-1.45.84c-1.8,1.04-1.8,2.74,0,3.78l1.45.84,1.45.84c1.8,1.04,3.27.19,3.27-1.89Z" transform="translate(7.74 7.996)" fill="#fff"/>
    </g>
  </g>
</svg>
