<svg xmlns="http://www.w3.org/2000/svg" width="227.106" height="86.675" viewBox="0 0 227.106 86.675">
  <g id="title-bg" transform="matrix(0.259, -0.966, 0.966, 0.259, -684.161, 283.705)">
    <g id="Group_217" data-name="Group 217" transform="matrix(0.259, 0.966, -0.966, 0.259, 407.25, 642.187)" style="mix-blend-mode: multiply;isolation: isolate">
      <path id="Path_516" data-name="Path 516" d="M60.307,289.254a26.589,26.589,0,0,0-5.445,4.312l-.573.6.636.527a39.034,39.034,0,0,0,12.739,6.866l.735.212.214-.736c.059-.2,1.44-5.142-.231-14.487l-.161-.9-.856.312A39.726,39.726,0,0,0,60.307,289.254Z" transform="translate(-54.289 -285.647)" fill="#c3e6ed"/>
    </g>
    <g id="Group_218" data-name="Group 218" transform="matrix(0.259, 0.966, -0.966, 0.259, 411.46, 693.209)">
      <path id="Path_517" data-name="Path 517" d="M102.242,295.582a15.846,15.846,0,0,0-3.645-2l-.461-.177-.142.473a23.354,23.354,0,0,0-.815,8.618l.055.454.454-.054c.127-.015,3.169-.4,7.928-3.5l.457-.3-.371-.4A23.822,23.822,0,0,0,102.242,295.582Z" transform="translate(-97.078 -293.41)" fill="#c3e6ed"/>
    </g>
    <g id="Group_219" data-name="Group 219" transform="matrix(0.259, 0.966, -0.966, 0.259, 444.311, 708.932)">
      <path id="Path_518" data-name="Path 518" d="M123.2,273.393a26.191,26.191,0,0,0-5.427,4.2l-.573.582.623.527a38.6,38.6,0,0,0,12.514,6.922l.725.217.219-.724c.06-.2,1.477-5.067-.073-14.319l-.148-.889-.85.3A39.4,39.4,0,0,0,123.2,273.393Z" transform="translate(-117.2 -269.913)" fill="#c3e6ed"/>
    </g>
    <g id="Group_220" data-name="Group 220" transform="matrix(0.259, 0.966, -0.966, 0.259, 471.686, 721.467)">
      <path id="Path_519" data-name="Path 519" d="M139.983,252.823a26.159,26.159,0,0,0-5.847,3.594l-.632.517.562.592a38.6,38.6,0,0,0,11.7,8.228l.7.294.3-.7c.082-.194,2.014-4.879,1.469-14.244l-.053-.9-.877.206A39.288,39.288,0,0,0,139.983,252.823Z" transform="translate(-133.503 -250.208)" fill="#c3e6ed"/>
    </g>
    <g id="Group_221" data-name="Group 221" transform="matrix(0.259, 0.966, -0.966, 0.259, 465.773, 642.139)">
      <path id="Path_520" data-name="Path 520" d="M76.779,242.007a25.781,25.781,0,0,0-5.433-4l-.705-.385-.331.731a37.921,37.921,0,0,0-3.183,13.7l-.011.743.744.012c.208,0,5.189.037,13.523-3.917l.8-.379-.511-.724A38.646,38.646,0,0,0,76.779,242.007Z" transform="translate(-67.116 -237.619)" fill="#c3e6ed"/>
    </g>
    <g id="Group_222" data-name="Group 222" transform="matrix(0.259, 0.966, -0.966, 0.259, 445.971, 657.31)">
      <path id="Path_521" data-name="Path 521" d="M88.338,262.111a52.317,52.317,0,0,0-11.843,6.973L75.21,270.1l1.108,1.21a77.757,77.757,0,0,0,23.174,16.981l1.388.617.615-1.384c.171-.387,4.2-9.7,3.42-28.511l-.074-1.806-1.766.375A78.686,78.686,0,0,0,88.338,262.111Z" transform="translate(-75.21 -257.202)" fill="#c3e6ed"/>
    </g>
    <g id="Group_223" data-name="Group 223" transform="matrix(0.259, 0.966, -0.966, 0.259, 447.661, 588.346)">
      <path id="Path_522" data-name="Path 522" d="M-18.832,212.6a85.36,85.36,0,0,0-19.854-10.447l-2.507-.914-.728,2.577a126.959,126.959,0,0,0-3.659,46.758l.336,2.456,2.451-.336c.685-.095,17.078-2.506,42.513-19.75l2.442-1.656L.123,229.159A128.38,128.38,0,0,0-18.832,212.6Z" transform="translate(46.318 -201.238)" fill="#c3e6ed"/>
    </g>
    <g id="Group_224" data-name="Group 224" transform="matrix(0.259, 0.966, -0.966, 0.259, 448.652, 761.936)">
      <path id="Path_523" data-name="Path 523" d="M163.935,280.089a11.718,11.718,0,0,0-2.083,2.231l-.21.3.311.187a17.114,17.114,0,0,0,5.984,2.146l.333.044.044-.333a15.223,15.223,0,0,0-1.05-6.277l-.128-.379-.352.191A17.622,17.622,0,0,0,163.935,280.089Z" transform="translate(-161.643 -278.004)" fill="#c3e6ed"/>
    </g>
    <g id="Group_225" data-name="Group 225" transform="matrix(0.259, 0.966, -0.966, 0.259, 479.152, 786.008)">
      <path id="Path_524" data-name="Path 524" d="M191.958,259.92a11.643,11.643,0,0,0-2.65-1.513l-.336-.137-.111.346a17.157,17.157,0,0,0-.713,6.317l.034.334.334-.034a15.225,15.225,0,0,0,5.869-2.466l.339-.212-.267-.3A17.481,17.481,0,0,0,191.958,259.92Z" transform="translate(-188.099 -258.271)" fill="#c3e6ed"/>
    </g>
    <g id="Group_226" data-name="Group 226" transform="matrix(0.259, 0.966, -0.966, 0.259, 456.614, 814.48)">
      <path id="Path_525" data-name="Path 525" d="M209.5,283.023a10.337,10.337,0,0,0-2.684.339l-.311.083.106.3a15.226,15.226,0,0,0,2.861,4.856l.2.219.219-.2a13.52,13.52,0,0,0,2.844-4.874l.127-.331-.348-.069A15.486,15.486,0,0,0,209.5,283.023Z" transform="translate(-206.506 -283.023)" fill="#c3e6ed"/>
    </g>
    <g id="Group_227" data-name="Group 227" transform="matrix(0.259, 0.966, -0.966, 0.259, 423.787, 739.753)" style="mix-blend-mode: multiply;isolation: isolate">
      <path id="Path_526" data-name="Path 526" d="M143.5,295.157a19.078,19.078,0,0,0-4.756-1.523l-.585-.1-.06.591a28.051,28.051,0,0,0,1,10.359l.168.524.524-.167c.147-.046,3.648-1.2,8.56-5.942l.472-.456-.53-.387A28.668,28.668,0,0,0,143.5,295.157Z" transform="translate(-137.976 -293.529)" fill="#c3e6ed"/>
    </g>
    <g id="Group_228" data-name="Group 228" transform="matrix(0.259, 0.966, -0.966, 0.259, 387.349, 618.34)">
      <path id="Path_527" data-name="Path 527" d="M39.167,296.733a30.414,30.414,0,0,0-7.9,1l-.916.244.311.895a44.813,44.813,0,0,0,8.423,14.3l.6.644.645-.6c.18-.166,4.467-4.191,8.374-14.352l.376-.976-1.025-.2A45.68,45.68,0,0,0,39.167,296.733Z" transform="translate(-30.348 -296.733)" fill="#c3e6ed"/>
    </g>
  </g>
</svg>
