<svg id="verify_outline" data-name="verify/outline" xmlns="http://www.w3.org/2000/svg" width="16" height="16" viewBox="0 0 16 16">
  <g id="vuesax_outline_verify" data-name="vuesax/outline/verify">
    <g id="verify">
      <path id="Vector" d="M2.112,4.218a.5.5,0,0,1-.353-.147L.145,2.458a.5.5,0,0,1,.707-.707l1.26,1.26L4.978.145a.5.5,0,0,1,.707.707l-3.22,3.22A.5.5,0,0,1,2.112,4.218Z" transform="translate(5.082 5.895)" fill="#0096b6"/>
      <path id="Vector-2" data-name="Vector" d="M7.163,14.333A1.792,1.792,0,0,1,6,13.913l-1.053-.907a1.022,1.022,0,0,0-.513-.187H3.283A1.787,1.787,0,0,1,1.5,11.033V9.893a1,1,0,0,0-.187-.507l-.9-1.06a1.837,1.837,0,0,1,0-2.313l.9-1.06A1,1,0,0,0,1.5,4.447V3.3A1.787,1.787,0,0,1,3.283,1.513H4.437a1.089,1.089,0,0,0,.513-.187L6,.42A1.821,1.821,0,0,1,8.33.42l1.053.907a1.022,1.022,0,0,0,.513.187H11.03A1.787,1.787,0,0,1,12.817,3.3V4.433a1.031,1.031,0,0,0,.193.513L13.917,6a1.821,1.821,0,0,1,0,2.327L13.01,9.38a1.031,1.031,0,0,0-.193.513v1.133a1.787,1.787,0,0,1-1.787,1.787H9.9A1.089,1.089,0,0,0,9.383,13l-1.053.907A1.764,1.764,0,0,1,7.163,14.333ZM3.283,2.513A.788.788,0,0,0,2.5,3.3V4.44A1.961,1.961,0,0,1,2.07,5.593l-.9,1.06a.831.831,0,0,0,0,1.02l.9,1.06A1.977,1.977,0,0,1,2.5,9.887v1.14a.788.788,0,0,0,.787.787H4.437a1.963,1.963,0,0,1,1.167.433l1.053.907a.84.84,0,0,0,1.027,0l1.053-.907A2.007,2.007,0,0,1,9.9,11.813h1.133a.788.788,0,0,0,.787-.787V9.893a1.963,1.963,0,0,1,.433-1.167l.907-1.053a.84.84,0,0,0,0-1.027l-.907-1.053a1.963,1.963,0,0,1-.433-1.167V3.3a.788.788,0,0,0-.787-.787H9.9A1.963,1.963,0,0,1,8.737,2.08L7.683,1.173a.84.84,0,0,0-1.027,0L5.6,2.087a2.017,2.017,0,0,1-1.167.427Z" transform="translate(0.837 0.833)" fill="#0096b6"/>
      <path id="Vector-3" data-name="Vector" d="M0,0H16V16H0Z" fill="none" opacity="0"/>
    </g>
  </g>
</svg>
