<svg id="vuesax_outline_calendar-tick" data-name="vuesax/outline/calendar-tick" xmlns="http://www.w3.org/2000/svg" width="30" height="30" viewBox="0 0 30 30">
  <g id="calendar-tick">
    <path id="Vector" d="M.938,5.625A.944.944,0,0,1,0,4.688V.938A.944.944,0,0,1,.938,0a.944.944,0,0,1,.938.938v3.75A.944.944,0,0,1,.938,5.625Z" transform="translate(9.063 1.563)" fill="#0096b6"/>
    <path id="Vector-2" data-name="Vector" d="M.938,5.625A.944.944,0,0,1,0,4.688V.938A.944.944,0,0,1,.938,0a.944.944,0,0,1,.938.938v3.75A.944.944,0,0,1,.938,5.625Z" transform="translate(19.063 1.563)" fill="#0096b6"/>
    <path id="Vector-3" data-name="Vector" d="M1.25,2.484a1.314,1.314,0,0,1-.887-.363A1.291,1.291,0,0,1,0,1.234,1.244,1.244,0,0,1,.1.759,1.443,1.443,0,0,1,.363.347a1.309,1.309,0,0,1,1.775,0,1.314,1.314,0,0,1,.363.887,1.879,1.879,0,0,1-.025.25.794.794,0,0,1-.075.225.946.946,0,0,1-.112.225l-.15.187A1.314,1.314,0,0,1,1.25,2.484Z" transform="translate(9.375 15.641)" fill="#0096b6"/>
    <path id="Vector-4" data-name="Vector" d="M1.25,2.493a1.244,1.244,0,0,1-.475-.1,1.29,1.29,0,0,1-.413-.263A1.291,1.291,0,0,1,0,1.243,1.244,1.244,0,0,1,.1.768,1.443,1.443,0,0,1,.363.356,1.29,1.29,0,0,1,.775.093,1.272,1.272,0,0,1,2.137.356a1.314,1.314,0,0,1,.363.887,1.879,1.879,0,0,1-.025.25.8.8,0,0,1-.075.225.946.946,0,0,1-.112.225,1.97,1.97,0,0,1-.15.187A1.314,1.314,0,0,1,1.25,2.493Z" transform="translate(13.75 15.632)" fill="#0096b6"/>
    <path id="Vector-5" data-name="Vector" d="M1.25,2.5a1.244,1.244,0,0,1-.475-.1,1.167,1.167,0,0,1-.413-.263A1.167,1.167,0,0,1,.1,1.724,1.244,1.244,0,0,1,0,1.249,1.244,1.244,0,0,1,.1.774,1.167,1.167,0,0,1,.363.361,1.167,1.167,0,0,1,.775.1a1.2,1.2,0,0,1,.95,0,1.167,1.167,0,0,1,.413.263A1.167,1.167,0,0,1,2.4.774a1.244,1.244,0,0,1,.1.475,1.244,1.244,0,0,1-.1.475,1.127,1.127,0,0,1-.675.675A1.244,1.244,0,0,1,1.25,2.5Z" transform="translate(9.375 20.002)" fill="#0096b6"/>
    <path id="Vector-6" data-name="Vector" d="M22.188,1.875H.938A.944.944,0,0,1,0,.938.944.944,0,0,1,.938,0h21.25a.944.944,0,0,1,.938.938A.944.944,0,0,1,22.188,1.875Z" transform="translate(3.438 10.425)" fill="#0096b6"/>
    <path id="Vector-7" data-name="Vector" d="M5.938,11.875a5.8,5.8,0,0,1-3.912-1.488A5.384,5.384,0,0,1,.85,8.988,5.868,5.868,0,0,1,0,5.938a5.938,5.938,0,0,1,11.875,0A5.84,5.84,0,0,1,11.012,9,5.917,5.917,0,0,1,5.938,11.875Zm0-10A4.07,4.07,0,0,0,1.875,5.938a3.961,3.961,0,0,0,.588,2.088,3.672,3.672,0,0,0,.787.95A3.966,3.966,0,0,0,5.938,10,4.069,4.069,0,0,0,10,5.938,4.152,4.152,0,0,0,8.988,3.25,4.078,4.078,0,0,0,5.938,1.875Z" transform="translate(16.563 17.813)" fill="#0096b6"/>
    <path id="Vector-8" data-name="Vector" d="M2.172,4.335a.927.927,0,0,1-.662-.275L.272,2.823A.937.937,0,0,1,1.6,1.5l.6.6,2-1.85A.938.938,0,0,1,5.472,1.623L2.809,4.085A.978.978,0,0,1,2.172,4.335Z" transform="translate(19.615 21.59)" fill="#0096b6"/>
    <path id="Vector-9" data-name="Vector" d="M16.4,25H7.188C2.625,25,0,22.375,0,17.813V7.188C0,2.625,2.625,0,7.188,0h10c4.563,0,7.188,2.625,7.188,7.188v9.825a.941.941,0,0,1-1.65.613,4.065,4.065,0,0,0-7.113,2.687A3.961,3.961,0,0,0,16.2,22.4a3.672,3.672,0,0,0,.787.95.929.929,0,0,1,.275,1.038A.894.894,0,0,1,16.4,25ZM7.188,1.875c-3.575,0-5.312,1.738-5.312,5.313V17.813c0,3.575,1.738,5.313,5.313,5.313h7.275a5.874,5.874,0,0,1-.712-2.812,5.931,5.931,0,0,1,8.75-5.225v-7.9c0-3.575-1.737-5.312-5.312-5.312Z" transform="translate(2.813 3.438)" fill="#0096b6"/>
    <path id="Vector-10" data-name="Vector" d="M0,0H30V30H0Z" fill="none" opacity="0"/>
  </g>
</svg>
