<svg xmlns="http://www.w3.org/2000/svg" width="502.535" height="213.833" viewBox="0 0 502.535 213.833">
  <g id="white-pattern" transform="translate(42.863 -924.519)">
    <g id="Group_23167" data-name="Group 23167" transform="matrix(0.602, 0.799, -0.799, 0.602, 333.323, 949.27)" style="isolation: isolate">
      <path id="Path_1332" data-name="Path 1332" d="M1113.167-756.224a194.313,194.313,0,0,1-44.731,24.385l-5.669,2.174-1.74-5.784c-16.065-53.158-10.259-103.238-10-105.339l.67-5.556,5.581.654c1.573.182,38.9,4.945,97.313,42.815l5.608,3.637-4.553,4.875C1141.361-779.06,1127.378-766.456,1113.167-756.224Z" transform="translate(-1033.456 784.782)" fill="none" stroke="#fff" stroke-width="1"/>
    </g>
    <g id="Group_23168" data-name="Group 23168" transform="matrix(0.139, -0.99, 0.99, 0.139, 120.6, 1120.38)" style="isolation: isolate">
      <path id="Path_1333" data-name="Path 1333" d="M1116.776-731.724a203.139,203.139,0,0,1-42.15-32.517l-4.453-4.5,4.833-4.084c44.444-37.543,95.074-52.912,97.2-53.549l5.636-1.673,1.695,5.6c.469,1.564,11.479,39.19-.558,110.762l-1.158,6.87-6.609-2.31C1150.521-714.35,1132.561-722.444,1116.776-731.724Z" transform="translate(-1070.174 828.044)" fill="none" stroke="#fff" stroke-width="1"/>
    </g>
    <g id="Group_23170" data-name="Group 23170" transform="translate(-30.13 975.755) rotate(-25)" style="isolation: isolate">
      <path id="Path_1337" data-name="Path 1337" d="M962.865-776.491a181.326,181.326,0,0,1-42.1,22.063l-5.317,1.93-1.544-5.442c-14.2-50.013-8.029-96.778-7.759-98.745l.713-5.188,5.2.711c1.452.2,36.217,5.29,90.151,41.709l5.178,3.5-4.323,4.493C989.512-797.381,976.268-785.832,962.865-776.491Z" transform="translate(-913.459 852.427)" fill="none" stroke="#fff" stroke-width="1"/>
    </g>
  </g>
</svg>
