<svg xmlns="http://www.w3.org/2000/svg" xmlns:xlink="http://www.w3.org/1999/xlink" width="1920" height="535" viewBox="0 0 1920 535">
  <defs>
    <clipPath id="clip-path">
      <rect id="Rectangle_45" data-name="Rectangle 45" width="1920" height="535" fill="#fff"/>
    </clipPath>
  </defs>
  <g id="Artbg" opacity="0.26" clip-path="url(#clip-path)">
    <g id="art" transform="translate(391.736 -292.223) rotate(7)">
      <path id="Path_125" data-name="Path 125" d="M1055.432,739.234a1579.827,1579.827,0,0,0-163-245.55A1513.571,1513.571,0,0,0,746.075,336.329C728.4,319.813,710.4,304.012,692.2,288.521c-17.99-15.659-36.37-31.1-55.279-46.095A1505.614,1505.614,0,0,0,460.365,122.012,1527.114,1527.114,0,0,0,195.719,0l.067.171A1298.044,1298.044,0,0,0,24.644,445.242c-4.2,22.643-7.58,45.289-10.553,67.888-3.272,22.6-6.16,45.286-8.276,68.388A1353.728,1353.728,0,0,0,2.463,788.455a1473.306,1473.306,0,0,0,45.095,284.552l-.007.006h.007l.008.034.026-.033a1379.027,1379.027,0,0,0,281.961-3.313,1269.564,1269.564,0,0,0,198.663-38.9c21.842-6.155,43.2-12.96,64.428-20.147,21.244-6.877,42.465-14.165,63.538-22.233a1218.074,1218.074,0,0,0,180-86.493,1255.453,1255.453,0,0,0,219.276-162.612" transform="translate(295.711 0.002)" fill="none" stroke="#fff" stroke-miterlimit="10" stroke-width="0.3"/>
      <path id="Path_126" data-name="Path 126" d="M1006.767,1087.63a1366.218,1366.218,0,0,0,40.561-276.448,1358.734,1358.734,0,0,0-6.441-206.163c-2.477-23.24-5.672-46.229-9.243-69.137-3.291-22.891-7.032-45.9-11.492-68.982a1442.9,1442.9,0,0,0-54.9-202.438A1546,1546,0,0,0,843.254.007l-.067.159A1283.593,1283.593,0,0,0,582.266,83.817a1199.716,1199.716,0,0,0-173.739,94.55c-18.617,12.191-36.609,24.943-54.264,37.95-17.877,12.8-35.513,25.918-52.842,39.846A1187.776,1187.776,0,0,0,158.327,391.77,1255,1255,0,0,0,.024,612.623H.018v.007l-.013.026.04,0a1568.22,1568.22,0,0,0,220.492,192.91,1476.671,1476.671,0,0,0,180.19,111.546c21.08,11.014,42.235,21.263,63.547,31.154,21.108,10.126,42.485,19.953,64.267,29.153A1416.69,1416.69,0,0,0,726.6,1044.336a1425.355,1425.355,0,0,0,280.13,43.367" transform="translate(34.053 31.353)" fill="none" stroke="#fff" stroke-miterlimit="10" stroke-width="0.3"/>
      <path id="Path_127" data-name="Path 127" d="M614.395,1136.323a1340.557,1340.557,0,0,0,214.54-197.794A1290.669,1290.669,0,0,0,955.424,767.012c12.667-20.481,24.5-41.227,35.956-62.155,11.69-20.731,23.042-41.851,33.792-63.492a1349.4,1349.4,0,0,0,79.85-200.206,1458.261,1458.261,0,0,0,58.4-294.447l-.163.088A1594.315,1594.315,0,0,0,871.278,43.931,1470.368,1470.368,0,0,0,651.912,6.966c-24.831-2.291-49.45-3.72-73.918-4.712C553.452.937,528.915.043,504.147.011A1407.874,1407.874,0,0,0,.04,92.037L.033,92.03v.007L0,92.049l.041.029A1610.353,1610.353,0,0,0,77.527,392.919a1587.773,1587.773,0,0,0,92.922,208.435c12.182,22.732,24.919,44.891,38.022,66.868,12.785,22.026,25.987,43.987,39.981,65.713A1621.747,1621.747,0,0,0,386.344,917.849a1696.576,1696.576,0,0,0,227.972,218.512" transform="translate(0.001 96.831)" fill="none" stroke="#fff" stroke-miterlimit="10" stroke-width="0.3"/>
    </g>
  </g>
</svg>
