<svg xmlns="http://www.w3.org/2000/svg" xmlns:xlink="http://www.w3.org/1999/xlink" width="499.089" height="287.387" viewBox="0 0 499.089 287.387">
  <defs>
    <linearGradient id="linear-gradient" x1="0.078" y1="0.438" x2="1.089" y2="0.407" gradientUnits="objectBoundingBox">
      <stop offset="0" stop-color="#41434b" stop-opacity="0"/>
      <stop offset="1" stop-color="#0d0d0f"/>
    </linearGradient>
    <linearGradient id="linear-gradient-2" x1="0.5" x2="0.5" y2="1" gradientUnits="objectBoundingBox">
      <stop offset="0" stop-color="#78c968"/>
      <stop offset="1" stop-color="#228b5e"/>
    </linearGradient>
  </defs>
  <g id="img404" transform="translate(16084.295 68.846)">
    <path id="Rectangle_382" data-name="Rectangle 382" d="M25,0H288a25,25,0,0,1,25,25V187a0,0,0,0,1,0,0H0a0,0,0,0,1,0,0V25A25,25,0,0,1,25,0Z" transform="translate(-16005.955 -68.846)" fill="#0096b6"/>
    <path id="Path_1356" data-name="Path 1356" d="M16.046,0h90.168l15.05,49.525H0Z" transform="translate(-15911.595 155.536)" fill="#2c2e35"/>
    <rect id="Rectangle_384" data-name="Rectangle 384" width="205.498" height="8.562" rx="4.281" transform="translate(-15953.132 202.473)" fill="#2c2e35"/>
    <path id="Rectangle_385" data-name="Rectangle 385" d="M0,0H312.918a0,0,0,0,1,0,0V14.7a25,25,0,0,1-25,25H25a25,25,0,0,1-25-25V0A0,0,0,0,1,0,0Z" transform="translate(-16005.914 117.679)" fill="#41434b"/>
    <g id="Group_1167" data-name="Group 1167" transform="translate(-15918.986 14.932)">
      <path id="Path_1357" data-name="Path 1357" d="M0,155.932v-5a2.009,2.009,0,0,1,.312-1.041l19.469-42.165A1.263,1.263,0,0,1,21.031,107h5.934c.625,0,.833.312.625.833L8.329,149.79V150H24.362c.208,0,.521-.1.521-.416V133.652a.811.811,0,0,1,.625-.937h5.934a.811.811,0,0,1,.937.625v16.033c0,.208.1.521.416.521h5.622a.811.811,0,0,1,.937.729v5.31a.811.811,0,0,1-.625.937H33c-.208,0-.521.1-.521.416v9.266a.811.811,0,0,1-.729.937H25.82a.811.811,0,0,1-.937-.625v-9.37c0-.208-.1-.521-.416-.521H.937A.811.811,0,0,1,0,156.245Z" transform="translate(0 -106.159)" fill="#fff"/>
      <path id="Path_1358" data-name="Path 1358" d="M48.953,157.007c-.208-.729-.312-1.353-.521-2.082a20.438,20.438,0,0,1-.416-3.332c-.1-1.458-.208-3.227-.312-5.518s-.1-5.206-.1-8.745,0-6.455.1-8.745.208-4.164.312-5.518.312-2.5.416-3.332a15.219,15.219,0,0,1,.521-2.082,15.658,15.658,0,0,1,6.038-8.537A17.882,17.882,0,0,1,65.507,106.2a18.668,18.668,0,0,1,10.515,2.915,16.2,16.2,0,0,1,6.038,8.537,15.221,15.221,0,0,1,.521,2.082c.1.833.312,1.874.416,3.332s.208,3.227.312,5.518.1,5.206.1,8.745,0,6.455-.1,8.745-.208,4.164-.312,5.518-.312,2.5-.416,3.332a15.221,15.221,0,0,1-.521,2.082,15.658,15.658,0,0,1-6.038,8.537,17.163,17.163,0,0,1-10.515,2.915,18.669,18.669,0,0,1-10.515-2.915A16.2,16.2,0,0,1,48.953,157.007Zm7.392-1.562a8.843,8.843,0,0,0,3.436,4.581,11.792,11.792,0,0,0,11.452,0,8.451,8.451,0,0,0,3.436-4.581,9.75,9.75,0,0,0,.416-1.666,13.878,13.878,0,0,0,.312-2.915c.1-1.353.1-3.019.208-5.206s0-5,0-8.433v-8.433c0-2.186-.1-3.852-.208-5.206a13.876,13.876,0,0,0-.312-2.915,7.8,7.8,0,0,0-.416-1.666,8.213,8.213,0,0,0-3.436-4.477,11.792,11.792,0,0,0-11.452,0,8.451,8.451,0,0,0-3.436,4.581,9.749,9.749,0,0,0-.416,1.666c-.1.937-.208,1.978-.312,2.915-.1,1.353-.208,3.019-.208,5.206v16.866c0,2.186.1,3.852.208,5.206a13.877,13.877,0,0,0,.312,2.915A8.675,8.675,0,0,0,56.345,155.445Z" transform="translate(1.957 -106.193)" fill="#fff"/>
      <path id="Path_1359" data-name="Path 1359" d="M92.4,155.932v-5a2.009,2.009,0,0,1,.312-1.041l19.573-42.165a1.444,1.444,0,0,1,1.249-.729h5.934c.625,0,.833.312.625.833l-19.261,41.853v.208h15.929c.208,0,.521-.1.521-.416V133.548a.811.811,0,0,1,.729-.937h5.934a.667.667,0,0,1,.833.625v16.033c0,.208.1.521.416.521h5.622a.811.811,0,0,1,.937.729v5.31a.811.811,0,0,1-.625.937H125.4c-.208,0-.521.1-.521.416v9.266a.811.811,0,0,1-.625.937h-5.934a.667.667,0,0,1-.833-.625v-9.37c0-.208-.1-.521-.416-.521H93.337a.811.811,0,0,1-.937-.729Z" transform="translate(3.799 -106.159)" fill="#fff"/>
    </g>
    <path id="Path_1360" data-name="Path 1360" d="M115.711,23.727a14.134,14.134,0,0,0-28.028,0,10.1,10.1,0,0,0,1.922,20.02H113.95A10.185,10.185,0,0,0,124.04,33.5,10.555,10.555,0,0,0,115.711,23.727ZM113.79,39.743H89.445A6.095,6.095,0,0,1,88.8,27.571h.641a1.739,1.739,0,0,0,1.441-.641,2.385,2.385,0,0,0,.641-1.441,10.178,10.178,0,0,1,20.34,0,1.739,1.739,0,0,0,.641,1.441,2.385,2.385,0,0,0,1.441.641,6.093,6.093,0,0,1,5.766,6.406A6.49,6.49,0,0,1,113.79,39.743Z" transform="translate(-15851.016 -53.386)" fill="rgba(255,255,255,0.14)"/>
    <path id="Path_1363" data-name="Path 1363" d="M98.962,18.033a7.6,7.6,0,0,0-15.073,0A5.432,5.432,0,0,0,84.923,28.8H98.015a5.477,5.477,0,0,0,5.426-5.512A5.676,5.676,0,0,0,98.962,18.033Zm-1.034,8.613H84.837a3.278,3.278,0,0,1-.345-6.546h.345a.935.935,0,0,0,.775-.345,1.283,1.283,0,0,0,.345-.775,5.474,5.474,0,0,1,10.939,0,.935.935,0,0,0,.345.775,1.283,1.283,0,0,0,.775.345,3.277,3.277,0,0,1,3.1,3.445A3.49,3.49,0,0,1,97.928,26.646Z" transform="translate(-16059.196 30.663)" fill="rgba(255,255,255,0.14)"/>
    <path id="Path_1361" data-name="Path 1361" d="M102.9,40.761,101.535,39.4l-1.872,1.7-1.7-1.7L96.6,40.761l1.872,1.7-1.872,1.7,1.361,1.361,1.7-1.7,1.872,1.7,1.361-1.361-1.7-1.7Z" transform="translate(-15859.849 -3.64)" fill="rgba(255,255,255,0.14)"/>
    <path id="Path_1362" data-name="Path 1362" d="M30.467,26.732,29.105,25.2l-1.872,1.872L25.361,25.2,24,26.732,25.872,28.6,24,30.476l1.361,1.361,1.872-1.872,1.872,1.872,1.361-1.361L28.595,28.6Z" transform="translate(-15981.698 -38.192)" fill="rgba(255,255,255,0.14)"/>
    <ellipse id="Ellipse_75" data-name="Ellipse 75" cx="2.553" cy="2.553" rx="2.553" ry="2.553" transform="translate(-15973.943 -26.021)" fill="rgba(255,255,255,0.14)"/>
    <ellipse id="Ellipse_76" data-name="Ellipse 76" cx="1.872" cy="1.872" rx="1.872" ry="1.872" transform="translate(-15792.035 -25.225)" fill="rgba(255,255,255,0.14)"/>
    <path id="Path_1365" data-name="Path 1365" d="M126.536,7.361h-5.042L126.168,0H120.28l-5.521,11.041H119.1l-4.343,10.305Z" transform="translate(-15872.278 -5.333)" fill="#fff" opacity="0.11"/>
    <path id="Path_1366" data-name="Path 1366" d="M123.9,5.716h-3.916L123.619,0h-4.573l-4.287,8.574h3.373l-3.373,8Z" transform="translate(-16090.534 62.521)" fill="#fff" opacity="0.11"/>
    <g id="Group_1168" data-name="Group 1168" transform="translate(-16054.175 144.509)">
      <g id="XMLID_1326_" transform="translate(2.851 0)">
        <g id="Group_1169" data-name="Group 1169" transform="translate(0 0)">
          <path id="Path_1371" data-name="Path 1371" d="M41.528,5.255C53.441,6.464,63.2,7.719,63.2,7.719l-18.391,7.43L12.9,19.324,15.55,2.884S29.616,4.047,41.528,5.255Z" transform="translate(-37.694 32.44) rotate(22)" opacity="0.15" fill="url(#linear-gradient)"/>
          <g id="Group_1170" data-name="Group 1170">
            <ellipse id="Ellipse_77" data-name="Ellipse 77" cx="5.211" cy="5.211" rx="5.211" ry="5.211" transform="translate(7.56)" fill="#41434b"/>
            <path id="Path_1368" data-name="Path 1368" d="M153.4,45.009h11.62l5.506-.644-2.964-3.561a2.514,2.514,0,1,1,3.865-3.217l5.932,7.128a2.514,2.514,0,0,1-1.64,4.106l-8.871,1.037V93.219a3.017,3.017,0,1,1-6.034,0V69.1h-1.3V93.219a3.017,3.017,0,1,1-6.034,0l.053-42.245a.526.526,0,0,0-1.051-.019h0l-.093,18.471a2.514,2.514,0,0,1-2.514,2.5h-.013a2.514,2.514,0,0,1-2.5-2.527l.093-18.471A5.963,5.963,0,0,1,153.4,45.009Z" transform="translate(-147.353 -32.315)" fill="#41434b"/>
          </g>
        </g>
      </g>
      <rect id="Rectangle_387" data-name="Rectangle 387" width="35.028" height="3.892" rx="1.946" transform="translate(0 61.078)" fill="#41434b"/>
      <rect id="Rectangle_388" data-name="Rectangle 388" width="8.562" height="3.892" rx="1.946" transform="translate(39.699 61.078)" fill="#41434b"/>
    </g>
    <g id="img404-2" data-name="img404" transform="translate(-15694.089 131.185)">
      <g id="Group_1165" data-name="Group 1165" transform="translate(0 0)">
        <g id="Layer_1-2">
          <path id="Path_1343" data-name="Path 1343" d="M82.67,77.223H60.157V66.177a12.729,12.729,0,0,0,6.417,1.683A13.651,13.651,0,0,0,80.04,53.974h0A13.688,13.688,0,0,0,72.465,41.56,12.253,12.253,0,0,0,65.1,22.414,10.352,10.352,0,0,0,59.947,8.738a13.052,13.052,0,0,0-4-.947h.105A9.234,9.234,0,0,0,45.429.006a9.373,9.373,0,0,0-7.89,8A6.635,6.635,0,0,0,38.8,21.151h7.785a5.127,5.127,0,0,0,.421,1.157,12.24,12.24,0,0,0-9.363,14.518,10.909,10.909,0,0,0,2.1,4.629,13.8,13.8,0,0,0-7.574,12.414A13.651,13.651,0,0,0,45.639,67.755h0a13.571,13.571,0,0,0,6.417-1.683V77.118H15.762A1.475,1.475,0,0,0,14.5,78.59a1.451,1.451,0,0,0,1.262,1.262h94.891a1.475,1.475,0,0,0,1.262-1.473,1.451,1.451,0,0,0-1.262-1.262h-1.368ZM38.8,18.626a4,4,0,0,1-3.787-4.208A4.073,4.073,0,0,1,38.8,10.631a1.142,1.142,0,0,0,.947-.421,1.567,1.567,0,0,0,.421-.947,6.608,6.608,0,0,1,13.15-1.052A10.387,10.387,0,0,0,46.06,18.1v.421Zm-4,35.347a10.86,10.86,0,0,1,7.574-10.625,1.334,1.334,0,0,0,.842-1.683c-.105-.21-.21-.316-.316-.526a9.626,9.626,0,0,1-2.84-6.838,9.272,9.272,0,0,1,9.047-9.468,1.443,1.443,0,0,0,1.368-.631,1.294,1.294,0,0,0-.105-1.368A8.175,8.175,0,0,1,48.8,18.206a7.364,7.364,0,0,1,14.728,0,8.068,8.068,0,0,1-1.473,4.629,1.294,1.294,0,0,0-.105,1.368,1.459,1.459,0,0,0,1.262.736,9.364,9.364,0,0,1,9.152,9.468h0a9.812,9.812,0,0,1-2.84,6.838,1.154,1.154,0,0,0-.316,1.262,1.284,1.284,0,0,0,.842.947,11.3,11.3,0,0,1,6.628,14.518,11.149,11.149,0,0,1-9.889,7.259,10.642,10.642,0,0,1-8.942-4.944l8.732-8.732a1.339,1.339,0,0,0-1.894-1.894l-7.048,7.048V43.138l6.312-6.312a1.338,1.338,0,0,0-.105-1.894,1.278,1.278,0,0,0-1.683,0l-4.418,4.418v-6.1A1.372,1.372,0,0,0,55,33.039v6.312l-4.418-4.418a1.338,1.338,0,0,0-1.894.105,1.278,1.278,0,0,0,0,1.683L55,43.033V56.6l-7.048-7.048a1.339,1.339,0,0,0-1.894,1.894h0l8.732,8.732a10.78,10.78,0,0,1-8.942,4.944A10.935,10.935,0,0,1,34.8,53.974ZM54.792,77.118V64.178a9.084,9.084,0,0,0,1.368-1.473,17.467,17.467,0,0,0,1.368,1.473v12.94Zm51.969,0h0Z" transform="translate(-14.5 0.117)" fill="url(#linear-gradient-2)"/>
          <path id="Path_1344" data-name="Path 1344" d="M103.277,19.5a9.284,9.284,0,0,0-18.41,0,6.635,6.635,0,0,0,1.262,13.15h15.99a6.69,6.69,0,0,0,6.628-6.733A6.933,6.933,0,0,0,103.277,19.5Zm-1.262,10.52H86.024a4,4,0,1,1-.421-8h.421a1.142,1.142,0,0,0,.947-.421,1.567,1.567,0,0,0,.421-.947,6.685,6.685,0,0,1,13.36,0,1.142,1.142,0,0,0,.421.947,1.567,1.567,0,0,0,.947.421,4,4,0,0,1,3.787,4.208A4.263,4.263,0,0,1,102.014,30.02Z" transform="translate(-11.121 0.716)" fill="url(#linear-gradient-2)"/>
          <path id="Path_1345" data-name="Path 1345" d="M100.492,40.242l-.842-.842-1.157,1.052L97.442,39.4l-.842.842,1.157,1.052L96.6,42.346l.842.842,1.052-1.052,1.157,1.052.842-.842L99.44,41.294Z" transform="translate(-10.231 2.172)" fill="url(#linear-gradient-2)"/>
          <path id="Path_1346" data-name="Path 1346" d="M28,26.147l-.842-.947L26,26.357,24.842,25.2,24,26.147,25.157,27.3,24,28.461l.842.842L26,28.146,27.156,29.3,28,28.461,26.84,27.3Z" transform="translate(-23.006 14.433)" fill="url(#linear-gradient-2)"/>
          <ellipse id="Ellipse_73" data-name="Ellipse 73" cx="1.578" cy="1.578" rx="1.578" ry="1.578" transform="translate(11.629 22.381)" fill="url(#linear-gradient-2)"/>
          <ellipse id="Ellipse_74" data-name="Ellipse 74" cx="1.157" cy="1.157" rx="1.157" ry="1.157" transform="translate(106.568 25.055)" fill="url(#linear-gradient-2)"/>
        </g>
        <path id="Path_1369" data-name="Path 1369" d="M90.02,44.154a1.475,1.475,0,0,0,1.262-1.473,1.451,1.451,0,0,0-1.262-1.262H88.652a1.372,1.372,0,0,0-2.735-.21v.21H64.772a1.372,1.372,0,1,0-2.735-.21v.21H60.669a1.475,1.475,0,0,0-1.262,1.473,1.451,1.451,0,0,0,1.262,1.262h1.368v4H60.669a1.368,1.368,0,1,0,0,2.735h1.368v1.157H60.669a1.475,1.475,0,0,0-1.262,1.473,1.451,1.451,0,0,0,1.262,1.262h1.368v4l26.616-.105v-4H90.02A1.475,1.475,0,0,0,91.282,53.2a1.451,1.451,0,0,0-1.262-1.262H88.652V50.571H90.02a1.368,1.368,0,0,0,0-2.735H88.652V44.154ZM86.127,58.672l-21.356.105v-4.1h21.25Zm0-6.628H64.772V50.782h21.25Zm0-4H64.772V44.154h21.25Z" transform="translate(6.133 18.563)" fill="#9a6a3c"/>
      </g>
    </g>
    <rect id="Rectangle_389" data-name="Rectangle 389" width="5.228" height="5.531" transform="translate(-16041.067 132.027)" fill="#41434b"/>
    <path id="Path_1370" data-name="Path 1370" d="M277.569,0a7.364,7.364,0,0,0-7.083,4.351l4.081,2.9c.465-.541,1.1-2.091,2.766-2.091a1.831,1.831,0,0,1,2.024,1.686c0,1.9-3.184,3.183-4.149,3.71-2.426,1.26-2.665,2.97-2.665,4.958h5.228c0-.766.7-1.266,1.5-1.72,2.3-1.3,5.649-2.188,5.649-6.914C284.921,2.348,281.6,0,277.569,0Z" transform="translate(-16313.713 113.317)" fill="#41434b"/>
  </g>
</svg>
