<svg xmlns="http://www.w3.org/2000/svg" width="399.221" height="76.084" viewBox="0 0 399.221 76.084">
  <g id="logo" transform="translate(-57.074 114.829)">
    <rect id="Rectangle_165" data-name="Rectangle 165" width="1.468" height="1.737" transform="translate(58.937 -78.616)" fill="#fff"/>
    <path id="Path_217" data-name="Path 217" d="M60.616-71.6a3.357,3.357,0,0,0,2.64-1.165,4.247,4.247,0,0,0,.926-2.773,4.234,4.234,0,0,0-.9-2.765,3.29,3.29,0,0,0-2.636-1.136,3.232,3.232,0,0,0-2.608,1.149,3.924,3.924,0,0,0-.965,2.762,4.038,4.038,0,0,0,.934,2.792A3.241,3.241,0,0,0,60.616-71.6Zm-1.463-5.731a1.72,1.72,0,0,1,1.561-.787,1.64,1.64,0,0,1,1.452.722,3.464,3.464,0,0,1,.4,1.761c0,1.83-.638,2.713-1.947,2.713a1.646,1.646,0,0,1-1.463-.749,3.145,3.145,0,0,1-.453-1.76A3.512,3.512,0,0,1,59.153-77.327Z" transform="translate(0 3.225)" fill="#fff"/>
    <rect id="Rectangle_166" data-name="Rectangle 166" width="1.47" height="1.737" transform="translate(61.009 -78.616)" fill="#fff"/>
    <path id="Path_218" data-name="Path 218" d="M66.532-79.321h-.183V-77.9h.6a3.185,3.185,0,0,1,2.781,1.59,6.488,6.488,0,0,1,.742,3.208H64.629v1.494h7.378v-.19a11.839,11.839,0,0,0-.747-4.711A4.718,4.718,0,0,0,66.532-79.321Z" transform="translate(0.688 3.235)" fill="#fff"/>
    <rect id="Rectangle_167" data-name="Rectangle 167" width="1.479" height="1.724" transform="translate(87.127 -67.653)" fill="#fff"/>
    <path id="Path_219" data-name="Path 219" d="M95.169-74.872a3.249,3.249,0,0,1-.223,1.466,1.162,1.162,0,0,1-1.172.576h-.48v-.011H91.538v-.324c0-3.448-2.108-5.673-5.385-5.673a4.908,4.908,0,0,0-4.075,1.775l-.087.123.165.181c.462.458.748.76.908.933l.159.182.127-.2a3,3,0,0,1,2.8-1.522c2.4,0,3.719,1.469,3.719,4.122,0,.123,0,.253-.01.4H80.233v.011H78.962v-2.833c0-2.161-1.1-3.4-3.034-3.4a3.051,3.051,0,0,0-2.395,1.129,4.081,4.081,0,0,0-.965,2.737,4.259,4.259,0,0,0,.91,2.74,2.859,2.859,0,0,0,2.315,1.109h1.5a1.642,1.642,0,0,1-1.71,1.2h-.318v1.453l.2-.009a3.269,3.269,0,0,0,3.342-2.645H94.132c1.665,0,2.5-1.029,2.5-3.032v-7.8H95.169Zm-17.7,2.032-1.661.011a1.5,1.5,0,0,1-1.32-.827,3.283,3.283,0,0,1-.409-1.639,2.968,2.968,0,0,1,.46-1.579,1.569,1.569,0,0,1,1.333-.789,1.5,1.5,0,0,1,1.209.505,1.6,1.6,0,0,1,.387,1.082Z" transform="translate(1.412 2.975)" fill="#fff"/>
    <rect id="Rectangle_168" data-name="Rectangle 168" width="1.468" height="10.829" transform="translate(99.803 -79.201)" fill="#fff"/>
    <path id="Path_220" data-name="Path 220" d="M102.125-71.856a2.355,2.355,0,0,0,1.654-.536c-.159,1.334-.828,1.989-2.023,1.989h-.18v1.453l.2-.009c2.385-.136,3.5-1.471,3.5-4.207v-2.406c0-2.191-1.329-3.788-3.157-3.788-1.888,0-3.19,1.53-3.19,3.739C98.935-73.436,100.276-71.856,102.125-71.856ZM102.057-78c1.041,0,1.791,1.018,1.791,2.431,0,1.379-.706,2.351-1.706,2.351-1.026,0-1.771-1.03-1.771-2.417S101.066-78,102.057-78Z" transform="translate(3.814 3.232)" fill="#fff"/>
    <rect id="Rectangle_169" data-name="Rectangle 169" width="1.477" height="1.733" transform="translate(134.715 -67.636)" fill="#fff"/>
    <rect id="Rectangle_170" data-name="Rectangle 170" width="1.479" height="1.733" transform="translate(132.652 -67.636)" fill="#fff"/>
    <rect id="Rectangle_171" data-name="Rectangle 171" width="1.481" height="1.733" transform="translate(139.958 -67.636)" fill="#fff"/>
    <rect id="Rectangle_172" data-name="Rectangle 172" width="1.477" height="1.733" transform="translate(137.899 -67.636)" fill="#fff"/>
    <path id="Path_221" data-name="Path 221" d="M134.316-71.608c1.648,0,2.5-1.029,2.5-3.032v-4.672h-1.461v4.179a3.35,3.35,0,0,1-.226,1.466,1.186,1.186,0,0,1-1.187.576h-.668V-73.1h-1.959a4.547,4.547,0,0,0,.212-1.538v-4.672h-1.46v4.179a3.292,3.292,0,0,1-.226,1.475,1.168,1.168,0,0,1-1.174.567h-.556V-73.1h-2.448a4.665,4.665,0,0,0,.219-1.538v-4.672h-1.449v4.179c0,1.733-.44,2.032-1.409,2.032H121.4a5.066,5.066,0,0,0,.212-1.538v-4.672h-1.466v4.179c0,1.75-.345,2.032-1.165,2.032h-1.763a7.234,7.234,0,0,0,.158-1.567v-4.644H115.87v5.045c-.194,2.469-1.342,3.884-3.144,3.884-1.924,0-3.177-1.775-3.177-4.51v-4.42h-1.462v4.644c0,3.273,2,5.744,4.639,5.744a4.4,4.4,0,0,0,4-2.683h17.592Z" transform="translate(4.648 3.236)" fill="#fff"/>
    <rect id="Rectangle_173" data-name="Rectangle 173" width="1.47" height="1.743" transform="translate(152.405 -79.896)" fill="#fff"/>
    <rect id="Rectangle_174" data-name="Rectangle 174" width="1.479" height="1.743" transform="translate(150.328 -79.896)" fill="#fff"/>
    <path id="Path_222" data-name="Path 222" d="M161.877-74.872a3.192,3.192,0,0,1-.221,1.466,1.141,1.141,0,0,1-1.17.576h-.505v-.011H158.1a4.074,4.074,0,0,0,.094-.953,4.1,4.1,0,0,0-.875-2.723,3.167,3.167,0,0,0-2.575-1.106,3.259,3.259,0,0,0-2.594,1.1,4.156,4.156,0,0,0-.924,2.744,4.223,4.223,0,0,0,.1.941H147.6a3.249,3.249,0,0,1-1.214-.232,3.89,3.89,0,0,0,1.426-1.386A4.215,4.215,0,0,0,148.4-76.6a3.467,3.467,0,0,0-.9-2.444,3.455,3.455,0,0,0-2.692-1.089,3.393,3.393,0,0,0-2.667,1.089,3.479,3.479,0,0,0-.929,2.444,4.233,4.233,0,0,0,.595,2.137,3.91,3.91,0,0,0,1.427,1.386,3.3,3.3,0,0,1-1.2.232h-1.986a8.389,8.389,0,0,1-.985-.017,1.057,1.057,0,0,1-.774-.414,2.961,2.961,0,0,1-.291-1.51v-7.394h-1.5V-74.1a2.686,2.686,0,0,0,.745,2.071,2.07,2.07,0,0,0,1.556.682H141.1a11.141,11.141,0,0,0,1.858-.109,5.922,5.922,0,0,0,1.863-.745,5.91,5.91,0,0,0,1.84.745,11.217,11.217,0,0,0,1.865.109h3.38a3.184,3.184,0,0,0,2.825,1.4,3.131,3.131,0,0,0,2.743-1.4h3.365c1.662,0,2.5-1.029,2.5-3.032v-7.8h-1.466Zm-17.053.945a3.472,3.472,0,0,1-1.534-1.249,2.793,2.793,0,0,1-.505-1.592,1.9,1.9,0,0,1,2.019-2.011,1.978,1.978,0,0,1,1.519.6,2.037,2.037,0,0,1,.51,1.426,2.869,2.869,0,0,1-.51,1.607A3.574,3.574,0,0,1,144.824-73.927Zm9.909,2.606a1.591,1.591,0,0,1-1.411-.707,3.016,3.016,0,0,1-.426-1.684,3.186,3.186,0,0,1,.426-1.791,1.645,1.645,0,0,1,1.464-.771,1.47,1.47,0,0,1,1.357.72,2.988,2.988,0,0,1,.4,1.645C156.541-72.156,155.942-71.322,154.733-71.322Z" transform="translate(7.236 2.975)" fill="#fff"/>
    <rect id="Rectangle_175" data-name="Rectangle 175" width="1.464" height="10.829" transform="translate(172.34 -79.201)" fill="#fff"/>
    <path id="Path_223" data-name="Path 223" d="M170.26-72.392c-.163,1.334-.823,1.989-2.014,1.989h-.188v1.453l.2-.009c2.381-.136,3.506-1.471,3.506-4.207v-2.406c0-2.191-1.334-3.788-3.161-3.788-1.89,0-3.189,1.53-3.189,3.739,0,2.184,1.342,3.764,3.189,3.764A2.365,2.365,0,0,0,170.26-72.392Zm-3.41-3.245c0-1.388.7-2.366,1.69-2.366,1.04,0,1.785,1.031,1.785,2.431,0,1.379-.694,2.351-1.711,2.351S166.85-74.233,166.85-75.637Z" transform="translate(9.871 3.232)" fill="#fff"/>
    <path id="Path_224" data-name="Path 224" d="M186.62-74.639v-4.672h-1.458v4.179c0,1.733-.422,2.032-1.386,2.032h-4.584c-2.127,0-3.164-1.109-3.164-3.389v-2.831h-1.466v2.831c0,3.237,1.6,4.883,4.738,4.883h4.848C185.281-71.607,186.62-72.137,186.62-74.639Z" transform="translate(10.705 3.235)" fill="#fff"/>
    <rect id="Rectangle_176" data-name="Rectangle 176" width="1.473" height="1.733" transform="translate(191.662 -77.463)" fill="#fff"/>
    <rect id="Rectangle_177" data-name="Rectangle 177" width="1.492" height="1.733" transform="translate(189.58 -77.463)" fill="#fff"/>
    <path id="Path_225" data-name="Path 225" d="M197.5-71.456a10.959,10.959,0,0,0,1.849.109H213.42l.014-.172c.069-.767.077-1.366.077-1.9,0-3.741-1.328-5.644-3.964-5.644a5.9,5.9,0,0,0-4.671,3.109v-2.325h-1.471V-75.2c0,1.585-.49,2.355-1.5,2.355h-3.488a3.053,3.053,0,0,1-1.213-.232,3.911,3.911,0,0,0,1.439-1.386,4.211,4.211,0,0,0,.584-2.137,3.434,3.434,0,0,0-.908-2.444,3.418,3.418,0,0,0-2.687-1.089,3.458,3.458,0,0,0-2.674,1.089,3.526,3.526,0,0,0-.921,2.444,4.22,4.22,0,0,0,.6,2.137,3.887,3.887,0,0,0,1.425,1.386,2.99,2.99,0,0,1-1.217.232h-1.965a8.282,8.282,0,0,1-.989-.017,1.017,1.017,0,0,1-.767-.414,3,3,0,0,1-.3-1.51v-7.394h-1.492V-74.1a2.754,2.754,0,0,0,.731,2.071,2.073,2.073,0,0,0,1.56.682h2.3a11.091,11.091,0,0,0,1.863-.109,5.822,5.822,0,0,0,1.867-.745A5.839,5.839,0,0,0,197.5-71.456Zm7.111-1.44c.84-2.587,3.044-4.78,4.858-4.78,1.585,0,2.567,1.532,2.567,4,0,.279-.007.554-.021.847h-7.4Zm-10.48-2.28a2.744,2.744,0,0,1-.505-1.592,1.9,1.9,0,0,1,2.01-2.011,1.983,1.983,0,0,1,1.519.6,2.023,2.023,0,0,1,.518,1.426,2.847,2.847,0,0,1-.518,1.607,3.528,3.528,0,0,1-1.492,1.223A3.441,3.441,0,0,1,194.127-75.177Z" transform="translate(11.869 2.975)" fill="#fff"/>
    <rect id="Rectangle_178" data-name="Rectangle 178" width="1.483" height="1.733" transform="translate(206.793 -79.905)" fill="#fff"/>
    <rect id="Rectangle_179" data-name="Rectangle 179" width="1.464" height="10.829" transform="translate(227.102 -79.201)" fill="#fff"/>
    <path id="Path_226" data-name="Path 226" d="M242.361-74.379v-7.8H240.9v7.3a3.336,3.336,0,0,1-.23,1.466,1.153,1.153,0,0,1-1.171.576h-.571v-.011h-1.956a5.112,5.112,0,0,0,.207-1.538v-7.8h-1.473v7.3a3.5,3.5,0,0,1-.213,1.475,1.172,1.172,0,0,1-1.187.567h-.491v-.011h-1.892a4.262,4.262,0,0,0,.094-.953,4.163,4.163,0,0,0-.874-2.723,3.15,3.15,0,0,0-2.576-1.106,3.211,3.211,0,0,0-2.58,1.1,4.16,4.16,0,0,0-.921,2.744,5.264,5.264,0,0,0,.085.941h-1.831v.011h-1.355v-2.833c0-2.161-1.091-3.4-3.023-3.4a3.105,3.105,0,0,0-2.408,1.118,4.224,4.224,0,0,0-.951,2.747,4.193,4.193,0,0,0,.91,2.74,2.851,2.851,0,0,0,2.318,1.109h1.481a1.627,1.627,0,0,1-1.688,1.2h-.326v1.453l.188-.009a3.288,3.288,0,0,0,3.361-2.658h3.911a3.174,3.174,0,0,0,2.817,1.413,3.136,3.136,0,0,0,2.761-1.413h8.546C241.523-71.347,242.361-72.376,242.361-74.379ZM218.823-72.83a1.5,1.5,0,0,1-1.317-.827,3.1,3.1,0,0,1-.414-1.639,2.838,2.838,0,0,1,.469-1.579,1.534,1.534,0,0,1,1.328-.789,1.5,1.5,0,0,1,1.2.505,1.553,1.553,0,0,1,.382,1.082v3.235h.015Zm9.728,1.508a1.6,1.6,0,0,1-1.4-.707,3.081,3.081,0,0,1-.418-1.684,3.29,3.29,0,0,1,.418-1.791,1.658,1.658,0,0,1,1.475-.758,1.429,1.429,0,0,1,1.344.707,2.854,2.854,0,0,1,.4,1.645C230.365-72.156,229.781-71.322,228.551-71.322Z" transform="translate(14.442 2.975)" fill="#fff"/>
    <rect id="Rectangle_180" data-name="Rectangle 180" width="1.479" height="1.739" transform="translate(264.95 -80.163)" fill="#fff"/>
    <rect id="Rectangle_181" data-name="Rectangle 181" width="1.475" height="1.739" transform="translate(262.876 -80.163)" fill="#fff"/>
    <rect id="Rectangle_182" data-name="Rectangle 182" width="1.477" height="1.733" transform="translate(269.719 -67.636)" fill="#fff"/>
    <rect id="Rectangle_183" data-name="Rectangle 183" width="1.492" height="1.733" transform="translate(271.782 -67.636)" fill="#fff"/>
    <path id="Path_227" data-name="Path 227" d="M253.8-71.479c1.664,0,2.5-1.029,2.5-3.032v-4.672h-1.464V-75a3.374,3.374,0,0,1-.224,1.466,1.155,1.155,0,0,1-1.172.576h-1.426c-1.17,0-1.852-.865-1.852-2.39V-80.72h-3.529c-1.873,0-3.184,1.681-3.184,4.1,0,2.294,1.3,4.022,3,4.022a2.774,2.774,0,0,0,2.355-1.017,3.045,3.045,0,0,0,3.075,2.137H253.8Zm-5.123-5.368c-.033,2.019-.644,3-1.865,3-1.077,0-1.9-1.23-1.9-2.842,0-1.645.821-2.833,1.92-2.833h1.842Z" transform="translate(16.982 3.108)" fill="#fff"/>
    <path id="Path_228" data-name="Path 228" d="M258.554-79.321h-.179V-77.9h.586a3.216,3.216,0,0,1,2.8,1.59A6.583,6.583,0,0,1,262.5-73.1h-5.845v1.494h7.363v-.19a11.84,11.84,0,0,0-.731-4.711A4.722,4.722,0,0,0,258.554-79.321Z" transform="translate(18.185 3.235)" fill="#fff"/>
    <path id="Path_229" data-name="Path 229" d="M302.147-74.379v-7.8h-1.462v7.3a3.087,3.087,0,0,1-.228,1.466,1.152,1.152,0,0,1-1.167.576h-.53v-.011H296.3a4.853,4.853,0,0,0,.213-1.538v-4.672H295.07v4.179c0,1.75-.414,2.032-1.417,2.032h-1.621a5.244,5.244,0,0,0,.211-1.538v-4.672h-1.464v4.179c0,1.75-.345,2.032-1.174,2.032h-1.84a4.737,4.737,0,0,0,.23-1.538v-4.672h-1.5v4.326c0,1.211-.511,1.884-1.472,1.884H281.8a5.884,5.884,0,0,1-1.238-.069,2,2,0,0,1-.906-.626,10.524,10.524,0,0,0,1.973-2.127,15.3,15.3,0,0,0,1.023-1.8l.063-.123-.11-.1a6.6,6.6,0,0,0-4.268-1.6,7.4,7.4,0,0,0-4.047,1.324l-.079.056.01,1.494.111.053a6.881,6.881,0,0,1,3.2,2.63,5.374,5.374,0,0,1-1.212.68,4.1,4.1,0,0,1-1.4.205H272.3v.011h-1.319v-2.833c0-2.161-1.091-3.4-3.025-3.4a3.08,3.08,0,0,0-2.406,1.129,4.134,4.134,0,0,0-.931,2.755,4.247,4.247,0,0,0,.875,2.721,2.889,2.889,0,0,0,2.316,1.109H269.3a1.62,1.62,0,0,1-1.688,1.2h-.328v1.453l.205-.009a3.243,3.243,0,0,0,3.332-2.645h4.136a5.471,5.471,0,0,0,3.531-1.191,2.907,2.907,0,0,0,2.383,1.191h18.773C301.312-71.347,302.147-72.376,302.147-74.379ZM269.488-72.84l-1.651.011a1.462,1.462,0,0,1-1.315-.827,3.145,3.145,0,0,1-.416-1.639,2.81,2.81,0,0,1,.467-1.579,1.535,1.535,0,0,1,1.321-.789,1.492,1.492,0,0,1,1.208.505,1.624,1.624,0,0,1,.385,1.082Zm9.2-1.818a9.562,9.562,0,0,0-1.36-1.552,6.837,6.837,0,0,0-1.534-.974,4.839,4.839,0,0,1,4.157-.426c.094.053.438.213,1.013.49A7.889,7.889,0,0,1,278.688-74.658Z" transform="translate(18.91 2.975)" fill="#fff"/>
    <rect id="Rectangle_184" data-name="Rectangle 184" width="1.468" height="10.829" transform="translate(322.815 -79.201)" fill="#fff"/>
    <rect id="Rectangle_185" data-name="Rectangle 185" width="1.475" height="1.739" transform="translate(330.54 -80.163)" fill="#fff"/>
    <rect id="Rectangle_186" data-name="Rectangle 186" width="1.475" height="1.739" transform="translate(332.601 -80.163)" fill="#fff"/>
    <path id="Path_230" data-name="Path 230" d="M317.486-79.845h-2.167a1.2,1.2,0,0,1-.107-.519c0-.825.347-.923.612-.923.2,0,.477.056.562.561l.026.177,1.141-.145-.04-.185a1.6,1.6,0,0,0-1.7-1.393,1.683,1.683,0,0,0-1.357.586,2.18,2.18,0,0,0-.416,1.324,1.643,1.643,0,0,0,.079.519h-.7V-78.7h4.071Z" transform="translate(23.356 2.966)" fill="#fff"/>
    <rect id="Rectangle_187" data-name="Rectangle 187" width="1.494" height="1.733" transform="translate(344.563 -67.636)" fill="#fff"/>
    <rect id="Rectangle_188" data-name="Rectangle 188" width="1.477" height="1.733" transform="translate(342.494 -67.636)" fill="#fff"/>
    <path id="Path_231" data-name="Path 231" d="M338.675-74.873a3.243,3.243,0,0,1-.212,1.466,1.176,1.176,0,0,1-1.184.576h-.2v-.011h-1.784c.022-.3.022-.592.022-.908a7.419,7.419,0,0,0-1.136-4.183,6.6,6.6,0,0,0-3.785-2.683l-.211-.04v1.523l.13.028a5.194,5.194,0,0,1,3.582,5.127,5.287,5.287,0,0,1-.119,1.136h-1.812a3.692,3.692,0,0,0,.556-2.057c0-1.977-1.2-3.312-2.967-3.312a3.062,3.062,0,0,0-3.049,3.337,3.74,3.74,0,0,0,.547,2.043h-1.905v-.011h-1.971a4.814,4.814,0,0,0,.215-1.538v-4.672h-1.462v4.179a3.513,3.513,0,0,1-.215,1.475,1.206,1.206,0,0,1-1.185.567h-.563v-.011H318a4.628,4.628,0,0,0,.213-1.538v-3.845h-1.464v3.352a3.529,3.529,0,0,1-.211,1.475,1.2,1.2,0,0,1-1.187.567h-1.33c-1.17,0-1.836-.865-1.836-2.39v-5.368h-3.53c-1.876,0-3.182,1.681-3.182,4.1,0,2.294,1.277,4.034,2.984,4.034a2.826,2.826,0,0,0,2.371-1.029,3.029,3.029,0,0,0,3.069,2.137h23.745c1.14,0,2.5-.53,2.5-3.032v-7.785h-1.464Zm-28-1.843c-.024,2.019-.637,3-1.844,3-1.078,0-1.912-1.23-1.912-2.842,0-1.645.814-2.833,1.931-2.833h1.824Zm18.871,3.875c-.936,0-1.516-.769-1.516-1.963,0-.789.211-2.116,1.566-2.116,1.2,0,1.441,1.074,1.441,1.952C331.037-73.074,330.185-72.841,329.545-72.841Z" transform="translate(22.632 2.976)" fill="#fff"/>
    <rect id="Rectangle_189" data-name="Rectangle 189" width="1.449" height="10.829" transform="translate(364.544 -79.201)" fill="#fff"/>
    <path id="Path_232" data-name="Path 232" d="M61.147-60.983a5.307,5.307,0,0,1-1.729-.935,1.225,1.225,0,0,1-.385-.9c0-.936.807-1.58,1.961-1.58a2.99,2.99,0,0,1,2.074.789l.289.23.732-.854.148-.215-.188-.188A4.2,4.2,0,0,0,60.9-65.862c-2.029,0-3.454,1.248-3.454,3.047a2.685,2.685,0,0,0,.731,1.966,6.588,6.588,0,0,0,2.194,1.292,6,6,0,0,1,1.81,1.017,1.524,1.524,0,0,1,.459,1.058c0,1.2-.782,1.863-2.135,1.863a4.038,4.038,0,0,1-2.37-.908l-.223-.159-.708.978-.135.224.215.173a5.035,5.035,0,0,0,3.29,1.217,3.373,3.373,0,0,0,3.711-3.472,2.989,2.989,0,0,0-.933-2.158A6.483,6.483,0,0,0,61.147-60.983Z" transform="translate(0 4.462)" fill="#fff"/>
    <path id="Path_233" data-name="Path 233" d="M68.411-63.1a4.873,4.873,0,0,0-2.862.853l-.16.177.523.865.172.24.25-.151a3.889,3.889,0,0,1,1.971-.559,1.752,1.752,0,0,1,1.253.364c.261.275.3.673.3,1.422h-.118c-1.173,0-4.738,0-4.738,2.834A2.591,2.591,0,0,0,67.773-54.4a4.913,4.913,0,0,0,2.18-.548v.388h1.465v-5.285a3,3,0,0,0-.7-2.439A3.106,3.106,0,0,0,68.411-63.1Zm1.449,6.737a4.487,4.487,0,0,1-1.878.523c-1.274,0-1.406-.842-1.406-1.2,0-.971,1.061-1.464,3.14-1.464h.144Z" transform="translate(0.723 4.713)" fill="#fff"/>
    <path id="Path_234" data-name="Path 234" d="M77.565-56.5a4.337,4.337,0,0,1-2.071.646,1.4,1.4,0,0,1-1-.375c-.371-.369-.371-.986-.371-1.771v-4.912H72.58v4.955a3.542,3.542,0,0,0,.783,2.768,2.835,2.835,0,0,0,2.071.776,4.969,4.969,0,0,0,2.211-.565v.406H79.11v-8.339H77.565Z" transform="translate(1.412 4.73)" fill="#fff"/>
    <path id="Path_235" data-name="Path 235" d="M85.64-62.527a4.013,4.013,0,0,0-1.464-.266c-2.424,0-4.095,1.855-4.095,4.493,0,2.51,1.488,4.206,3.693,4.206a4.213,4.213,0,0,0,1.962-.51v.35H87.21V-66.482H85.64Zm0,6.383a2.944,2.944,0,0,1-1.786.61c-1.3,0-2.19-1.1-2.19-2.723,0-1.882.983-3.09,2.512-3.09a2.889,2.889,0,0,1,1.464.4Z" transform="translate(2.096 4.405)" fill="#fff"/>
    <rect id="Rectangle_190" data-name="Rectangle 190" width="1.546" height="8.339" transform="translate(91.385 -58.187)" fill="#fff"/>
    <path id="Path_236" data-name="Path 236" d="M99.421-60.983a5.365,5.365,0,0,1-1.72-.935,1.289,1.289,0,0,1-.384-.9c0-.936.81-1.58,1.965-1.58a3.034,3.034,0,0,1,2.081.789l.3.23.715-.854.157-.215-.178-.188a4.265,4.265,0,0,0-3.146-1.223c-2.051,0-3.46,1.248-3.46,3.047a2.739,2.739,0,0,0,.72,1.966,6.614,6.614,0,0,0,2.207,1.292,6.014,6.014,0,0,1,1.785,1.017,1.453,1.453,0,0,1,.475,1.058c0,1.2-.788,1.863-2.127,1.863a3.99,3.99,0,0,1-2.367-.908l-.24-.159-.694.978-.132.224.184.173a5.112,5.112,0,0,0,3.3,1.217c2.263,0,3.713-1.362,3.713-3.472a2.973,2.973,0,0,0-.913-2.158A6.492,6.492,0,0,0,99.421-60.983Z" transform="translate(3.49 4.462)" fill="#fff"/>
    <path id="Path_237" data-name="Path 237" d="M107.72-55.916c-.009.015-.06.027-.141.056a2.961,2.961,0,0,1-.946.185,1.006,1.006,0,0,1-.7-.185c-.219-.213-.219-.684-.219-1.215V-61.36h2.479v-1.373H105.71v-2.2h-1.536v2.2h-1.363v1.373h1.363v4.294c0,.961,0,1.672.534,2.208a2.4,2.4,0,0,0,1.792.637,3.512,3.512,0,0,0,1.664-.4l.241-.123-.426-1.212Z" transform="translate(4.167 4.546)" fill="#fff"/>
    <path id="Path_238" data-name="Path 238" d="M112.1-63.1a4.964,4.964,0,0,0-2.872.853l-.163.177.517.865.177.24.247-.151a3.944,3.944,0,0,1,1.971-.559,1.8,1.8,0,0,1,1.268.364c.238.275.289.673.289,1.422h-.1c-1.172,0-4.753,0-4.753,2.834a2.593,2.593,0,0,0,2.765,2.654,4.8,4.8,0,0,0,2.171-.548v.388h1.463v-5.285a3.011,3.011,0,0,0-.69-2.439A3.1,3.1,0,0,0,112.1-63.1Zm1.434,6.737a4.316,4.316,0,0,1-1.857.523c-1.281,0-1.413-.842-1.413-1.2,0-.971,1.05-1.464,3.142-1.464h.128Z" transform="translate(4.702 4.713)" fill="#fff"/>
    <path id="Path_239" data-name="Path 239" d="M120.106-63.1a5.125,5.125,0,0,0-2.254.572V-62.9h-1.5v8.339H117.9v-6.456a4.657,4.657,0,0,1,2.08-.638,1.489,1.489,0,0,1,1,.354c.373.364.373.946.373,1.829v4.912H122.9v-4.963c0-1.441-.107-2.151-.8-2.833A2.827,2.827,0,0,0,120.106-63.1Z" transform="translate(5.401 4.713)" fill="#fff"/>
    <path id="Path_240" data-name="Path 240" d="M129.314-62.527a3.957,3.957,0,0,0-1.462-.266c-2.408,0-4.1,1.855-4.1,4.493,0,2.51,1.481,4.206,3.692,4.206a4.189,4.189,0,0,0,1.965-.51v.35h1.469V-66.482h-1.562Zm0,6.383a2.882,2.882,0,0,1-1.764.61c-1.33,0-2.212-1.1-2.212-2.723,0-1.882.986-3.09,2.514-3.09a2.866,2.866,0,0,1,1.462.4Z" transform="translate(6.075 4.405)" fill="#fff"/>
    <path id="Path_241" data-name="Path 241" d="M135.145-63.1a4.912,4.912,0,0,0-2.864.853l-.167.177.529.865.175.24.253-.151a3.855,3.855,0,0,1,1.969-.559,1.745,1.745,0,0,1,1.252.364c.264.275.3.673.3,1.422h-.116c-1.172,0-4.737,0-4.737,2.834a2.591,2.591,0,0,0,2.766,2.654,4.867,4.867,0,0,0,2.167-.548v.388h1.464v-5.285a3,3,0,0,0-.693-2.439A3.093,3.093,0,0,0,135.145-63.1Zm1.449,6.737a4.4,4.4,0,0,1-1.871.523c-1.279,0-1.411-.842-1.411-1.2,0-.971,1.064-1.464,3.137-1.464h.145Z" transform="translate(6.803 4.713)" fill="#fff"/>
    <path id="Path_242" data-name="Path 242" d="M143.071-63.1a3.186,3.186,0,0,0-2.155.789V-62.9h-1.508v8.339h1.559v-5.925a2.316,2.316,0,0,1,2.05-1.162,3.227,3.227,0,0,1,.586.053l.27.026.291-1.037.036-.258-.226-.107A2.411,2.411,0,0,0,143.071-63.1Z" transform="translate(7.502 4.713)" fill="#fff"/>
    <path id="Path_243" data-name="Path 243" d="M149.609-62.527a4.021,4.021,0,0,0-1.466-.266c-2.406,0-4.1,1.855-4.1,4.493,0,2.51,1.482,4.206,3.691,4.206a4.224,4.224,0,0,0,1.969-.51v.35h1.462V-66.482h-1.556Zm0,6.383a2.892,2.892,0,0,1-1.769.61c-1.324,0-2.206-1.1-2.206-2.723,0-1.882.983-3.09,2.508-3.09a2.891,2.891,0,0,1,1.466.4Z" transform="translate(7.924 4.405)" fill="#fff"/>
    <path id="Path_244" data-name="Path 244" d="M155.482-59.524l-.468-.19c-.78-.307-1.209-.505-1.209-1.091,0-.563.718-.87,1.384-.87a3.463,3.463,0,0,1,1.717.505l.251.153.639-1.152-.157-.143a4.1,4.1,0,0,0-2.53-.789c-1.7,0-2.872.955-2.872,2.338,0,1.57,1.146,2.037,2.324,2.493l.241.092c.876.322,1.5.6,1.5,1.306,0,.961-1.091,1.057-1.568,1.057a4.149,4.149,0,0,1-1.942-.59l-.268-.172-.68,1.214.172.158a5.038,5.038,0,0,0,2.8.826c1.888,0,3.073-.984,3.073-2.585S156.5-59.126,155.482-59.524Z" transform="translate(8.635 4.713)" fill="#fff"/>
    <path id="Path_245" data-name="Path 245" d="M159.436-56.483a4.159,4.159,0,0,1-.816,2.494l-.172.224.837.658.228.116.183-.154a4.633,4.633,0,0,0,1.475-3.4v-.386h-1.735Z" transform="translate(9.236 5.275)" fill="#fff"/>
    <path id="Path_246" data-name="Path 246" d="M176.1-65.685l-3.109,8.729-3.216-8.729h-1.628l-1.3,11.359h1.536l.88-8.288,3,8.288h1.266l2.979-8.288.908,8.288h1.658l-1.33-11.359Z" transform="translate(10.002 4.478)" fill="#fff"/>
    <path id="Path_247" data-name="Path 247" d="M183.389-63.1c-2.314,0-3.821,1.733-3.821,4.42,0,2.6,1.517,4.279,3.861,4.279a5.065,5.065,0,0,0,3.009-.921l.089-.148-.516-.9-.2-.232-.249.154a4.07,4.07,0,0,1-2.048.556,2.255,2.255,0,0,1-2.359-2.347h5.534v-.3c0-.089.015-.215.015-.322.011-.076.029-.157.029-.188C186.734-61.516,185.411-63.1,183.389-63.1Zm-2.168,3.442a2.2,2.2,0,0,1,2.184-2.029c1.236,0,1.678,1.158,1.739,2.029Z" transform="translate(11.161 4.713)" fill="#fff"/>
    <path id="Path_248" data-name="Path 248" d="M191.689-55.916c-.028.015-.081.027-.147.056a3.033,3.033,0,0,1-.939.185,1.047,1.047,0,0,1-.718-.185,2,2,0,0,1-.2-1.215V-61.36h2.476v-1.373h-2.476v-2.2h-1.543v2.2h-1.364v1.373h1.364v4.294a2.907,2.907,0,0,0,.526,2.208,2.433,2.433,0,0,0,1.8.637,3.484,3.484,0,0,0,1.662-.4l.228-.123-.423-1.212Z" transform="translate(11.818 4.546)" fill="#fff"/>
    <path id="Path_249" data-name="Path 249" d="M196.969-63.1a3.2,3.2,0,0,0-2.149.789V-62.9h-1.492v8.339h1.541v-5.925a2.348,2.348,0,0,1,2.055-1.162,3.359,3.359,0,0,1,.6.053l.254.026.291-1.037.039-.258-.223-.107A2.486,2.486,0,0,0,196.969-63.1Z" transform="translate(12.415 4.713)" fill="#fff"/>
    <path id="Path_250" data-name="Path 250" d="M201.823-63.1c-2.34,0-3.863,1.721-3.863,4.375s1.477,4.347,3.776,4.347c2.33,0,3.836-1.677,3.836-4.287C205.573-61.368,204.1-63.1,201.823-63.1Zm-.053,7.286c-1.321,0-2.238-1.214-2.238-2.949,0-1.8.85-2.911,2.225-2.911,1.315,0,2.229,1.228,2.229,2.975C203.985-56.895,203.167-55.815,201.769-55.815Z" transform="translate(12.837 4.713)" fill="#fff"/>
    <rect id="Rectangle_191" data-name="Rectangle 191" width="1.547" height="12.228" transform="translate(220.059 -62.076)" fill="#fff"/>
    <path id="Path_251" data-name="Path 251" d="M213.236-63.1c-2.343,0-3.861,1.721-3.861,4.375s1.478,4.347,3.78,4.347c2.33,0,3.83-1.677,3.83-4.287C216.984-61.368,215.52-63.1,213.236-63.1Zm-.056,7.286c-1.3,0-2.234-1.214-2.234-2.949,0-1.8.848-2.911,2.234-2.911,1.3,0,2.238,1.228,2.238,2.975C215.419-56.895,214.579-55.815,213.181-55.815Z" transform="translate(13.877 4.713)" fill="#fff"/>
    <path id="Path_252" data-name="Path 252" d="M224.339-62.438A6.581,6.581,0,0,0,221.6-63.1a4.161,4.161,0,0,0-4.143,4.435c0,2.384,1.518,4.117,3.593,4.117a4.518,4.518,0,0,0,1.967-.468v.106c0,1.23-.009,1.672-.411,2.059a2.008,2.008,0,0,1-1.621.514,3.968,3.968,0,0,1-2.153-.684l-.309-.192-.7,1.1.165.177a4.881,4.881,0,0,0,3.066,1.04,3.621,3.621,0,0,0,2.728-.95,3.769,3.769,0,0,0,.8-2.9v-7.4l-.053-.219Zm-1.3,5.852h-.02a3.57,3.57,0,0,1-1.863.6c-1.257,0-2.11-1.082-2.11-2.694,0-1.8.983-2.974,2.513-2.974a3.937,3.937,0,0,1,1.48.275Z" transform="translate(14.613 4.713)" fill="#fff"/>
    <path id="Path_253" data-name="Path 253" d="M229.64-56.757l-2.448-6.16H225.5l3.3,8.232a5.413,5.413,0,0,1-1.053,1.943,1.474,1.474,0,0,1-1.038.358,2.957,2.957,0,0,1-.947-.145l-.345-.106-.347,1.055-.043.28.253.094a3.61,3.61,0,0,0,1.453.295,3.029,3.029,0,0,0,2.1-.8,6.49,6.49,0,0,0,1.424-2.505l3.2-8.7h-1.626Z" transform="translate(15.303 4.73)" fill="#fff"/>
    <path id="Path_254" data-name="Path 254" d="M240.761-63.1a4.849,4.849,0,0,0-2.862.853l-.158.177.512.865.179.24.25-.151a3.874,3.874,0,0,1,1.967-.559,1.74,1.74,0,0,1,1.255.364c.266.275.3.673.3,1.422H242.1c-1.183,0-4.753,0-4.753,2.834a2.594,2.594,0,0,0,2.768,2.654,4.845,4.845,0,0,0,2.174-.548v.388h1.462v-5.285a2.992,2.992,0,0,0-.693-2.439A3.094,3.094,0,0,0,240.761-63.1Zm1.447,6.737a4.387,4.387,0,0,1-1.86.523c-1.279,0-1.424-.842-1.424-1.2,0-.971,1.066-1.464,3.139-1.464h.145Z" transform="translate(16.425 4.713)" fill="#fff"/>
    <path id="Path_255" data-name="Path 255" d="M248.786-63.1a5.362,5.362,0,0,0-2.261.572V-62.9h-1.5v8.339h1.558v-6.456a4.612,4.612,0,0,1,2.075-.638,1.456,1.456,0,0,1,1,.354c.358.364.358.946.358,1.829v4.912h1.556v-4.963c0-1.441-.117-2.164-.8-2.841A2.822,2.822,0,0,0,248.786-63.1Z" transform="translate(17.125 4.713)" fill="#fff"/>
    <path id="Path_256" data-name="Path 256" d="M257.992-62.527a4.073,4.073,0,0,0-1.469-.266c-2.406,0-4.1,1.855-4.1,4.493,0,2.51,1.49,4.206,3.7,4.206a4.192,4.192,0,0,0,1.956-.51v.35h1.474V-66.482h-1.566Zm0,6.383a2.95,2.95,0,0,1-1.775.61c-1.313,0-2.206-1.1-2.206-2.723,0-1.882.983-3.09,2.513-3.09a2.98,2.98,0,0,1,1.469.4Z" transform="translate(17.799 4.405)" fill="#fff"/>
    <path id="Path_257" data-name="Path 257" d="M274.232-53.534a.852.852,0,0,0-.132.01c-.157.013-.426.043-.8.043a3.982,3.982,0,0,1-2.732-.79c2.826-.494,4.09-3.172,4.09-5.763,0-3.377-2.106-5.828-4.979-5.828-3.021,0-5.134,2.451-5.134,5.964,0,3.3,2.008,5.307,4.037,5.641a4.811,4.811,0,0,0,4.327,2.2,7.945,7.945,0,0,0,1.5-.145l.254-.068-.181-1.261Zm-8.009-6.5c0-2.642,1.316-4.367,3.338-4.367s3.423,1.775,3.423,4.3c0,2.779-1.29,4.514-3.367,4.514C267.645-55.59,266.223-57.462,266.223-60.034Z" transform="translate(18.904 4.462)" fill="#fff"/>
    <path id="Path_258" data-name="Path 258" d="M280.393-56.5c-1.292.709-2.466.886-3.079.271-.371-.369-.371-.986-.371-1.771v-4.912H275.4v4.955a3.572,3.572,0,0,0,.776,2.768,2.842,2.842,0,0,0,2.08.776,4.909,4.909,0,0,0,2.216-.565v.406h1.464v-8.339h-1.541Z" transform="translate(19.892 4.73)" fill="#fff"/>
    <path id="Path_259" data-name="Path 259" d="M286.257-63.1a4.789,4.789,0,0,0-2.858.853l-.161.164.508.878.183.24.243-.151a3.841,3.841,0,0,1,1.972-.559,1.705,1.705,0,0,1,1.246.364c.268.275.322.673.322,1.422h-.125c-1.172,0-4.744,0-4.744,2.834a2.6,2.6,0,0,0,2.764,2.654,4.9,4.9,0,0,0,2.166-.535v.375h1.481v-5.285a3.034,3.034,0,0,0-.691-2.439A3.141,3.141,0,0,0,286.257-63.1Zm1.456,6.737a4.528,4.528,0,0,1-1.88.523c-1.276,0-1.409-.842-1.409-1.2,0-.971,1.049-1.464,3.127-1.464h.161Z" transform="translate(20.571 4.713)" fill="#fff"/>
    <rect id="Rectangle_192" data-name="Rectangle 192" width="1.545" height="12.228" transform="translate(311.795 -62.076)" fill="#fff"/>
    <rect id="Rectangle_193" data-name="Rectangle 193" width="1.541" height="8.339" transform="translate(315.418 -58.187)" fill="#fff"/>
    <path id="Path_260" data-name="Path 260" d="M301.374-55.916c-.025.015-.076.027-.146.056a3.031,3.031,0,0,1-.945.185,1.1,1.1,0,0,1-.718-.185c-.213-.213-.194-.684-.194-1.215V-61.36h2.486v-1.373h-2.486v-2.2h-1.564v2.2h-1.343v1.373h1.343v4.294c0,.961,0,1.672.552,2.208a2.413,2.413,0,0,0,1.792.637,3.484,3.484,0,0,0,1.665-.4l.224-.123-.424-1.212Z" transform="translate(21.812 4.546)" fill="#fff"/>
    <path id="Path_261" data-name="Path 261" d="M306.472-56.757l-2.451-6.16h-1.675l3.3,8.232a5.533,5.533,0,0,1-1.047,1.943,1.508,1.508,0,0,1-1.055.358,2.9,2.9,0,0,1-.941-.145l-.338-.106-.344,1.055-.055.28.257.094a3.556,3.556,0,0,0,1.451.295,3.013,3.013,0,0,0,2.1-.8,6.2,6.2,0,0,0,1.424-2.505l3.209-8.7H308.68Z" transform="translate(22.304 4.73)" fill="#fff"/>
    <path id="Path_262" data-name="Path 262" d="M319.541-65.862c-3.007,0-5.124,2.451-5.124,5.964,0,3.346,2.1,5.771,5,5.771,3,0,5.1-2.424,5.1-5.907C324.516-63.411,322.426-65.862,319.541-65.862ZM319.49-55.59c-1.974,0-3.4-1.871-3.4-4.444,0-2.642,1.319-4.367,3.341-4.367s3.405,1.775,3.405,4.3C322.839-57.325,321.563-55.59,319.49-55.59Z" transform="translate(23.447 4.462)" fill="#fff"/>
    <path id="Path_263" data-name="Path 263" d="M329.03-63.1a3.24,3.24,0,0,0-2.173.789V-62.9h-1.487v8.339h1.541v-5.925a2.361,2.361,0,0,1,2.067-1.162,3.35,3.35,0,0,1,.586.053l.25.026L330.1-62.6l.046-.258-.214-.107A2.659,2.659,0,0,0,329.03-63.1Z" transform="translate(24.445 4.713)" fill="#fff"/>
    <path id="Path_264" data-name="Path 264" d="M334.139-63.1A4.157,4.157,0,0,0,330-58.666c0,2.384,1.5,4.117,3.593,4.117a4.406,4.406,0,0,0,1.956-.468v.106c0,1.23-.014,1.672-.416,2.07a2.1,2.1,0,0,1-1.611.5,3.959,3.959,0,0,1-2.157-.684l-.3-.192-.7,1.1.16.177a4.864,4.864,0,0,0,3.07,1.027,3.631,3.631,0,0,0,2.728-.937,3.826,3.826,0,0,0,.8-2.9v-7.593l-.259-.111A6.746,6.746,0,0,0,334.139-63.1Zm1.413,6.515a3.588,3.588,0,0,1-1.86.6c-1.255,0-2.1-1.082-2.1-2.694,0-1.8.981-2.974,2.5-2.974a3.935,3.935,0,0,1,1.463.275Z" transform="translate(24.867 4.713)" fill="#fff"/>
    <rect id="Rectangle_194" data-name="Rectangle 194" width="1.546" height="1.797" transform="translate(91.385 -61.409)" fill="#fff"/>
    <rect id="Rectangle_195" data-name="Rectangle 195" width="1.541" height="1.797" transform="translate(315.418 -61.409)" fill="#fff"/>
    <rect id="Rectangle_196" data-name="Rectangle 196" width="1.737" height="2.029" transform="translate(364.256 -51.758)" fill="#fff"/>
    <path id="Path_265" data-name="Path 265" d="M395.3-74.954l0,.011a78.07,78.07,0,0,1,5.274,11.511L426.148-48.7a98.338,98.338,0,0,0-4.466-19.345,93.683,93.683,0,0,0-5.675-13.29c-.749-1.447-1.54-2.855-2.354-4.241-.794-1.4-1.619-2.789-2.493-4.159a94.732,94.732,0,0,0-8.68-11.554,98.919,98.919,0,0,0-14.536-13.542v29.552a78.518,78.518,0,0,1,7.345,10.31Z" transform="translate(30.147)" fill="#fff"/>
    <path id="Path_266" data-name="Path 266" d="M376.017-63.432A78.318,78.318,0,0,1,381.3-74.943l0-.011.007-.013a78.883,78.883,0,0,1,7.354-10.31v-29.552l-.036.028v-.022A98.763,98.763,0,0,0,374.1-101.287a94.27,94.27,0,0,0-8.678,11.554c-.879,1.37-1.7,2.764-2.5,4.159-.816,1.386-1.6,2.794-2.355,4.241a93.8,93.8,0,0,0-5.675,13.29A98.492,98.492,0,0,0,350.431-48.7l.021-.012v.012Z" transform="translate(26.729)" fill="#fff"/>
    <path id="Path_267" data-name="Path 267" d="M380.357-52.953l2.641.162-1.061-4.288Z" transform="translate(29.455 5.262)" fill="#fff"/>
    <path id="Path_268" data-name="Path 268" d="M389.961-64.436h-.011l-.014,0a79.417,79.417,0,0,1-12.61-1.183l-25.56,14.83A98.448,98.448,0,0,0,370.781-45,94.692,94.692,0,0,0,385.129-43.3q2.442.095,4.852.065c1.605.011,3.221-.012,4.849-.087a93.977,93.977,0,0,0,14.344-1.764,99.322,99.322,0,0,0,18.976-5.847L402.568-65.653A78.568,78.568,0,0,1,389.961-64.436Zm-15.828,7.821c.416.575,2.466,1.4,3.358,2.65a2.685,2.685,0,0,1,.467,2.166c-.331,1.956-2.048,3.061-4.313,2.679a5.1,5.1,0,0,1-3.293-1.777l1.213-1.334a4.443,4.443,0,0,0,2.265,1.243c1.01.17,1.74-.221,1.873-.978a1.073,1.073,0,0,0-.176-.782c-.543-.761-2.346-1.313-3.254-2.58a2.7,2.7,0,0,1-.492-2.095c.307-1.867,2.017-2.824,4.1-2.472a4.866,4.866,0,0,1,3.068,1.673l-1.234,1.249a4.062,4.062,0,0,0-1.992-1.136c-.919-.149-1.643.175-1.753.83A.785.785,0,0,0,374.133-56.615Zm12.575,8.582-.637-2.229-3.765-.235-.9,2.135-2.243-.134L383.6-58.73l2.227.132L389-47.891Zm7.255.192a5.111,5.111,0,0,1-3.586-1.078l.919-1.545a4.5,4.5,0,0,0,2.469.758c1.021-.038,1.661-.572,1.632-1.339a1.085,1.085,0,0,0-.324-.729c-.687-.633-2.563-.816-3.708-1.875a2.655,2.655,0,0,1-.906-1.947c-.076-1.885,1.406-3.171,3.512-3.249a4.851,4.851,0,0,1,3.343,1.02l-.953,1.471a4.019,4.019,0,0,0-2.187-.709c-.922.036-1.57.505-1.541,1.165a.75.75,0,0,0,.29.615c.522.489,2.693.878,3.819,1.92a2.633,2.633,0,0,1,.893,2.032C397.712-49.353,396.257-47.929,393.963-47.842ZM409.315-55.1c.507,3.361-1.253,5.836-4.206,6.288-3.027.452-5.413-1.481-5.907-4.763-.482-3.193,1.242-5.668,4.249-6.116C406.515-60.157,408.848-58.216,409.315-55.1Z" transform="translate(26.85 4.481)" fill="#fff"/>
    <path id="Path_269" data-name="Path 269" d="M400.713-51.323c2.151-.324,2.479-2.444,2.231-4.108-.313-2.055-1.7-3.36-3.446-3.1-1.658.255-2.523,1.948-2.2,4.106C397.628-52.241,399.083-51.071,400.713-51.323Z" transform="translate(30.993 5.127)" fill="#fff"/>
  </g>
</svg>
