<svg xmlns="http://www.w3.org/2000/svg" width="10.946" height="14.249" viewBox="0 0 10.946 14.249">
  <path id="Path_785" data-name="Path 785" d="M286.13,76.589h-1.122v.436h.976a.2.2,0,0,1,.125.187v.582a.167.167,0,0,1-.187.125h-.789a.412.412,0,0,0-.312.395v1.35h1.745v-.436h-1.309v-.685a.076.076,0,0,1,.021-.062.167.167,0,0,1,.187-.125h.706a.157.157,0,0,0,.083-.021c.228-.083.332-.208.332-.395V77l-.021-.083c-.1-.228-.228-.332-.436-.332m-2.472,0h-.436v.436h.249c.125,0,.187.062.187.166v2.472h.457V77.025a.187.187,0,0,0-.021-.1.437.437,0,0,0-.436-.332m4.9,0h-1.309v.436h1.2a.2.2,0,0,1,.125.187v.561a.182.182,0,0,1-.187.125h-1.122v.436h1.2a.182.182,0,0,1,.125.187v.561a.182.182,0,0,1-.187.125h-1.122v.436H288.6a.405.405,0,0,0,.166-.021.416.416,0,0,0,.27-.395v-.914a.4.4,0,0,0-.062-.208.335.335,0,0,0,.062-.187l.021-.914c0-.042-.021-.062-.021-.1a.574.574,0,0,0-.478-.311m-.228,6.792a.623.623,0,1,0-.6-.623.612.612,0,0,0,.6.623m.021.6a.558.558,0,0,0-.561.561v2.139a.551.551,0,1,0,1.1,0V84.544a.541.541,0,0,0-.54-.561m-2.015-.6a.623.623,0,0,0,0-1.246.623.623,0,0,0,0,1.246m0,1.89a.625.625,0,0,0,.623-.623.623.623,0,1,0-.623.623m-.021,1.89a.612.612,0,0,0,.623-.623.623.623,0,1,0-1.246,0,.639.639,0,0,0,.623.623m-2.015-3.78a.612.612,0,0,0,.623-.623.623.623,0,1,0-.623.623m0,1.89a.623.623,0,0,0,0-1.246.623.623,0,1,0,0,1.246m0,1.89a.6.6,0,0,0,.6-.623.621.621,0,0,0-.6-.623.639.639,0,0,0-.623.623.625.625,0,0,0,.623.623m-2.015-3.78a.623.623,0,1,0-.623-.623.625.625,0,0,0,.623.623m0,1.89a.623.623,0,1,0-.623-.623.625.625,0,0,0,.623.623m0,1.89a.612.612,0,0,0,.623-.623.623.623,0,1,0-.623.623m7.872-6.543h-9.513l.021-4.943a.488.488,0,0,1,.5-.478l8.516.021a.488.488,0,0,1,.5.478v4.923Zm-.021,6.9a.488.488,0,0,1-.5.478l-8.516-.021a.486.486,0,0,1-.353-.145.534.534,0,0,1-.145-.332V81.3h9.513Zm-.478-13.023-8.516-.021a1.206,1.206,0,0,0-1.2,1.2l-.021,11.819a1.206,1.206,0,0,0,1.2,1.2l8.516.021a1.206,1.206,0,0,0,1.2-1.2l.021-11.819a1.206,1.206,0,0,0-1.2-1.2" transform="translate(-279.92 -74.47)" fill="#fff"/>
</svg>
