<svg xmlns="http://www.w3.org/2000/svg" width="30.733" height="27.345" viewBox="0 0 30.733 27.345">
  <g id="Group_1068" data-name="Group 1068" transform="translate(-0.006)">
    <path id="Path_1158" data-name="Path 1158" d="M34.11,27.531H22.476l-4.718,0a1.172,1.172,0,0,0-.89-.457A1.2,1.2,0,0,0,16.41,29.4a1.2,1.2,0,0,0,1.531-.736c.015-.05.025-.1.035-.144l3.694,0H34.11a.5.5,0,0,0,0-.994ZM17.484,28.5a.706.706,0,1,1-.433-.9A.706.706,0,0,1,17.484,28.5Z" transform="translate(-7.846 -13.61)" fill="#fff"/>
    <path id="Path_1159" data-name="Path 1159" d="M16.642,36.525H29.072a.5.5,0,1,0,0-.994H17.592s-.01,0-.015,0H7.733a1.172,1.172,0,0,0-.89-.457,1.2,1.2,0,1,0,1.079,1.591c.015-.05.025-.1.035-.144l8.661,0A.1.1,0,0,1,16.642,36.525ZM7.454,36.5a.706.706,0,1,1-.433-.9A.706.706,0,0,1,7.454,36.5Z" transform="translate(-2.808 -17.632)" fill="#fff"/>
    <path id="Path_1160" data-name="Path 1160" d="M37.713,4.768l-.994-.994L32.945,0H18.82V3.505h.994V.994H32.244V7.955H39.2v18.4H19.814V24.859H18.82v2.486H40.2V7.254Z" transform="translate(-9.46)" fill="#fff"/>
    <path id="Path_1161" data-name="Path 1161" d="M6.68,20.994H26.259a.5.5,0,1,0,0-.994H6.516a.478.478,0,0,0-.283.1L1.847,21.641a1.2,1.2,0,0,0-1.8.711,1.2,1.2,0,1,0,2.367.3c0-.05-.01-.1-.015-.149ZM1.206,23.356a.706.706,0,1,1,.706-.706A.706.706,0,0,1,1.206,23.356Z" transform="translate(0 -10.056)" fill="#fff"/>
    <path id="Path_1162" data-name="Path 1162" d="M13.787,13.42a1.2,1.2,0,0,0,1.531-.736c.015-.05.025-.1.035-.144l4.763,0v-.01h5.21a.5.5,0,0,0,0-.994h-9.5c-.01,0-.02,0-.035,0h-.671a1.172,1.172,0,0,0-.89-.457,1.2,1.2,0,0,0-.447,2.332Zm-.264-1.367a.706.706,0,1,1,.433.9A.706.706,0,0,1,13.523,12.053Z" transform="translate(-6.525 -5.575)" fill="#fff"/>
    <path id="Path_1163" data-name="Path 1163" d="M17.956,44.645c.015-.05.025-.1.035-.144l3.619,0a.348.348,0,0,0,.07.015H34.11a.5.5,0,0,0,0-.994H22.55a.247.247,0,0,0-.065-.015l-4.718,0a1.172,1.172,0,0,0-.89-.457,1.2,1.2,0,1,0,1.079,1.6Zm-.467-.164a.706.706,0,1,1-.433-.9A.706.706,0,0,1,17.489,44.481Z" transform="translate(-7.851 -21.645)" fill="#fff"/>
  </g>
</svg>
