<svg id="Component_53_1" data-name="Component 53 – 1" xmlns="http://www.w3.org/2000/svg" width="29.951" height="28.798" viewBox="0 0 29.951 28.798">
  <path id="Path_659" data-name="Path 659" d="M15.5,12.725A34.91,34.91,0,0,0,12.226,17.1c-.342.513-.647,1.046-.951,1.578-.323.513-.609,1.046-.894,1.6A35.282,35.282,0,0,0,8.232,25.3,37.606,37.606,0,0,0,6.54,32.616l9.679-5.572a29.882,29.882,0,0,1,2-4.355h0a30.882,30.882,0,0,1,2.776-3.9V7.61a39.085,39.085,0,0,0-5.5,5.115" transform="translate(-6.54 -7.61)" fill="#fff"/>
  <path id="Path_660" data-name="Path 660" d="M14.69,18.783a28.363,28.363,0,0,1,2.776,3.9h0a32.035,32.035,0,0,1,2,4.355l9.679,5.572a37.606,37.606,0,0,0-1.692-7.321,34.373,34.373,0,0,0-2.149-5.02c-.285-.551-.59-1.084-.894-1.6-.3-.532-.609-1.046-.932-1.559a37.023,37.023,0,0,0-3.29-4.374,37.993,37.993,0,0,0-5.5-5.115V18.783Z" transform="translate(0.808 -7.601)" fill="#fff"/>
  <path id="Path_661" data-name="Path 661" d="M21,18.783a30.085,30.085,0,0,0-2.776,3.9h0a29.882,29.882,0,0,0-2,4.355L6.55,32.607a37.606,37.606,0,0,1,1.692-7.321,36.574,36.574,0,0,1,2.149-5.02c.285-.551.59-1.084.894-1.6.3-.532.628-1.046.951-1.559A36.859,36.859,0,0,1,21.021,7.62V18.783Z" transform="translate(-6.531 -7.601)" fill="#fff"/>
  <path id="Path_662" data-name="Path 662" d="M16.482,18.29a30.515,30.515,0,0,0,4.773.456h0a30.736,30.736,0,0,0,4.773-.456l9.679,5.572a36.644,36.644,0,0,1-7.169,2.206,34.593,34.593,0,0,1-5.42.666c-.609.038-1.217.038-1.826.038-.609.019-1.217,0-1.826-.019a34.3,34.3,0,0,1-5.42-.647A38.094,38.094,0,0,1,6.86,23.919Z" transform="translate(-6.251 2.019)" fill="#fff"/>
  <path id="Path_663" data-name="Path 663" d="M11.785,23.521a2.029,2.029,0,0,1-1.255-.666l.456-.513a1.831,1.831,0,0,0,.856.456c.38.057.666-.076.7-.38a.428.428,0,0,0-.057-.285c-.209-.285-.894-.494-1.236-.97a1.031,1.031,0,0,1-.19-.8,1.226,1.226,0,0,1,1.559-.932,1.725,1.725,0,0,1,1.16.628l-.456.494a1.5,1.5,0,0,0-.761-.418c-.342-.057-.628.057-.666.3a.274.274,0,0,0,.057.247c.152.228.932.532,1.274,1.008a.955.955,0,0,1,.171.818,1.264,1.264,0,0,1-1.616,1.008" transform="translate(-2.943 3.025)" fill="#fff"/>
  <path id="Path_664" data-name="Path 664" d="M14.325,20.592l-.609,1.559,1.008.057Zm.818,3.119-.247-.856-1.426-.076-.342.8-.837-.038,1.692-3.879.837.057,1.2,4.05Z" transform="translate(-1.356 3.255)" fill="#fff"/>
  <path id="Path_665" data-name="Path 665" d="M15.87,23.778a1.936,1.936,0,0,1-1.35-.4l.342-.59a1.767,1.767,0,0,0,.932.3c.38-.019.628-.228.628-.513a.4.4,0,0,0-.133-.266c-.266-.247-.97-.3-1.407-.7a1.015,1.015,0,0,1-.342-.742,1.211,1.211,0,0,1,1.331-1.217,1.876,1.876,0,0,1,1.274.38l-.361.551a1.546,1.546,0,0,0-.837-.266c-.342.019-.609.19-.59.437a.249.249,0,0,0,.114.228c.19.19,1.027.323,1.445.723a1.062,1.062,0,0,1,.342.761,1.269,1.269,0,0,1-1.388,1.312" transform="translate(0.655 3.244)" fill="#fff"/>
  <path id="Path_666" data-name="Path 666" d="M17.978,20.166c-.628.1-.951.742-.818,1.559.114.818.666,1.274,1.274,1.179.818-.114.932-.932.856-1.559-.133-.78-.666-1.274-1.312-1.179m.551,3.423A1.937,1.937,0,0,1,16.285,21.8a1.937,1.937,0,1,1,3.822-.59,1.91,1.91,0,0,1-1.578,2.377" transform="translate(2.218 3.071)" fill="#fff"/>
  <path id="Path_667" data-name="Path 667" d="M11.785,23.521a2.029,2.029,0,0,1-1.255-.666l.456-.513a1.831,1.831,0,0,0,.856.456c.38.057.666-.076.7-.38a.428.428,0,0,0-.057-.285c-.209-.285-.894-.494-1.236-.97a1.031,1.031,0,0,1-.19-.8,1.226,1.226,0,0,1,1.559-.932,1.725,1.725,0,0,1,1.16.628l-.456.494a1.5,1.5,0,0,0-.761-.418c-.342-.057-.628.057-.666.3a.274.274,0,0,0,.057.247c.152.228.932.532,1.274,1.008a.955.955,0,0,1,.171.818,1.264,1.264,0,0,1-1.616,1.008" transform="translate(-2.943 3.025)" fill="#aac4a7"/>
  <path id="Path_668" data-name="Path 668" d="M14.325,20.592l-.609,1.559,1.008.057Zm.818,3.119-.247-.856-1.426-.076-.342.8-.837-.038,1.692-3.879.837.057,1.2,4.05Z" transform="translate(-1.356 3.255)" fill="#aac4a7"/>
  <path id="Path_669" data-name="Path 669" d="M15.87,23.778a1.936,1.936,0,0,1-1.35-.4l.342-.59a1.767,1.767,0,0,0,.932.3c.38-.019.628-.228.628-.513a.4.4,0,0,0-.133-.266c-.266-.247-.97-.3-1.407-.7a1.015,1.015,0,0,1-.342-.742,1.211,1.211,0,0,1,1.331-1.217,1.876,1.876,0,0,1,1.274.38l-.361.551a1.546,1.546,0,0,0-.837-.266c-.342.019-.609.19-.59.437a.249.249,0,0,0,.114.228c.19.19,1.027.323,1.445.723a1.062,1.062,0,0,1,.342.761,1.269,1.269,0,0,1-1.388,1.312" transform="translate(0.655 3.244)" fill="#aac4a7"/>
  <path id="Path_670" data-name="Path 670" d="M17.978,20.166c-.628.1-.951.742-.818,1.559.114.818.666,1.274,1.274,1.179.818-.114.932-.932.856-1.559-.133-.78-.666-1.274-1.312-1.179m.551,3.423A1.937,1.937,0,0,1,16.285,21.8a1.937,1.937,0,1,1,3.822-.59,1.91,1.91,0,0,1-1.578,2.377" transform="translate(2.218 3.071)" fill="#aac4a7"/>
</svg>
