<svg xmlns="http://www.w3.org/2000/svg" width="23.484" height="23.507" viewBox="0 0 23.484 23.507">
  <path id="Union_11" data-name="Union 11" d="M-12900.507,16.371a9.307,9.307,0,0,1-6.152,2.313A9.347,9.347,0,0,1-12916,9.342,9.347,9.347,0,0,1-12906.659,0a9.345,9.345,0,0,1,9.343,9.342,9.306,9.306,0,0,1-2.314,6.153l7.114,7.115-.9.9Zm-14.239-7.029a8.1,8.1,0,0,0,8.087,8.088,8.116,8.116,0,0,0,8.091-8.088,8.116,8.116,0,0,0-8.091-8.088A8.1,8.1,0,0,0-12914.746,9.342Z" transform="translate(12916.001)" fill="#f3f3ed"/>
</svg>
