<svg xmlns="http://www.w3.org/2000/svg" width="19.88" height="13.059" viewBox="0 0 19.88 13.059">
  <g id="Group_1090" data-name="Group 1090" transform="translate(0.004)">
    <g id="Group_1088" data-name="Group 1088" transform="translate(-0.004)">
      <g id="Group_1087" data-name="Group 1087">
        <path id="Path_1174" data-name="Path 1174" d="M19.854,54.415a.1.1,0,0,0-.076-.035H.1a.1.1,0,0,0-.076.035A.106.106,0,0,0,0,54.5a2.392,2.392,0,0,0,2.6,1.841H17.271a2.392,2.392,0,0,0,2.6-1.841A.1.1,0,0,0,19.854,54.415ZM11.416,55.7H8.456v-.68h2.96Z" transform="translate(0.004 -43.279)" fill="#fff"/>
        <path id="Path_1175" data-name="Path 1175" d="M24.509,0H8.918A.409.409,0,0,0,8.51.408V9.985a.409.409,0,0,0,.408.408H9.939V1.429H23.488v8.964h1.021a.409.409,0,0,0,.408-.408V.408A.409.409,0,0,0,24.509,0Z" transform="translate(-6.772)" fill="#fff"/>
      </g>
    </g>
    <g id="Group_1089" data-name="Group 1089" transform="translate(3.871 2.101)">
      <path id="Path_1176" data-name="Path 1176" d="M39.724,24.79c-.074.186-.145.376-.214.557h.418l-.2-.557Z" transform="translate(-35.319 -21.83)" fill="#fff"/>
      <path id="Path_1177" data-name="Path 1177" d="M52.292,23.69h0c-.259,0-.5.21-.5.633s.243.723.572.723c.257,0,.492-.2.492-.637C52.854,23.939,52.594,23.69,52.292,23.69Z" transform="translate(-45.092 -20.954)" fill="#fff"/>
      <path id="Path_1178" data-name="Path 1178" d="M18.98,10.29v8.292H31.112V10.29Zm3.046,4.175a.685.685,0,0,1-.229-.037.805.805,0,0,1-.112-.047c-.014-.045-.049-.247-.063-.357l.069-.02c.039.143.149.376.384.376a.244.244,0,0,0,.265-.263c0-.161-.122-.239-.3-.331s-.378-.192-.378-.437a.429.429,0,0,1,.48-.408,1.006,1.006,0,0,1,.3.053c.008.08.02.171.039.318l-.069.012c-.039-.143-.11-.306-.3-.306a.236.236,0,0,0-.253.243c0,.157.106.235.292.325s.4.2.4.447A.465.465,0,0,1,22.026,14.465Zm2.168-.035h-.578v-.063c.143-.02.161-.039.131-.131s-.073-.2-.122-.329h-.492c-.039.1-.069.19-.1.278-.049.137-.031.161.143.18v.063h-.5v-.063c.149-.022.18-.039.261-.237l.48-1.168.08-.02c.147.4.294.794.445,1.186.073.2.106.223.253.237v.067Zm.531.035a.685.685,0,0,1-.229-.037.8.8,0,0,1-.112-.047c-.014-.045-.049-.247-.063-.357L24.39,14c.039.143.149.376.384.376a.244.244,0,0,0,.265-.263c0-.161-.122-.239-.3-.331s-.378-.192-.378-.437a.429.429,0,0,1,.48-.408,1.006,1.006,0,0,1,.3.053c.008.08.02.171.039.318l-.069.012c-.039-.143-.11-.306-.3-.306a.236.236,0,0,0-.253.243c0,.157.106.235.292.325s.4.2.4.447A.463.463,0,0,1,24.725,14.465Zm1.474,0a.746.746,0,0,1-.772-.747.769.769,0,0,1,.8-.776h0a.742.742,0,0,1,.766.741A.763.763,0,0,1,26.2,14.465Z" transform="translate(-18.98 -10.29)" fill="#fff"/>
    </g>
  </g>
</svg>
