<svg xmlns="http://www.w3.org/2000/svg" width="24.739" height="22.162" viewBox="0 0 24.739 22.162">
  <path id="Union_13" data-name="Union 13" d="M-12899.917,19.844a2.279,2.279,0,0,1,2.39-2.415,2.285,2.285,0,0,1,1.086.214l-.14.473a1.975,1.975,0,0,0-.924-.188,1.713,1.713,0,0,0-1.8,1.89,1.655,1.655,0,0,0,1.751,1.844,2.389,2.389,0,0,0,.969-.188l.117.473a2.836,2.836,0,0,1-1.206.214A2.119,2.119,0,0,1-12899.917,19.844Zm-3.809,0a2.279,2.279,0,0,1,2.39-2.415,2.3,2.3,0,0,1,1.089.214l-.143.473a1.975,1.975,0,0,0-.924-.188,1.713,1.713,0,0,0-1.8,1.89,1.655,1.655,0,0,0,1.75,1.844,2.39,2.39,0,0,0,.97-.188l.116.473a2.814,2.814,0,0,1-1.205.214A2.13,2.13,0,0,1-12903.726,19.844Zm-1.205,2.246-.12-2.01c-.046-.639-.068-1.42-.068-1.964h-.026c-.165.519-.353,1.112-.566,1.728l-.8,2.22h-.447l-.758-2.175a16.867,16.867,0,0,1-.519-1.773h-.026c-.022.567-.045,1.326-.094,2.01l-.117,1.964h-.567l.3-4.564h.759l.781,2.2c.188.567.331,1.063.47,1.536h.026a13.537,13.537,0,0,1,.5-1.536l.826-2.2h.759l.282,4.564Zm-5.6,0-1.443-2.318a16.793,16.793,0,0,1-.853-1.54h-.022c.022.593.046,1.138.046,1.893v1.938h-.567V17.527h.639l1.468,2.318a10.528,10.528,0,0,1,.8,1.488h.022c-.049-.613-.071-1.157-.071-1.89V17.527h.567v4.564Zm18.684-5.582a13.168,13.168,0,0,0-4.382-9.819l-7.988,9.2-2.576-2.7,9.72-7.2a13.133,13.133,0,0,0-7.973-2.682,13.086,13.086,0,0,0-8.561,3.17l-2.39-2.671A14.7,14.7,0,0,1-12906.114,0a14.819,14.819,0,0,1,10.819,4.671l2.283-1.692-1.867,2.151a14.763,14.763,0,0,1,3.617,9.7,14.651,14.651,0,0,1-1.536,6.574A12.981,12.981,0,0,0-12891.852,16.509Z" transform="translate(12916.001)" fill="#ededed"/>
</svg>
