<svg id="Component_51_1" data-name="Component 51 – 1" xmlns="http://www.w3.org/2000/svg" width="21.38" height="23.532" viewBox="0 0 21.38 23.532">
  <path id="Path_1064" data-name="Path 1064" d="M339.189,18.495l1.75-3.855-4.21.426Zm-3.855-3.571.449-.307.047.544-.047-.544-.449.307-.544-.757,7.876-.757L339.4,20.623Z" transform="translate(-327.979 -13.41)" fill="#fff"/>
  <rect id="Rectangle_369" data-name="Rectangle 369" width="9.153" height="1.064" transform="matrix(0.813, -0.582, 0.582, 0.813, 1.49, 8.699)" fill="#fff"/>
  <path id="Path_1065" data-name="Path 1065" d="M333,27.5h3.9V20.594H333Zm4.423.52v0Zm-5.511.544V19.53h6.055v9.035Z" transform="translate(-331.91 -5.056)" fill="#fff"/>
  <path id="Path_1066" data-name="Path 1066" d="M336.214,29.439h3.9V19.174h-3.9Zm4.47.52v0Zm-5.534.544V18.11H341.2V30.527H335.15Z" transform="translate(-327.487 -6.994)" fill="#fff"/>
  <path id="Path_1067" data-name="Path 1067" d="M339.454,33.329h3.9v-17h-3.9Zm4.446.52v0Zm-5.511.544V15.26h6.055V34.393Z" transform="translate(-323.064 -10.885)" fill="#fff"/>
</svg>
