<svg xmlns="http://www.w3.org/2000/svg" width="15.89" height="20.107" viewBox="0 0 15.89 20.107">
  <path id="Union_9" data-name="Union 9" d="M-12907.109,19.981l-.146-.081a.3.3,0,0,1-.146.019.342.342,0,0,1-.372-.353.336.336,0,0,1,.372-.331.337.337,0,0,1,.373.331.341.341,0,0,1-.165.292l.188.1a.969.969,0,0,0,.373.1.24.24,0,0,0,.165-.042h.022v.023a.786.786,0,0,1-.291.062A.659.659,0,0,1-12907.109,19.981Zm-.541-.415a.3.3,0,0,0,.271.334c.081-.023.205-.042.205-.311,0-.211-.124-.314-.247-.314S-12907.65,19.358-12907.65,19.566Zm1.205.48v0Zm-.457-.146a.3.3,0,0,1-.084-.23V19.5h.062v-.188a.058.058,0,0,0-.039-.062h-.064a.02.02,0,0,1,.022-.019h.228c.022,0,.022,0,.022.019h-.065c-.02,0-.02.019-.02.062v.311a.3.3,0,0,0,.063.23.134.134,0,0,0,.1.042.322.322,0,0,0,.126-.042c.042-.042.042-.126.042-.23v-.288c0-.023-.022-.042-.042-.065h-.064a.02.02,0,0,1,.022-.019h.208c.019,0,.019,0,.019.019h-.038c-.023,0-.023.023-.023.065v.288a.319.319,0,0,1-.081.272.259.259,0,0,1-.21.062A.248.248,0,0,1-12906.9,19.9Zm-4.362,0a.3.3,0,0,1-.085-.23V19.5h.065v-.188c0-.019,0-.042-.042-.062h-.062a.019.019,0,0,1,.019-.019h.23c.02,0,.02,0,.02.019h-.042c-.02,0-.042.019-.042.062v.311a.3.3,0,0,0,.064.23.128.128,0,0,0,.1.042.31.31,0,0,0,.123-.042.333.333,0,0,0,.063-.23v-.288c0-.023,0-.042-.043-.065h-.062a.021.021,0,0,1,.023-.019h.207a.019.019,0,0,1,.02.019h-.062c-.022,0-.022.023-.022.065v.288a.319.319,0,0,1-.081.272.252.252,0,0,1-.208.062A.253.253,0,0,1-12911.265,19.9Zm9.367.042h-.207c0-.023,0-.023.02-.023h.022a.164.164,0,0,0,.084-.084l.228-.561c0-.019,0-.039.02-.039s.022,0,.022.019c.02.042.165.415.207.541a.344.344,0,0,0,.046.07.017.017,0,0,1,.016-.008h.02c.023,0,.023-.023.023-.042V19.5h.062v-.188c0-.019,0-.042-.043-.062h-.062a.019.019,0,0,1,.02-.019h.25a.272.272,0,0,1,.169.039.2.2,0,0,1,.062.126c0,.062-.023.123-.127.207.084.084.146.165.208.227.064.042.084.065.106.065s.02-.023.039-.042v-.541a.058.058,0,0,0-.039-.062h-.064a.02.02,0,0,1,.022-.019h.25a.428.428,0,0,1,.353.1.334.334,0,0,1,.081.227.344.344,0,0,1-.081.25.448.448,0,0,1-.314.1h-.311a.165.165,0,0,1-.1-.019c-.043-.023-.062-.065-.124-.126-.042-.042-.084-.1-.1-.123,0-.023,0-.023-.022-.023h-.081v.188c0,.019,0,.042.042.042h.039v.019h-.274a.2.2,0,0,1,.024.023h.042c.023,0,.023,0,.023.019h-.23c0-.019,0-.019.022-.019,0,0,.02-.023,0-.023l-.064-.185h-.246l-.065.143c0,.023-.02.042-.02.065s.02.019.042.019h.02c.023,0,.023,0,.023.023Zm1.31-.645v.538c0,.023.043.042.124.042a.268.268,0,0,0,.207-.062.273.273,0,0,0,.084-.227.391.391,0,0,0-.084-.23.32.32,0,0,0-.25-.084h-.062A.02.02,0,0,0-12900.588,19.3Zm-1.186.123-.081.207h.156l-.075-.207Zm.541.146v.023h.062c.042,0,.042,0,.064-.023a.2.2,0,0,0,.039-.146c0-.123-.081-.165-.123-.165h-.042Zm-2.117.376h-.21v-.023h.042a.085.085,0,0,0,.062-.084l.23-.561a.062.062,0,0,0,.019-.039c.023,0,.023,0,.043.019.019.042.165.415.207.541a.278.278,0,0,0,.084.1h.042v.019h-.229c0-.019,0-.019.022-.019,0,0,.02-.023,0-.023l-.064-.185h-.228l-.062.143a.077.077,0,0,0-.022.065c0,.019,0,.019.042.019h.022c.02,0,.02,0,.02.023Zm.1-.522-.085.207h.18l-.075-.207a.019.019,0,0,0-.02-.019Zm-2.931.522h-.207c0-.023,0-.023.019-.023h.023a.149.149,0,0,0,.081-.084l.229-.561a.06.06,0,0,0,.02-.039s.022,0,.022.019c.02.042.166.415.228.541a.252.252,0,0,0,.084.1h.062c.022,0,.022-.023.022-.065V19.3c0-.023,0-.042-.042-.042h-.022c-.02,0-.02,0-.02-.019h.289a.019.019,0,0,1-.02.019h-.043c-.019,0-.019.019-.019.042v.353c0,.123,0,.185.019.185.023.023.043.023.1.023s.084,0,.1-.023a.068.068,0,0,0,.022-.062V19.8s0,.081-.022.1c0,.019-.02.019-.062.019h-.541c0-.019,0-.019.022-.019v-.023l-.062-.185h-.25l-.062.143a.077.077,0,0,0-.022.065c0,.019,0,.019.042.019a.02.02,0,0,1,.02.023Zm.062-.314h.16l-.076-.207-.084.207h0Zm-3.9.314h-.211v-.023h.022l.006,0a.221.221,0,0,1-.048,0h-.373a.019.019,0,0,1,.02-.019h.022c.02,0,.02-.023.02-.065V19.3c0-.023,0-.042-.042-.042h-.02c-.022,0-.022,0-.022-.019h.272a.02.02,0,0,1-.022.019h-.043c-.02,0-.02.019-.038.042v.353h.062c0,.123,0,.185.02.185.022.023.022.023.1.023.042,0,.084,0,.1-.023a.068.068,0,0,0,.022-.062V19.8s0,.081-.022.1a.016.016,0,0,1,0,.012.146.146,0,0,0,.066-.077l.23-.561a.06.06,0,0,0,.02-.039c.022,0,.022,0,.022.019.02.042.165.415.227.541a.277.277,0,0,0,.085.1h.042c.123-.188.249-.4.372-.583h-.187c-.042,0-.1,0-.123.023s-.042.039-.042.062,0,.019-.02.019V19.4a.286.286,0,0,1,.02-.126.019.019,0,0,1,.02-.019h.5v.019c-.123.211-.25.418-.373.6h.188v-.019a.2.2,0,0,0,.144-.042c.022-.019.022-.019.022-.042V19.8c0,.019,0,.081-.022.1a.019.019,0,0,1-.02.019h-.685V19.9l.02-.023-.084-.185h-.208l-.062.143a.085.085,0,0,0-.02.065c0,.019,0,.019.043.019h.02v.023Zm.143-.522-.081.207h.156l-.075-.207Zm7.563.48-.188-.438c-.02.042-.146.353-.165.438-.02.039-.02.039-.042.039,0,0-.02,0-.02-.039l-.166-.561a.239.239,0,0,0-.042-.065h-.042a.019.019,0,0,1-.02-.019h.246c0,.019,0,.019-.019.019h-.02V19.3a.2.2,0,0,0,.02.081c.019.065.1.334.123.376l.168-.48.02-.019a.067.067,0,0,1,.022.042l.186.457c.022-.062.084-.292.126-.4a.078.078,0,0,0,.02-.062c0-.023-.02-.023-.042-.023a.019.019,0,0,1-.02-.019h.207a.019.019,0,0,1-.02.019h-.022c-.02,0-.042.042-.062.1-.042.107-.146.4-.187.522l-.02.039S-12902.293,19.938-12902.312,19.9Zm-1.537.039h-.249v-.019h.042c0-.019.02-.019.02-.062v-.165a.191.191,0,0,0-.02-.1,1.267,1.267,0,0,0-.166-.25c-.022-.042-.042-.065-.064-.065,0,.023-.02.084-.02.1v-.019c0-.019-.042-.042-.1-.042h-.126v.561c0,.042,0,.042.042.062h-.208c.02,0,.02-.019.02-.062V19.3h-.081c-.042,0-.084,0-.084.019s0,.023-.02.042a.02.02,0,0,1-.022.019v-.019a.9.9,0,0,1,.022-.1v-.019a.07.07,0,0,0,.042.019h.727l-.023.019a.02.02,0,0,0-.02.023.019.019,0,0,0,.02.019c0,.023.146.25.146.272a1.506,1.506,0,0,1,.146-.25.067.067,0,0,1,.022-.042.022.022,0,0,0-.022-.023.019.019,0,0,1-.02-.019h.208a.021.021,0,0,1-.023.019h-.038a.045.045,0,0,0-.043.042,2.205,2.205,0,0,0-.165.292.149.149,0,0,0-.022.084v.165c0,.019.022.042.042.062h.042a.019.019,0,0,1,.02.019Zm-.872,0h.02Zm-.207,0h-.292a.019.019,0,0,1,.02-.019h.042c.022,0,.022-.019.022-.042V19.5h.043v-.188a.07.07,0,0,0-.023-.062h-.062a.019.019,0,0,1,.02-.019h.23c.02,0,.02,0,.02.019h-.042c-.02,0-.02.019-.043.062v.561c0,.023,0,.042.023.042h.042a.019.019,0,0,1,.02.019Zm-3.741,0h-.249a.019.019,0,0,1,.02-.019h.022c.02,0,.02-.019.02-.042V19.5h.022v-.188a.071.071,0,0,0-.022-.062h-.062a.02.02,0,0,1,.022-.019h.208a.018.018,0,0,1,.019.019h-.042c-.02,0-.042.019-.042.062v.561c0,.023,0,.042.042.042h.042s.023,0,.023.019Zm.085-.019h-.023a.021.021,0,0,1,.023-.019c.123-.188.249-.4.372-.583h-.165c-.042,0-.1,0-.126.023s-.062.039-.062.062c0-.023,0-.1.022-.126a.019.019,0,0,1,.02-.019h.5v.019c-.126.211-.27.418-.4.6h.207v-.019c.085,0,.127-.023.127-.042.02-.019.02-.019.02-.042V19.8a.2.2,0,0,1-.02.1c0,.019-.022.019-.022.019Zm-3.3,0h-.229a.02.02,0,0,1,.022-.019h.042c.02,0,.02-.023.02-.042v-.541a.1.1,0,0,0-.042-.062h-.062l.02-.019h.272a.492.492,0,0,1,.372.1.321.321,0,0,1,.085.227.285.285,0,0,1-.1.25.386.386,0,0,1-.291.1Zm-.042-.622v.538c.022.023.042.042.123.042a.253.253,0,0,0,.188-.062.273.273,0,0,0,.084-.227.3.3,0,0,0-.084-.23.32.32,0,0,0-.246-.084h-.065Zm-.561.6h-.165v-.023h.042c.02,0,.02-.019.039-.042V19.5h-.039v-.188c0-.019,0-.042-.042-.062h-.062a.019.019,0,0,1,.02-.019h.249c.165,0,.188.081.188.123a.205.205,0,0,1-.085.165.21.21,0,0,1,.146.188c0,.1-.062.188-.23.188Zm-.02-.126c0,.062,0,.084.042.084.02,0,.039.019.062.019.042,0,.1-.019.1-.123a.214.214,0,0,0-.085-.165c-.02-.023-.042-.023-.081-.023h-.042Zm.042-.227a.074.074,0,0,0,.062-.023.12.12,0,0,0,.042-.1c0-.062-.042-.146-.1-.146h-.042v.25C-12912.49,19.546-12912.49,19.546-12912.468,19.546Zm-.042-.023h0Zm3.945-.123v0Zm4.259-.023v0Zm-11.7-.768v-.1h15.744v.1Zm13.75-.746h-.019l.017-.006-.017-.036a.671.671,0,0,0,.269-.146.412.412,0,0,0,.1-.292v-.25l.1-.1v.376h.084v.019h.165a.159.159,0,0,1,.08.024.039.039,0,0,0,0-.024v-.292l.08-.084v.066l.023-.022v.331h-.023v.042a.16.16,0,0,1-.1.146l-.02-.042a.048.048,0,0,0-.042-.042h-.253a.378.378,0,0,1-.143.23.409.409,0,0,1-.311.1Zm.207-.1a.175.175,0,0,0,.034-.032C-12902.021,17.738-12902.031,17.749-12902.044,17.761Zm.6-.293c.02-.019.02-.019.02-.062v-.272l-.02.023v.25a.23.23,0,0,1,0,.057Zm-9.824.4h-.02v-.042a.671.671,0,0,0,.269-.146.412.412,0,0,0,.1-.292v-.25l.1-.1v.376h.311c.042,0,.062,0,.085-.023a.109.109,0,0,1,.062-.039.313.313,0,0,1,.084-.065.221.221,0,0,0-.146-.062h-.062l-.043.019V17.2c.02-.042.043-.084.081-.084a.658.658,0,0,1,.065-.188.535.535,0,0,1,.165-.143.291.291,0,0,1,.088.045l.016-.007a.472.472,0,0,1,.166.126.343.343,0,0,1,.062.207.085.085,0,0,1,.084.062h-.071l.01.019-.037-.017a.346.346,0,0,0-.151.059.649.649,0,0,0,.1.084.187.187,0,0,0,.064.042h.373v.019h.207a.158.158,0,0,1,.081.026V16.6l.107-.1v.976a.16.16,0,0,1-.107.146l-.02-.042a.045.045,0,0,0-.042-.042h-.561a.38.38,0,0,1-.228-.1c-.042-.042-.084-.062-.1-.081-.02.019-.062.039-.1.081a.385.385,0,0,1-.23.1h-.335a.4.4,0,0,1-.142.23.212.212,0,0,1-.031.027l0,0-.009.006a.377.377,0,0,1-.146.059.527.527,0,0,1-.1.01Zm.291-.168c-.02.023-.062.042-.1.084l.038-.016a.178.178,0,0,0,.046-.046.256.256,0,0,0,.027-.031Zm1.764-.165h0Zm-1.287-.042h0Zm1.329-.06v0Zm0-.008v0ZM-12910.186,17.28Zm-.039-.269a.163.163,0,0,0-.042.123.916.916,0,0,0,.123.084c.022-.019.065-.042.084-.062a.068.068,0,0,1,.058-.023.376.376,0,0,0-.038-.108.35.35,0,0,0-.1-.1A.383.383,0,0,0-12910.225,17.011Zm-.168.165h-.02Zm.084-.207c-.042.042-.042.126-.062.188v.009a.077.077,0,0,1,.039-.009.4.4,0,0,1,.064-.207.333.333,0,0,1,.053-.06A.5.5,0,0,0-12910.309,16.969Zm-1.744.894h-.022l.022-.008v-.034h-.022a.651.651,0,0,0,.269-.146.4.4,0,0,0,.107-.292v-.25l.1-.1v.376h.227a.147.147,0,0,1,.1.042v-.314l.1-.1v.4a.157.157,0,0,1-.1.146h-.042a.083.083,0,0,0-.02-.042h-.27v-.019a.531.531,0,0,1-.146.25.421.421,0,0,1-.312.1Zm.223-.107a.323.323,0,0,0,.047-.038l.009-.012A.348.348,0,0,0-12911.83,17.756Zm.6-.615.006,0h0Zm10.5.619v-.007c0-.035,0-.036-.022-.057l-.02-.019.084-.1.02.019a.139.139,0,0,1,.02.084.111.111,0,0,1-.062.1l-.042.042Zm0,0v0Zm-6.917,0c0-.042,0-.042-.02-.065l-.022-.019.084-.1.02.019a.16.16,0,0,1,.042.084.111.111,0,0,1-.062.1l-.062.042Zm.062-.042c.022-.023.022-.023.022-.042a.07.07,0,0,1-.022.041Zm-3.987.042v-.007c0-.035,0-.036-.02-.057l-.022-.019.084-.1.02.019a.16.16,0,0,1,.042.084.111.111,0,0,1-.062.1l-.062.042Zm0,0v0Zm.169,0v0l0,0v-.023a.064.064,0,0,0,0-.024.059.059,0,0,0-.011-.012.053.053,0,0,0-.028-.006l.008-.007-.027-.012.1-.1.023.019a.178.178,0,0,1,.039.084.1.1,0,0,1-.081.1l-.043.023Zm.038-.042s0,0,0,0l0,0Zm.02-.042a.034.034,0,0,1,0,.016.022.022,0,0,0,.008-.016.019.019,0,0,0,0-.011Zm9-.042c0-.019-.02-.019-.062-.042a.134.134,0,0,0-.084-.019.341.341,0,0,1-.219-.253v0a.161.161,0,0,1,0-.022.039.039,0,0,1,0-.011.09.09,0,0,1,0-.016.278.278,0,0,1,0-.029.412.412,0,0,1,.062-.227.207.207,0,0,1,.207-.1.18.18,0,0,1,.165.084l.043-.042.042-.042v.062a1.279,1.279,0,0,1,.02.188.531.531,0,0,1,.022.188.391.391,0,0,1-.165.35l-.023.023Zm0-.072v-.009a.086.086,0,0,0-.051-.02.2.2,0,0,1,.033.023Zm-.227-.489a.289.289,0,0,0-.042.146.254.254,0,0,0,.062.188.326.326,0,0,0,.123.062c.042.019.064.019.084.042a.306.306,0,0,0,.062-.207v-.1a.159.159,0,0,0-.038-.1.181.181,0,0,0-.146-.084A.092.092,0,0,0-12902.581,17.073Zm-.084.165a.315.315,0,0,0,.062.211.159.159,0,0,0,.039.022.082.082,0,0,1-.017-.022.246.246,0,0,1-.084-.215Zm.413.114c0-.016,0-.033,0-.05C-12902.25,17.32-12902.251,17.336-12902.252,17.353Zm-.955.219a.367.367,0,0,1-.038-.227v-.771l.1-.1v.875c0,.081.023.143.023.185a.2.2,0,0,0,.123.1v.042A.263.263,0,0,1-12903.207,17.572Zm-.787.062c0-.019-.022-.019-.065-.042a.357.357,0,0,1-.185-.081h-.4v.019h-.1c0,.023,0,.023-.02.023-.022.019-.042.019-.062.039v-.019a.048.048,0,0,0-.042-.042h-.292c0,.016-.012.021-.033.022a.124.124,0,0,1-.07.02c-.022-.019-.022-.042-.042-.042h-.457a.344.344,0,0,1-.208-.062.231.231,0,0,1-.1-.207.281.281,0,0,1,.042-.126.117.117,0,0,1,.1-.062.075.075,0,0,1,.062.023l0,0,.037.016-.009,0,.028.017h-.062l-.035.014a.132.132,0,0,0-.046.113.245.245,0,0,0,.014.086.1.1,0,0,0,.024.018.328.328,0,0,0,.146.042h.457c.02,0,.02.019.042.019v-.872l.1-.1v.956h.085v.019h.207a.067.067,0,0,0,.042.023v-.875l.1-.1v.914h.393a.4.4,0,0,1-.042-.165.406.406,0,0,1,.064-.227.179.179,0,0,1,.185-.1.257.257,0,0,1,.188.081l.084-.081v.039c0,.023.02.084.042.188,0,.062.02.123.02.188v.1h.062v.019h.166a.17.17,0,0,1,.084.026V16.6l.1-.1v.976a.16.16,0,0,1-.1.146l-.02-.042a.048.048,0,0,0-.042-.042h-.292v-.019a.447.447,0,0,1-.123.146l-.022.019Zm-.065-.062a.128.128,0,0,1,.057.019.209.209,0,0,0-.033-.019l-.05-.013Zm-1.141-.019h0Zm.956-.065a.316.316,0,0,0,.058.031.242.242,0,0,1-.038-.031Zm.02-.415a.321.321,0,0,0-.039.146.254.254,0,0,0,.062.188.469.469,0,0,0,.143.062c.043.019.065.019.085.042a.312.312,0,0,0,.062-.207c0-.042-.02-.065-.02-.1-.02-.042-.02-.084-.042-.1a.176.176,0,0,0-.146-.084A.117.117,0,0,0-12904.225,17.073Zm.791.355v0Zm-.836,0a.213.213,0,0,1-.047-.093.35.35,0,0,1-.012-.095.434.434,0,0,0,.042.188Zm.836-.006v0Zm-2.577-.159a.194.194,0,0,0,.06.146.2.2,0,0,1-.033-.089c-.01-.022-.018-.041-.026-.056Zm2.12.042Zm-2.12-.042a.214.214,0,0,0,.022-.1A.764.764,0,0,0-12906.011,17.261Zm-2.907.311c-.042-.042-.042-.123-.042-.227v-.771l.1-.1v.875a1.06,1.06,0,0,0,.021.162l0,0a.1.1,0,0,0,0,.024.2.2,0,0,0,.12.1l-.008.018.008,0-.009,0-.011.022A.22.22,0,0,1-12908.918,17.572Zm.207.062v.023Zm0,0v.023ZM-12908.711,17.634Zm-3.634-.062c-.02-.019-.02-.042-.042-.042h-.292v-.1h.272a.155.155,0,0,1,.081.026V16.6l.1-.1v.976a.133.133,0,0,1-.1.146Zm11.984,0a.045.045,0,0,0-.042-.042h-.746v-.042h-.1v-.914l.1-.123v.934h.062v.023h.665a.151.151,0,0,1,.1.042v-.065a.422.422,0,0,0-.084-.269.255.255,0,0,0-.228-.123.075.075,0,0,0-.062.019.071.071,0,0,0-.022.062.061.061,0,0,0,.022.042l-.042.019a.147.147,0,0,1-.042-.1.148.148,0,0,1,.026-.08.16.16,0,0,1,.035-.063.211.211,0,0,1,.1-.023h.022a.351.351,0,0,1,.186.062.5.5,0,0,1,.168.188.587.587,0,0,1,.062.25c0,.042-.022.1-.022.123,0,.042-.039.065-.081.084Zm.02-.042Zm-.039-.042Zm-.084-.019h0Zm-.292-.476Zm-6.707.58a.048.048,0,0,0-.042-.042h-.269v-.019c-.023.042-.043.062-.085.062h-.062c-.022-.019-.022-.042-.042-.042h-.5v-.123h.457a.146.146,0,0,1,.1.042.178.178,0,0,0,.042-.126.2.2,0,0,0-.084-.188.324.324,0,0,0-.165-.039h-.186a.154.154,0,0,1-.106-.023.062.062,0,0,1-.02-.081.038.038,0,0,1,0-.011.049.049,0,0,1,0-.012c0-.019.02-.042.02-.081l.042.019v.019c0,.042,0,.042.064.065h.205a.384.384,0,0,1,.271.081.347.347,0,0,1,.1.25v.084h.227c.022,0,.022.019.042.019v-.292l.1-.1v.376h.415a.2.2,0,0,1-.081-.188.418.418,0,0,1,.1-.269.436.436,0,0,1,.27-.1.146.146,0,0,1,.1.042.114.114,0,0,1,.065.1.064.064,0,0,1,0,.016.09.09,0,0,1-.042.087l-.039-.023a.083.083,0,0,1,.02-.042.068.068,0,0,0-.02-.039.076.076,0,0,0-.064-.023.253.253,0,0,0-.185.084.218.218,0,0,0-.085.165.162.162,0,0,0,.085.146.244.244,0,0,0,.165.042h.188c.02,0,.02,0,.039.019v.1h-.953v-.019c0,.019-.022.019-.022.019l0,.006,0,0,0,0,0,0,0,0h0a.187.187,0,0,1-.046.025Zm.02-.042h0l0,0Zm-.4-.207a.322.322,0,0,0-.018-.114A.349.349,0,0,1-12907.839,17.323Zm.438-.165.02-.019v0Zm.542-.188a.335.335,0,0,1,.227-.1A.329.329,0,0,0-12906.859,16.969Zm.291-.088a.155.155,0,0,0-.064-.016A.187.187,0,0,1-12906.568,16.881Zm1.118.214h-.227c-.022,0-.042,0-.042-.023a.061.061,0,0,1-.022-.042.066.066,0,0,1,.022-.039l.042-.065-.022.084h.042a.078.078,0,0,1-.02-.062.147.147,0,0,1,.042-.1c.02-.042.062-.042.1-.042h.02c.062,0,.081.019.081.062v.023c0,.019-.02.039-.02.062l-.062.062.023-.084v-.019c0-.019,0-.019-.023-.019a.074.074,0,0,0-.083.072c0,.054.045.071.106.071h.058c.023,0,.023,0,.023.023v.1Zm4.071-.084.02.019-.02.02Zm-.519-.062c0-.042,0-.042-.02-.042l-.022-.019.085-.1.019.019a.1.1,0,0,1,.043.084c0,.039-.02.062-.062.1l-.062.039Zm.062-.062v-.023h0Zm-9.076.062c0-.042,0-.042-.019-.042l-.023-.019.023-.023.038-.062.012.011.031-.031.022.019a.11.11,0,0,1,.039.084c0,.039-.02.062-.062.1l-.043.039Zm.063-.062Zm-.85.062a.066.066,0,0,0-.024-.043l-.018-.018.081-.1.022.019a.111.111,0,0,1,.042.084c0,.039-.022.062-.064.1l-.062.039Zm.062-.062v-.023h0A.145.145,0,0,1-12911.638,16.888Zm10.24.1h-.208a.076.076,0,0,1-.064-.023.078.078,0,0,1-.02-.062c0-.019,0-.042.02-.042l.029.016.016-.016-.016.016.013.007v.018h.042v-.042c0-.011,0-.021,0-.032a.038.038,0,0,1,0-.011.177.177,0,0,1,.042-.1c.022-.042.042-.042.085-.042a.086.086,0,0,1,.072.035l.008.007a.085.085,0,0,1,.02.065.068.068,0,0,1-.02.039l-.062.065.02-.065V16.8c0-.019,0-.019-.038-.019a.088.088,0,0,0-.085.081v.007a.112.112,0,0,0,.085.036h.062c.019,0,.019,0,.019.019v.042l.02-.019-.02.019v.042Zm-1.019-.188v-.021a.046.046,0,0,0-.006-.019.038.038,0,0,0-.017,0l-.02-.019.01-.012-.01-.011.062-.062,0,0,.018-.022.02.019a.1.1,0,0,1,.043.084.113.113,0,0,1-.062.1l-.042.019Zm-.165,0c0-.042,0-.042-.022-.042l-.02-.019.081-.1.022.019a.077.077,0,0,1,.02.059v.025a.114.114,0,0,1-.062.1l-.042.019Zm.02-.1.022-.022h0Zm-13.439-.853v-.123h15.744v.123Zm3.219-5.339a8.459,8.459,0,0,1,.542-2.927,8.265,8.265,0,0,1,1.205-2.243,7.205,7.205,0,0,1,4.11-2.888c.022.042-.207.126-.311.165a8.643,8.643,0,0,0-2.14,1.724,9.634,9.634,0,0,0-2.72,6.107c-.127,2.016.561,3.595,2.159,4.113.146.042.311.062.5.123.084.023.1.084.207.084a2.14,2.14,0,0,0,.629.01,2.685,2.685,0,0,1,.535-.01,5.276,5.276,0,0,1-.926.086C-12911.436,14.854-12912.762,12.921-12912.782,10.509Zm3.533,4.136c.042,0,.042-.065.081-.065a2.89,2.89,0,0,1,.623-.415c-.062-.353-.143-.914-.205-1.348a1.878,1.878,0,0,1-.084-.418c.042-.1.208-.081.208-.185a1,1,0,0,0,.645-.165,2.213,2.213,0,0,0,.208-.211,1.658,1.658,0,0,0,.249-.807c.018,0,.03-.014.039-.035v-.215c.064.039.146.062.169.123-.062.476-.169.895-.25,1.352a.5.5,0,0,1,.207.123c-.1.58-.229,1.164-.291,1.786a2.976,2.976,0,0,1,.583.373c.039.042.1.065.1.146-.266-.01-.544,0-.829,0l-.447,0A9.558,9.558,0,0,1-12909.249,14.645Zm2.263.019c.008,0,.01-.008.008-.013A.024.024,0,0,1-12906.986,14.664Zm0,0-.133,0Zm-.194,0h0Zm-1.749,0h0Zm-.093,0-.059,0Zm-.1,0-.1,0Zm-.1,0a.035.035,0,0,0,.024-.015Zm1.932-.418a8.646,8.646,0,0,0,3.991-5.481,6.287,6.287,0,0,0,.081-2.908,4.739,4.739,0,0,1,.541.331,6.758,6.758,0,0,1-.979,5.151,7.864,7.864,0,0,1-3.3,3.138A1.313,1.313,0,0,1-12907.3,14.227Zm-2.035-2.285a3.265,3.265,0,0,1-1-2.3,3.768,3.768,0,0,1,0-.956c.064-.269.314-.331.5-.58.022,0,.022,0,.022.019a7.2,7.2,0,0,0-.187,2.327,2.125,2.125,0,0,0,.645,1.31c.393.373,1.536.373,1.579-.376-.23-.1-.23.146-.457.146-.25-.019-.415-.353-.354-.707a.511.511,0,0,1,1.018.065,1.18,1.18,0,0,1-.664,1.225,1.364,1.364,0,0,1-.317.035A1.52,1.52,0,0,1-12909.333,11.942Zm.622-.062c.023.062.127.042.188.042a.2.2,0,0,1-.095.018C-12908.669,11.94-12908.722,11.926-12908.711,11.88Zm0-.019c.042-.25-.372-1,0-1.06a1.625,1.625,0,0,1,0,.249,1.929,1.929,0,0,0,0-.249c.038,0,0,.23.02.334a.481.481,0,0,0,.787.373.752.752,0,0,1-.622.4c-.033,0-.065,0-.094,0C-12908.661,11.906-12908.7,11.9-12908.711,11.861Zm.1-1.413c0-.227-.288-.914-.269-1.141.022-.207.207-.292.334-.415-.084-.376-.127-.771-.23-1.144.334.023.5.373.665.645.188-.272.311-.561.664-.687-.02.353-.146.768-.207,1.164.1.165.311.23.334.415a2.706,2.706,0,0,1-.127.6c-.062.23-.081.415-.146.6-.1.019-.123-.146-.247-.207a.651.651,0,0,0-.561.042h0c-.062.081-.1.164-.207.183Zm.035.022a.047.047,0,0,1-.035-.022A.047.047,0,0,0-12908.572,10.469Zm2.562-2.18a1.747,1.747,0,0,0-1.433-.665c-.33.039-.5.311-.645.6-.166-.246-.289-.561-.643-.6a1.861,1.861,0,0,0-1.455.665,4.3,4.3,0,0,0-.811,1.287,2.574,2.574,0,0,1,.5-2.7.484.484,0,0,0-.477-.042,9.353,9.353,0,0,1,3.488-3.883,2.709,2.709,0,0,1,.664-.373c.169,0,.354.165.5.207a3.868,3.868,0,0,1,3.387.019,4.431,4.431,0,0,0-2.243.934,3.518,3.518,0,0,1,2.555,2.308,3.5,3.5,0,0,0-2.308-.729,3.859,3.859,0,0,1,1.475,3.034c-.062.019-.146-.1-.185-.188-.208-.25-.4-.476-.646-.726-.312-.311-.83-.788-1.391-.58a3,3,0,0,1,.684,1.763,2.879,2.879,0,0,1-.185.956A4.313,4.313,0,0,0-12906.011,8.288Zm-5.192-2.95a3.7,3.7,0,0,0-2.3.707,3.446,3.446,0,0,1,2.554-2.285,4.284,4.284,0,0,0-2.263-.937,3.69,3.69,0,0,1,3.238-.1A3.082,3.082,0,0,0-12911.1.895a5.035,5.035,0,0,1,2.369,1.141,1.1,1.1,0,0,1,.062-.269c.5.207.957.457,1.476.642a8,8,0,0,0-4.633,4.01,9.062,9.062,0,0,0-.457.976,2.838,2.838,0,0,1-.4.976A3.741,3.741,0,0,1-12911.2,5.339Zm7.125-2.1a4.012,4.012,0,0,1,.933-.272c.272,0,.562.188.9.207.457.042,1.079-.062,1.144-.434a.609.609,0,0,0-.272-.5,5.817,5.817,0,0,0-3.138-.292,6.016,6.016,0,0,1-.972.126,9.309,9.309,0,0,1,3.2-.207,1.9,1.9,0,0,1,.9.269.819.819,0,0,1,.353.622c-.042.48-.748.541-1.31.561-.108,0-.219.006-.329.006A12.108,12.108,0,0,1-12904.078,3.241Zm-2.743-.833c-.642-.25-1.267-.519-1.848-.768-.414-.185-.829-.311-1.225-.5a4.178,4.178,0,0,0-1.329-.35c-.084,0-.022.185-.042.185a1.8,1.8,0,0,0-1.5.622,2.7,2.7,0,0,1,2.367-.976c2.243,0,3.7,1.079,5.338,1.663a6.164,6.164,0,0,0-.622.146c-.165.062-.354.207-.519.207A3.215,3.215,0,0,1-12906.821,2.408Zm.188-.934a4.187,4.187,0,0,1,1.54-.58c.038.039-.107.143-.146.165a6.05,6.05,0,0,0-.645.788C-12906.153,1.744-12906.364,1.579-12906.633,1.475ZM-12908.4.81c.1-.269.188-.541.292-.81.146.311.249.665.372,1.018C-12907.942.934-12908.169.895-12908.4.81Z" transform="translate(12916.001)" fill="#fff"/>
</svg>
