<svg xmlns="http://www.w3.org/2000/svg" width="14.978" height="16.964" viewBox="0 0 14.978 16.964">
  <path id="Path_1047" data-name="Path 1047" d="M345.074,167.7a2.745,2.745,0,0,0-2.743,2.743,3.538,3.538,0,0,0,.047.5l-4.139,2.554a2.74,2.74,0,1,0-1.656,4.919,2.831,2.831,0,0,0,1.656-.544l4.139,2.554a3.528,3.528,0,0,0-.047.5,2.743,2.743,0,1,0,2.743-2.743,2.888,2.888,0,0,0-1.656.544l-4.139-2.554a2.631,2.631,0,0,0,0-.993l4.139-2.554a2.7,2.7,0,0,0,1.656.568,2.743,2.743,0,1,0,0-5.487Z" transform="translate(-333.34 -167.2)" fill="none" stroke="#fff" stroke-miterlimit="10" stroke-width="1"/>
</svg>
