<svg xmlns="http://www.w3.org/2000/svg" width="33.562" height="21.212" viewBox="0 0 33.562 21.212">
  <g id="Group_1069" data-name="Group 1069" transform="translate(0 0.011)">
    <path id="Path_1165" data-name="Path 1165" d="M21.386,7.127A3.629,3.629,0,1,0,17.3,7.111a4.914,4.914,0,0,0-4.288,4.863V20.7H25.562V11.974A4.894,4.894,0,0,0,21.386,7.127Z" transform="translate(-2.521)" fill="none" stroke="#fff" stroke-miterlimit="10" stroke-width="1"/>
    <path id="Path_1166" data-name="Path 1166" d="M35.417,11.127a2.89,2.89,0,1,0-3.25-.016,3.926,3.926,0,0,0-3.417,3.873v6.787h10V14.984A3.931,3.931,0,0,0,35.417,11.127Z" transform="translate(-5.693 -1.078)" fill="none" stroke="#fff" stroke-miterlimit="10" stroke-width="1"/>
    <path id="Path_1167" data-name="Path 1167" d="M7.167,11.127a2.89,2.89,0,1,0-3.25-.016A3.926,3.926,0,0,0,.5,14.984v6.787h10V14.984A3.924,3.924,0,0,0,7.167,11.127Z" transform="translate(0 -1.078)" fill="none" stroke="#fff" stroke-miterlimit="10" stroke-width="1"/>
  </g>
</svg>
