<svg xmlns="http://www.w3.org/2000/svg" width="23.391" height="30.298" viewBox="0 0 23.391 30.298">
  <path id="Union_12" data-name="Union 12" d="M-12915.336,30.3a.7.7,0,0,1-.474-.191.7.7,0,0,1-.191-.473V26.4a.7.7,0,0,1,.191-.473.651.651,0,0,1,.474-.191h8.275V22.587h-8.275a.678.678,0,0,1-.665-.661.664.664,0,0,1,.665-.665h8.962a.747.747,0,0,1,.474.191.659.659,0,0,1,.188.473v3.806h1.134V21.925a.649.649,0,0,1,.191-.473.656.656,0,0,1,.474-.191h7.659a11.33,11.33,0,0,0-3.568-5.747,13.844,13.844,0,0,0-7.592-3.361V14.5a.67.67,0,0,1-.188.473.67.67,0,0,1-.473.188h-.26v2.6a.689.689,0,0,1-.191.473.694.694,0,0,1-.473.191h-3.712a.738.738,0,0,1-.473-.191.689.689,0,0,1-.191-.473v-2.6h-.26a.67.67,0,0,1-.473-.188.67.67,0,0,1-.188-.473V5.559a.659.659,0,0,1,.188-.473.659.659,0,0,1,.473-.191h1.019V3.381h-.023a.644.644,0,0,1-.477-.211.716.716,0,0,1-.187-.473V.661a.763.763,0,0,1,.188-.473.717.717,0,0,1,.477-.188h3.569a.658.658,0,0,1,.473.188.6.6,0,0,1,.215.473V2.7a.634.634,0,0,1-.215.473.6.6,0,0,1-.473.211h-.022V4.895h1.018a.659.659,0,0,1,.473.191.659.659,0,0,1,.188.473v5.254a15.317,15.317,0,0,1,8.493,3.709,12.406,12.406,0,0,1,4.327,9.293,11.914,11.914,0,0,1-.163,1.916h1.485a.7.7,0,0,1,.474.191.65.65,0,0,1,.188.473v3.238a.7.7,0,0,1-.187.473.7.7,0,0,1-.474.191Zm.661-1.326h20.742V27.057h-20.742Zm18.544-3.241a10.926,10.926,0,0,0,.188-1.916,10.684,10.684,0,0,0-.071-1.229h-7.238v3.144Zm-15.919-8.655h2.39V15.16h-2.39Zm-.924-3.241h4.233V6.22h-4.233Zm2.532-8.94V2.7a.627.627,0,0,1,.214-.473.649.649,0,0,1,.473-.191h.023V1.348h-2.247v.684h.023a.654.654,0,0,1,.473.191.692.692,0,0,1,.188.473v2.2Z" transform="translate(12916.001)" fill="#f3f3ed"/>
</svg>
