<svg xmlns="http://www.w3.org/2000/svg" width="16.658" height="16.451" viewBox="0 0 16.658 16.451">
  <path id="Path_783" data-name="Path 783" d="M198.862,55.985l-3.178-1.828,3.178-1.828Zm3.51-7.394a6.381,6.381,0,0,1-2.783,5.276V51.1l-5.3,3.053,5.3,3.053V54.7a7.059,7.059,0,0,0,3.489-6.107h-.706Zm-14.5-1.516,3.178-1.828V48.9ZM189.6,48.9l2.139,1.246V44.042l-.54.312-4.777,2.763,2.43,1.412v.1a7.1,7.1,0,0,0,3.614,6.19l.353-.623a6.634,6.634,0,0,1-3.22-5.3m11.466-6.9v3.656l-3.178-1.828Zm-2.617.685-1.994,1.142,5.3,3.053V40.76l-.54.312-2.036,1.184a6.948,6.948,0,0,0-3.219-.769,7.236,7.236,0,0,0-2.783.561l.27.665a6.24,6.24,0,0,1,2.513-.5,5.805,5.805,0,0,1,2.492.478" transform="translate(-186.42 -40.76)" fill="#fff"/>
</svg>
