<svg xmlns="http://www.w3.org/2000/svg" width="16.306" height="21.436" viewBox="0 0 16.306 21.436">
  <path id="Union_10" data-name="Union 10" d="M-12908.541,20.917l-1.851-1.475c-.081-.084-.292-.188-.249-.334a3.064,3.064,0,0,1,.956.269,8.53,8.53,0,0,0,.956.334c.292-3.78.519-7.624.788-11.4,0-.019.022-.042.064-.042.185-.062.123.583.123.729,0,4.11.042,8.493-.02,12.441A1.86,1.86,0,0,1-12908.541,20.917Zm1.764.373c-.33-.207-.249-1.164,0-1.329.188-.126.749-.042.665.227-.166-.019-.186-.25-.5-.185-.434.081-.33,1.164-.019,1.245.269.084.376-.123.5-.185.123.039-.042.207-.085.227a.551.551,0,0,1-.283.078A.51.51,0,0,1-12906.777,21.29Zm.522-1.974h-.626c-.1.084-.042.353-.207.376a1.7,1.7,0,0,1,.188-.665c.084-.23.165-.48.25-.687v-.062h.1a11.533,11.533,0,0,1,.519,1.413C-12906.217,19.692-12906.193,19.462-12906.255,19.316Zm-.6-.1h.538a3.472,3.472,0,0,0-.269-.746C-12906.674,18.736-12906.777,18.963-12906.858,19.212Zm-.211-1.391c.127-.146.188.062.334.084.23.039.646-.084.5-.4-.1-.23-.6-.1-.748-.353-.289-.457.5-.791.811-.438-.1.126-.188-.019-.292-.042-.165-.019-.435.023-.457.25-.02.48,1,.126.811.81a.472.472,0,0,1-.491.279A.574.574,0,0,1-12907.069,17.822Zm1.125-2.266c-.084-1.721-.168-3.4-.229-5.128a5.566,5.566,0,0,1-.02-.833.109.109,0,0,1,.062-.039c.791.476,1.62,1.037,2.389,1.556.084.042.27.1.25.269a12.052,12.052,0,0,1-1.767-.415c-.166,1.536-.27,3.138-.415,4.778-.022.1-.022.583-.146.583C-12905.986,16.327-12905.944,15.724-12905.944,15.556Zm4.879-3.261c-1.433-1.329-2.946-2.677-4.4-4.029-.1-.081-.269-.165-.269-.311a2.047,2.047,0,0,1,.726-.185c.5-.107,1.018-.188,1.537-.292a2.313,2.313,0,0,1,.956-.165c0,.185-.23.227-.354.311-.373.207-.788.457-1.206.684,1,1.206,2.036,2.408,3.054,3.634.126.169.354.314.334.561a.182.182,0,0,1-.067.013C-12900.885,12.516-12900.974,12.367-12901.065,12.295Zm-9.99.207a1.828,1.828,0,0,1,.168-.872c.081-.288.166-.6.228-.891-1.537-.165-3.157-.269-4.736-.415a1.173,1.173,0,0,1-.6-.126c-.02-.185.211-.123.292-.123,1.932-.126,4.152-.188,6.087-.272.123,0,.289-.081.393.023a2.133,2.133,0,0,1-.435.707c-.376.561-.749,1.141-1.121,1.7-.059.1-.1.271-.245.271Zm-2.159-3.53c.042-.146.227-.227.354-.292.373-.207.811-.434,1.206-.665-.937-1.141-2.017-2.386-3.015-3.592-.123-.165-.519-.5-.331-.622.188.039.457.373.665.561,1.267,1.16,2.492,2.282,3.76,3.426.188.165.457.311.561.6-.895.227-1.89.415-2.826.6a1.182,1.182,0,0,1-.223.046A.184.184,0,0,1-12913.215,8.972Zm2.97-2.639c-.562-.373-1.142-.746-1.725-1.141-.1-.062-.289-.1-.27-.269a2.067,2.067,0,0,1,.872.165c.292.084.6.146.895.227.185-1.721.289-3.53.477-5.274.022,0,.042-.023.062-.042h.1c.127,1.1.127,2.243.188,3.384s.146,2.308.1,3.387A2.083,2.083,0,0,1-12910.245,6.334Zm3.779.146c.022-.269.249-.457.376-.665.435-.642.872-1.371,1.349-2.013h.1a9.962,9.962,0,0,1-.435,1.763c1.536.146,3.177.292,4.756.438.055,0,.119,0,.181,0a.61.61,0,0,1,.441.1c-.1.207-.5.146-.769.146-.83.042-1.721.081-2.6.123-.945.05-1.9.115-2.8.115C-12906.064,6.491-12906.268,6.488-12906.466,6.48Zm-1.951-2.055a7.178,7.178,0,0,1-.25-1.579c.188,0,.23.227.292.353.207.373.477.788.684,1.2,1.29-1.057,2.765-2.324,4.01-3.365.042-.081.084-.165.188-.062,0,.165-.166.269-.25.376-1.206,1.348-2.493,2.72-3.718,4.091-.188.207-.334.476-.622.58C-12908.229,5.524-12908.313,4.963-12908.417,4.425Z" transform="translate(12916)" fill="#fff"/>
</svg>
