<svg xmlns="http://www.w3.org/2000/svg" width="18.104" height="15.874" viewBox="0 0 18.104 15.874">
  <g id="Group_1084" data-name="Group 1084" transform="translate(-879.502 -1351.951)">
    <path id="Path_1110" data-name="Path 1110" d="M289.554,208.45H272.029a.2.2,0,0,0-.189.189v12.771a.187.187,0,0,0,.189.189h10.927a.189.189,0,1,0,0-.378H272.218V208.828h17.147v12.393h-1.774a.189.189,0,1,0,0,.378h1.963a.2.2,0,0,0,.189-.189V208.639a.186.186,0,0,0-.189-.189" transform="translate(607.762 1143.601)" fill="#fff"/>
    <path id="Path_1111" data-name="Path 1111" d="M289.554,208.45H272.029a.2.2,0,0,0-.189.189v12.771a.187.187,0,0,0,.189.189h10.927a.189.189,0,1,0,0-.378H272.218V208.828h17.147v12.393h-1.774a.189.189,0,1,0,0,.378h1.963a.2.2,0,0,0,.189-.189V208.639A.186.186,0,0,0,289.554,208.45Z" transform="translate(607.762 1143.601)" fill="none" stroke="#fff" stroke-width="0.2"/>
    <path id="Path_1112" data-name="Path 1112" d="M278.2,213.248h-.142v-1.253a.178.178,0,0,0-.118-.166.23.23,0,0,0-.213.024l-.378.331a.185.185,0,1,0,.236.284l.071-.047v.851h-.142a.189.189,0,1,0,0,.378h.638a.2.2,0,0,0,.189-.189c0-.095-.047-.213-.142-.213" transform="translate(615.191 1148.192)" fill="#fff"/>
    <path id="Path_1113" data-name="Path 1113" d="M278.2,213.248h-.142v-1.253a.178.178,0,0,0-.118-.166.23.23,0,0,0-.213.024l-.378.331a.185.185,0,1,0,.236.284l.071-.047v.851h-.142a.189.189,0,1,0,0,.378h.638a.2.2,0,0,0,.189-.189C278.342,213.366,278.294,213.248,278.2,213.248Z" transform="translate(615.191 1148.192)" fill="none" stroke="#fff" stroke-width="0.2"/>
    <path id="Path_1114" data-name="Path 1114" d="M281.216,214.872a.756.756,0,0,1-.047.355.716.716,0,0,1-.331.166,2.641,2.641,0,0,0-.378.166,1.188,1.188,0,0,0-.284.307c-.095.118-.166.236-.26.26a.771.771,0,0,1-.355-.071,1.244,1.244,0,0,0-.426-.095,1.382,1.382,0,0,0-.426.095.723.723,0,0,1-.355.071c-.095-.024-.166-.142-.26-.26a1.014,1.014,0,0,0-.662-.473.865.865,0,0,1-.331-.166.757.757,0,0,1-.047-.355,1.31,1.31,0,0,0-.047-.426,1.091,1.091,0,0,0-.213-.355.621.621,0,0,1-.166-.331.865.865,0,0,1,.166-.331,1.761,1.761,0,0,0,.213-.355,1.309,1.309,0,0,0,.047-.426.757.757,0,0,1,.047-.355.716.716,0,0,1,.331-.166,1.833,1.833,0,0,0,.378-.166,1.753,1.753,0,0,0,.284-.307c.095-.118.166-.237.26-.26a1.119,1.119,0,0,1,.355.047,1.244,1.244,0,0,0,.426.095,1.381,1.381,0,0,0,.426-.095c.142-.047.26-.095.355-.047.095.024.166.142.26.26a.886.886,0,0,0,.284.307,1.317,1.317,0,0,0,.378.166.863.863,0,0,1,.331.166.756.756,0,0,1,.047.355,1.311,1.311,0,0,0,.047.426,1.09,1.09,0,0,0,.213.355.621.621,0,0,1,.166.331.865.865,0,0,1-.166.331,1.766,1.766,0,0,0-.213.355,1.311,1.311,0,0,0-.047.426m.26.568a.952.952,0,0,0,.118-.568,1.154,1.154,0,0,1,.024-.307.72.72,0,0,1,.166-.237.945.945,0,0,0,.237-.544.883.883,0,0,0-.237-.544c-.071-.095-.118-.166-.166-.236a1.155,1.155,0,0,1-.024-.307.952.952,0,0,0-.118-.568,1.058,1.058,0,0,0-.52-.307.789.789,0,0,1-.284-.118,1.031,1.031,0,0,1-.189-.236.932.932,0,0,0-.449-.4.4.4,0,0,0-.166-.024,1.114,1.114,0,0,0-.4.095.7.7,0,0,1-.615,0,1.241,1.241,0,0,0-.4-.095.351.351,0,0,0-.166.024.933.933,0,0,0-.449.4,2.062,2.062,0,0,1-.189.236,1.712,1.712,0,0,1-.284.118.859.859,0,0,0-.52.307.952.952,0,0,0-.118.568.636.636,0,0,1-.166.544.744.744,0,0,0,0,1.088.887.887,0,0,1,.142.237,1.153,1.153,0,0,1,.024.307.952.952,0,0,0,.118.568,1.057,1.057,0,0,0,.52.307.789.789,0,0,1,.284.118,1.03,1.03,0,0,1,.189.237.933.933,0,0,0,.449.4.4.4,0,0,0,.166.024,1.116,1.116,0,0,0,.4-.095.7.7,0,0,1,.615,0,1.243,1.243,0,0,0,.4.095.351.351,0,0,0,.166-.024.932.932,0,0,0,.449-.4,1.033,1.033,0,0,1,.189-.237,1.716,1.716,0,0,1,.284-.118.991.991,0,0,0,.52-.307" transform="translate(613.877 1147.136)" fill="#fff"/>
    <path id="Path_1115" data-name="Path 1115" d="M281.216,214.872a.756.756,0,0,1-.047.355.716.716,0,0,1-.331.166,2.641,2.641,0,0,0-.378.166,1.188,1.188,0,0,0-.284.307c-.095.118-.166.236-.26.26a.771.771,0,0,1-.355-.071,1.244,1.244,0,0,0-.426-.095,1.382,1.382,0,0,0-.426.095.723.723,0,0,1-.355.071c-.095-.024-.166-.142-.26-.26a1.014,1.014,0,0,0-.662-.473.865.865,0,0,1-.331-.166.757.757,0,0,1-.047-.355,1.31,1.31,0,0,0-.047-.426,1.091,1.091,0,0,0-.213-.355.621.621,0,0,1-.166-.331.865.865,0,0,1,.166-.331,1.761,1.761,0,0,0,.213-.355,1.309,1.309,0,0,0,.047-.426.757.757,0,0,1,.047-.355.716.716,0,0,1,.331-.166,1.833,1.833,0,0,0,.378-.166,1.753,1.753,0,0,0,.284-.307c.095-.118.166-.237.26-.26a1.119,1.119,0,0,1,.355.047,1.244,1.244,0,0,0,.426.095,1.381,1.381,0,0,0,.426-.095c.142-.047.26-.095.355-.047.095.024.166.142.26.26a.886.886,0,0,0,.284.307,1.317,1.317,0,0,0,.378.166.863.863,0,0,1,.331.166.756.756,0,0,1,.047.355,1.311,1.311,0,0,0,.047.426,1.09,1.09,0,0,0,.213.355.621.621,0,0,1,.166.331.865.865,0,0,1-.166.331,1.766,1.766,0,0,0-.213.355A1.311,1.311,0,0,0,281.216,214.872Zm.26.568a.952.952,0,0,0,.118-.568,1.154,1.154,0,0,1,.024-.307.72.72,0,0,1,.166-.237.945.945,0,0,0,.237-.544.883.883,0,0,0-.237-.544c-.071-.095-.118-.166-.166-.236a1.155,1.155,0,0,1-.024-.307.952.952,0,0,0-.118-.568,1.058,1.058,0,0,0-.52-.307.789.789,0,0,1-.284-.118,1.031,1.031,0,0,1-.189-.236.932.932,0,0,0-.449-.4.4.4,0,0,0-.166-.024,1.114,1.114,0,0,0-.4.095.7.7,0,0,1-.615,0,1.241,1.241,0,0,0-.4-.095.351.351,0,0,0-.166.024.933.933,0,0,0-.449.4,2.062,2.062,0,0,1-.189.236,1.712,1.712,0,0,1-.284.118.859.859,0,0,0-.52.307.952.952,0,0,0-.118.568.636.636,0,0,1-.166.544.744.744,0,0,0,0,1.088.887.887,0,0,1,.142.237,1.153,1.153,0,0,1,.024.307.952.952,0,0,0,.118.568,1.057,1.057,0,0,0,.52.307.789.789,0,0,1,.284.118,1.03,1.03,0,0,1,.189.237.933.933,0,0,0,.449.4.4.4,0,0,0,.166.024,1.116,1.116,0,0,0,.4-.095.7.7,0,0,1,.615,0,1.243,1.243,0,0,0,.4.095.351.351,0,0,0,.166-.024.932.932,0,0,0,.449-.4,1.033,1.033,0,0,1,.189-.237,1.716,1.716,0,0,1,.284-.118A.991.991,0,0,0,281.476,215.439Z" transform="translate(613.877 1147.136)" fill="none" stroke="#fff" stroke-width="0.2"/>
    <path id="Path_1116" data-name="Path 1116" d="M280.013,213.35a.186.186,0,0,0-.189.189v3.335l-1.206-.851a.176.176,0,0,0-.213,0l-1.206.851v-3.335a.189.189,0,0,0-.378,0v3.713a.2.2,0,0,0,.095.166.178.178,0,0,0,.189-.024l1.4-.993,1.4.993a.249.249,0,0,0,.213,0,.158.158,0,0,0,.095-.166v-3.713a.2.2,0,0,0-.189-.166" transform="translate(614.56 1150.29)" fill="#fff"/>
    <path id="Path_1117" data-name="Path 1117" d="M280.013,213.35a.186.186,0,0,0-.189.189v3.335l-1.206-.851a.176.176,0,0,0-.213,0l-1.206.851v-3.335a.189.189,0,0,0-.378,0v3.713a.2.2,0,0,0,.095.166.178.178,0,0,0,.189-.024l1.4-.993,1.4.993a.249.249,0,0,0,.213,0,.158.158,0,0,0,.095-.166v-3.713A.2.2,0,0,0,280.013,213.35Z" transform="translate(614.56 1150.29)" fill="none" stroke="#fff" stroke-width="0.2"/>
    <path id="Path_1118" data-name="Path 1118" d="M284.447,209.689a.2.2,0,0,0-.189-.189H273.449a.2.2,0,0,0-.189.189.187.187,0,0,0,.189.189h10.808a.187.187,0,0,0,.189-.189" transform="translate(609.7 1145.034)" fill="#fff"/>
    <path id="Path_1119" data-name="Path 1119" d="M284.447,209.689a.2.2,0,0,0-.189-.189H273.449a.2.2,0,0,0-.189.189.187.187,0,0,0,.189.189h10.808A.187.187,0,0,0,284.447,209.689Z" transform="translate(609.7 1145.034)" fill="none" stroke="#fff" stroke-width="0.2"/>
    <path id="Path_1120" data-name="Path 1120" d="M280.05,211.03h-7.261a.189.189,0,0,0,0,.378h7.261a.2.2,0,0,0,.189-.189c.024-.095-.071-.189-.189-.189" transform="translate(608.799 1147.123)" fill="#fff"/>
    <path id="Path_1121" data-name="Path 1121" d="M280.05,211.03h-7.261a.189.189,0,0,0,0,.378h7.261a.2.2,0,0,0,.189-.189C280.263,211.125,280.168,211.03,280.05,211.03Z" transform="translate(608.799 1147.123)" fill="none" stroke="#fff" stroke-width="0.2"/>
    <path id="Path_1122" data-name="Path 1122" d="M280.05,211.91h-7.261a.189.189,0,0,0,0,.378h7.261a.2.2,0,0,0,.189-.189c.024-.095-.071-.189-.189-.189" transform="translate(608.799 1148.324)" fill="#fff"/>
    <path id="Path_1123" data-name="Path 1123" d="M280.05,211.91h-7.261a.189.189,0,0,0,0,.378h7.261a.2.2,0,0,0,.189-.189C280.263,212,280.168,211.91,280.05,211.91Z" transform="translate(608.799 1148.324)" fill="none" stroke="#fff" stroke-width="0.2"/>
    <path id="Path_1124" data-name="Path 1124" d="M280.05,212.79h-7.261a.189.189,0,0,0,0,.378h7.261a.2.2,0,0,0,.189-.189.186.186,0,0,0-.189-.189" transform="translate(608.799 1149.525)" fill="#fff"/>
    <path id="Path_1125" data-name="Path 1125" d="M280.05,212.79h-7.261a.189.189,0,0,0,0,.378h7.261a.2.2,0,0,0,.189-.189A.186.186,0,0,0,280.05,212.79Z" transform="translate(608.799 1149.525)" fill="none" stroke="#fff" stroke-width="0.2"/>
  </g>
</svg>
