<svg xmlns="http://www.w3.org/2000/svg" width="22.336" height="17.46" viewBox="0 0 22.336 17.46">
  <g id="Group_1093" data-name="Group 1093" transform="translate(0 -10.771)">
    <g id="Group_1092" data-name="Group 1092" transform="translate(0 10.771)">
      <path id="Path_1179" data-name="Path 1179" d="M12.353,37.574,9.861,33.258H4.878L2.954,31.335l-.491.491L4.519,33.88,2.567,37.261H0v.7H2.607l1.907,3.3-2.2,2.2.491.491,2.074-2.073,0,.006H9.624l2.253,2.251.491-.491-2.234-2.232ZM5.337,34.051H9.4l2.034,3.523L9.446,41.021l-.076.076H5.336L3.3,37.574Z" transform="translate(0 -26.681)" fill="#fff"/>
      <path id="Path_1180" data-name="Path 1180" d="M57.006,16.792H54.6L52.468,13.1l1.792-1.912-.464-.418L51.91,12.788H47.485l-1.546-1.952-.5.378,1.6,2.025L44.813,17.1l2.493,4.316H52.29l2.311-4h2.405v-.624ZM51.83,20.626H47.763L45.729,17.1l2.035-3.522H51.83L53.864,17.1Z" transform="translate(-34.67 -10.771)" fill="#fff"/>
      <path id="Path_1181" data-name="Path 1181" d="M23.831,46.866v-.624H21.018l-1.471,2.716.551.3,1.292-2.39Z" transform="translate(-15.123 -38.214)" fill="#fff"/>
      <path id="Path_1182" data-name="Path 1182" d="M62.188,40.586v.624h2.824l1.308-2.73-.564-.27-1.137,2.376Z" transform="translate(-48.113 -32)" fill="#fff"/>
    </g>
  </g>
</svg>
