<svg xmlns="http://www.w3.org/2000/svg" width="17.804" height="17.804" viewBox="0 0 17.804 17.804">
  <g id="Group_1083" data-name="Group 1083" transform="translate(0)">
    <path id="Path_1168" data-name="Path 1168" d="M2.113,12.329A7.224,7.224,0,0,1,12.33,2.112a7.084,7.084,0,0,1,1.087,8.719.3.3,0,0,0,.042.362l3.686,3.686a1.683,1.683,0,0,1,.258,2.41l-.112.112a1.683,1.683,0,0,1-2.41-.258L11.2,13.465a.308.308,0,0,0-.37-.05A7.084,7.084,0,0,1,2.113,12.329ZM11,11a5.338,5.338,0,1,0-7.549,0A5.344,5.344,0,0,0,11,11Z" transform="translate(-0.001 0)" fill="#fff"/>
    <g id="Group_1082" data-name="Group 1082" transform="translate(4.613 2.891)">
      <path id="Path_1169" data-name="Path 1169" d="M119.673,54.31a.746.746,0,0,0,.686-1.036,4.7,4.7,0,0,0-6.152-2.494.746.746,0,1,0,.581,1.373,3.206,3.206,0,0,1,4.2,1.7A.746.746,0,0,0,119.673,54.31Z" transform="translate(-113.752 -50.409)" fill="#fff"/>
    </g>
  </g>
</svg>
