<svg xmlns="http://www.w3.org/2000/svg" width="13.096" height="13.113" viewBox="0 0 13.096 13.113">
  <g id="Component_50_1" data-name="Component 50 – 1" transform="translate(0.001)">
    <rect id="Rectangle_359" data-name="Rectangle 359" width="0.685" height="9.669" transform="translate(-0.001 3.698) rotate(-44.611)" fill="#fff"/>
    <rect id="Rectangle_360" data-name="Rectangle 360" width="0.685" height="9.669" transform="translate(1.607 2.101) rotate(-45)" fill="#fff"/>
    <path id="Path_673" data-name="Path 673" d="M18.95,10.341l.471-.471,6.845,6.824-.492.471Z" transform="translate(-15.712 -9.87)" fill="#fff"/>
    <path id="Path_674" data-name="Path 674" d="M22.128,17.032l3.38.9-.9-3.38Zm3.765,1.711-4.514-1.2a.368.368,0,0,1-.235-.235.358.358,0,0,1,.086-.321l3.316-3.294a.308.308,0,0,1,.321-.086.368.368,0,0,1,.235.235l1.2,4.514a.308.308,0,0,1-.086.321.344.344,0,0,1-.235.064h-.086" transform="translate(-13.221 -5.63)" fill="#fff"/>
  </g>
</svg>
