<svg xmlns="http://www.w3.org/2000/svg" width="20.166" height="15.685" viewBox="0 0 20.166 15.685">
  <path id="Path_857" data-name="Path 857" d="M19.45,5.588l-.919.919a.339.339,0,0,1-.23.1h-.043a.339.339,0,0,1-.23-.1L13.417,1.9,13.4,1.882a.347.347,0,0,1,0-.5L14.322.46a.339.339,0,0,1,.23-.1h.043a.37.37,0,0,1,.23.1l1.982,1.982h0c.014.014.014.029.029.029L19.45,5.085a.336.336,0,0,1,.1.244.346.346,0,0,1-.1.259m-6.163.977-.69-.69-.043-.043L11.334,4.611,9.826,6.119,9.8,6.148v.014l-.014.057-.23.819a1.752,1.752,0,0,1-.1.244,1.427,1.427,0,0,1-1.063.833A.755.755,0,0,1,7.8,7.958a.315.315,0,0,1-.043-.244,1.77,1.77,0,0,1,.086-.431l.014-.043c0-.014.014-.029.014-.043l.5-1.853V5.329l1.681-1.7h0l.144-.158.4-.4a.525.525,0,0,1,.359-.129l1.465.129h0A.177.177,0,0,0,12.569,3l.718-.718,4.324,4.324-2.14,2.155ZM16.06,9.826a.685.685,0,0,1,0,.977l-.158.158a.694.694,0,0,1-.977,0l-.115-.115-.029-.029h0a.014.014,0,0,0-.014-.014l-.919-.934c-.014-.014-.043-.029-.057-.043L11.837,7.872V7.858l-.029-.014-.287-.287s-.115-.115-.2-.115a.166.166,0,0,0-.172.172c0,.086.129.2.129.2l.014.014h0l2.686,2.7.129.1.445.445v.014a.685.685,0,0,1,0,.977l-.158.158a.685.685,0,0,1-.977,0l-.129-.129-.014-.029h0l-.9-.9-.043-.043L10.17,8.964h-.014a.148.148,0,0,0-.115-.057.178.178,0,0,0-.172.187.163.163,0,0,0,.043.115h0l.6.6,1.58,1.58h0l.948.948a.694.694,0,0,1,0,.977l-.158.158a.694.694,0,0,1-.977,0L10.831,12.4l-.043-.043L8.777,10.328l-.014-.014h0a.457.457,0,0,0-.129-.043.178.178,0,0,0-.187.172.158.158,0,0,0,.086.144l.8.8,1.221,1.221h0l.934.948a.694.694,0,0,1,0,.977l-.158.158a.651.651,0,0,1-.474.2h-.014a.651.651,0,0,1-.474-.2l-.187-.187v-.014h0c.014-.014.014-.029.029-.057s.014-.014.014-.029a.086.086,0,0,0,.014-.057c0-.014,0-.014.014-.029s.014-.043.014-.057v-.029l.014-.057v-.33a2280.728,2280.728,0,0,1-.029-.086l.014-.029a.053.053,0,0,0-.014-.043c0-.014-.014-.029-.014-.043s-.014-.029-.014-.043-.014-.029-.014-.043-.014-.029-.029-.043l-.014-.029c0-.014-.014-.029-.029-.043a.053.053,0,0,0-.014-.043c-.014-.014-.029-.029-.029-.043s-.014-.014-.029-.014a.313.313,0,0,0-.057-.072l-.158-.158-.043-.043a.014.014,0,0,1-.014-.014c-.014,0-.014-.014-.029-.029l-.014-.014a1.02,1.02,0,0,0-.632-.215H9.035a.156.156,0,0,0-.072.014H8.935a.622.622,0,0,1,.014-.072v-.316c0-.029-.014-.057-.014-.086v-.014c0-.029-.014-.043-.014-.072v-.014c-.029,0-.043-.029-.057-.043v-.014c-.014-.029-.029-.043-.043-.072a.014.014,0,0,0-.014-.014.11.11,0,0,0-.029-.072l-.014-.014c-.014-.014-.029-.043-.043-.057l-.014-.014c-.029-.029-.043-.057-.057-.072l-.158-.158-.043-.043-.014-.014a.05.05,0,0,1-.029-.014l-.014-.014c-.014-.014-.029-.014-.043-.029a.36.36,0,0,0-.1-.057h0a1.015,1.015,0,0,0-.7-.115v-.014c0-.029.014-.043.014-.072h0v-.172a.182.182,0,0,0-.014-.086h0v-.014a.622.622,0,0,0-.014-.072,1.011,1.011,0,0,0-.273-.5L7.1,10.328l-.043-.043-.014-.014c-.014,0-.014-.014-.029-.014L7,10.242c-.014-.014-.029-.014-.043-.029L6.938,10.2c-.014,0-.029-.014-.043-.029s-.014-.014-.029-.014a.05.05,0,0,0-.029-.014c-.014,0-.014-.014-.029-.014l-.014-.014c-.014,0-.029-.014-.043-.014a1.209,1.209,0,0,0-.6-.057c0-.029.014-.043.014-.072V9.682c0-.029-.014-.057-.014-.086V9.581c0-.029-.014-.043-.014-.072V9.5a.079.079,0,0,1-.043-.072h0a.191.191,0,0,1-.043-.072c0-.014,0-.014-.014-.014a.314.314,0,0,0-.043-.072h0c-.014-.029-.029-.043-.043-.072l-.014-.014-.072-.072-.144-.144L5.66,8.906l-.014-.014c-.014-.014-.043-.029-.057-.043a.014.014,0,0,1-.014-.014.449.449,0,0,0-.144-.072h0c-.029-.014-.043-.029-.072-.043H5.344c-.014-.014-.043-.014-.072-.029H5.258c-.014,0-.043-.014-.057-.014H5.171c-.014,0-.043-.014-.057-.014H4.97a1.048,1.048,0,0,0-.5.129H4.453L3.031,7.355,3.017,7.34l-.733-.733L6.608,2.284l.79.79.962-.086h0l.575-.057a.618.618,0,0,1,.359.144l.316.316.086.086h0L8.044,5.143v.014L7.527,7.111c0,.014,0,.014-.014.029L7.5,7.182a2.52,2.52,0,0,0-.1.5.689.689,0,0,0,.115.474,1.088,1.088,0,0,0,.934.316A1.791,1.791,0,0,0,9.768,7.441a2.21,2.21,0,0,0,.115-.273l.215-.8V6.349l1.235-1.235.991.991h0l.56.56,2.586,2.586ZM9.409,14.839a.694.694,0,0,1-.977,0l-.072-.072-.014-.014-.072-.072a.694.694,0,0,1,0-.977l.345-.345a.313.313,0,0,1,.072-.057l.043-.029c.014,0,.014-.014.029-.014s.014-.014.029-.014a.053.053,0,0,1,.043-.014.014.014,0,0,0,.014-.014c.014,0,.029-.014.043-.014h.014c.014,0,.029-.014.043-.014h.014c.014,0,.029-.014.043-.014h.014a.053.053,0,0,0,.043-.014h.2c.014,0,.014,0,.029.014s.014,0,.029.014.014,0,.029.014.014,0,.029.014a.05.05,0,0,1,.029.014.044.044,0,0,1,.029.014c.014,0,.014.014.029.014a.05.05,0,0,0,.029.014c.014,0,.014.014.029.014s.014.014.029.014a.05.05,0,0,0,.029.014c-.014.014.014.043.029.057l.158.158a.178.178,0,0,1,.029.043l.014.014c.014.014.014.029.029.029s.014.014.014.029l.014.029c0,.014.014.014.014.029s.014.014.014.029,0,.014.014.029.014.014.014.029,0,.014.014.029,0,.014.014.029v.029c0,.014,0,.014.014.029v.23a.053.053,0,0,1-.014.043v.029c0,.014,0,.014-.014.029v.029a.05.05,0,0,1-.014.029c0,.014,0,.014-.014.029H9.883c0,.014-.014.014-.014.029s-.014.014-.014.029-.014.014-.014.029-.014.014-.014.029a.313.313,0,0,1-.057.072ZM7.067,13.431,7.039,13.4c-.014,0-.014-.014-.029-.029l-.1-.086a.694.694,0,0,1,0-.977l.187-.187.158-.158c.029-.014.043-.043.057-.057s.029-.014.057-.029l.014-.014c.014,0,.029-.014.043-.014a.014.014,0,0,0,.014-.014.05.05,0,0,1,.029-.014.014.014,0,0,0,.014-.014c.014,0,.029-.014.043-.014h0a.69.69,0,0,1,.661.129l.043.043.158.158a.562.562,0,0,1,.115.144.7.7,0,0,1-.072.776l-.043.043-.345.345a.694.694,0,0,1-.977,0M5.688,12.066c0-.014-.014-.014-.029-.029l-.129-.129a.694.694,0,0,1,0-.977l.345-.345.057-.057.043-.043a.053.053,0,0,0,.043-.014.014.014,0,0,0,.014-.014.667.667,0,0,1,.33-.086.526.526,0,0,1,.259.057h0c.014.014.029.014.057.029h.014c.014.014.029.029.043.029a.014.014,0,0,1,.014.014c.014.014.029.014.043.029l.014.014.043.043.014.014.158.158.014.014a.881.881,0,0,1,.158.33v.014a.482.482,0,0,1,0,.144.752.752,0,0,1-.144.388c-.014.029-.029.043-.043.072l-.129.115c-.014.014-.043.029-.057.057l-.158.172a.744.744,0,0,1-.5.2.676.676,0,0,1-.474-.2M4.3,10.687,4.209,10.6a.014.014,0,0,0-.014-.014l-.057-.057a.685.685,0,0,1,0-.977l.345-.345.043-.043a.031.031,0,0,0,.029-.029c.014,0,.029-.014.043-.014s.014-.014.029-.014a.014.014,0,0,0,.014-.014c.014-.014.029-.014.043-.029h0a.622.622,0,0,1,.273-.057.4.4,0,0,1,.129.014H5.1c.014,0,.029.014.057.014h.014c.014,0,.029.014.043.014a.014.014,0,0,1,.014.014c.014,0,.029.014.043.014a.014.014,0,0,1,.014.014.031.031,0,0,1,.029.029c.014,0,.014,0,.029.014a.031.031,0,0,1,.029.029l.014.014a.084.084,0,0,1,.072.029l.158.158c.029.029.057.072.086.1a.691.691,0,0,1-.029.819.112.112,0,0,0-.057.057l-.345.345a.694.694,0,0,1-.977,0M.46,5.588a.3.3,0,0,1-.1-.244V5.3a.306.306,0,0,1,.1-.215L3.074,2.471,3.1,2.442h0L5.085.46a.336.336,0,0,1,.244-.1.346.346,0,0,1,.259.1l.919.919a.347.347,0,0,1,0,.5L6.493,1.9,1.882,6.507a.336.336,0,0,1-.244.1H1.594a.306.306,0,0,1-.215-.1Zm19.249-.761-2.614-2.6a.014.014,0,0,0-.014-.014l-.029-.029L15.083.215A.7.7,0,0,0,14.58,0h0a.652.652,0,0,0-.5.215l-.919.9a.72.72,0,0,0-.1.891l-.675.69-1.393-.115a.954.954,0,0,0-.632.23l-.4.417L9.739,3h0l-.2-.187a.9.9,0,0,0-.632-.23l-1.365.129-.69-.69a.716.716,0,0,0-.1-.891l-.9-.919A.705.705,0,0,0,5.329,0a.643.643,0,0,0-.488.215L2.873,2.169,2.844,2.2l-.014.014L.2,4.841A.788.788,0,0,0,0,5.3v.043a.718.718,0,0,0,.2.5l.919.919a.651.651,0,0,0,.474.2h.029a.722.722,0,0,0,.388-.115l.733.747c.014,0,.014.014.029.029L4.166,9.021l-.3.287a1.058,1.058,0,0,0,0,1.48l.043.043.043.043.072.072a1.021,1.021,0,0,0,.733.3.848.848,0,0,0,.2-.029.948.948,0,0,1,.014.2,1.119,1.119,0,0,0,.3.747l.144.144.014.014a1.069,1.069,0,0,0,.733.287,1.087,1.087,0,0,0,.215-.014.883.883,0,0,0-.014.2,1,1,0,0,0,.3.733l.1.1.014.014.043.043a1.021,1.021,0,0,0,.733.3c.057,0,.129-.014.187-.014a1.116,1.116,0,0,0-.029.23,1.057,1.057,0,0,0,.3.733L8.073,15c.014.014.014.029.029.029l.057.057a1.021,1.021,0,0,0,.733.3,1.057,1.057,0,0,0,.733-.3l.3-.3.144.144a1.023,1.023,0,0,0,.718.3h.043a1.052,1.052,0,0,0,.7-.3l.158-.158a1.03,1.03,0,0,0,.3-.747v-.072a.966.966,0,0,0,.345.057,1.057,1.057,0,0,0,.733-.3l.158-.158a1.03,1.03,0,0,0,.3-.747v-.1a1.2,1.2,0,0,0,.316.043,1.021,1.021,0,0,0,.733-.3l.158-.158a1.058,1.058,0,0,0,.3-.848,1.12,1.12,0,0,0,.316.043,1.057,1.057,0,0,0,.733-.3l.158-.158a1.058,1.058,0,0,0,0-1.48l-.575-.575,2.155-2.155a.722.722,0,0,0,.388.115h0a.643.643,0,0,0,.488-.215l.919-.919a.718.718,0,0,0,.2-.5.4.4,0,0,0-.115-.46" transform="translate(0.15 0.15)" fill="#fff" stroke="#fff" stroke-width="0.3"/>
</svg>
