<svg xmlns="http://www.w3.org/2000/svg" width="23.513" height="23.134" viewBox="0 0 23.513 23.134">
  <path id="Path_1164" data-name="Path 1164" d="M22.783,21.7H1.458V17.376H5.336l3.01-3.48,2.783,4.181,3.545-2.908,2.843,2.105-1.006,1.1,4.52.931-1.41-4.333-1.113,1.217-.021.023-3.858-2.858-3.185,2.612L9.318,12.772l5.013-5.794L16.55,8.439l2.466-1.562.069.075L20.2,8.168l1.41-4.333-4.52.931L18.036,5.8l-1.47.931L14.071,5.092,8.5,11.534,5.391,6.877H1.458V.718A.724.724,0,0,0,.729,0,.724.724,0,0,0,0,.718v21.7a.724.724,0,0,0,.729.718H22.784a.718.718,0,1,0,0-1.435ZM4.625,8.307l2.9,4.353L4.681,15.945H1.458V8.307Z" fill="#fff"/>
</svg>
