<svg id="Component_52_1" data-name="Component 52 – 1" xmlns="http://www.w3.org/2000/svg" width="18.235" height="21.451" viewBox="0 0 18.235 21.451">
  <path id="Path_1037" data-name="Path 1037" d="M340.313,73.78h-3.855a.862.862,0,0,0-.828.922v.237a.893.893,0,0,0,.828.922h3.855a.893.893,0,0,0,.828-.922V74.7a.893.893,0,0,0-.828-.922m-.118,1.135h-3.666v-.189h3.666Z" transform="translate(-329.268 -57.177)" fill="#fff"/>
  <path id="Path_1038" data-name="Path 1038" d="M338.9,74.79l-2.341.024a.474.474,0,0,0-.473.473V76.3a.905.905,0,0,0,.875.946h1.561a.9.9,0,0,0,.851-.946V75.263a.429.429,0,0,0-.142-.331.4.4,0,0,0-.331-.142m-.449,1.514h-1.419v-.568h1.419Z" transform="translate(-328.64 -55.799)" fill="#fff"/>
  <path id="Path_1039" data-name="Path 1039" d="M345.55,70.807a6.365,6.365,0,0,0-10.5,0,4.949,4.949,0,0,0-.4,4.754,11.1,11.1,0,0,0,1.987,2.885,3.5,3.5,0,0,1,1.206,2.223.849.849,0,0,0,.875.828h3.193a.864.864,0,0,0,.875-.828,3.5,3.5,0,0,1,1.206-2.223,11.1,11.1,0,0,0,1.987-2.885,4.948,4.948,0,0,0-.426-4.754m-.449,4.352a9.782,9.782,0,0,1-1.821,2.625,4.507,4.507,0,0,0-1.466,2.743h-3.051a4.392,4.392,0,0,0-1.466-2.743,10.784,10.784,0,0,1-1.821-2.625,3.951,3.951,0,0,1,.331-3.855,5.438,5.438,0,0,1,8.94,0,3.9,3.9,0,0,1,.355,3.855" transform="translate(-331.194 -65.013)" fill="#fff"/>
  <path id="Path_1040" data-name="Path 1040" d="M337.073,69.48a.474.474,0,0,0,.473-.473V67.233a.473.473,0,0,0-.946,0v1.774a.474.474,0,0,0,.473.473" transform="translate(-327.944 -66.76)" fill="#fff"/>
  <path id="Path_1041" data-name="Path 1041" d="M341.747,70.42h-1.774a.473.473,0,1,0,0,.946h1.774a.473.473,0,1,0,0-.946" transform="translate(-323.985 -61.764)" fill="#fff"/>
  <path id="Path_1042" data-name="Path 1042" d="M335.66,70.893a.474.474,0,0,0-.473-.473h-1.774a.473.473,0,1,0,0,.946h1.774a.474.474,0,0,0,.473-.473" transform="translate(-332.94 -61.764)" fill="#fff"/>
  <path id="Path_1043" data-name="Path 1043" d="M339.454,72.612a.468.468,0,0,0-.662.662l1.253,1.253a.457.457,0,0,0,.662,0,.457.457,0,0,0,0-.662Z" transform="translate(-325.145 -58.965)" fill="#fff"/>
  <path id="Path_1044" data-name="Path 1044" d="M335.405,69.9a.457.457,0,0,0,.662,0,.457.457,0,0,0,0-.662l-1.254-1.253a.468.468,0,0,0-.662.662Z" transform="translate(-331.479 -65.286)" fill="#fff"/>
  <path id="Path_1045" data-name="Path 1045" d="M339.123,70.04a.467.467,0,0,0,.331-.142l1.254-1.253a.468.468,0,0,0-.662-.662l-1.254,1.253a.457.457,0,0,0,0,.662.467.467,0,0,0,.331.142" transform="translate(-325.145 -65.286)" fill="#fff"/>
  <path id="Path_1046" data-name="Path 1046" d="M335.405,72.6l-1.253,1.253a.457.457,0,0,0,0,.662.457.457,0,0,0,.662,0l1.254-1.253a.457.457,0,0,0,0-.662.5.5,0,0,0-.662,0" transform="translate(-331.479 -58.955)" fill="#fff"/>
</svg>
