<svg id="Group_1056" data-name="Group 1056" xmlns="http://www.w3.org/2000/svg" width="18.649" height="18.149" viewBox="0 0 18.649 18.149">
  <path id="Path_855" data-name="Path 855" d="M37.081,2.376A8.108,8.108,0,0,0,23.24,8.108a8.194,8.194,0,0,0,.129,1.438c.25.022.5.041.755.059a7.335,7.335,0,0,1-.146-1.133h3.144q.016.646.083,1.267c.243.005.485.009.728.013-.047-.417-.075-.845-.086-1.28h3.141V9.746l.725-.01V8.473h3.141c-.009.408-.037.811-.079,1.2l.734-.014c.04-.391.066-.787.075-1.19h3.144a7.412,7.412,0,0,1-.151,1.149l.738-.01a8.126,8.126,0,0,0,.14-1.5A8.039,8.039,0,0,0,37.081,2.376ZM29.356,1A5.915,5.915,0,0,0,28.29,2.526a9.792,9.792,0,0,0-.427.993,7.5,7.5,0,0,1-1.377-.956A7.342,7.342,0,0,1,29.356,1ZM27.122,7.745H23.977a7.365,7.365,0,0,1,1.985-4.677A8.178,8.178,0,0,0,27.634,4.22,13.981,13.981,0,0,0,27.122,7.745Zm3.859,0H27.844a13.3,13.3,0,0,1,.453-3.22,8.032,8.032,0,0,0,2.684.582Zm.006-3.363a7.4,7.4,0,0,1-2.466-.553,8.378,8.378,0,0,1,.417-.983A3.433,3.433,0,0,1,30.986.841V4.383ZM31.712.841A3.43,3.43,0,0,1,33.76,2.846a8.2,8.2,0,0,1,.417.983,7.416,7.416,0,0,1-2.466.553V.841Zm0,6.907V5.113A8.2,8.2,0,0,0,34.4,4.528a13.311,13.311,0,0,1,.453,3.22H31.712Zm3.125-4.23a8.378,8.378,0,0,0-.427-.993A5.836,5.836,0,0,0,33.343,1a7.351,7.351,0,0,1,2.869,1.559A7.4,7.4,0,0,1,34.837,3.519Zm.741,4.227a14.054,14.054,0,0,0-.513-3.525,8.056,8.056,0,0,0,1.671-1.152,7.362,7.362,0,0,1,1.985,4.677Z" transform="translate(-20.806 0)" fill="#fff"/>
  <path id="Path_856" data-name="Path 856" d="M15.35,99.264,12.2,100.347a1.363,1.363,0,0,0,.022-.237,1.338,1.338,0,0,0-1.336-1.336H8.724a.335.335,0,0,1-.164-.043L6.8,97.739a2.337,2.337,0,0,0-1.147-.3H3.282a1,1,0,0,0-.945-.668h-2A.334.334,0,0,0,0,97.1v6.011a.334.334,0,0,0,.334.334h2a1,1,0,0,0,.935-.643,3.058,3.058,0,0,1,1.09.324l1.747,1.048a4.257,4.257,0,0,0,3.952.226l6.233-2.745a1.287,1.287,0,0,0-.945-2.395ZM2.671,102.449a.335.335,0,0,1-.334.332H.668V97.437h1.67a.334.334,0,0,1,.334.334v4.678Zm13.371-1.407-.01,0-6.243,2.749a3.588,3.588,0,0,1-3.334-.19l-1.747-1.048a3.677,3.677,0,0,0-1.367-.416V98.105h2.31a1.671,1.671,0,0,1,.819.215l1.765.993a1.008,1.008,0,0,0,.491.129h2.162a.668.668,0,1,1,0,1.336h-3.4a.334.334,0,1,0,0,.668h3.4a1.34,1.34,0,0,0,.626-.156l4.061-1.4a.635.635,0,0,1,.771.245A.629.629,0,0,1,16.042,101.042Z" transform="translate(0 -86.636)" fill="#fff"/>
</svg>
