<svg xmlns="http://www.w3.org/2000/svg" width="15.167" height="21.626" viewBox="0 0 15.167 21.626">
  <path id="Union_14" data-name="Union 14" d="M-12905.506,21.426a.25.25,0,0,1-.191-.139l-2.813-6.149-2.791,6.149a.177.177,0,0,1-.188.139h-.022a.219.219,0,0,1-.191-.094l-1.442-2.2-2.6.331a.226.226,0,0,1-.211-.094.276.276,0,0,1-.025-.237l2.959-6.483a.963.963,0,0,0-.24-.4,2.55,2.55,0,0,0-.684-.353,1.812,1.812,0,0,1-1.018-.661,1.9,1.9,0,0,1-.071-1.206,1.849,1.849,0,0,0,.025-.8,1.974,1.974,0,0,0-.4-.639,1.9,1.9,0,0,1-.545-1.112,1.885,1.885,0,0,1,.545-1.112,1.64,1.64,0,0,0,.4-.639,1.843,1.843,0,0,0-.025-.8,1.7,1.7,0,0,1,.071-1.183,1.917,1.917,0,0,1,1.018-.661,2.045,2.045,0,0,0,.684-.379,2.232,2.232,0,0,0,.357-.687,1.809,1.809,0,0,1,.661-1.018,1.163,1.163,0,0,1,.593-.139,5.079,5.079,0,0,1,.59.071,4.821,4.821,0,0,0,.545.045.917.917,0,0,0,.259-.023,2.011,2.011,0,0,0,.639-.4,1.846,1.846,0,0,1,1.09-.545,1.913,1.913,0,0,1,1.111.545,2.152,2.152,0,0,0,.639.4.921.921,0,0,0,.26.023,4.86,4.86,0,0,0,.544-.045,2.452,2.452,0,0,1,.59-.071,1.142,1.142,0,0,1,.59.139,1.915,1.915,0,0,1,.665,1.018,1.872,1.872,0,0,0,.354.687,2.144,2.144,0,0,0,.687.379,1.778,1.778,0,0,1,.992.661,1.805,1.805,0,0,1,.071,1.183,2.364,2.364,0,0,0-.022.8,1.991,1.991,0,0,0,.4.639,1.9,1.9,0,0,1,.545,1.112,1.921,1.921,0,0,1-.545,1.112,1.846,1.846,0,0,0-.4.639,1.9,1.9,0,0,0,.022.8,1.737,1.737,0,0,1-.071,1.206,1.768,1.768,0,0,1-.992.661,1.885,1.885,0,0,0-.687.353,1.524,1.524,0,0,0-.237.379l2.957,6.506a.753.753,0,0,1,.025.237.259.259,0,0,1-.214.094l-2.6-.331-1.442,2.2a.28.28,0,0,1-.188.094Zm-1.326-7.426a1.83,1.83,0,0,0-.639.4,2.223,2.223,0,0,1-.71.473l2.675,5.844,1.3-1.987a.191.191,0,0,1,.214-.1l2.317.308-2.6-5.747a1.535,1.535,0,0,1-.567.759,1.156,1.156,0,0,1-.593.143,5.327,5.327,0,0,1-.591-.071,4.172,4.172,0,0,0-.544-.049A.924.924,0,0,0-12906.832,14Zm-6.055,4.733,1.3,1.987,2.648-5.844a2.6,2.6,0,0,1-.71-.473,1.933,1.933,0,0,0-.639-.4.932.932,0,0,0-.263-.023,4.189,4.189,0,0,0-.541.049,2.625,2.625,0,0,1-.593.071,1.166,1.166,0,0,1-.591-.143,1.347,1.347,0,0,1-.566-.733l-2.6,5.721,2.344-.308a.116.116,0,0,1,.037-.006A.226.226,0,0,1-12912.887,18.733Zm2.72-5.18a2.6,2.6,0,0,1,.8.5,1.529,1.529,0,0,0,.83.451,1.612,1.612,0,0,0,.826-.451,1.9,1.9,0,0,1,.8-.5,1.33,1.33,0,0,1,.356-.049,4.569,4.569,0,0,1,.613.049,5.331,5.331,0,0,0,.544.045.817.817,0,0,0,.38-.071c.214-.117.33-.447.473-.778a2.953,2.953,0,0,1,.474-.853,2.357,2.357,0,0,1,.85-.473c.333-.117.664-.237.781-.473a1.582,1.582,0,0,0,.022-.9,2.685,2.685,0,0,1-.022-.969,3.2,3.2,0,0,1,.5-.8,1.526,1.526,0,0,0,.451-.83,1.529,1.529,0,0,0-.451-.827,2.1,2.1,0,0,1-.5-.8,2.685,2.685,0,0,1,.022-.969,1.592,1.592,0,0,0-.022-.9c-.117-.211-.448-.331-.781-.47a2.545,2.545,0,0,1-.85-.473,2.144,2.144,0,0,1-.474-.853c-.143-.331-.263-.661-.473-.781a.861.861,0,0,0-.38-.071,4.905,4.905,0,0,0-.544.049,3,3,0,0,1-.613.071,1.934,1.934,0,0,1-.356-.049,2.629,2.629,0,0,1-.8-.5,1.523,1.523,0,0,0-.826-.451,1.458,1.458,0,0,0-.83.451,2.055,2.055,0,0,1-.8.5,1.457,1.457,0,0,1-.354.049,5.7,5.7,0,0,1-.616-.071,4.007,4.007,0,0,0-.519-.049.847.847,0,0,0-.379.071c-.214.12-.331.451-.474.781a2.951,2.951,0,0,1-.473.853,2.353,2.353,0,0,1-.853.473,1.458,1.458,0,0,0-.778.47,1.613,1.613,0,0,0-.026.9,2.234,2.234,0,0,1,.026.969,2.6,2.6,0,0,1-.474.8,1.533,1.533,0,0,0-.45.827,1.53,1.53,0,0,0,.45.83,2.333,2.333,0,0,1,.474.8,2.71,2.71,0,0,1-.026.969,1.6,1.6,0,0,0,.026.9,1.737,1.737,0,0,0,.778.473,2.513,2.513,0,0,1,.853.473,2.351,2.351,0,0,1,.473.853c.117.331.236.661.474.778a.805.805,0,0,0,.379.071,4.879,4.879,0,0,0,.519-.045,5.338,5.338,0,0,1,.616-.049A1.665,1.665,0,0,1-12910.167,13.553Zm-2.908-6.078a4.563,4.563,0,0,1,4.542-4.567A4.548,4.548,0,0,1-12904,7.475a4.547,4.547,0,0,1-4.538,4.564A4.547,4.547,0,0,1-12913.075,7.475Zm.447.023a4.115,4.115,0,0,0,4.095,4.113,4.112,4.112,0,0,0,4.091-4.113,4.1,4.1,0,0,0-4.091-4.117A4.116,4.116,0,0,0-12912.628,7.5Z" transform="translate(12916.104 0.1)" fill="#fff" stroke="#fff" stroke-width="0.2"/>
</svg>
