<svg xmlns="http://www.w3.org/2000/svg" width="18.486" height="15.282" viewBox="0 0 18.486 15.282">
  <g id="Group_1052" data-name="Group 1052" transform="translate(-1046.073 -697.051)">
    <g id="options-gear" transform="translate(1046.073 697.051)">
      <g id="Group_35" data-name="Group 35" transform="translate(0 0)">
        <path id="Path_59" data-name="Path 59" d="M.853,8.25l.558.256a.491.491,0,0,1,.256.613l-.217.574a1.377,1.377,0,0,0,.163,1.3,1.4,1.4,0,0,0,1.163.613,1.415,1.415,0,0,0,.5-.093l.574-.217a.417.417,0,0,1,.171-.031.483.483,0,0,1,.442.287l.256.558a1.414,1.414,0,0,0,2.575,0l.256-.558A.487.487,0,0,1,8,11.26a.442.442,0,0,1,.171.031l.574.225a1.424,1.424,0,0,0,.5.1h0A1.449,1.449,0,0,0,10.408,11a1.417,1.417,0,0,0,.163-1.3l-.217-.574a.491.491,0,0,1,.256-.613l.558-.256a1.414,1.414,0,0,0,0-2.575L10.61,5.42a.491.491,0,0,1-.256-.613l.217-.574a1.377,1.377,0,0,0-.163-1.3,1.4,1.4,0,0,0-1.163-.613,1.415,1.415,0,0,0-.5.093l-.574.217A.417.417,0,0,1,8,2.666a.483.483,0,0,1-.442-.287L7.3,1.821A1.4,1.4,0,0,0,6.011.991,1.443,1.443,0,0,0,4.7,1.829l-.256.558A.487.487,0,0,1,4,2.674a.442.442,0,0,1-.171-.031l-.574-.217a1.415,1.415,0,0,0-.5-.093,1.442,1.442,0,0,0-1.163.613,1.4,1.4,0,0,0-.163,1.3l.217.574a.491.491,0,0,1-.256.613L.83,5.683A1.4,1.4,0,0,0,.853,8.25Zm.38-1.73.558-.256a1.416,1.416,0,0,0,.737-1.784l-.217-.574a.463.463,0,0,1,.054-.442.474.474,0,0,1,.574-.178l.574.217a1.374,1.374,0,0,0,.5.093h0A1.424,1.424,0,0,0,5.3,2.767l.256-.558A.476.476,0,0,1,6,1.922a.482.482,0,0,1,.442.287l.256.558a1.424,1.424,0,0,0,1.287.83,1.374,1.374,0,0,0,.5-.093l.574-.217a.5.5,0,0,1,.574.178.463.463,0,0,1,.054.442l-.217.574A1.424,1.424,0,0,0,10.2,6.265l.558.256a.476.476,0,0,1,.287.442.482.482,0,0,1-.287.442l-.558.256a1.416,1.416,0,0,0-.737,1.784l.217.574a.463.463,0,0,1-.054.442.474.474,0,0,1-.574.178l-.574-.217a1.374,1.374,0,0,0-.5-.093,1.424,1.424,0,0,0-1.287.83l-.256.558A.476.476,0,0,1,6,12a.482.482,0,0,1-.442-.287L5.3,11.159a1.424,1.424,0,0,0-1.287-.83,1.374,1.374,0,0,0-.5.093l-.574.217a.5.5,0,0,1-.574-.178.463.463,0,0,1-.054-.442l.217-.574a1.424,1.424,0,0,0-.737-1.784l-.558-.256a.476.476,0,0,1-.287-.442A.482.482,0,0,1,1.233,6.521Z" transform="translate(0 -0.991)" fill="#fff"/>
        <path id="Path_60" data-name="Path 60" d="M147.083,149.524a2.017,2.017,0,1,0-2.017-2.017A2.022,2.022,0,0,0,147.083,149.524Zm0-3.1A1.086,1.086,0,1,1,146,147.508,1.089,1.089,0,0,1,147.083,146.422Z" transform="translate(-141.095 -141.536)" fill="#fff"/>
      </g>
    </g>
    <g id="options-gear-2" data-name="options-gear" transform="translate(1056.656 704.466)">
      <g id="Group_35-2" data-name="Group 35" transform="translate(0 0)">
        <path id="Path_59-2" data-name="Path 59" d="M.562,5.773l.368.169a.324.324,0,0,1,.169.4l-.143.378a.907.907,0,0,0,.107.853.922.922,0,0,0,.766.4.932.932,0,0,0,.332-.061l.378-.143a.275.275,0,0,1,.112-.02.318.318,0,0,1,.291.189l.169.368a.931.931,0,0,0,1.7,0l.169-.368a.321.321,0,0,1,.291-.189.291.291,0,0,1,.112.02l.378.148a.938.938,0,0,0,.332.066h0a.955.955,0,0,0,.766-.409.934.934,0,0,0,.107-.858L6.82,6.345a.324.324,0,0,1,.169-.4l.368-.169a.931.931,0,0,0,0-1.7l-.368-.169a.324.324,0,0,1-.169-.4l.143-.378a.907.907,0,0,0-.107-.853.922.922,0,0,0-.766-.4.932.932,0,0,0-.332.061l-.378.143a.275.275,0,0,1-.112.02.318.318,0,0,1-.291-.189l-.169-.368A.924.924,0,0,0,3.959.991a.951.951,0,0,0-.863.552l-.169.368a.321.321,0,0,1-.291.189.291.291,0,0,1-.112-.02l-.378-.143a.932.932,0,0,0-.332-.061.95.95,0,0,0-.766.4.925.925,0,0,0-.107.853l.143.378a.324.324,0,0,1-.169.4l-.368.169A.922.922,0,0,0,.562,5.773Zm.25-1.139.368-.169A.933.933,0,0,0,1.665,3.29l-.143-.378a.3.3,0,0,1,.036-.291A.312.312,0,0,1,1.936,2.5l.378.143a.9.9,0,0,0,.327.061h0a.938.938,0,0,0,.848-.547l.169-.368A.313.313,0,0,1,3.949,1.6a.318.318,0,0,1,.291.189l.169.368a.938.938,0,0,0,.848.547.9.9,0,0,0,.327-.061L5.962,2.5a.327.327,0,0,1,.378.118.3.3,0,0,1,.036.291l-.143.378a.938.938,0,0,0,.485,1.175l.368.169a.313.313,0,0,1,.189.291.318.318,0,0,1-.189.291l-.368.169A.933.933,0,0,0,6.233,6.56l.143.378a.3.3,0,0,1-.036.291.312.312,0,0,1-.378.118L5.584,7.2a.9.9,0,0,0-.327-.061.938.938,0,0,0-.848.547l-.169.368a.313.313,0,0,1-.291.189.318.318,0,0,1-.291-.189l-.169-.368a.938.938,0,0,0-.848-.547.9.9,0,0,0-.327.061l-.378.143a.327.327,0,0,1-.378-.118.3.3,0,0,1-.036-.291l.143-.378A.938.938,0,0,0,1.18,5.385L.812,5.216a.313.313,0,0,1-.189-.291A.318.318,0,0,1,.812,4.634Z" transform="translate(0 -0.991)" fill="#fff"/>
      </g>
    </g>
  </g>
</svg>
