<svg xmlns="http://www.w3.org/2000/svg" width="91.996" height="61.323" viewBox="0 0 91.996 61.323">
  <path id="Path_270" data-name="Path 270" d="M79.93,42.9c-7.279,0-12.5-5.395-12.5-12.063v-.068A12.165,12.165,0,0,1,80,18.638c7.278,0,12.5,5.4,12.5,12.063v.067A12.165,12.165,0,0,1,79.93,42.9Zm7.143-12.131A7.145,7.145,0,0,0,79.93,23.4a7.033,7.033,0,0,0-7.076,7.3v.067A7.144,7.144,0,0,0,80,38.141a7.033,7.033,0,0,0,7.076-7.3ZM89.4,12.618a1.514,1.514,0,0,1-.615.521,2.187,2.187,0,0,1-.937.18,3.167,3.167,0,0,1-.841-.116l.272-.99a1.988,1.988,0,0,0,.284.064,1.943,1.943,0,0,0,.246.013,1.215,1.215,0,0,0,.485-.083.653.653,0,0,0,.3-.27,1.394,1.394,0,0,0,.154-.489,4.979,4.979,0,0,0,.046-.739v-7.2h1.034v7.2a5.506,5.506,0,0,1-.1,1.086A2.2,2.2,0,0,1,89.4,12.618Zm-7.055.7a3.925,3.925,0,0,1-.925-.11,9.377,9.377,0,0,1-1.053-.327l.323-.99a4.926,4.926,0,0,0,.873.308,3.751,3.751,0,0,0,.859.09,2.154,2.154,0,0,0,1.307-.347,1.35,1.35,0,0,0,.465-1.157V9.764l-.348.726h-.273a6.572,6.572,0,0,1-1.642-.2,4.08,4.08,0,0,1-1.364-.617,2.985,2.985,0,0,1-.93-1.067,3.3,3.3,0,0,1-.344-1.562,3.235,3.235,0,0,1,.31-1.408,3.322,3.322,0,0,1,.874-1.12,4.238,4.238,0,0,1,1.351-.739,5.359,5.359,0,0,1,1.745-.27h1.656v7.176a2.662,2.662,0,0,1-.686,1.923A2.938,2.938,0,0,1,82.345,13.319Zm.768-8.771v0a3.109,3.109,0,0,0-1.014.179,2.933,2.933,0,0,0-.9.508,2.529,2.529,0,0,0-.633.791,2.173,2.173,0,0,0-.24,1.015,2.306,2.306,0,0,0,.22,1.029,2.2,2.2,0,0,0,.608.759,2.739,2.739,0,0,0,.9.469,3.587,3.587,0,0,0,1.092.161h1.048V4.842l.591-.294Zm-.151-2.91a1.341,1.341,0,0,1,.317-.99,1.255,1.255,0,0,1,.912-.309h.73v.717H84.21a.421.421,0,0,0-.319.089.479.479,0,0,0-.083.3v.238h1.42v.793H82.962ZM76.21,15.271V14.242h1.034v1.029Zm-2.07,0V14.242h1.035v1.029ZM57.807,13.034a1.5,1.5,0,0,1-.614-.521c-.024-.034-.044-.071-.065-.107v.77h-2.15A4.7,4.7,0,0,1,50.2,8.368V8.341a4.748,4.748,0,0,1,4.807-4.834h2.8v7.1a5.166,5.166,0,0,0,.044.74,1.415,1.415,0,0,0,.155.489.65.65,0,0,0,.3.269,1.2,1.2,0,0,0,.485.084H76.571V3.507h1.035v9.707H58.744A2.184,2.184,0,0,1,57.807,13.034ZM54.978,4.482A3.681,3.681,0,0,0,51.3,8.315v.027A3.725,3.725,0,0,0,55.005,12.2h2.018a2.447,2.447,0,0,1-.16-.511,5.513,5.513,0,0,1-.1-1.087V4.8l.634-.314Zm1.787-3.033H57.8V2.478H56.765Zm-2.069,0h1.035V2.478H54.7ZM49.783,23.464V19.041H65.72v3.887L59.756,28.59c3.2.537,6.335,2.212,6.335,6.568v.067c0,4.424-3.235,7.674-8.492,7.674a11.471,11.471,0,0,1-9.2-4.055l3.572-3.385a7.208,7.208,0,0,0,5.694,2.815c1.954,0,3.336-1.106,3.336-2.848V35.36c0-1.911-1.719-2.983-4.616-2.983H54.23l-.809-3.284,7.567-7.57-3.032,1.941ZM46.789,34.38l1.809-.987.992,1.8-1.809.987Zm-.082-8.007.887-1.854,1.862.882-.885,1.853Zm-2.47-1.223.712-1.487,1.494.707-.711,1.487Zm-5.9-20.683.608,1.408v7.281H37.877V3.5H38.9l6.57,8.311-.45-1.186V3.5h1.068v9.66h-.875Zm-.677,16.709-.93-.888.892-.925.93.888ZM35,18.283l1.146-1.188,1.194,1.14L36.2,19.423Zm-3.887-4.961a4.861,4.861,0,0,1-4.94-4.968V8.326A4.954,4.954,0,1,1,36.084,8.3v.028A4.907,4.907,0,0,1,31.116,13.322Zm3.829-5a3.85,3.85,0,0,0-3.829-3.988,3.8,3.8,0,0,0-3.8,3.96v.028a3.85,3.85,0,0,0,3.83,3.988,3.8,3.8,0,0,0,3.8-3.96ZM26.257,20.214,24.206,20l.219-2.04,2.051.218ZM23.189,3.5h1.1v9.66h-1.1Zm.957,22.041-1.438.815-.82-1.43,1.438-.816Zm-5.239.527L20.7,25.047l1.023,1.783-1.793,1.016Zm-.843-12.77A5.7,5.7,0,0,1,14.1,11.748l.679-.8a4.643,4.643,0,0,0,3.331,1.366c1.3,0,2.164-.69,2.164-1.642v-.027c0-.9-.485-1.408-2.525-1.836-2.235-.483-3.261-1.2-3.261-2.788V5.994c0-1.519,1.346-2.636,3.192-2.636a5.082,5.082,0,0,1,3.413,1.187l-.638.841a4.282,4.282,0,0,0-2.8-1.048c-1.263,0-2.068.69-2.068,1.559v.028c0,.911.5,1.421,2.637,1.876,2.164.47,3.163,1.257,3.163,2.733v.027C21.38,12.217,19.993,13.294,18.064,13.294ZM11.316,3.5h1.1v9.66h-1.1ZM4.679,13.225.5,3.5H1.724l.6,1.439,2.857,6.882.274.659-.106-1.061L8.648,3.5H9.827L5.65,13.225ZM1.168,50.089a2.336,2.336,0,0,1,.77-.42,3.179,3.179,0,0,1,1.007-.15h.932v3.407H6.231V49.519h.592v4H2.945a3.6,3.6,0,0,1-.933-.118,2.315,2.315,0,0,1-.777-.36A1.806,1.806,0,0,1,.7,52.418a1.887,1.887,0,0,1-.2-.9,1.833,1.833,0,0,1,.174-.794A1.869,1.869,0,0,1,1.168,50.089Zm.052,2.024a1.3,1.3,0,0,0,.344.441,1.565,1.565,0,0,0,.511.277,2.026,2.026,0,0,0,.626.095h.585V50.107H2.7a1.807,1.807,0,0,0-.592.1,1.642,1.642,0,0,0-.515.287,1.472,1.472,0,0,0-.362.449,1.221,1.221,0,0,0-.138.578A1.348,1.348,0,0,0,1.22,52.113ZM1.825,59.5l2.012-2.115h.912L2.991,59.193l1.837,2.4h-.9L2.484,59.7l-.659.674V61.59H1.082V57.384h.743ZM5.9,54.818H5.293v-.6H5.9Zm.348,6.772H5.506V57.384h.743Zm.69-6.772H6.331v-.6h.608Zm3.408,5.474V57.384h.732V61.59h-.623L8.124,58.6V61.59H7.393V57.384h.689Zm-2.7-6.777v-.589h2.776V51.218a1.77,1.77,0,0,0-.048-.441.9.9,0,0,0-.174-.339.952.952,0,0,0-.318-.239.936.936,0,0,0-.407-.092H8.963v-.588H9.4a1.767,1.767,0,0,1,.714.128,1.586,1.586,0,0,1,.529.387,1.353,1.353,0,0,1,.285.515,2.221,2.221,0,0,1,.092.648h0v2.318ZM3.266,48.837v-.605h.609v.605Zm-1.037,0v-.605h.608v.605Zm15.941-10.8V42.5H.716V38.409l7.851-6.4c2.932-2.413,4.078-3.687,4.078-5.63A2.886,2.886,0,0,0,9.477,23.33c-1.82,0-3.066,1-4.818,3.149L1.02,23.564C3.345,20.414,5.6,18.7,9.814,18.7c4.886,0,8.12,2.849,8.12,7.239v.066c0,3.921-2.022,5.864-6.2,9.081L6.58,39.048l-1,.769,3.6-1.778ZM12.637,50.1a2.44,2.44,0,0,1,.774-.423,3.07,3.07,0,0,1,1-.154h.947v3.407h2.05l-1.043-2.466a5.337,5.337,0,0,1,.492-.39,3.622,3.622,0,0,1,1.121-.526,2.251,2.251,0,0,1,.578-.077,2.226,2.226,0,0,1,.57.077,3.226,3.226,0,0,1,.569.214,4.362,4.362,0,0,1,.548.316,5.249,5.249,0,0,1,.5.387l-1.037,2.465h3.109v-3.04h.592v3.04h1.147a1.25,1.25,0,0,0,.377-.055.869.869,0,0,0,.319-.176.84.84,0,0,0,.222-.309,1.162,1.162,0,0,0,.081-.46V49.886h.593v2.083a.992.992,0,0,0,.095.4,1.037,1.037,0,0,0,.245.328,1.156,1.156,0,0,0,.37.221,1.327,1.327,0,0,0,.473.08,1.055,1.055,0,0,0,.829-.305,1.171,1.171,0,0,0,.274-.813V49.886h.592v1.9a2.568,2.568,0,0,1-.051.552,1.091,1.091,0,0,0,.466.442,1.858,1.858,0,0,0,.815.147h.97V48.231h.592v5.283h-1.71v-.007a2.244,2.244,0,0,1-.425-.052,1.634,1.634,0,0,1-.411-.154A1.064,1.064,0,0,1,29,53.083a1.6,1.6,0,0,1-.181-.246,1.27,1.27,0,0,1-.574.567,2.044,2.044,0,0,1-.906.184,1.831,1.831,0,0,1-.881-.2,1.5,1.5,0,0,1-.585-.552,1.52,1.52,0,0,1-.544.493,1.569,1.569,0,0,1-.766.184h-9.2v.11a1.524,1.524,0,0,1-.392,1.1,1.683,1.683,0,0,1-1.259.408,2.317,2.317,0,0,1-.529-.062,5.525,5.525,0,0,1-.6-.188l.185-.567a2.813,2.813,0,0,0,.5.177,2.175,2.175,0,0,0,.493.052,1.233,1.233,0,0,0,.747-.2.773.773,0,0,0,.267-.663v-.169H14.41a3.771,3.771,0,0,1-.94-.114,2.353,2.353,0,0,1-.781-.353,1.728,1.728,0,0,1-.533-.611,1.9,1.9,0,0,1-.2-.894,1.858,1.858,0,0,1,.178-.807A1.89,1.89,0,0,1,12.637,50.1Zm6.451,2.831.924-2.26a2.353,2.353,0,0,0-.665-.393,2.1,2.1,0,0,0-.792-.159,2.133,2.133,0,0,0-.751.133,2.348,2.348,0,0,0-.7.419l.925,2.26Zm-6.41-.795a1.228,1.228,0,0,0,.348.434,1.565,1.565,0,0,0,.514.269,2.082,2.082,0,0,0,.626.092h.6V50.114h-.6a1.793,1.793,0,0,0-.6.1,1.688,1.688,0,0,0-.514.291,1.431,1.431,0,0,0-.363.453,1.253,1.253,0,0,0-.137.581A1.324,1.324,0,0,0,12.678,52.131Zm1.5,5.181a2.293,2.293,0,0,1,1.625.571l-.471.559a1.662,1.662,0,0,0-1.184-.45,1.424,1.424,0,0,0-1.371,1.483v.012a1.407,1.407,0,0,0,1.437,1.5,1.732,1.732,0,0,0,1.021-.318v-.787H14.155v-.643h1.8v1.766a2.7,2.7,0,0,1-1.764.655A2.093,2.093,0,0,1,12,59.5v-.012A2.149,2.149,0,0,1,14.18,57.312Zm6.627,2.163v.012a2.112,2.112,0,0,1-2.248,2.1H16.983V57.384h1.576A2.1,2.1,0,0,1,20.807,59.475Zm-3.081,1.442h.833A1.374,1.374,0,0,0,20.027,59.5v-.012a1.384,1.384,0,0,0-1.468-1.43h-.833Zm5.994-3.6a2.142,2.142,0,0,1,2.206,2.163v.012A2.212,2.212,0,0,1,21.5,59.5v-.012A2.161,2.161,0,0,1,23.72,57.312Zm-1.438,2.175a1.445,1.445,0,0,0,1.438,1.5A1.424,1.424,0,0,0,25.146,59.5v-.012a1.444,1.444,0,0,0-1.438-1.495,1.424,1.424,0,0,0-1.426,1.483Zm6.645-.114,1.287-1.989H31V61.59h-.743V58.574l-1.335,1.983H28.9L27.58,58.586v3h-.731V57.384h.791ZM32.56,41.61l1.214,1.121-1.126,1.206-1.214-1.12Zm3.48,3.31-1.4,1.5-1.512-1.4,1.4-1.5Zm-1.905,8.6h-.592V48.232h.592Zm1.8,3.8a2.142,2.142,0,0,1,2.206,2.163v.012a2.212,2.212,0,0,1-4.423.012v-.012A2.161,2.161,0,0,1,35.937,57.312ZM34.5,59.487a1.445,1.445,0,0,0,1.438,1.5A1.424,1.424,0,0,0,37.363,59.5v-.012a1.444,1.444,0,0,0-1.438-1.495A1.424,1.424,0,0,0,34.5,59.475Zm2.761-7.069a1.887,1.887,0,0,1-.2-.9,1.833,1.833,0,0,1,.174-.794,1.869,1.869,0,0,1,.492-.637,2.331,2.331,0,0,1,.769-.42,3.183,3.183,0,0,1,1.007-.15h.933v3.407h2.354V49.519h.592v3.407h2.235V49.519h.592v4H39.5a3.6,3.6,0,0,1-.932-.118,2.315,2.315,0,0,1-.777-.36A1.8,1.8,0,0,1,37.26,52.418Zm1.372.413a2,2,0,0,0,.626.095h.585V50.107h-.585a1.813,1.813,0,0,0-.592.1,1.618,1.618,0,0,0-.514.287,1.457,1.457,0,0,0-.363.448,1.235,1.235,0,0,0-.137.578,1.348,1.348,0,0,0,.126.593,1.311,1.311,0,0,0,.344.442A1.568,1.568,0,0,0,38.632,52.831Zm3.582,5.227H39.809v1.147h2.133v.673H39.809V61.59h-.743V57.384h3.148Zm.8-3.24h-.608v-.6h.608Zm1.037,0h-.608v-.6h.608Zm1.557-.612h.608v.6h-.608ZM44.343,35.633l1.452-.791.8,1.443-1.451.792ZM46.3,33.4l-.8-1.443,1.452-.792.8,1.443Zm1.366-5.363-.711,1.487-1.5-.707.711-1.487ZM45.414,31.3l-1.164-.551.554-1.158,1.164.551Zm-.037-4.536-.554,1.157-1.163-.55.553-1.158Zm-3.022-4.132-.3-1.619,1.628-.3.3,1.619Zm1.6-3.074-2.03.371-.371-2.019,2.029-.37ZM41.711,24.44l-1.267.231-.232-1.261,1.268-.231Zm-.4-2.165-1.268.232-.232-1.261,1.268-.231Zm-.477-2.2-1.628.3-.3-1.62,1.628-.3ZM39.41,22.788l-1.268.232-.232-1.261,1.268-.231Zm.079.613.163.887-.892.163-.163-.887Zm-3.775,8.7c.146-.087.293-.169.44-.243a5.538,5.538,0,0,1,.516-.229l.1-.034a5.5,5.5,0,0,1,.974-.25,4.891,4.891,0,0,1,2.251.164,4.259,4.259,0,0,1,.818.352.018.018,0,0,1-.016.033,5.513,5.513,0,0,0-.8-.188,5.164,5.164,0,0,0-2.251.139,6.247,6.247,0,0,0-.974.371q-.315.15-.614.327-.223.135-.44.279c-.344.232-.672.483-.983.741.352.306.682.608.983.88.155.14.3.272.44.393a7.219,7.219,0,0,0,.614.493,1.949,1.949,0,0,0,.21.128.511.511,0,0,1,.764-.07.5.5,0,0,1,.145.249.57.57,0,0,1-.1.438c-.014.014-.03.027-.045.04a.8.8,0,0,1-.974.021,3.857,3.857,0,0,1-.614-.424c-.14-.114-.287-.242-.44-.38-.37-.335-.775-.728-1.218-1.132q-.12-.111-.246-.222c-.085.074-.167.149-.248.224a12.184,12.184,0,0,1-2.412,2,.733.733,0,0,1-.878-.128.488.488,0,0,1-.1-.437.51.51,0,0,1,.909-.179l.069-.039a23.709,23.709,0,0,0,2.178-1.855,9.664,9.664,0,0,0-2.178-1.413,5.633,5.633,0,0,0-1.83-.49,5.229,5.229,0,0,0-1.888.185c-.056.015-.112.031-.168.049a.018.018,0,0,1-.016-.033c.048-.028.11-.062.184-.1a4.74,4.74,0,0,1,1.888-.476,5.155,5.155,0,0,1,1.83.259c.079.026.158.053.239.083a8.007,8.007,0,0,1,1.937,1.142,20.836,20.836,0,0,0,.1-5.214.008.008,0,0,0-.012-.006c-.778.488-.56,1.849-.4,2.239,0,.008-.008.013-.014.006a2.4,2.4,0,0,1-.3-2.717.008.008,0,0,0-.012-.01,2.3,2.3,0,0,0-.782,2.152.007.007,0,0,1-.014,0,2.262,2.262,0,0,1,.62-2.8c.007,0,0-.015-.006-.013a1.855,1.855,0,0,0-1.364,1.821c0,.012,0,.024,0,.035a.008.008,0,0,1-.015,0,2,2,0,0,1,.016-1.251,1.858,1.858,0,0,1,1.4-1.12c.009,0,.007-.014,0-.015a1.785,1.785,0,0,0-1.4.375,1.2,1.2,0,0,0-.27.33c0,.007-.015,0-.015-.006a1.228,1.228,0,0,1,.285-.681,1.622,1.622,0,0,1,1.744-.43.008.008,0,0,0,.009-.012,1.159,1.159,0,0,0-1.358-.361.008.008,0,0,1-.009-.012,1.136,1.136,0,0,1,1.868.083.009.009,0,0,0,.013,0c.05-.09.1-.189.145-.294a3.558,3.558,0,0,0,.242-.8c0-.008.011-.008.013,0a3.471,3.471,0,0,0,.24.8,3.311,3.311,0,0,0,.146.3.009.009,0,0,0,.013,0,1.1,1.1,0,0,1,1.059-.524,1.2,1.2,0,0,1,.44.144,1.356,1.356,0,0,1,.369.3.007.007,0,0,1-.008.012.983.983,0,0,0-.361-.085,1.294,1.294,0,0,0-.44.052,1.039,1.039,0,0,0-.558.394.007.007,0,0,0,.009.011,1.391,1.391,0,0,1,.549-.1,1.812,1.812,0,0,1,.44.063,1.577,1.577,0,0,1,.613.321,1.224,1.224,0,0,1,.426.825.008.008,0,0,1-.014.006,1.276,1.276,0,0,0-.412-.438,1.6,1.6,0,0,0-.613-.242,2.135,2.135,0,0,0-.44-.036c-.067,0-.136.005-.209.011-.008,0-.01.014,0,.016a1.281,1.281,0,0,1,.21.046,1.945,1.945,0,0,1,.44.2,1.807,1.807,0,0,1,.613.59,1.865,1.865,0,0,1,.157,1.539.007.007,0,0,1-.014,0,2.068,2.068,0,0,0-.143-.752,1.82,1.82,0,0,0-.613-.824,1.654,1.654,0,0,0-.44-.23,1.445,1.445,0,0,0-.169-.05.007.007,0,0,0-.006.013c.062.055.121.11.175.166a2.563,2.563,0,0,1,.44.6,2.222,2.222,0,0,1,.005,2.036s0,0-.005,0-.01,0-.009-.007c0-.036.006-.075.009-.116a3.358,3.358,0,0,0,0-.522,2.111,2.111,0,0,0-.44-1.157,2.221,2.221,0,0,0-.351-.357c-.006,0-.017,0-.012.01a2.4,2.4,0,0,1-.3,2.718c-.005.006-.017,0-.014-.007.163-.389.381-1.751-.4-2.239a.008.008,0,0,0-.012.006,20.844,20.844,0,0,0,.1,5.215A10.4,10.4,0,0,1,35.714,32.1ZM37.45,22.83l-.628.651-.654-.625.628-.65Zm-.707-1.565-.893.925-.929-.888.892-.925ZM34.982,22.34l-.627.651-.655-.625.628-.651Zm-.73-1.672-.931-.887.893-.925.93.887Zm1.509-4.493-1.4,1.5-1.513-1.4,1.4-1.5Zm-2.3,2.06-1.147,1.188-1.194-1.14,1.146-1.188Zm.158,2.922-.892.925-.93-.888.893-.925Zm-2.548,2.152.1-.9.9.1-.1.9Zm.283-3.515-.137,1.275-1.281-.136.136-1.275ZM30.548,21.7l-.137,1.275-1.281-.137.137-1.274Zm-.828,2.819-.9-.1.1-.9.9.1Zm-.56-5.58-.176,1.637L27.338,20.4l.176-1.637Zm-.811,2.532-.137,1.274-1.282-.137.137-1.274ZM28.3,23.427,28.166,24.7l-1.281-.137.137-1.275Zm-2.027,5.326-.45-.784.788-.446.449.783Zm-.68-1.466-.639-1.113,1.12-.635.638,1.113Zm-1.152-6.164,1.646.176-.176,1.637-1.646-.176Zm.688,4.15-.639-1.114,1.12-.634.638,1.113Zm-.338,2.473-1.119.635-.639-1.114,1.12-.634Zm-1.748,1.491-1.438.816-.821-1.43,1.438-.816ZM19.2,35.852l.856-1.868,1.878.851L21.082,36.7Zm2.432-4.159,1.507.683-.686,1.5-1.507-.682Zm.6,5.14.687-1.5,1.507.682-.687,1.5Zm1.025-2.409.534-1.167,1.172.533-.534,1.167Zm3.1,4.081.325,1.615-1.623.324-.325-1.614ZM24.8,41.6l2.023-.4.4,2.012-2.023.4Zm2.989-16.3.45.783-.789.446L27,25.755Zm.562,10.4-.889.178L27.282,35l.889-.177Zm-1.588-1.962-.826-.374.377-.821.825.375Zm.024-3.3-.376.82-.825-.373.376-.821Zm-.875-1.087-1.12.635-.638-1.114,1.12-.635Zm-3.3,1.7.534-1.167,1.172.533-.534,1.167Zm2.093.2,1.172.533-.534,1.167-1.172-.534ZM26,37.873l-1.173-.531.534-1.167,1.173.532Zm.819-3.423-.534,1.167-1.173-.533.535-1.167Zm.14,2.234,1.263-.252.253,1.257-1.264.252Zm.438,2.158,1.263-.252.253,1.257-1.264.252Zm.512,2.192,1.623-.324.325,1.615-1.623.323Zm1.113-4.228.889-.177.177.884-.889.178ZM29.29,38.3l1.264-.253.253,1.258-1.264.252Zm.9,2.523.877-.939.945.872-.877.94Zm1.06-2.6.617-.66.665.613-.618.661Zm.733,1.554.877-.94.945.873-.877.939Zm1.625,1.495.877-.939.944.872-.877.939Zm1.7,1.48,1.126-1.207,1.214,1.121-1.126,1.206Zm2.064-5-.111.9-.9-.111.111-.9Zm-3.651.926.617-.661.664.614-.617.661Zm2.917.99-.878.939-.944-.872.877-.939Zm.393,1.594.158-1.273,1.279.158-.158,1.272Zm1-3.165,1.28.158-.158,1.273-1.28-.158Zm.751,10.139H39.4v.605h-.608Zm-.034-11.669.9.111-.111.894-.9-.111Zm1.322,3.072.157-1.272,1.28.158-.158,1.272Zm.077-1.958L40.31,36.4l1.28.157-.159,1.273Zm.159-12.28.891-.162.163.887-.892.162ZM40.7,35.8l-.436-.79.795-.434.436.791Zm1.569-3.418.435.791-.794.433-.436-.791Zm.655,1.476.62,1.124-1.131.616-.619-1.123ZM41.89,42.954l.252-2.037,2.049.253-.253,2.037Zm2.082-2.911-1.643-.2.2-1.634,1.642.2Zm-.619-4.163L43.973,37l-1.13.617-.62-1.124Zm2.129-1.959-1.131.617-.619-1.124,1.129-.617Zm-2.22-1.014-.62-1.125,1.131-.616.62,1.124Zm.613-3-1.163-.55.554-1.158,1.164.551Zm-1.27,1.16-.818-.388.389-.815.818.388Zm-.739-3.684.818.388-.39.814-.818-.388Zm1.678-3.973.232,1.261-1.268.231-.231-1.26Zm-1.727,3.268.554-1.157,1.164.55-.554,1.158ZM39.824,48.837v-.605h.608v.605Zm-.4-8.321,1.642.2-.2,1.634-1.643-.2Zm6.917,20.479c.459,0,.75-.21.75-.529v-.011c0-.3-.17-.463-.955-.644-.9-.215-1.408-.48-1.408-1.255v-.012a1.291,1.291,0,0,1,1.445-1.219,2.355,2.355,0,0,1,1.534.528l-.4.558a1.929,1.929,0,0,0-1.148-.432c-.435,0-.688.222-.688.5v.012c0,.324.193.468,1,.661.894.216,1.359.535,1.359,1.231V60.4c0,.787-.622,1.256-1.511,1.256a2.614,2.614,0,0,1-1.764-.674l.447-.529A1.952,1.952,0,0,0,46.341,60.995Zm.615-5.927.155-.567a1.135,1.135,0,0,0,.162.037,1.163,1.163,0,0,0,.141.007.687.687,0,0,0,.278-.048.367.367,0,0,0,.17-.154.776.776,0,0,0,.089-.28,2.95,2.95,0,0,0,.026-.423V49.518h.592v3.407h2.2L49.731,50.46a5.019,5.019,0,0,1,.492-.39,3.623,3.623,0,0,1,.548-.317,3.439,3.439,0,0,1,.573-.209,2.208,2.208,0,0,1,.578-.077,2.17,2.17,0,0,1,.569.077,3.127,3.127,0,0,1,.57.213,4.37,4.37,0,0,1,.548.317,5.227,5.227,0,0,1,.5.386l-1.036,2.466h2.517V48.232h.592v5.283H48.569v.125a3.169,3.169,0,0,1-.055.622,1.3,1.3,0,0,1-.189.471.872.872,0,0,1-.352.3,1.247,1.247,0,0,1-.536.1A1.833,1.833,0,0,1,46.956,55.068Zm5.5-2.142.925-2.26a2.389,2.389,0,0,0-.667-.393,2.088,2.088,0,0,0-.791-.159,2.161,2.161,0,0,0-.752.133,2.356,2.356,0,0,0-.7.419l.925,2.26ZM50.8,57.354l1.861,4.236h-.785l-.429-1.015h-2l-.435,1.015H48.25l1.861-4.236Zm.375,2.566-.731-1.682-.725,1.682Zm2.666-.144c0,.781.4,1.2,1.07,1.2s1.063-.4,1.063-1.171h0V57.384h.744V59.77A1.685,1.685,0,0,1,54.9,61.657a1.663,1.663,0,0,1-1.8-1.851V57.384h.743ZM58.5,48.232v5.283h-.593V48.232Zm3.127,11.243v.012a2.112,2.112,0,0,1-2.248,2.1H57.805V57.384h1.576A2.1,2.1,0,0,1,61.629,59.475Zm-3.081,1.442h.833A1.374,1.374,0,0,0,60.849,59.5v-.012a1.384,1.384,0,0,0-1.468-1.43h-.833Zm5.214-12.685v.605h-.608v-.605Zm1.037,0v.605h-.608v-.605ZM61.427,51.52a1.84,1.84,0,0,1,.174-.8,1.878,1.878,0,0,1,.492-.637,2.325,2.325,0,0,1,.77-.419,3.178,3.178,0,0,1,1.007-.151H64.8v3.407H70.28v-.9a1.866,1.866,0,0,0-.045-.427.774.774,0,0,0-.171-.339.842.842,0,0,0-.329-.231,1.248,1.248,0,0,0-.485-.085H66.231a1,1,0,0,1-.174-.265,1.287,1.287,0,0,1-.093-.331L67.1,48.232h.644l-1.114,2.121H69.25a1.857,1.857,0,0,1,.733.125,1.483,1.483,0,0,1,.518.383,1.3,1.3,0,0,1,.282.519,2.3,2.3,0,0,1,.088.645v.9h1.888V48.232h.592v4.694h1.88a2.456,2.456,0,0,1-.13-.416,2.081,2.081,0,0,1-.048-.452,2.155,2.155,0,0,1,.611-1.52,2.122,2.122,0,0,1,.67-.46,2.027,2.027,0,0,1,.828-.169,2.206,2.206,0,0,1,.856.165,2.116,2.116,0,0,1,.684.453,2.093,2.093,0,0,1,.455.68,2.167,2.167,0,0,1,.167.851,2.054,2.054,0,0,1-.186.868h1.836a2.549,2.549,0,0,1-.13-.416,2.2,2.2,0,0,1,.116-1.291,2.109,2.109,0,0,1,1.117-1.141,2.035,2.035,0,0,1,.829-.169,2.2,2.2,0,0,1,.855.165,2.079,2.079,0,0,1,1.14,1.133,2.167,2.167,0,0,1,.166.851,2.053,2.053,0,0,1-.185.868h2.035V48.232h.592v5.283H84.5a2.1,2.1,0,0,1-.707.493,2.213,2.213,0,0,1-.885.177,2.07,2.07,0,0,1-.862-.18,2.15,2.15,0,0,1-.685-.49H78.754a2.09,2.09,0,0,1-.707.493,2.213,2.213,0,0,1-.885.177,2.076,2.076,0,0,1-.862-.18,2.162,2.162,0,0,1-.685-.49H63.87a3.6,3.6,0,0,1-.933-.118,2.315,2.315,0,0,1-.777-.36,1.814,1.814,0,0,1-.533-.619A1.878,1.878,0,0,1,61.427,51.52ZM81.5,52.647a1.538,1.538,0,0,0,.319.489,1.5,1.5,0,0,0,1.084.453,1.669,1.669,0,0,0,.618-.114,1.493,1.493,0,0,0,.829-.81,1.528,1.528,0,0,0,.122-.615,1.6,1.6,0,0,0-.119-.622,1.454,1.454,0,0,0-.329-.489,1.555,1.555,0,0,0-.5-.324,1.633,1.633,0,0,0-.625-.118,1.462,1.462,0,0,0-.611.126,1.478,1.478,0,0,0-.477.335,1.542,1.542,0,0,0-.315.493,1.589,1.589,0,0,0-.115.6A1.571,1.571,0,0,0,81.5,52.647Zm-5.743,0a1.535,1.535,0,0,0,.318.489,1.5,1.5,0,0,0,1.084.453,1.674,1.674,0,0,0,.619-.114,1.487,1.487,0,0,0,.828-.81,1.528,1.528,0,0,0,.122-.615,1.6,1.6,0,0,0-.118-.622,1.454,1.454,0,0,0-.329-.489,1.555,1.555,0,0,0-.5-.324,1.634,1.634,0,0,0-.626-.118,1.465,1.465,0,0,0-.611.126,1.485,1.485,0,0,0-.476.335,1.525,1.525,0,0,0-.315.493,1.589,1.589,0,0,0-.115.6A1.571,1.571,0,0,0,75.76,52.647Zm-13.615-.534a1.3,1.3,0,0,0,.344.441,1.565,1.565,0,0,0,.511.277,2.024,2.024,0,0,0,.625.095h.585V50.107h-.585a1.812,1.812,0,0,0-.592.1,1.637,1.637,0,0,0-.514.287,1.461,1.461,0,0,0-.363.449,1.22,1.22,0,0,0-.137.578A1.351,1.351,0,0,0,62.145,52.113Zm1.168,9.477H62.57V57.384h.743Zm5.13-4.236L70.3,61.59h-.785l-.429-1.015h-2l-.435,1.015h-.761l1.861-4.236Zm.375,2.566-.731-1.682-.725,1.682Zm5.294-2.115a1.266,1.266,0,0,1,.351.907v.012A1.265,1.265,0,0,1,73.453,60L74.6,61.59h-.876L72.68,60.124h-.93V61.59h-.743V57.384h1.884A1.713,1.713,0,0,1,74.112,57.805Zm-2.362.252v1.412h1.087c.532,0,.87-.276.87-.7v-.012c0-.45-.326-.7-.876-.7Zm5.942-.7,1.86,4.236h-.785l-.429-1.015h-2L75.9,61.59h-.762L77,57.354Zm.374,2.566-.731-1.682L76.61,59.92Zm5.191-2.163a.939.939,0,0,1,.284.7v.012a1,1,0,0,1-.6.937,1.031,1.031,0,0,1,.839,1.021v.013c0,.751-.621,1.153-1.564,1.153H80.254V57.384h1.9A1.53,1.53,0,0,1,83.257,57.757Zm-2.271,3.178h1.232c.508,0,.815-.2.815-.577h0v-.012c0-.354-.284-.565-.87-.565H80.986Zm0-2.9v1.117H82c.477,0,.8-.186.8-.571v-.012c0-.33-.266-.534-.743-.534Zm4.454,3.55H84.7V57.384h.743Zm4.386-13.358v5.283h-.592V48.232ZM88.7,57.354,90.56,61.59h-.786l-.428-1.015h-2l-.434,1.015h-.762l1.862-4.236Zm.375,2.566-.731-1.682-.725,1.682Z" transform="translate(-0.502 -0.339)" fill="#fff" fill-rule="evenodd"/>
</svg>
