<svg xmlns="http://www.w3.org/2000/svg" width="22.168" height="25.335" viewBox="0 0 22.168 25.335">
  <path id="Delete" d="M1.583,22.96a2.375,2.375,0,0,0,2.375,2.375H18.21a2.375,2.375,0,0,0,2.375-2.375V6.334h-19ZM15.043,10.292a.792.792,0,1,1,1.583,0V21.376a.792.792,0,1,1-1.583,0Zm-4.75,0a.792.792,0,0,1,1.583,0V21.376a.792.792,0,1,1-1.583,0Zm-4.75,0a.792.792,0,1,1,1.583,0V21.376a.792.792,0,1,1-1.583,0ZM21.376,1.583H15.439L14.973.658A1.188,1.188,0,0,0,13.91,0H8.254A1.174,1.174,0,0,0,7.195.658l-.465.925H.792A.792.792,0,0,0,0,2.375V3.959a.792.792,0,0,0,.792.792H21.376a.792.792,0,0,0,.792-.792V2.375A.792.792,0,0,0,21.376,1.583Z" fill="#0096b6"/>
</svg>
