<svg xmlns="http://www.w3.org/2000/svg" width="21" height="21" viewBox="0 0 21 21">
  <path id="IconPrint" d="M18.375,72.125V67.418a1.313,1.313,0,0,0-.384-.928l-1.856-1.856a1.313,1.313,0,0,0-.928-.384H3.938a1.313,1.313,0,0,0-1.312,1.313v6.563A2.625,2.625,0,0,0,0,74.75v4.594A.656.656,0,0,0,.656,80H2.625v3.938A1.313,1.313,0,0,0,3.938,85.25H17.063a1.313,1.313,0,0,0,1.312-1.312V80h1.969A.656.656,0,0,0,21,79.344V74.75A2.625,2.625,0,0,0,18.375,72.125Zm-2.625,10.5H5.25V78.688h10.5Zm0-9.187H5.25V66.875h7.875v1.969a.656.656,0,0,0,.656.656H15.75Zm1.969,2.953a.984.984,0,1,1,.984-.984.984.984,0,0,1-.984.984Z" transform="translate(0 -64.25)" fill="#0096b6"/>
</svg>
