<svg xmlns="http://www.w3.org/2000/svg" width="75.932" height="75.932" viewBox="0 0 75.932 75.932">
  <g id="TRDIcon1" transform="translate(-2258.552)">
    <ellipse id="Circle" cx="37.966" cy="37.966" rx="37.966" ry="37.966" transform="translate(2258.552)" fill="#f2f4f7"/>
    <g id="Icon" transform="translate(2273.58 15.579)">
      <path id="Vector" d="M10.326,33.156H5.495C2.008,33.156,0,31.148,0,27.662V5.495C0,2.008,2.008,0,5.495,0h8.147c3.486,0,5.494,2.008,5.494,5.495V9a1.421,1.421,0,0,1-2.842,0V5.495c0-1.933-.72-2.653-2.652-2.653H5.495c-1.933,0-2.653.72-2.653,2.653V27.662c0,1.933.72,2.653,2.653,2.653h4.831a1.421,1.421,0,1,1,0,2.842Z" transform="translate(2.368 2.368)" fill="#0096b6" opacity="0.4"/>
      <path id="Vector-2" data-name="Vector" d="M17.071,33.156H6.006C2.2,33.156,0,30.959,0,27.15V6.006C0,2.2,2.2,0,6.006,0H17.071c3.808,0,5.987,2.2,5.987,6.006V27.15C23.058,30.959,20.879,33.156,17.071,33.156ZM6.006,2.842c-2.274,0-3.164.89-3.164,3.164V27.15c0,2.274.89,3.164,3.164,3.164H17.071c2.255,0,3.145-.89,3.145-3.164V6.006c0-2.274-.89-3.164-3.145-3.164Z" transform="translate(11.274 9.947)" fill="#0096b6"/>
      <path id="Vector-3" data-name="Vector" d="M13.641,33.156h-4.7a1.421,1.421,0,1,1,0-2.842h4.7c1.933,0,2.653-.72,2.653-2.653V5.495c0-1.933-.72-2.653-2.653-2.653H5.494c-1.933,0-2.652.72-2.652,2.653V9a1.431,1.431,0,0,1-1.421,1.421A1.431,1.431,0,0,1,0,9V5.495C0,2.008,2.008,0,5.494,0h8.147c3.486,0,5.495,2.008,5.495,5.495V27.662C19.136,31.148,17.128,33.156,13.641,33.156Z" transform="translate(23.967 2.368)" fill="#0096b6" opacity="0.4"/>
      <path id="Vector-4" data-name="Vector" d="M9,2.842H1.421A1.431,1.431,0,0,1,0,1.421,1.431,1.431,0,0,1,1.421,0H9a1.431,1.431,0,0,1,1.421,1.421A1.431,1.431,0,0,1,9,2.842Z" transform="translate(17.526 19.42)" fill="#0096b6"/>
      <path id="Vector-5" data-name="Vector" d="M9,2.842H1.421A1.431,1.431,0,0,1,0,1.421,1.431,1.431,0,0,1,1.421,0H9a1.431,1.431,0,0,1,1.421,1.421A1.431,1.431,0,0,1,9,2.842Z" transform="translate(17.526 25.104)" fill="#0096b6"/>
      <path id="Vector-6" data-name="Vector" d="M1.421,8.526A1.431,1.431,0,0,1,0,7.1V1.421A1.431,1.431,0,0,1,1.421,0,1.431,1.431,0,0,1,2.842,1.421V7.1A1.431,1.431,0,0,1,1.421,8.526Z" transform="translate(21.315 34.577)" fill="#0096b6"/>
      <path id="Vector-7" data-name="Vector" d="M0,0H45.472V45.472H0Z" fill="none" opacity="0"/>
    </g>
  </g>
</svg>
