<svg xmlns="http://www.w3.org/2000/svg" width="43.433" height="41.936" viewBox="0 0 43.433 41.936">
  <g id="quality-saso-tabs" transform="translate(-1433.574 -450.992)">
    <path id="Path_55465" data-name="Path 55465" d="M508.237,75.694a56.114,56.114,0,0,0-2.54-11,53.538,53.538,0,0,0-3.226-7.556c-.427-.821-.877-1.62-1.339-2.41s-.922-1.584-1.418-2.364a53.92,53.92,0,0,0-4.93-6.567,56.178,56.178,0,0,0-8.265-7.7V38.1a55.852,55.852,0,0,0-8.255,7.691,53.535,53.535,0,0,0-4.932,6.567c-.5.78-.967,1.57-1.419,2.364s-.912,1.588-1.339,2.41a53.581,53.581,0,0,0-3.225,7.556,56.032,56.032,0,0,0-2.54,10.994h0A56.084,56.084,0,0,0,475.612,79a53.7,53.7,0,0,0,8.158.987c.925.04,1.841.05,2.758.044s1.831,0,2.755-.044A53.643,53.643,0,0,0,497.442,79a56.14,56.14,0,0,0,10.8-3.3" transform="translate(968.765 412.895)" fill="#0096b6"/>
    <g id="Ellipse_11877" data-name="Ellipse 11877" transform="translate(1450 462)" fill="none" stroke="#fff" stroke-width="2">
      <circle cx="5.5" cy="5.5" r="5.5" stroke="none"/>
      <circle cx="5.5" cy="5.5" r="4.5" fill="none"/>
    </g>
    <g id="Ellipse_11878" data-name="Ellipse 11878" transform="translate(1460 476)" fill="none" stroke="#fff" stroke-width="2">
      <circle cx="5.5" cy="5.5" r="5.5" stroke="none"/>
      <circle cx="5.5" cy="5.5" r="4.5" fill="none"/>
    </g>
    <g id="Ellipse_11879" data-name="Ellipse 11879" transform="translate(1441 476)" fill="none" stroke="#fff" stroke-width="2">
      <circle cx="5.5" cy="5.5" r="5.5" stroke="none"/>
      <circle cx="5.5" cy="5.5" r="4.5" fill="none"/>
    </g>
    <line id="Line_532" data-name="Line 532" x2="4" y2="6" transform="translate(1458.5 471.5)" fill="none" stroke="#fff" stroke-width="2"/>
    <line id="Line_533" data-name="Line 533" x1="4" y2="6" transform="translate(1448.5 471.5)" fill="none" stroke="#fff" stroke-width="2"/>
  </g>
</svg>
