<svg xmlns="http://www.w3.org/2000/svg" width="25.734" height="25.734" viewBox="0 0 25.734 25.734">
  <path id="IconOfDate" d="M25.161,9.72V5.86H22.587V7.147H20.014V5.86H9.72V7.147H7.147V5.86H4.573V9.72Zm0,2.573H4.573V25.161H25.161ZM22.587,3.287h2.573A2.573,2.573,0,0,1,27.734,5.86v19.3a2.573,2.573,0,0,1-2.573,2.573H4.573A2.573,2.573,0,0,1,2,25.161V5.86A2.573,2.573,0,0,1,4.573,3.287H7.147V2H9.72V3.287H20.014V2h2.573ZM11.007,17.44H8.434V14.867h2.573Zm5.147,0H13.58V14.867h2.573Zm5.147,0H18.727V14.867H21.3ZM11.007,22.587H8.434V20.014h2.573Zm5.147,0H13.58V20.014h2.573Z" transform="translate(-2 -2)" fill="#585858" fill-rule="evenodd"/>
</svg>
