<svg xmlns="http://www.w3.org/2000/svg" width="18.979" height="25.305" viewBox="0 0 18.979 25.305">
  <path id="IconDownload" d="M11.071,6.722V0H1.186A1.183,1.183,0,0,0,0,1.186V24.119A1.183,1.183,0,0,0,1.186,25.3H17.792a1.183,1.183,0,0,0,1.186-1.186V7.908H12.257A1.19,1.19,0,0,1,11.071,6.722Zm3.778,10.446L10.084,21.9a.843.843,0,0,1-1.188,0L4.13,17.168a.79.79,0,0,1,.556-1.352H7.908V11.862a.791.791,0,0,1,.791-.791H10.28a.791.791,0,0,1,.791.791v3.954h3.221A.791.791,0,0,1,14.849,17.168ZM18.633,5.189,13.794.346A1.185,1.185,0,0,0,12.954,0h-.3V6.326h6.326v-.3A1.182,1.182,0,0,0,18.633,5.189Z" fill="#0096b6"/>
</svg>
