<svg id="IconGuide" xmlns="http://www.w3.org/2000/svg" width="19.729" height="25.11" viewBox="0 0 19.729 25.11">
  <path id="Path_1493" data-name="Path 1493" d="M99.5,42.761H91.661a2.69,2.69,0,0,1-2.69-2.69V32.227A.225.225,0,0,0,88.744,32H83.587A3.587,3.587,0,0,0,80,35.587V53.523a3.587,3.587,0,0,0,3.587,3.587H96.142a3.587,3.587,0,0,0,3.587-3.587V42.981A.225.225,0,0,0,99.5,42.761Zm-5.156,8.968H85.381a.9.9,0,1,1,0-1.793h8.968a.9.9,0,0,1,0,1.793Zm0-4.484H85.381a.9.9,0,1,1,0-1.793h8.968a.9.9,0,0,1,0,1.793Z" transform="translate(-80 -32)" fill="#0096b6"/>
  <path id="Path_1494" data-name="Path 1494" d="M280.251,52.292l-8.06-8.06a.112.112,0,0,0-.191.079v7.276a.9.9,0,0,0,.9.9h7.276a.112.112,0,0,0,.079-.191Z" transform="translate(-261.239 -43.515)" fill="#0096b6"/>
</svg>
