<svg xmlns="http://www.w3.org/2000/svg" width="75.932" height="75.932" viewBox="0 0 75.932 75.932">
  <g id="TRDIcon2" transform="translate(-2257.856)">
    <ellipse id="Circle" cx="37.966" cy="37.966" rx="37.966" ry="37.966" transform="translate(2257.856)" fill="#f2f4f7"/>
    <g id="Icon" transform="translate(2273.579 15.579)">
      <path id="Vector" d="M1.421,8.526A1.431,1.431,0,0,1,0,7.1V1.421A1.431,1.431,0,0,1,1.421,0,1.431,1.431,0,0,1,2.842,1.421V7.1A1.431,1.431,0,0,1,1.421,8.526Z" transform="translate(13.736 2.368)" fill="#0096b6"/>
      <path id="Vector-2" data-name="Vector" d="M1.421,8.526A1.431,1.431,0,0,1,0,7.1V1.421A1.431,1.431,0,0,1,1.421,0,1.431,1.431,0,0,1,2.842,1.421V7.1A1.431,1.431,0,0,1,1.421,8.526Z" transform="translate(28.893 2.368)" fill="#0096b6"/>
      <path id="Vector-3" data-name="Vector" d="M1.895,3.766A1.992,1.992,0,0,1,.549,3.216,1.957,1.957,0,0,1,0,1.871a1.886,1.886,0,0,1,.152-.72,2.188,2.188,0,0,1,.4-.625,1.984,1.984,0,0,1,2.69,0,1.992,1.992,0,0,1,.549,1.345,2.848,2.848,0,0,1-.038.379,1.2,1.2,0,0,1-.114.341,1.435,1.435,0,0,1-.171.341l-.227.284A1.992,1.992,0,0,1,1.895,3.766Z" transform="translate(14.21 23.707)" fill="#0096b6"/>
      <path id="Vector-4" data-name="Vector" d="M1.895,3.779a1.886,1.886,0,0,1-.72-.152,1.956,1.956,0,0,1-.625-.4A1.957,1.957,0,0,1,0,1.884a1.886,1.886,0,0,1,.152-.72,2.188,2.188,0,0,1,.4-.625,1.956,1.956,0,0,1,.625-.4,1.928,1.928,0,0,1,2.065.4,1.992,1.992,0,0,1,.549,1.345,2.848,2.848,0,0,1-.038.379,1.2,1.2,0,0,1-.114.341,1.435,1.435,0,0,1-.171.341,2.985,2.985,0,0,1-.227.284A1.992,1.992,0,0,1,1.895,3.779Z" transform="translate(20.841 23.694)" fill="#0096b6"/>
      <path id="Vector-5" data-name="Vector" d="M1.895,3.787a1.886,1.886,0,0,1-.72-.152,1.769,1.769,0,0,1-.625-.4,1.768,1.768,0,0,1-.4-.625A1.886,1.886,0,0,1,0,1.892a1.886,1.886,0,0,1,.152-.72,1.768,1.768,0,0,1,.4-.625,1.769,1.769,0,0,1,.625-.4,1.812,1.812,0,0,1,1.44,0,1.769,1.769,0,0,1,.625.4,1.768,1.768,0,0,1,.4.625,1.886,1.886,0,0,1,.152.72,1.886,1.886,0,0,1-.152.72A1.708,1.708,0,0,1,2.615,3.635,1.886,1.886,0,0,1,1.895,3.787Z" transform="translate(14.21 30.317)" fill="#0096b6"/>
      <path id="Vector-6" data-name="Vector" d="M33.63,2.842H1.421A1.431,1.431,0,0,1,0,1.421,1.431,1.431,0,0,1,1.421,0H33.63a1.431,1.431,0,0,1,1.421,1.421A1.431,1.431,0,0,1,33.63,2.842Z" transform="translate(5.21 15.801)" fill="#0096b6"/>
      <path id="Vector-7" data-name="Vector" d="M9,18a8.792,8.792,0,0,1-5.93-2.255,8.16,8.16,0,0,1-1.781-2.122A8.9,8.9,0,0,1,0,9,9,9,0,0,1,18,9a8.852,8.852,0,0,1-1.307,4.642A8.969,8.969,0,0,1,9,18ZM9,2.842A6.17,6.17,0,0,0,2.842,9a6,6,0,0,0,.89,3.164A5.566,5.566,0,0,0,4.926,13.6,6.012,6.012,0,0,0,9,15.157,6.167,6.167,0,0,0,15.157,9a6.293,6.293,0,0,0-1.535-4.073A6.182,6.182,0,0,0,9,2.842Z" transform="translate(25.104 26.999)" fill="#0096b6"/>
      <path id="Vector-8" data-name="Vector" d="M3.292,6.571a1.405,1.405,0,0,1-1-.417L.412,4.278A1.42,1.42,0,1,1,2.42,2.27l.909.909L6.361.375A1.421,1.421,0,0,1,8.294,2.459L4.258,6.192A1.482,1.482,0,0,1,3.292,6.571Z" transform="translate(29.732 32.724)" fill="#0096b6"/>
      <path id="Vector-9" data-name="Vector" d="M24.858,37.893H10.894C3.979,37.893,0,33.914,0,27v-16.1C0,3.979,3.979,0,10.894,0H26.051c6.915,0,10.894,3.979,10.894,10.894V25.786a1.427,1.427,0,0,1-2.5.928,6.161,6.161,0,0,0-10.781,4.073,6,6,0,0,0,.89,3.164,5.566,5.566,0,0,0,1.194,1.44,1.409,1.409,0,0,1,.417,1.573A1.355,1.355,0,0,1,24.858,37.893ZM10.894,2.842c-5.419,0-8.052,2.634-8.052,8.052V27c0,5.419,2.634,8.052,8.052,8.052H21.921a8.9,8.9,0,0,1-1.08-4.263A8.99,8.99,0,0,1,34.1,22.868V10.894c0-5.419-2.634-8.052-8.052-8.052Z" transform="translate(4.263 5.21)" fill="#0096b6"/>
      <path id="Vector-10" data-name="Vector" d="M0,0H45.472V45.472H0Z" fill="none" opacity="0"/>
    </g>
  </g>
</svg>
