<svg xmlns="http://www.w3.org/2000/svg" width="17.842" height="17.867" viewBox="0 0 17.842 17.867">
  <g id="call" transform="translate(0.6 0.6)">
    <path id="Vector" d="M0,13.608a2.121,2.121,0,0,0,.208.908,3.438,3.438,0,0,0,.567.85,3.757,3.757,0,0,0,1.367.983,4.185,4.185,0,0,0,1.625.317,6.945,6.945,0,0,0,2.717-.608,14.637,14.637,0,0,0,2.867-1.65,23.959,23.959,0,0,0,2.733-2.333A23.678,23.678,0,0,0,14.408,9.35a14.857,14.857,0,0,0,1.633-2.842,7.019,7.019,0,0,0,.6-2.725,4.311,4.311,0,0,0-.3-1.608A3.836,3.836,0,0,0,15.383.783,2.442,2.442,0,0,0,13.65,0a1.566,1.566,0,0,0-.675.15,1.358,1.358,0,0,0-.558.467L10.483,3.342a2.852,2.852,0,0,0-.333.583,1.317,1.317,0,0,0-.117.508,1.131,1.131,0,0,0,.175.592,2.834,2.834,0,0,0,.467.592l.633.658a.446.446,0,0,1,.133.333.757.757,0,0,1-.025.192c-.025.067-.05.117-.067.167a6.915,6.915,0,0,1-.775,1.067c-.375.433-.775.875-1.208,1.317-.45.442-.883.85-1.325,1.225a6.4,6.4,0,0,1-1.075.767c-.042.017-.092.042-.15.067a.575.575,0,0,1-.208.033.458.458,0,0,1-.342-.142l-.633-.625a2.557,2.557,0,0,0-.6-.467,1.11,1.11,0,0,0-.592-.175,1.33,1.33,0,0,0-.508.108,3.223,3.223,0,0,0-.583.325L.592,12.425a1.264,1.264,0,0,0-.458.533A1.71,1.71,0,0,0,0,13.608Z" fill="none" stroke="#0096b6" stroke-width="1.2"/>
  </g>
</svg>
