<svg xmlns="http://www.w3.org/2000/svg" width="24.36" height="24" viewBox="0 0 24.36 24">
  <path id="Chart-icon" d="M100.164,2575.461a2.41,2.41,0,0,0,.291.018,2.907,2.907,0,0,0,2.884-2.652,2.939,2.939,0,0,0-.639-2.151,2.848,2.848,0,0,0-1.956-1.064,2.461,2.461,0,0,0-.291-.017h0a2.907,2.907,0,0,0-2.884,2.651,2.942,2.942,0,0,0,.585,2.064l-3.775,5.424a3.323,3.323,0,0,0-.595-.128c-.1-.006-.194-.011-.291-.011h0a2.843,2.843,0,0,0-1.737.6l-3.565-2.587a2.793,2.793,0,0,0,.058-.3,2.953,2.953,0,0,0-.639-2.156,2.894,2.894,0,0,0-1.956-1.064c-.1-.006-.194-.012-.291-.012h0a2.9,2.9,0,0,0-2.884,2.645,2.944,2.944,0,0,0,.33,1.68l-2.073,2.523v-14.26a.872.872,0,1,0-1.74,0v22.2a.872.872,0,0,0,.862.872h22.108a.872.872,0,1,0,0-1.744H80.719l.017-4.308,3.325-4.046a2.9,2.9,0,0,0,1.014.308c.1.006.194.011.291.011a2.87,2.87,0,0,0,1.977-.785l3.4,2.459a2.986,2.986,0,0,0-.133.616,2.954,2.954,0,0,0,.639,2.157,2.9,2.9,0,0,0,1.956,1.064,2.567,2.567,0,0,0,.291.011,2.9,2.9,0,0,0,2.884-2.645,2.953,2.953,0,0,0-.581-2.07l3.775-5.418A2.851,2.851,0,0,0,100.164,2575.461Zm-14.8,2.727c-.038,0-.077-.006-.116-.006a1.178,1.178,0,0,1,.116-2.348.771.771,0,0,1,.116.006,1.178,1.178,0,0,1-.116,2.349Zm15.086-6.825a.771.771,0,0,1,.116.006,1.175,1.175,0,0,1-.116,2.344.881.881,0,0,1-.116-.006,1.175,1.175,0,0,1,.114-2.343ZM93.5,2583.711a.8.8,0,0,1-.116-.006,1.178,1.178,0,0,1,.116-2.349c.039,0,.078.006.116.006a1.178,1.178,0,0,1-.116,2.349Z" transform="translate(-78.994 -2565.728)" fill="#0096b6" fill-rule="evenodd"/>
</svg>
