<svg xmlns="http://www.w3.org/2000/svg" width="104.919" height="50.535" viewBox="0 0 104.919 50.535">
  <g id="denied" transform="translate(0)">
    <g id="Group_23241" data-name="Group 23241">
      <path id="Path_1624" data-name="Path 1624" d="M-220.984,468.354l-.159-.164.244-.133.158-.248.176.068,0,0,0,0,.695-.375-.31.531.11.047-.2.164a3,3,0,0,0,2.007-3.739l-3.107-8.6c-.077-.018-.155-.038-.231-.057s-.163-.042-.246-.061h0l.227-.25-.519-.1.04-.053.544.083,0-.006-.176-.279h0l.087-.035-4.936-13.659-.509.356a1,1,0,0,1-.121-.08h0l-.061-.041.583-.5a4.19,4.19,0,0,0-4.787-1.961L-317.2,459.631l.279.173.029.051a.031.031,0,0,1,.005.01.5.5,0,0,1-.159.618c-.028.025-.058.049-.089.071l-.353-.186-.227-.12-.121-.068-.016.013-.008.007a.13.13,0,0,0-.041.061.091.091,0,0,0-.012-.043l-.183-.376-2.1.5c-2.082.495-3.273,2.263-2.664,3.95l8.344,23.084c.609,1.688,2.79,2.655,4.872,2.16l12.493-2.969.055-.417a1.294,1.294,0,0,1,.326,0l-.2.305.214-.3a1.057,1.057,0,0,1,.5.2l33.119-7.87-.711-.209a.071.071,0,0,0-.01.011.133.133,0,0,0-.022.037h0v0a.1.1,0,0,0-.012-.053l1.031-.344h0a.5.5,0,0,1,.033.1.482.482,0,0,1-.092.4l5.008-1.19-.088-.031.03-.027.052-.042.016-.013.045-.034,0,0,.3.066,19.471-4.627a.535.535,0,0,1-.026-.124c0-.014,0-.027,0-.04l-.044-.285.514-.038h.246l.022.152c0,.018,0,.036,0,.053a.418.418,0,0,0,.009.061s0,.005,0,.007l-.356.124h0l.357-.124-.322.116,2.761-.656.1-.137.058.008-.042-.191c.1-.024.189-.04.271-.052l.121-.017.088-.011.828-.121-.162.221.452-.108-.257-.037.178-.539.523-.021.111,0,.409-.016-.141.421,11.456-2.722.036-.01Zm-16.793-26.141,0,0c.01,0,.025-.014.044-.025l.039-.025.254-.164,0,0,.019-.012.025,0,1.444-.771-.91.892.743.244-1.247.162c-.031.018-.066.035-.1.052l-.005,0-.005,0-.006,0-.006,0-.005,0-.007,0-.006,0,0,0-.006,0-.005,0-.03.011-.043.015-.048-.114-.011,0h0l-.058-.017-.008,0,.023-.024-.394-.051.322-.2Zm-7.263,1.764c.339-.034.567.068.612.275l-.551.142-.137.035-.033.009h0a.085.085,0,0,0,.033.008l-1.706.176,1.7-.636Zm-2.463-.253a.928.928,0,0,1,.062-.082.272.272,0,0,0,.028-.033h0l.286.038-.287-.038.353.007.351.007a.4.4,0,0,1-.043.075c-.016.022-.035.045-.053.068a.419.419,0,0,0-.029.035l-.162.245-.657-.095Zm-26.214,7.018a1.452,1.452,0,0,1,.569-.2,1.027,1.027,0,0,1,.2-.007h.051a.691.691,0,0,1,.339.125l-.052.031v0l.052-.032.023.02-.066.036c.053.154-.1.344-.361.441a.862.862,0,0,1-.294.051l-.013,0h-.047c.019,0,.04,0,.059,0a.516.516,0,0,0,.122-.025.16.16,0,0,0,.027-.012l-.088-.061-.088.024-.041.077a.122.122,0,0,1-.016,0h-.008l.048-.07-.143.04a.2.2,0,0,0,.091.029.589.589,0,0,1-.108-.023h0l-.463.143,0-.008a.541.541,0,0,1-.017-.194.165.165,0,0,0,0-.053l-.022-.183Zm-37.9,8.153.055-.337a1.209,1.209,0,0,1,.682.094h0l0,0h0a1.1,1.1,0,0,1,.408.408l.013.022.011.028a.734.734,0,0,1-.331.861l-.035.025-.67-.394v0s0,0,0,0,.035-.047,0-.164c-.053-.082-.132-.2-.191-.215Zm.211,29.176-.262.169h0l.016.008,0,0h0a.3.3,0,0,0-.03.027h0l0,0a.046.046,0,0,0,.006-.028l-.01,0-.012,0-.1.063h0l0,0,0,0v0l.085-.057h-.006l-.081.055h0l-.027.018h0l-.009.007a.073.073,0,0,0-.019-.008h0a.151.151,0,0,0,.03,0l.026-.018-.018-.019-.374.131h0l-.513.178a.346.346,0,0,1-.035-.109h0v0h0c-.026-.189.1-.395.353-.591l.066-.052.088-.038a1.459,1.459,0,0,1,1.056-.1l.005,0h0a.823.823,0,0,1,.158.07l-.411.283h0l.412-.281-.4.277.406-.276Zm6.083.374a.236.236,0,0,0-.015.029h0c0,.009-.009.019-.012.027l-1.055.093a.707.707,0,0,1,.079-.193.324.324,0,0,0,.027-.057h0l1.038-.032h0A1.214,1.214,0,0,1-305.318,488.446Zm3.753-1.2a.166.166,0,0,0-.021.044h0l-.719.023v0h0a.755.755,0,0,1,.04-.088c.007-.013.014-.027.019-.04v0l.716-.012C-301.542,487.191-301.554,487.217-301.566,487.244Zm17.8-5.27-.251.154h0l-.141-.135-.179-.168a.928.928,0,0,1,.868-.04Zm14.22-2.324-.045.01a.732.732,0,0,1-.7-.117c-.007-.007-.012-.015-.018-.022l.346-.143.256-.105.09-.037h0a.074.074,0,0,0-.018-.012.077.077,0,0,0-.03-.006l.029-.005,2.99-.638Zm2.632-2.074.016,0c.031.005.062.011.09.018h0l.076.023c.02.006.037.012.055.016l-.195.228-.2.229c-.029-.007-.061-.015-.091-.025l-.031-.01-.01,0a.315.315,0,0,0-.043-.012l.1-.133.212-.336-.143.236Zm5.37-1.116c-.017.011-.037.022-.053.033l-.12.084-.157.017a1.049,1.049,0,0,1-.367-.014h0c-.184-.045-.286-.151-.273-.3l0-.014,0-.022.366-.033.109-.01.077-.047.049-.03h0l0,0h0a.3.3,0,0,0-.037.039l.135.017h0l.518.078A.84.84,0,0,1-261.544,476.46Zm26-5.484a1.115,1.115,0,0,1-.155.123l-.327-.2-.055-.035-.331.123,0,0a.414.414,0,0,1-.032-.078l0-.017a.092.092,0,0,0,.019.029l.252-.118-.165-.108c-.012.008-.025.016-.037.026l.017-.016c.03-.028.061-.054.088-.076h0l.235.109.089-.042.48-.225a.22.22,0,0,1,.046.069h0v0l0,0c.008.021.014.039.02.055l.007.017.1.177ZM-224.129,467l-.165-.09-41.378,9.833-.1.091h0a.171.171,0,0,1-.022-.008c-.027-.01-.054-.021-.08-.033l0,0-.424.1-.475.228.483-.225a.277.277,0,0,1,.04.056l.006.009h0v0s0,0,0,0h0a.043.043,0,0,1,.006.012h0a.3.3,0,0,1-.02.277l-.707-.037-.1.038-.188.087.122-.059.058-.026-.005,0,.095-.044h0l.21-.1.476-.226-44.122,10.485a1.211,1.211,0,0,1-1.428-.633l-5.069-14.023-.692-.032c.013-.021.025-.044.04-.067l.048-.073c.016-.021.031-.042.042-.06l.343-.006.13-.005-3.187-8.817a.923.923,0,0,1,.781-1.158l21.59-5.13-1.516-.631,2.347.433.681-.161-.119-.055a2.075,2.075,0,0,0,.473-.491.624.624,0,0,0,.035-.055l.341.029.341.029c-.015.025-.03.049-.046.074a2.435,2.435,0,0,1-.225.28l64.823-15.4a1.212,1.212,0,0,1,1.428.634l4.614,12.767.572.172.156,0,.1.158c.5.846.7,1.145,1.064,1.215l.06.009-.459.674a1.505,1.505,0,0,1-.8-.315l3.039,8.408a.924.924,0,0,1-.781,1.159l-2.151.511Z" transform="translate(323.019 -439.131)" fill="#df0000"/>
      <g id="Group_23240" data-name="Group 23240" transform="translate(5.334 4.397)">
        <path id="Path_1625" data-name="Path 1625" d="M-224.856,492.521l.09.155-.088-.156Z" transform="translate(258.075 -479.914)" fill="#df0000"/>
        <path id="Path_1626" data-name="Path 1626" d="M-272.057,487.468l-.034.011h0a.06.06,0,0,0,0-.012.085.085,0,0,0-.018.014h0v0h0a.108.108,0,0,0,.01-.03.1.1,0,0,0-.04-.045s-.007,0-.01-.006l.686-.622a.632.632,0,0,1,.422.394l.009.058a.59.59,0,0,1-.044.233l12.319-2.928.342-.428.273.048h0l-.184.23h0l-.046.057,5.055-1.2-.039-.07.041.07.007,0-.038-.072.042-.014.048-.014.022.081.007,0-.018-.083a.831.831,0,0,1,.392-.005l37.321-8.869c.254-.061.4-.265.335-.455l-.806-2.231a6.628,6.628,0,0,1-.687-1.012l-.287-.475.027,0-.253-.446.561.169-6.007-16.621a.494.494,0,0,0-.585-.236l-13.176,3.131.442.784,12.4-2.945,7.109,19.67-84.578,20.1-7.109-19.67,71.213-16.922v-.889l-6.2,1.472a.492.492,0,0,1,.067.463h0v0s0,0,0,0a.521.521,0,0,1-.033.071l-1-.054v.005a.094.094,0,0,0-.014-.053.728.728,0,0,0-.313-.13l-31.176,7.408a1.621,1.621,0,0,1-.521.3l-.034.013-.083-.162-32.839,7.8c-.255.061-.406.264-.337.455l7.451,20.618a.5.5,0,0,0,.588.236l29.469-7Zm-3.854-21.243a.394.394,0,0,1,.021-.065h0c.011-.026.022-.051.033-.073a.305.305,0,0,0,.022-.043l.035-.1.131-.073a.979.979,0,0,1,.585-.129l-.209.283.179-.006h0a.587.587,0,0,1-.041.091.385.385,0,0,0-.02.044l-.23.023-.5.054Zm-28.976,6.656a.277.277,0,0,0,.028-.051l0,0h0l.518-.034h.009l.527-.045-.386.036.383-.025c-.008.025-.016.049-.026.072,0,0,0,0,0,0a1.17,1.17,0,0,1-.064.121.454.454,0,0,0-.029.053h0l-1.022,0,0,0h0C-304.935,472.964-304.911,472.922-304.888,472.881Z" transform="translate(309.438 -452.936)" fill="#df0000"/>
      </g>
    </g>
    <path id="Path_1627" data-name="Path 1627" d="M-273.568,519.957a1.4,1.4,0,0,0,.914.085,1.135,1.135,0,0,0,.716-.453.773.773,0,0,0,.1-.732,1,1,0,0,0-.561-.587,1.359,1.359,0,0,0-.905-.088,1.143,1.143,0,0,0-.721.463.784.784,0,0,0-.106.741A.989.989,0,0,0-273.568,519.957Z" transform="translate(293.364 -492.98)" fill="#df0000"/>
    <path id="Path_1628" data-name="Path 1628" d="M-280.452,521.925a1.366,1.366,0,0,0,.9.089,1.145,1.145,0,0,0,.722-.462.771.771,0,0,0,.111-.727,1,1,0,0,0-.571-.585,1.4,1.4,0,0,0-.914-.086,1.121,1.121,0,0,0-.7.46.784.784,0,0,0-.106.741A.988.988,0,0,0-280.452,521.925Z" transform="translate(297.544 -494.323)" fill="#df0000"/>
    <path id="Path_1629" data-name="Path 1629" d="M-273.456,522.418l-2.152.5.484,1.379c.057-.029.116-.055.165-.075l.091-.038.054-.012c.053-.013.107-.024.163-.034h0a1.106,1.106,0,0,1,.122-.014h.038l-.157.457,0,0h0l0,.013h0l-.006,0-.042.007c-.028.012-.067.027-.083.036l0,0h0l-.282-.18.649,1.848.438-.551.4.07h0l-.266.332h0l-.266.332-.22-.039-.033-.006.447,1.272a.29.29,0,0,1-.038.274.473.473,0,0,1-.3.195l-3.183.734-.937-2.669a2.852,2.852,0,0,0-2.03-1.838,5.115,5.115,0,0,0-2.516,0,4.311,4.311,0,0,0-2.721,1.672,2.811,2.811,0,0,0-.262,2.539,3.962,3.962,0,0,0,1.775,2.21,4.76,4.76,0,0,0,3.489.41l1.494-.345a1.755,1.755,0,0,1-.576,1.863,6.339,6.339,0,0,1-2.453.955,5.973,5.973,0,0,1-3.1.116,2.544,2.544,0,0,1-1.516-1.715l-.463-1.319-.344.42.125.169-.088-.092.017.03.035.076-.089-.146,0-.012-.006-.012-.006.008v0l-.042.055-.11.141.154-.211-.007.008v0l-.331-.347.147-.062.043-.014a1.144,1.144,0,0,1,.406-.051h.008l.071.007.013,0-.285-.812-1.067.246-.85.975.562,1.6a3.9,3.9,0,0,0,2.186,2.4,6.442,6.442,0,0,0,4.2.232l.988-.228.042-.124a3.077,3.077,0,0,1,.427.016l.3-.07a5.683,5.683,0,0,0,3.233-1.745,2.9,2.9,0,0,0,.716-1.808l-.055.085-.151.235-.064-.007c-.06-.006-.117-.013-.165-.013l.211-.475h.031c.073,0,.135.009.194.015a3.675,3.675,0,0,0-.127-.9l3.606-.832.049-.363a.934.934,0,0,1,.677.149,1.76,1.76,0,0,0,.828-.737,1.409,1.409,0,0,0,.1-1.146Zm-5.775,5.9a.676.676,0,0,1-.286.236.892.892,0,0,1-.1.044l-.02.008-.022.008-.205-.4c-.037.02-.071.071-.06.094l-.133-.153.444,1.265-1.227.283a2.45,2.45,0,0,1-1.884-.22,2.1,2.1,0,0,1-.976-1.195,1.74,1.74,0,0,1,.083-1.624,1.5,1.5,0,0,1,.418-.436l-.057-.026.524-.414.229.1h0l-.048.037c.048-.014.09-.032.141-.044a1.79,1.79,0,0,1,1.061.067,1.3,1.3,0,0,1,.8.8l.372,1.058.808.112.086.039.027.03A.259.259,0,0,1-279.23,528.32Zm1.214.31-.864-.131-.212-.061,0-.163c0-.036,0-.073.008-.109l0-.037s0,0,0-.007a.1.1,0,0,0,0-.015v0h0l.7-.165.086-.02.278-.067a.393.393,0,0,1,.006.1c0,.01,0,.019,0,.027l0,.046c0,.019,0,.038-.005.057Zm5.665-.109-.334.314h0l-.032-.011c-.038-.014-.076-.031-.115-.047-.024-.01-.046-.021-.066-.029l.56-.656a.784.784,0,0,1,.119.03h0c.051.017.093.036.136.054.022.01.044.021.065.029Z" transform="translate(302.647 -495.894)" fill="#df0000"/>
    <path id="Path_1630" data-name="Path 1630" d="M-246,547.622a1.406,1.406,0,0,0-.914-.085,1.117,1.117,0,0,0-.713.46.8.8,0,0,0-.1.74,1.01,1.01,0,0,0,.563.587,1.358,1.358,0,0,0,.9.087,1.146,1.146,0,0,0,.722-.462.786.786,0,0,0,.106-.741A1,1,0,0,0-246,547.622Z" transform="translate(277.326 -512.987)" fill="#df0000"/>
    <g id="Group_23242" data-name="Group 23242" transform="translate(30.35 19.576)">
      <path id="Path_1631" data-name="Path 1631" d="M-179.865,508.065h0l.181-.135.017-.013Z" transform="translate(205.738 -505.587)" fill="#df0000"/>
      <path id="Path_1632" data-name="Path 1632" d="M-180.43,508.885h0l-.016.012Z" transform="translate(206.092 -506.247)" fill="#df0000"/>
      <path id="Path_1633" data-name="Path 1633" d="M-240.905,513.068l.156-.015c.035-.023.073-.045.11-.068s.053-.031.077-.047v0s0,0,0,0a.36.36,0,0,0-.055.057l.195.024v0h0l-.011,0h.012l.516.078,14.846-3.426a1.827,1.827,0,0,0,1.286-.936l.053-.012.794.456,3.611-.833a1.945,1.945,0,0,0,1.225-.781,3.459,3.459,0,0,0,2.644.357,3.33,3.33,0,0,0,2.351-1.681,3.584,3.584,0,0,0,.129-2.977,3.745,3.745,0,0,0-2.316-2.381,5,5,0,0,0-2.913-.139,4.419,4.419,0,0,0-2.323,1.161,2.14,2.14,0,0,0-.445,2.347l.81,2.307a.291.291,0,0,1-.038.274.476.476,0,0,1-.3.194l-3.184.735-.071-.2c-.026-.108-.044-.183-.057-.222l-.481-1.369a3.635,3.635,0,0,0-2.129-2.174,6.014,6.014,0,0,0-3.889-.288,6.977,6.977,0,0,0-4.987,3.972l-2.146-6.114-2.152.5,3.108,8.855-3.539.817a.464.464,0,0,1-.383-.052.343.343,0,0,1-.188-.207l-2.981-8.493-2.169.5.013.035.175-.034a.171.171,0,0,1,0,.02.4.4,0,0,1-.07.182.231.231,0,0,0-.02.037h0l0,0h-.011l.452,1.287.018-.017.065-.052.037-.028,0,0h0l-.006,0-.006.007.637.122-.017.019h0a1.144,1.144,0,0,1-.13.115.376.376,0,0,0-.041.033h0l-.553-.184,2.525,7.194a1.717,1.717,0,0,0,1.05,1.021c.064.027.13.044.2.065Zm24.974-11.309a.058.058,0,0,0,.01-.02.076.076,0,0,0,0-.031l.738-.153a.359.359,0,0,1-.013.138l-.364.023.364-.023a.747.747,0,0,1-.366.4v0l-.029.016h0l-.394-.318A.186.186,0,0,0-215.931,501.759Zm-2.762,1.04a1.35,1.35,0,0,1,.9-.566,2.167,2.167,0,0,1,1.564.186,2.641,2.641,0,0,1,1.159,1.493,2.207,2.207,0,0,1,.01,1.674,1.579,1.579,0,0,1-1.159.915,2.5,2.5,0,0,1-1.714-.229l-.881-2.509A.972.972,0,0,1-218.693,502.8Zm-2.059.609c-.021-.1.007-.254.255-.435l.044-.032.053-.024c.03-.013.059-.025.087-.036a.932.932,0,0,1,.718-.008l-.093.07-.151.114.246-.182-.275.2h0l.275-.2-.274.2h0l.276-.2-.272.2.276-.2-.247.181.25-.18-.279.2h0l.28-.2-.239.172.241-.171-.28.2h0l.282-.2-.249.177.251-.176-.282.2h0l.284-.2-.28.2.282-.2-.277.2-.187.125h0l.027.014h0a.111.111,0,0,0-.02.018v0h0a.037.037,0,0,0,.005-.016v-.005l-.046.012h0l-.035.025.033-.024h0l-.031.023-.006,0-.026.017h0l.057-.041-.027.019-.031.022h0l.031-.024-.009-.009Zm-11.687,2.953a4.906,4.906,0,0,1,2.312-1.25,4,4,0,0,1,2.064.022,2.256,2.256,0,0,1,1.637,1.432l.47,1.34q.127.361-.317.464l-4.831,1.115a.921.921,0,0,1,.181.216l.009.015.008.019a.511.511,0,0,1-.232.6l-.024.017-.465-.274,0,0h0s.024-.033,0-.114c-.036-.056-.091-.14-.133-.149l.033-.188-2.6.6A6.752,6.752,0,0,1-232.439,506.361Zm-4.155,3.114,1.186.738.02.035a.021.021,0,0,1,0,.007.347.347,0,0,1-.111.429c-.019.016-.04.034-.061.049l-.246-.129-.157-.083-.084-.047-.011.01-.007,0a.1.1,0,0,0-.028.042s0-.012-.007-.03Z" transform="translate(245.743 -500.601)" fill="#df0000"/>
      <path id="Path_1634" data-name="Path 1634" d="M-179.36,507.8l.076-.057-.006,0Z" transform="translate(205.432 -505.465)" fill="#df0000"/>
    </g>
    <g id="Group_23244" data-name="Group 23244" transform="translate(68.841 10.204)">
      <path id="Path_1635" data-name="Path 1635" d="M-126.8,513.687a1.4,1.4,0,0,0-.915-.085,1.155,1.155,0,0,0-.722.462.787.787,0,0,0-.1.742,1,1,0,0,0,.57.585,1.4,1.4,0,0,0,.914.085,1.149,1.149,0,0,0,.723-.463.789.789,0,0,0,.1-.741A1.007,1.007,0,0,0-126.8,513.687Z" transform="translate(136.108 -500.062)" fill="#df0000"/>
      <path id="Path_1636" data-name="Path 1636" d="M-119.886,511.728a1.4,1.4,0,0,0-.914-.085,1.129,1.129,0,0,0-.7.458.787.787,0,0,0-.1.742,1,1,0,0,0,.57.585,1.37,1.37,0,0,0,.9.089,1.145,1.145,0,0,0,.722-.462.785.785,0,0,0,.106-.741A1,1,0,0,0-119.886,511.728Z" transform="translate(131.901 -498.728)" fill="#df0000"/>
      <path id="Path_1637" data-name="Path 1637" d="M-108.516,472.985a1.4,1.4,0,0,0,.914.085,1.119,1.119,0,0,0,.7-.458.772.772,0,0,0,.111-.727,1,1,0,0,0-.571-.585,1.37,1.37,0,0,0-.9-.09,1.146,1.146,0,0,0-.721.463.782.782,0,0,0-.1.741A.985.985,0,0,0-108.516,472.985Z" transform="translate(124.293 -471.172)" fill="#df0000"/>
      <g id="Group_23243" data-name="Group 23243" transform="translate(0 2.756)">
        <path id="Path_1638" data-name="Path 1638" d="M-126.105,486.295l.062.11.634-.146.575-1.1-.2-.576-3.45.8A2.468,2.468,0,0,1-130.58,485a2.156,2.156,0,0,1-.768-1.039q-.693-1.975,1.742-2.538a10.132,10.132,0,0,1,1.809-.214l-.486-1.385a8.7,8.7,0,0,0-2.041.206,5.16,5.16,0,0,0-2.7,1.4,2.625,2.625,0,0,0-.555,2.857,3.63,3.63,0,0,0,.713,1.207,3.414,3.414,0,0,0,.858.691l-3.593.829-.794.375c-.031-.034-.041-.046-.156-.015l-.244-.6.079-.026c.062-.017.123-.03.183-.041l-.489-1.392a.45.45,0,0,1-.056.133h0v0a.874.874,0,0,1-.442.327l-.121-.195.113.2-.015.006-.1-.2-.106-.2.112.2-.108-.2s0-.014,0-.042a.143.143,0,0,0-.121-.081h-.028l.2-.475h.008a.806.806,0,0,1,.542.17l-1.029-2.931-2.152.5,1.561,4.448,0-.007.591.026.072-.2h0l.442-.012-.248.683-.688.018-.048-.052a.346.346,0,0,1-.076.174.424.424,0,0,1-.314.2l-3.468.8-1.812-5.163-2.171.5,1.18,3.362.414-.234a.245.245,0,0,0,.072.045.1.1,0,0,0,.032.006h0l-.187.679a1.525,1.525,0,0,1-.158,0l.8,2.269a2.081,2.081,0,0,1-1.388,2.932l.017.117c0,.025,0,.05,0,.076s.008.068.014.089c0,0,0,.007,0,.01l-.511.179h0l.512-.179-.508.185-.115.043h0l-.015.058.014-.058-.4.142-.006-.012,0-.007a.631.631,0,0,1-.05-.225c0-.019-.005-.038-.007-.057l-.008-.055a9,9,0,0,1-.961.15l.218.62,1.18.679c.252-.048.484-.1.7-.146a5.617,5.617,0,0,0,2.88-1.491,3.017,3.017,0,0,0,.758-3.043l4.233-.977a1.876,1.876,0,0,0,1.3-.94l.036-.008.865.44,9.46-2.183Zm-17.643,1.6c0,.005-.008.008-.011.012l-.031.028-.786-.307-.013.012a.123.123,0,0,0-.02.035v0a.113.113,0,0,0-.032-.07l.492-.213.493-.212A.5.5,0,0,1-143.749,487.891Z" transform="translate(147.737 -479.827)" fill="#df0000"/>
        <path id="Path_1639" data-name="Path 1639" d="M-122.6,502.115a.06.06,0,0,0-.009-.037l-.19.091.184,0A.145.145,0,0,0-122.6,502.115Z" transform="translate(132.591 -494.992)" fill="#df0000"/>
      </g>
    </g>
  </g>
</svg>
