<svg xmlns="http://www.w3.org/2000/svg" width="59.084" height="39.533" viewBox="0 0 59.084 39.533">
  <g id="icon-bef" transform="translate(-516.719 -3809.815)">
    <path id="bxs-quote-alt-right" d="M2.246,30.7l.057.384.059-.014A10.278,10.278,0,1,0,12.409,18.638a10.216,10.216,0,0,0-1.485.148,8.183,8.183,0,0,1,.58-1.553,9.622,9.622,0,0,1,1.071-1.928,11.38,11.38,0,0,1,1.373-1.683,15.529,15.529,0,0,1,1.581-1.38,9.706,9.706,0,0,1,1.631-1.058,8.669,8.669,0,0,1,1.485-.8l1.231-.507,1.083-.45L19.853,5l-1.364.329c-.436.11-.968.238-1.574.391a12.39,12.39,0,0,0-2.015.713A14.29,14.29,0,0,0,12.553,7.5a21.451,21.451,0,0,0-2.492,1.581,17.9,17.9,0,0,0-2.4,2.156,16.011,16.011,0,0,0-2.076,2.654,18.552,18.552,0,0,0-1.6,2.967,25.3,25.3,0,0,0-1.069,3.052,27.571,27.571,0,0,0-.877,5.566,28.452,28.452,0,0,0,.064,3.99q.048.618.144,1.231Zm25.124,0,.057.384.059-.014a10.524,10.524,0,1,0,8.563-12.279,8.183,8.183,0,0,1,.58-1.553A9.622,9.622,0,0,1,37.7,15.305a11.38,11.38,0,0,1,1.373-1.683,15.527,15.527,0,0,1,1.581-1.38,9.706,9.706,0,0,1,1.631-1.058,8.668,8.668,0,0,1,1.485-.8L45,9.878c.687-.281,1.08-.445,1.08-.445L44.975,5l-1.364.329c-.436.11-.968.238-1.574.391a12.389,12.389,0,0,0-2.015.713A14.291,14.291,0,0,0,37.675,7.5a21.45,21.45,0,0,0-2.492,1.581,17.9,17.9,0,0,0-2.4,2.156,16.012,16.012,0,0,0-2.076,2.654,18.552,18.552,0,0,0-1.6,2.967,25.3,25.3,0,0,0-1.069,3.052,27.571,27.571,0,0,0-.877,5.566,28.453,28.453,0,0,0,.064,3.99q.051.616.146,1.227Z" transform="translate(514.72 3804.815)" fill="#58595b" opacity="0.1"/>
    <path id="bxs-quote-alt-right-2" data-name="bxs-quote-alt-right" d="M2.271,33.348l.063.423.066-.015A11.339,11.339,0,1,0,13.484,20.046a11.271,11.271,0,0,0-1.638.164,9.028,9.028,0,0,1,.64-1.714,10.616,10.616,0,0,1,1.182-2.127,12.555,12.555,0,0,1,1.514-1.857,17.132,17.132,0,0,1,1.744-1.522,10.708,10.708,0,0,1,1.8-1.167,9.564,9.564,0,0,1,1.638-.882l1.358-.559,1.194-.5L21.7,5l-1.5.363c-.481.121-1.068.262-1.736.431a13.669,13.669,0,0,0-2.223.786,15.765,15.765,0,0,0-2.59,1.177A23.665,23.665,0,0,0,10.894,9.5a19.744,19.744,0,0,0-2.646,2.379,17.665,17.665,0,0,0-2.291,2.928A20.467,20.467,0,0,0,4.189,18.08a27.913,27.913,0,0,0-1.179,3.367,30.418,30.418,0,0,0-.968,6.141,31.389,31.389,0,0,0,.071,4.4q.053.682.159,1.358Zm27.718,0,.063.423.066-.015A11.611,11.611,0,1,0,39.565,20.21,9.028,9.028,0,0,1,40.2,18.5a10.615,10.615,0,0,1,1.182-2.127A12.554,12.554,0,0,1,42.9,14.512a17.132,17.132,0,0,1,1.744-1.522,10.708,10.708,0,0,1,1.8-1.167,9.564,9.564,0,0,1,1.638-.882l1.358-.559c.758-.31,1.192-.491,1.192-.491L49.413,5l-1.5.363c-.481.121-1.068.262-1.736.431a13.668,13.668,0,0,0-2.223.786,15.766,15.766,0,0,0-2.59,1.177A23.665,23.665,0,0,0,38.61,9.505a19.744,19.744,0,0,0-2.646,2.379,17.666,17.666,0,0,0-2.291,2.928A20.467,20.467,0,0,0,31.9,18.085a27.913,27.913,0,0,0-1.179,3.367,30.419,30.419,0,0,0-.968,6.141,31.391,31.391,0,0,0,.071,4.4q.056.679.161,1.353Z" transform="translate(523.256 3806.622)" fill="#0096b6"/>
  </g>
</svg>
