<svg xmlns="http://www.w3.org/2000/svg" width="50" height="50" viewBox="0 0 50 50">
  <g id="location-circle" transform="translate(-1290 -714)">
    <circle id="Ellipse_11847" data-name="Ellipse 11847" cx="25" cy="25" r="25" transform="translate(1290 714)" fill="#f2f4f7"/>
    <g id="location_twotone" data-name="location/twotone" transform="translate(1300 724)">
      <g id="location">
        <g id="location-2" data-name="location">
          <path id="Vector" d="M7.8,3.9A3.9,3.9,0,1,1,3.9,0,3.9,3.9,0,0,1,7.8,3.9Z" transform="translate(11.1 8.988)" fill="none" stroke="#0096b6" stroke-width="2" opacity="0.4"/>
          <path id="Vector-2" data-name="Vector" d="M.3,8.113C2.766-2.712,18.8-2.7,21.253,8.125c1.438,6.35-2.513,11.725-5.975,15.05a6.492,6.492,0,0,1-9.012,0C2.816,19.85-1.134,14.463.3,8.113Z" transform="translate(4.222 2.5)" fill="none" stroke="#0096b6" stroke-width="2"/>
          <path id="Vector-3" data-name="Vector" d="M0,0H30V30H0Z" transform="translate(30 30) rotate(180)" fill="none" opacity="0"/>
        </g>
      </g>
    </g>
  </g>
</svg>
