<svg xmlns="http://www.w3.org/2000/svg" width="56.536" height="61.935" viewBox="0 0 56.536 61.935">
  <g id="play-vid" transform="translate(-463.508 -2621.451)">
    <path id="Path_1646" data-name="Path 1646" d="M24.513,55.736C38.4,50.579,51.2,41.54,59.235,28.262H59.23C48.316,10.579,29-.458,9.277-2.7.336,16.333.662,40.1,9.328,59.235a77.583,77.583,0,0,0,15.185-3.5Z" transform="translate(460.809 2624.15)" fill="#d81505"/>
    <path id="Path_1647" data-name="Path 1647" d="M18.184,7.559a1,1,0,0,1,0,1.648l-13.235,9.1a1,1,0,0,1-1.567-.824V-.716A1,1,0,0,1,4.949-1.54Z" transform="translate(477.617 2643.617)" fill="#fff"/>
  </g>
</svg>
