<svg xmlns="http://www.w3.org/2000/svg" width="32.684" height="32.684" viewBox="0 0 32.684 32.684">
  <path id="question" d="M26.283,32.627a16.334,16.334,0,1,1,6.344-6.344L33.2,33.2Zm-.765-3.344,4.108.342-.342-4.108.272-.452a13.068,13.068,0,1,0-4.489,4.489ZM18.342,26.51a1.634,1.634,0,1,1,1.635-1.634A1.634,1.634,0,0,1,18.342,26.51Zm1.634-4.9H16.708V19.976a3.633,3.633,0,0,1,1.6-2.895,8.052,8.052,0,0,1,.909-.626,1.634,1.634,0,1,0-2.507-1.382H13.439a4.9,4.9,0,1,1,7.525,4.143,5.762,5.762,0,0,0-.628.426,3.509,3.509,0,0,0-.36.334Z" transform="translate(-2 -2)" fill="#fff"/>
</svg>
