<svg xmlns="http://www.w3.org/2000/svg" width="23.991" height="24" viewBox="0 0 23.991 24">
  <g id="stamp" transform="translate(-0.101 0.001)">
    <path id="Path_56765" data-name="Path 56765" d="M14.1,16.968H10.54c0-2.592-.223-5.67,1.881-9.909a4.89,4.89,0,1,0-8.753.023,17.112,17.112,0,0,1,1.869,7.631v2.255H1.976A1.877,1.877,0,0,0,.1,18.843v1.172a1.173,1.173,0,0,0,1.172,1.172h.088v1.641A1.173,1.173,0,0,0,2.533,24H13.545a1.173,1.173,0,0,0,1.172-1.172V21.186H14.8a1.173,1.173,0,0,0,1.172-1.172V18.843A1.877,1.877,0,0,0,14.1,16.968ZM4.924,6.45a3.484,3.484,0,1,1,6.237-.016c-2.238,4.51-2.027,7.826-2.027,10.534H6.943C6.943,14.395,7.189,10.953,4.924,6.45ZM13.31,22.593H2.767V21.186H13.31Zm1.26-2.812H1.507v-.937a.469.469,0,0,1,.469-.469H14.1a.469.469,0,0,1,.469.469Z" transform="translate(0 0)" fill="#ea1503"/>
    <path id="Path_56766" data-name="Path 56766" d="M277.525,111.251a5.625,5.625,0,1,0,5.625,5.625A5.631,5.631,0,0,0,277.525,111.251Zm0,9.844a4.219,4.219,0,1,1,4.219-4.219A4.224,4.224,0,0,1,277.525,121.095Z" transform="translate(-259.058 -106.037)" fill="#ea1503"/>
    <path id="Path_56767" data-name="Path 56767" d="M353.467,188.575a.7.7,0,0,0-.994.013l-.77.79-.77-.79a.7.7,0,0,0-1.007.982l.8.816-.8.816a.7.7,0,0,0,1.007.982l.77-.79.77.79a.7.7,0,0,0,1.007-.982l-.8-.816.8-.816A.7.7,0,0,0,353.467,188.575Z" transform="translate(-333.236 -179.546)" fill="#ea1503"/>
  </g>
</svg>
