<svg xmlns="http://www.w3.org/2000/svg" xmlns:xlink="http://www.w3.org/1999/xlink" width="42.106" height="22.601" viewBox="0 0 42.106 22.601">
  <defs>
    <linearGradient id="linear-gradient" x1="-76.231" y1="0.084" x2="-76.231" y2="0.917" gradientUnits="objectBoundingBox">
      <stop offset="0" stop-color="#00b2b2"/>
      <stop offset="0.26" stop-color="#0093c1"/>
      <stop offset="0.48" stop-color="#0080cb"/>
      <stop offset="1" stop-color="#9d2ba5"/>
    </linearGradient>
    <linearGradient id="linear-gradient-2" x1="-187.419" y1="-2.276" x2="-187.419" y2="3.232" xlink:href="#linear-gradient"/>
    <linearGradient id="linear-gradient-3" x1="-505.649" y1="-3.262" x2="-505.649" y2="3.028" xlink:href="#linear-gradient"/>
  </defs>
  <g id="amer" transform="translate(0 0)">
    <g id="Group_125827" data-name="Group 125827" transform="translate(21.299 0)">
      <path id="Path_129922" data-name="Path 129922" d="M178.92,28.25a.687.687,0,0,0,.487-.2l5.179-5.159h10.433a3.215,3.215,0,0,0,3.21-3.211V8.861a3.215,3.215,0,0,0-3.21-3.211H181.44a3.215,3.215,0,0,0-3.211,3.211v4.115a.69.69,0,0,0,1.38,0V8.861A1.833,1.833,0,0,1,181.44,7.03h13.578a1.833,1.833,0,0,1,1.831,1.831V19.68a1.833,1.833,0,0,1-1.831,1.831H184.3a.689.689,0,0,0-.487.2l-4.2,4.189V18.812a.69.69,0,0,0-1.38,0v8.75a.691.691,0,0,0,.689.69Z" transform="translate(-177.421 -5.65)" fill="url(#linear-gradient)"/>
      <path id="Path_129923" data-name="Path 129923" d="M230.082,87.222a4.525,4.525,0,0,0,4-2.405.69.69,0,0,0-1.218-.648,3.152,3.152,0,0,1-5.569,0,.69.69,0,1,0-1.218.648A4.527,4.527,0,0,0,230.082,87.222Z" transform="translate(-219.274 -74.123)" fill="url(#linear-gradient-2)"/>
      <circle id="Ellipse_11722" data-name="Ellipse 11722" cx="1.497" cy="1.497" r="1.497" transform="translate(0 11.665)" fill="url(#linear-gradient-3)"/>
    </g>
    <g id="Group_125828" data-name="Group 125828" transform="translate(0 4.494)">
      <path id="Path_129924" data-name="Path 129924" d="M8.659,47.907a3.984,3.984,0,0,1-.839-.09l.1-1.073a3.019,3.019,0,0,0,.469.036,1.463,1.463,0,0,0,1.253-.531,2.106,2.106,0,0,0,.4-1.3,8.155,8.155,0,0,0-.369-1.966l1.073-.325c.012.061.036.162.072.306s.062.245.077.3.037.14.068.248.056.194.077.258.048.134.082.212.068.15.1.217a1.042,1.042,0,0,0,1.037.533h.225v1.3h-.325A1.716,1.716,0,0,1,11,45.672a2.888,2.888,0,0,1-.744,1.628,2.113,2.113,0,0,1-1.592.608Z" transform="translate(-7.82 -38.934)" fill="#2a206a"/>
      <path id="Path_129925" data-name="Path 129925" d="M43.419,60.688c-.078,0-.146-.063-.2-.19a1.278,1.278,0,0,1,0-.919c.057-.126.125-.19.2-.19h2.155v1.3Z" transform="translate(-38.756 -53.592)" fill="#2a206a"/>
      <path id="Path_129926" data-name="Path 129926" d="M60.819,60.688c-.078,0-.146-.063-.2-.19a1.278,1.278,0,0,1,0-.919c.057-.126.125-.19.2-.19h2.155v1.3Z" transform="translate(-54.001 -53.592)" fill="#2a206a"/>
      <path id="Path_129927" data-name="Path 129927" d="M78.219,60.688c-.078,0-.146-.063-.2-.19a1.278,1.278,0,0,1,0-.919c.057-.126.125-.19.2-.19h2.155v1.3Z" transform="translate(-69.246 -53.592)" fill="#2a206a"/>
      <path id="Path_129928" data-name="Path 129928" d="M98.666,42.264a3.68,3.68,0,0,1-1.867-.451,1.5,1.5,0,0,1-1.109.442h-.072c-.078,0-.146-.063-.2-.19a1.278,1.278,0,0,1,0-.919c.057-.126.125-.19.2-.19h.154a.69.69,0,0,0,.555-.253,4.335,4.335,0,0,0,.492-.821c.012-.024.021-.042.027-.055l.022-.045a.509.509,0,0,0,.022-.055,3.491,3.491,0,0,1,.753-1.028,1.606,1.606,0,0,1,1.095-.352,1.516,1.516,0,0,1,1.245.6,2.326,2.326,0,0,1,.478,1.488,4.132,4.132,0,0,1-.307,1.623,4.6,4.6,0,0,1-1.488.2Zm.207-1.19a5.379,5.379,0,0,0,.55-.027,3.155,3.155,0,0,0,.036-.451,1.384,1.384,0,0,0-.2-.77.63.63,0,0,0-.559-.3.782.782,0,0,0-.569.23,3.982,3.982,0,0,0-.6.943c-.042.084-.066.135-.072.154a3.929,3.929,0,0,0,1.407.225Z" transform="translate(-84.491 -35.158)" fill="#2a206a"/>
      <path id="Path_129929" data-name="Path 129929" d="M139.273,12.778l.253.613a1.53,1.53,0,0,1-.983.316,3.018,3.018,0,0,1-.784-.144,2.973,2.973,0,0,0-.668-.144.813.813,0,0,0-.577.27l-.424-.505a1.214,1.214,0,0,1,1-.6,3.443,3.443,0,0,1,.77.162,3.426,3.426,0,0,0,.789.162,1.452,1.452,0,0,0,.622-.126Zm-.883,6.9h-1.144V14.139l1.144-.1v5.636Z" transform="translate(-120.202 -12.58)" fill="#2a206a"/>
      <path id="Path_129930" data-name="Path 129930" d="M39.05,90.837q-.169-.6-.338-1.141H36.894q-.169.539-.338,1.141H35.88a31.207,31.207,0,0,1,1.585-4.387h.676a30.525,30.525,0,0,1,1.585,4.387h-.676Zm-1.247-3.7a19.891,19.891,0,0,0-.733,2h1.467A19.891,19.891,0,0,0,37.8,87.134Z" transform="translate(-32.404 -77.3)" fill="#00abaf"/>
      <path id="Path_129931" data-name="Path 129931" d="M72.533,96.306v2.557H71.9V95.9a3.1,3.1,0,0,1,1.341-.295,1.309,1.309,0,0,1,.9.289,2.185,2.185,0,0,1,1.071-.289,1.329,1.329,0,0,1,.962.32,1.179,1.179,0,0,1,.329.889v2.042h-.633v-2q0-.721-.682-.721a1.335,1.335,0,0,0-.752.219,1.763,1.763,0,0,1,.082.57v1.93H73.9v-2q0-.721-.678-.721a1.45,1.45,0,0,0-.682.164Z" transform="translate(-63.963 -85.326)" fill="#00abaf"/>
      <path id="Path_129932" data-name="Path 129932" d="M117.882,98.719a2.522,2.522,0,0,1-1.078.219,1.538,1.538,0,0,1-1.655-1.667,1.747,1.747,0,0,1,.408-1.2,1.383,1.383,0,0,1,1.09-.461,1.24,1.24,0,0,1,.962.389,1.429,1.429,0,0,1,.354,1c0,.121-.009.261-.025.42H115.8a.957.957,0,0,0,1.059.977,2.322,2.322,0,0,0,.915-.194l.107.514Zm-1.235-2.589a.746.746,0,0,0-.58.235,1.106,1.106,0,0,0-.26.649h1.536a.694.694,0,0,0,.006-.1.87.87,0,0,0-.178-.561.63.63,0,0,0-.523-.223Z" transform="translate(-101.856 -85.326)" fill="#00abaf"/>
      <path id="Path_129933" data-name="Path 129933" d="M144.341,95.911a2.662,2.662,0,0,1,1.315-.3,2.132,2.132,0,0,1,.445.043l-.088.533a.982.982,0,0,0-.313-.043,1.526,1.526,0,0,0-.727.163v2.557h-.633V95.911Z" transform="translate(-127.43 -85.326)" fill="#00abaf"/>
    </g>
  </g>
</svg>
