<svg id="AppStore" xmlns="http://www.w3.org/2000/svg" width="126.625" height="37.908" viewBox="0 0 126.625 37.908">
  <g id="Group_197" data-name="Group 197" transform="translate(10.844 5.894)">
    <path id="Path_470" data-name="Path 470" d="M309.652,331.106a5.49,5.49,0,0,1,2.618-4.611,5.622,5.622,0,0,0-4.433-2.4c-1.865-.2-3.674,1.116-4.623,1.116-.969,0-2.432-1.1-4.007-1.066a5.9,5.9,0,0,0-4.969,3.032c-2.149,3.719-.545,9.183,1.512,12.189,1.029,1.473,2.233,3.117,3.807,3.059,1.541-.063,2.116-.983,3.975-.983,1.842,0,2.382.983,3.988.944,1.652-.024,2.694-1.479,3.688-2.963a12.1,12.1,0,0,0,1.686-3.436,5.311,5.311,0,0,1-3.242-4.883" transform="translate(-293.218 -318.244)" fill="#e2e2e2"/>
    <path id="Path_471" data-name="Path 471" d="M320.938,313.577a5.408,5.408,0,0,0,1.238-3.876,5.506,5.506,0,0,0-3.563,1.843,5.154,5.154,0,0,0-1.27,3.733,4.557,4.557,0,0,0,3.6-1.7" transform="translate(-307.537 -309.701)" fill="#e2e2e2"/>
    <path id="Path_472" data-name="Path 472" d="M373.111,350.3h-2.152l-1.18-3.706h-4.1l-1.123,3.706h-2.1l4.062-12.616h2.509Zm-3.687-5.26-1.067-3.294c-.112-.337-.325-1.13-.636-2.378h-.038q-.188.806-.6,2.378l-1.049,3.294Z" transform="translate(-334.364 -326.329)" fill="#e2e2e2"/>
    <path id="Path_473" data-name="Path 473" d="M401.574,350.521a5.146,5.146,0,0,1-1.261,3.667,3.7,3.7,0,0,1-2.8,1.2,2.807,2.807,0,0,1-2.6-1.29v4.774h-2.02v-9.794c0-.975-.025-1.97-.075-2.992h1.778l.114,1.442h.037a3.6,3.6,0,0,1,5.755-.359,5.031,5.031,0,0,1,1.075,3.353m-2.059.073a3.749,3.749,0,0,0-.6-2.191,2.073,2.073,0,0,0-1.76-.9,2.1,2.1,0,0,0-1.356.5,2.3,2.3,0,0,0-.8,1.3,2.651,2.651,0,0,0-.094.615v1.518a2.439,2.439,0,0,0,.608,1.676,2.015,2.015,0,0,0,1.582.682,2.068,2.068,0,0,0,1.777-.88,3.863,3.863,0,0,0,.637-2.321" transform="translate(-352.401 -331.21)" fill="#e2e2e2"/>
    <path id="Path_474" data-name="Path 474" d="M427.359,350.521a5.155,5.155,0,0,1-1.26,3.667,3.7,3.7,0,0,1-2.806,1.2,2.806,2.806,0,0,1-2.6-1.29v4.774h-2.022v-9.794c0-.975-.025-1.97-.074-2.992h1.777l.112,1.442h.038a3.6,3.6,0,0,1,5.755-.359,5.035,5.035,0,0,1,1.075,3.353m-2.06.073a3.755,3.755,0,0,0-.6-2.191,2.067,2.067,0,0,0-1.758-.9,2.1,2.1,0,0,0-1.358.5,2.3,2.3,0,0,0-.8,1.3,2.679,2.679,0,0,0-.095.615v1.518a2.441,2.441,0,0,0,.608,1.676,2.029,2.029,0,0,0,1.582.682,2.064,2.064,0,0,0,1.778-.88,3.869,3.869,0,0,0,.637-2.321" transform="translate(-367.724 -331.21)" fill="#e2e2e2"/>
    <path id="Path_475" data-name="Path 475" d="M457.556,346.489a3.37,3.37,0,0,1-1.121,2.622,4.981,4.981,0,0,1-3.436,1.1,6,6,0,0,1-3.268-.786l.468-1.684a5.624,5.624,0,0,0,2.92.787,2.75,2.75,0,0,0,1.777-.516,1.677,1.677,0,0,0,.637-1.375,1.759,1.759,0,0,0-.524-1.291,4.874,4.874,0,0,0-1.74-.975q-3.314-1.234-3.314-3.613a3.181,3.181,0,0,1,1.169-2.543,4.619,4.619,0,0,1,3.1-.993,6.118,6.118,0,0,1,2.863.6l-.506,1.647a5,5,0,0,0-2.424-.581,2.463,2.463,0,0,0-1.674.527,1.5,1.5,0,0,0-.506,1.141,1.544,1.544,0,0,0,.58,1.234,6.542,6.542,0,0,0,1.835.975,6.2,6.2,0,0,1,2.394,1.533,3.2,3.2,0,0,1,.772,2.188" transform="translate(-386.222 -326.057)" fill="#e2e2e2"/>
    <path id="Path_476" data-name="Path 476" d="M477.415,344.55h-2.229v4.418q0,1.685,1.178,1.684a3.6,3.6,0,0,0,.9-.093l.056,1.534a4.572,4.572,0,0,1-1.572.224,2.426,2.426,0,0,1-1.873-.732,3.578,3.578,0,0,1-.674-2.452v-4.585h-1.326V343.03H473.2v-1.667l1.985-.6v2.266h2.229Z" transform="translate(-399.382 -328.16)" fill="#e2e2e2"/>
    <path id="Path_477" data-name="Path 477" d="M497.2,350.561A4.981,4.981,0,0,1,496,354a4.271,4.271,0,0,1-3.331,1.386,4.072,4.072,0,0,1-3.192-1.327,4.842,4.842,0,0,1-1.188-3.351,4.953,4.953,0,0,1,1.225-3.462,4.25,4.25,0,0,1,3.3-1.346,4.156,4.156,0,0,1,3.219,1.328,4.781,4.781,0,0,1,1.161,3.329m-2.094.046a4.066,4.066,0,0,0-.542-2.145,2,2,0,0,0-1.817-1.085,2.028,2.028,0,0,0-1.852,1.085,4.122,4.122,0,0,0-.542,2.183,4.044,4.044,0,0,0,.542,2.146,2.073,2.073,0,0,0,3.654-.017,4.112,4.112,0,0,0,.557-2.168" transform="translate(-409.135 -331.214)" fill="#e2e2e2"/>
    <path id="Path_478" data-name="Path 478" d="M519.313,347.861a3.481,3.481,0,0,0-.637-.056,1.91,1.91,0,0,0-1.647.8,3.031,3.031,0,0,0-.5,1.8v4.773H514.5v-6.233q0-1.57-.059-2.862h1.76l.074,1.741h.056a3.121,3.121,0,0,1,1.01-1.442,2.435,2.435,0,0,1,1.461-.488,3.33,3.33,0,0,1,.506.037Z" transform="translate(-424.677 -331.208)" fill="#e2e2e2"/>
    <path id="Path_479" data-name="Path 479" d="M536.882,350.18a4.739,4.739,0,0,1-.073.915h-6.063a2.633,2.633,0,0,0,.88,2.061,3,3,0,0,0,1.982.636,6.67,6.67,0,0,0,2.453-.431l.317,1.4a7.586,7.586,0,0,1-3.05.561A4.424,4.424,0,0,1,530,354.084a4.6,4.6,0,0,1-1.206-3.34,5.213,5.213,0,0,1,1.123-3.426,3.876,3.876,0,0,1,3.181-1.458,3.391,3.391,0,0,1,2.978,1.458,4.914,4.914,0,0,1,.8,2.862m-1.927-.525a2.736,2.736,0,0,0-.392-1.553,1.767,1.767,0,0,0-1.611-.843,1.916,1.916,0,0,0-1.609.823,3.023,3.023,0,0,0-.6,1.574Z" transform="translate(-433.207 -331.188)" fill="#e2e2e2"/>
    <path id="Path_480" data-name="Path 480" d="M369.57,317.483h-1.055l-.579-1.82h-2.015l-.551,1.82H364.34l2-6.2h1.232Zm-1.81-2.584-.524-1.619c-.056-.164-.159-.554-.313-1.167H366.9c-.06.263-.159.653-.293,1.167L366.1,314.9Z" transform="translate(-335.481 -310.643)" fill="#e2e2e2"/>
    <path id="Path_481" data-name="Path 481" d="M383.226,315.545l-1.692,4.468h-.966l-1.636-4.468H380l.763,2.363q.192.589.322,1.131h.027c.073-.325.18-.7.323-1.131l.752-2.363Z" transform="translate(-344.151 -313.174)" fill="#e2e2e2"/>
    <path id="Path_482" data-name="Path 482" d="M395.247,319.88h-.893l-.074-.515h-.027a1.529,1.529,0,0,1-1.3.616,1.358,1.358,0,0,1-1.023-.4,1.272,1.272,0,0,1-.348-.91,1.389,1.389,0,0,1,.685-1.251,3.548,3.548,0,0,1,1.926-.422v-.085q0-.881-.928-.882a2.1,2.1,0,0,0-1.168.331l-.2-.652a2.874,2.874,0,0,1,1.535-.385q1.757,0,1.756,1.849v1.646a6.874,6.874,0,0,0,.065,1.065m-1.03-1.535v-.69q-1.646-.027-1.646.9a.673.673,0,0,0,.192.525.7.7,0,0,0,.485.174,1,1,0,0,0,.608-.207.843.843,0,0,0,.342-.528Z" transform="translate(-351.666 -313.04)" fill="#e2e2e2"/>
    <path id="Path_483" data-name="Path 483" d="M405.664,311.4a.568.568,0,0,1-.177.433.625.625,0,0,1-.45.164.568.568,0,0,1-.417-.168.582.582,0,0,1-.171-.428.558.558,0,0,1,.175-.423.645.645,0,0,1,.864,0,.554.554,0,0,1,.176.421m-.112,5.8h-.993v-4.468h.993Z" transform="translate(-359.314 -310.36)" fill="#e2e2e2"/>
    <rect id="Rectangle_314" data-name="Rectangle 314" width="0.992" height="6.519" transform="translate(48.004 0.321)" fill="#e2e2e2"/>
    <path id="Path_484" data-name="Path 484" d="M421.216,319.88h-.893l-.072-.515h-.026a1.535,1.535,0,0,1-1.307.616,1.355,1.355,0,0,1-1.021-.4,1.272,1.272,0,0,1-.35-.91,1.39,1.39,0,0,1,.685-1.251,3.548,3.548,0,0,1,1.926-.422v-.085q0-.881-.928-.882a2.086,2.086,0,0,0-1.168.331l-.2-.652a2.876,2.876,0,0,1,1.535-.385q1.758,0,1.757,1.849v1.646a6.849,6.849,0,0,0,.063,1.065m-1.029-1.535v-.69q-1.648-.027-1.646.9a.674.674,0,0,0,.192.525.7.7,0,0,0,.485.174,1,1,0,0,0,.608-.207.85.85,0,0,0,.342-.528Z" transform="translate(-367.098 -313.04)" fill="#e2e2e2"/>
    <path id="Path_485" data-name="Path 485" d="M434.9,314.714a2.543,2.543,0,0,1-.624,1.8,1.772,1.772,0,0,1-1.353.6,1.507,1.507,0,0,1-1.407-.79H431.5l-.054.69H430.6c.023-.361.035-.764.035-1.2v-5.315h.994v2.7a1.54,1.54,0,0,1,1.434-.745,1.637,1.637,0,0,1,1.326.622,2.477,2.477,0,0,1,.515,1.64m-1.009.037a1.789,1.789,0,0,0-.3-1.067,1.056,1.056,0,0,0-1.535-.212,1.154,1.154,0,0,0-.394.635,1.3,1.3,0,0,0-.036.312v.781a1.113,1.113,0,0,0,.306.791,1.011,1.011,0,0,0,.77.33,1.022,1.022,0,0,0,.873-.422,1.888,1.888,0,0,0,.314-1.148" transform="translate(-374.853 -310.172)" fill="#e2e2e2"/>
    <rect id="Rectangle_315" data-name="Rectangle 315" width="0.994" height="6.519" transform="translate(61.52 0.321)" fill="#e2e2e2"/>
    <path id="Path_486" data-name="Path 486" d="M454.873,317.422a2.468,2.468,0,0,1-.037.45h-2.979a1.3,1.3,0,0,0,.43,1.012,1.478,1.478,0,0,0,.976.314,3.26,3.26,0,0,0,1.2-.212l.155.691a3.736,3.736,0,0,1-1.5.275,2.175,2.175,0,0,1-1.633-.611,2.26,2.26,0,0,1-.592-1.642,2.551,2.551,0,0,1,.553-1.683,1.9,1.9,0,0,1,1.561-.717,1.671,1.671,0,0,1,1.463.717,2.4,2.4,0,0,1,.4,1.406m-.948-.257a1.359,1.359,0,0,0-.192-.763.872.872,0,0,0-.792-.414.949.949,0,0,0-.793.4,1.507,1.507,0,0,0-.292.773Z" transform="translate(-386.916 -313.028)" fill="#e2e2e2"/>
    <path id="Path_487" data-name="Path 487" d="M474.521,317.609a2.446,2.446,0,0,1-.59,1.692,2.1,2.1,0,0,1-1.637.681,2,2,0,0,1-1.568-.653,2.379,2.379,0,0,1-.583-1.646,2.422,2.422,0,0,1,.6-1.7,2.087,2.087,0,0,1,1.622-.661,2.048,2.048,0,0,1,1.583.652,2.359,2.359,0,0,1,.569,1.636m-1.031.024a1.994,1.994,0,0,0-.267-1.054.979.979,0,0,0-.889-.53,1,1,0,0,0-.911.53,2.023,2.023,0,0,0-.267,1.073,2,2,0,0,0,.267,1.055,1.006,1.006,0,0,0,.9.532.989.989,0,0,0,.888-.54,1.984,1.984,0,0,0,.277-1.065" transform="translate(-398.352 -313.041)" fill="#e2e2e2"/>
    <path id="Path_488" data-name="Path 488" d="M488.384,319.878h-.993v-2.566q0-1.187-.9-1.186a.9.9,0,0,0-.717.327,1.145,1.145,0,0,0-.276.768v2.657H484.5v-3.191c0-.394-.013-.819-.036-1.28h.873l.046.691h.028a1.428,1.428,0,0,1,.515-.532,1.683,1.683,0,0,1,.9-.249,1.429,1.429,0,0,1,1.041.406,1.961,1.961,0,0,1,.515,1.48Z" transform="translate(-406.863 -313.037)" fill="#e2e2e2"/>
    <path id="Path_489" data-name="Path 489" d="M506.153,314.66H505.06v2.171c0,.551.191.827.578.827a1.693,1.693,0,0,0,.439-.046l.029.755a2.233,2.233,0,0,1-.772.11,1.192,1.192,0,0,1-.918-.358,1.761,1.761,0,0,1-.333-1.206V314.66h-.653v-.744h.653V313.1l.974-.294v1.112h1.1Z" transform="translate(-418.132 -311.544)" fill="#e2e2e2"/>
    <path id="Path_490" data-name="Path 490" d="M517.4,317.013H516.4v-2.548c0-.8-.3-1.2-.9-1.2a.949.949,0,0,0-.947.7,1.223,1.223,0,0,0-.046.358v2.694h-.992v-6.517h.992v2.685h.018a1.505,1.505,0,0,1,1.341-.726,1.386,1.386,0,0,1,1.023.4,2.04,2.04,0,0,1,.5,1.5Z" transform="translate(-424.125 -310.172)" fill="#e2e2e2"/>
    <path id="Path_491" data-name="Path 491" d="M529.858,317.422a2.271,2.271,0,0,1-.037.45h-2.978a1.3,1.3,0,0,0,.431,1.012,1.471,1.471,0,0,0,.974.314,3.243,3.243,0,0,0,1.2-.212l.157.691a3.749,3.749,0,0,1-1.5.275,2.175,2.175,0,0,1-1.632-.611,2.258,2.258,0,0,1-.593-1.642,2.561,2.561,0,0,1,.552-1.683,1.905,1.905,0,0,1,1.561-.717,1.666,1.666,0,0,1,1.464.717,2.389,2.389,0,0,1,.4,1.406m-.948-.257a1.363,1.363,0,0,0-.192-.763.87.87,0,0,0-.791-.414.944.944,0,0,0-.791.4,1.482,1.482,0,0,0-.293.773Z" transform="translate(-431.473 -313.028)" fill="#e2e2e2"/>
  </g>
  <path id="Path_451" data-name="Path 451" d="M387.993,295.176H271.62a5.168,5.168,0,0,0-5.126,5.18V327.9a5.168,5.168,0,0,0,5.126,5.181H387.993a5.168,5.168,0,0,0,5.126-5.181V300.356A5.168,5.168,0,0,0,387.993,295.176Zm3.43,32.728a3.459,3.459,0,0,1-3.43,3.467H271.62a3.459,3.459,0,0,1-3.43-3.467V300.356a3.46,3.46,0,0,1,3.43-3.468H387.993a3.46,3.46,0,0,1,3.43,3.468Z" transform="translate(-266.494 -295.176)" fill="#e2e2e2"/>
</svg>
