<svg xmlns="http://www.w3.org/2000/svg" width="18.372" height="18.372" viewBox="0 0 18.372 18.372">
  <path id="calendar-dates" d="M18.535,7.512V4.756H16.7v.919H14.861V4.756H7.512v.919H5.674V4.756H3.837V7.512Zm0,1.837H3.837v9.186h14.7ZM16.7,2.919h1.837a1.837,1.837,0,0,1,1.837,1.837V18.535a1.837,1.837,0,0,1-1.837,1.837H3.837A1.837,1.837,0,0,1,2,18.535V4.756A1.837,1.837,0,0,1,3.837,2.919H5.674V2H7.512v.919h7.349V2H16.7ZM8.43,13.023H6.593V11.186H8.43Zm3.674,0H10.267V11.186H12.1Zm3.674,0H13.942V11.186h1.837ZM8.43,16.7H6.593V14.861H8.43Zm3.674,0H10.267V14.861H12.1Z" transform="translate(-2 -2)" fill="#3ca078" fill-rule="evenodd"/>
</svg>
