<svg id="Captcha-AR" xmlns="http://www.w3.org/2000/svg" width="329.922" height="82.809" viewBox="0 0 329.922 82.809">
  <path id="Path_122419" data-name="Path 122419" d="M370.293,114.233H44.753A1.758,1.758,0,0,1,43,112.48V34.053A1.758,1.758,0,0,1,44.753,32.3H370.293a1.758,1.758,0,0,1,1.753,1.753V112.48A1.758,1.758,0,0,1,370.293,114.233Z" transform="translate(-42.562 -31.862)" fill="#f9f9fa"/>
  <path id="Path_122420" data-name="Path 122420" d="M370.231,31.8H44.691A2.169,2.169,0,0,0,42.5,33.991v78.428a2.169,2.169,0,0,0,2.191,2.191H370.231a2.169,2.169,0,0,0,2.191-2.191V33.991A2.169,2.169,0,0,0,370.231,31.8Zm1.314,80.618a1.348,1.348,0,0,1-1.314,1.314H44.691a1.348,1.348,0,0,1-1.314-1.314V33.991a1.348,1.348,0,0,1,1.314-1.314H370.231a1.348,1.348,0,0,1,1.314,1.314Z" transform="translate(-42.5 -31.8)" fill="#d3d3d3"/>
  <g id="Group_125663" data-name="Group 125663">
    <g id="Group_125662" data-name="Group 125662" transform="translate(127.938)">
      <g id="Group_56840" data-name="Group 56840" transform="translate(151 4.791)">
        <path id="Path_122458" data-name="Path 122458" d="M79.765,83.46H61.7a2.425,2.425,0,0,1-2.4-2.4V63a2.425,2.425,0,0,1,2.4-2.4H79.765a2.425,2.425,0,0,1,2.4,2.4V81.065A2.381,2.381,0,0,1,79.765,83.46Z" transform="translate(-44.77 -35.555)" fill="#fff"/>
        <path id="Path_122459" data-name="Path 122459" d="M79.449,59.6H61.38a3.158,3.158,0,0,0-3.08,3.08V80.749a3.158,3.158,0,0,0,3.08,3.08H79.449a2.985,2.985,0,0,0,3.08-3.08V62.68A3.158,3.158,0,0,0,79.449,59.6ZM81.16,80.749a1.694,1.694,0,0,1-1.711,1.711H61.38a1.694,1.694,0,0,1-1.711-1.711V62.68a1.694,1.694,0,0,1,1.711-1.711H79.449A1.694,1.694,0,0,1,81.16,62.68Z" transform="translate(-44.455 -35.239)" fill="#b3b3b3"/>
      </g>
      <text id="أنا_لست_برنامج_روبوت" data-name="أنا لست برنامج روبوت" transform="translate(154.845 47.537)" fill="#4c4a4b" font-size="16" font-family="Almarai-Regular, Almarai"><tspan x="-139.856" y="0">أنا لست برنامج روبوت</tspan></text>
    </g>
    <g id="Group_125661" data-name="Group 125661" transform="translate(-241.907)">
      <path id="Path_122421" data-name="Path 122421" d="M382.894,53.622A16.2,16.2,0,0,0,370.1,47.4v7.974a8.027,8.027,0,0,1,7.01,4.031l-4.644,4.644h14.371V49.678Z" transform="translate(-83.028 -33.73)" fill="#1c3aa9"/>
      <path id="Path_122422" data-name="Path 122422" d="M375.26,70.019a8.212,8.212,0,0,1-7.01,4.031,8,8,0,0,1-6.747-3.593l4.557-4.557H351.6V80.271l4.119-4.119a16.156,16.156,0,0,0,25.062-.175Z" transform="translate(-80.74 -36.019)" fill="#b3b3b3"/>
      <path id="Path_122423" data-name="Path 122423" d="M353.44,47.488l3.856,3.856a16.025,16.025,0,0,0-5.7,12.268h7.974a8.137,8.137,0,0,1,3.417-6.66l4.82,4.82V47.4l-14.371.088Z" transform="translate(-80.74 -33.73)" fill="#4388f2"/>
      <g id="Group_55527" data-name="Group 55527" transform="translate(258.154 53.454)">
        <path id="Path_122424" data-name="Path 122424" d="M337.188,97.515a11.76,11.76,0,0,0-.088-1.84h.964v1.139h.088a1.764,1.764,0,0,1,1.665-1.314h.263v1.052h-.351a1.588,1.588,0,0,0-1.49,1.4c0,.175-.088.351-.088.526v3.155H337.1V97.515h.088Z" transform="translate(-337.1 -93.134)" fill="#b3b3b3"/>
        <path id="Path_122425" data-name="Path 122425" d="M342.152,98.842a1.908,1.908,0,0,0,2.015,2.1,6.586,6.586,0,0,0,1.665-.263l.175.789a4.856,4.856,0,0,1-2.015.351,2.738,2.738,0,0,1-2.892-2.979c0-1.753,1.052-3.242,2.8-3.242a2.506,2.506,0,0,1,2.454,2.8v.526l-4.206-.088Zm3.155-.7c0-.7-.263-1.753-1.49-1.753a1.8,1.8,0,0,0-1.665,1.753Z" transform="translate(-337.595 -93.146)" fill="#b3b3b3"/>
        <path id="Path_122426" data-name="Path 122426" d="M354.409,101.037a5.548,5.548,0,0,1-2.191.351,3.887,3.887,0,0,1-4.119-4.206,4.117,4.117,0,0,1,4.294-4.381,5.2,5.2,0,0,1,1.928.351l-.263.876a4.279,4.279,0,0,0-1.665-.351,3.087,3.087,0,0,0-3.242,3.418,3,3,0,0,0,3.155,3.33,5.185,5.185,0,0,0,1.753-.351Z" transform="translate(-338.461 -92.8)" fill="#b3b3b3"/>
        <path id="Path_122427" data-name="Path 122427" d="M358.115,98.708l-.876,2.629H356.1l2.8-8.237h1.314l2.8,8.237h-1.139l-.876-2.629Zm2.716-.789-.789-2.366a13.521,13.521,0,0,1-.438-1.49h0a9.572,9.572,0,0,1-.438,1.49l-.789,2.366Z" transform="translate(-339.451 -92.837)" fill="#b3b3b3"/>
        <path id="Path_122428" data-name="Path 122428" d="M365.388,93.175A12.305,12.305,0,0,1,367.4,93a3.213,3.213,0,0,1,2.278.7,2.174,2.174,0,0,1,.7,1.753,2.639,2.639,0,0,1-.613,1.753,3.327,3.327,0,0,1-2.541.876,2.7,2.7,0,0,1-.876-.088v3.33H365.3V93.175h.088Zm1.139,3.943a2.7,2.7,0,0,0,.876.088c1.314,0,2.1-.613,2.1-1.753,0-1.052-.789-1.577-1.928-1.577a2.725,2.725,0,0,0-.964.088v3.155h-.088Z" transform="translate(-340.589 -92.825)" fill="#b3b3b3"/>
        <path id="Path_122429" data-name="Path 122429" d="M374.341,93.976H371.8V93.1h6.134v.876h-2.541v7.361h-1.052V93.976Z" transform="translate(-341.393 -92.837)" fill="#b3b3b3"/>
        <path id="Path_122430" data-name="Path 122430" d="M385.109,101.037a5.548,5.548,0,0,1-2.191.351,3.887,3.887,0,0,1-4.119-4.206,4.117,4.117,0,0,1,4.294-4.381,5.2,5.2,0,0,1,1.928.351l-.263.876a4.279,4.279,0,0,0-1.665-.351,3.087,3.087,0,0,0-3.242,3.418,3,3,0,0,0,3.155,3.33,5.185,5.185,0,0,0,1.753-.351Z" transform="translate(-342.259 -92.8)" fill="#b3b3b3"/>
        <path id="Path_122431" data-name="Path 122431" d="M388.652,93.1v3.418h4.031V93.1h1.052v8.237h-1.052V97.481h-4.031v3.856H387.6V93.1Z" transform="translate(-343.347 -92.837)" fill="#b3b3b3"/>
        <path id="Path_122432" data-name="Path 122432" d="M397.928,98.708l-.876,2.629H396l2.8-8.237h1.314l2.8,8.237h-1.139l-.876-2.629Zm2.716-.789-.789-2.366a13.507,13.507,0,0,1-.438-1.49h0a9.576,9.576,0,0,1-.438,1.49l-.789,2.366Z" transform="translate(-344.387 -92.837)" fill="#b3b3b3"/>
      </g>
      <text id="الخصوصية_-_البنود" data-name="الخصوصية - البنود" transform="translate(315.829 75.537)" fill="#b3b3b3" font-size="8" font-family="SSTArabic-Roman, SST Arabic"><tspan x="-57.464" y="0">الخصوصية - البنود</tspan></text>
    </g>
  </g>
</svg>
