<svg xmlns="http://www.w3.org/2000/svg" width="8.6" height="8.6" viewBox="0 0 8.6 8.6">
  <g id="closeRateHome" transform="translate(-7.7 -7.7)">
    <path id="Path" d="M6.893.293a1,1,0,0,1,1.5,1.32l-.083.094-6.6,6.6a1,1,0,0,1-1.5-1.32l.083-.094Z" transform="translate(7.7 7.7)" fill="#3e444b"/>
    <path id="Path-2" data-name="Path" d="M.293.293A1,1,0,0,1,1.613.21l.094.083,6.6,6.6a1,1,0,0,1-1.32,1.5l-.094-.083-6.6-6.6A1,1,0,0,1,.293.293Z" transform="translate(7.7 7.7)" fill="#3e444b"/>
  </g>
</svg>
