<svg xmlns="http://www.w3.org/2000/svg" width="29.637" height="23.601" viewBox="0 0 29.637 23.601">
  <g id="CoOp-icon" transform="translate(0.25 0.251)">
    <g id="Group_125831" data-name="Group 125831">
      <path id="Subtraction_6" data-name="Subtraction 6" d="M-9908.7-2463.771a11.87,11.87,0,0,1-9.427-4.694,11.858,11.858,0,0,1,1.075-15.451,11.726,11.726,0,0,1,8.347-3.456,11.715,11.715,0,0,1,7.1,2.38,11.846,11.846,0,0,1,3.207,15.15l-.037.067.405,4.885-4.885-.406-.065.037A11.827,11.827,0,0,1-9908.7-2463.771Zm0-21.693a9.831,9.831,0,0,0-7,2.9,9.911,9.911,0,0,0-.8,13.081,9.789,9.789,0,0,0,3.516,2.831,9.979,9.979,0,0,0,4.286.974,9.878,9.878,0,0,0,5.079-1.409l.265-.157,3.244.269-.269-3.244.159-.264a9.9,9.9,0,0,0-2.4-12.881A9.8,9.8,0,0,0-9908.7-2485.464Zm0,15.06a1.273,1.273,0,0,1-.254-.026,1.448,1.448,0,0,0,.252.023,1.257,1.257,0,0,0,1.25-1.223A1.254,1.254,0,0,1-9908.7-2470.4Zm0-.5a.752.752,0,0,1-.75-.752.751.751,0,0,1,.75-.75.751.751,0,0,1,.752.75A.753.753,0,0,1-9908.7-2470.905Zm.951-2.512h-1.913v-.951a2.442,2.442,0,0,1,1.071-1.932l.018-.01a5.384,5.384,0,0,1,.643-.443,1.46,1.46,0,0,0,.58-1.768,1.444,1.444,0,0,0-1.353-.921,1.4,1.4,0,0,0-.271.025,1.464,1.464,0,0,0-1.163,1.18h-1.925a3.371,3.371,0,0,1,2.727-3.053,3.608,3.608,0,0,1,.631-.057,3.345,3.345,0,0,1,3.127,2.126,3.37,3.37,0,0,1-1.324,4.076,4.445,4.445,0,0,0-.488.333,2.527,2.527,0,0,0-.291.269l-.067.072v1.052Z" transform="translate(9920.234 2487.121)" fill="#3ca078"/>
    </g>
    <g id="puls" transform="translate(-11.945 -14.979)">
      <circle id="Ellipse_11725" data-name="Ellipse 11725" cx="3.033" cy="3.033" r="3.033" transform="translate(35.265 15.161)" fill="#dc2727"/>
    </g>
  </g>
</svg>
