<svg id="external" xmlns="http://www.w3.org/2000/svg" width="16" height="16" viewBox="0 0 16 16">
  <g id="icon_system_24_external" data-name="icon/system/24/external">
    <path id="Path" d="M16,0H0V16H16Z" fill="none"/>
    <path id="Combined_Shape" data-name="Combined Shape" d="M2,0A2,2,0,0,0,0,1.883L0,2V9.334a2,2,0,0,0,1.883,2l.117,0H6A.667.667,0,0,0,6.078,10L6,10H2a.667.667,0,0,1-.662-.589l0-.077V2a.666.666,0,0,1,.589-.661l.077,0H9.333A.667.667,0,0,1,10,1.922L10,2V6a.667.667,0,0,0,1.329.077l0-.077V2A2,2,0,0,0,9.451,0L9.333,0ZM4.862,4.862a.667.667,0,0,0-.055.88l.055.063,6.2,6.2H8.667A.666.666,0,0,0,8,12.589l0,.077a.667.667,0,0,0,.589.662l.078,0h4a.664.664,0,0,0,.28-.061h0l.01,0,.005,0,.005,0a.664.664,0,0,0,.153-.107h0l.009-.008,0,0,0,0,0,0,0,0,.008-.009,0,0,.009-.009h0a.665.665,0,0,0,.164-.365v-.007c0-.021,0-.043,0-.065V8.667A.667.667,0,0,0,12,8.589l0,.078v2.389L5.805,4.862a.668.668,0,0,0-.943,0Z" transform="translate(14.667 14.667) rotate(180)" fill="#0096b6"/>
  </g>
</svg>
