<svg id="FTRinstagram" xmlns="http://www.w3.org/2000/svg" width="32" height="32" viewBox="0 0 32 32">
  <rect id="base" width="32" height="32" rx="16" fill="#fff"/>
  <path id="Path_1388" data-name="Path 1388" d="M-13.49-16.236a4.293,4.293,0,0,0-4.3,4.3,4.293,4.293,0,0,0,4.3,4.3,4.293,4.293,0,0,0,4.3-4.3A4.293,4.293,0,0,0-13.49-16.236Zm0,7.1a2.8,2.8,0,0,1-2.8-2.8,2.8,2.8,0,0,1,2.8-2.8,2.8,2.8,0,0,1,2.8,2.8A2.8,2.8,0,0,1-13.49-9.14Zm5.479-7.271a1,1,0,0,0-1-1,1,1,0,0,0-1,1,1,1,0,0,0,1,1A1,1,0,0,0-8.011-16.411Zm2.848,1.018a4.963,4.963,0,0,0-1.355-3.514,5,5,0,0,0-3.514-1.355c-1.385-.079-5.535-.079-6.919,0a4.988,4.988,0,0,0-3.514,1.351A4.979,4.979,0,0,0-21.82-15.4c-.079,1.385-.079,5.535,0,6.919a4.963,4.963,0,0,0,1.355,3.514,5,5,0,0,0,3.514,1.355c1.385.079,5.535.079,6.919,0A4.963,4.963,0,0,0-6.518-4.964,5,5,0,0,0-5.163-8.478C-5.085-9.863-5.085-14.009-5.163-15.394Zm-1.789,8.4A2.83,2.83,0,0,1-8.546-5.4c-1.1.438-3.723.337-4.943.337s-3.843.1-4.943-.337a2.83,2.83,0,0,1-1.594-1.594c-.438-1.1-.337-3.723-.337-4.943s-.1-3.843.337-4.943a2.83,2.83,0,0,1,1.594-1.594c1.1-.438,3.723-.337,4.943-.337s3.843-.1,4.943.337a2.83,2.83,0,0,1,1.594,1.594c.438,1.1.337,3.723.337,4.943S-6.514-8.092-6.952-6.992Z" transform="translate(29.491 27.936)" fill="#3ca078"/>
</svg>
