<svg id="FTRLinkedin" xmlns="http://www.w3.org/2000/svg" width="32" height="32" viewBox="0 0 32 32">
  <rect id="base" width="32" height="32" rx="16" fill="#fff"/>
  <g id="Group_23271" data-name="Group 23271" transform="translate(2.688 3.398)">
    <path id="Path_1648" data-name="Path 1648" d="M718.472,279.974h-3.641V274.71c0-1.378-.569-2.318-1.822-2.318a1.837,1.837,0,0,0-1.738,1.247,2.312,2.312,0,0,0-.079.831v5.5h-3.607s.046-9.325,0-10.172h3.607v1.6a3.3,3.3,0,0,1,3.2-1.694c2.282,0,4.075,1.463,4.075,4.614v5.656Zm-14.533-11.445h-.023A1.775,1.775,0,0,1,702,266.766a1.958,1.958,0,1,1,1.939,1.763Zm-1.523,1.272h3.211v10.172h-3.211V269.8Z" transform="translate(-696.924 -260.385)" fill="#3ca078" fill-rule="evenodd"/>
  </g>
</svg>
