<svg xmlns="http://www.w3.org/2000/svg" xmlns:xlink="http://www.w3.org/1999/xlink" width="157" height="154.639" viewBox="0 0 157 154.639">
  <defs>
    <filter id="FTRphone" x="0" y="0" width="157" height="154.639" filterUnits="userSpaceOnUse">
      <feOffset dy="5" input="SourceAlpha"/>
      <feGaussianBlur stdDeviation="17.5" result="blur"/>
      <feFlood flood-color="#002a33" flood-opacity="0.149"/>
      <feComposite operator="in" in2="blur"/>
      <feComposite in="SourceGraphic"/>
    </filter>
  </defs>
  <g transform="matrix(1, 0, 0, 1, 0, 0)" filter="url(#FTRphone)">
    <path id="FTRphone-2" data-name="FTRphone" d="M26,49.639a26.9,26.9,0,0,1-10.12-1.95A26.015,26.015,0,0,1,7.615,42.37,24.707,24.707,0,0,1,2.043,34.48a23.861,23.861,0,0,1,0-19.322A24.707,24.707,0,0,1,7.615,7.27,26.016,26.016,0,0,1,15.88,1.95a27.231,27.231,0,0,1,20.241,0A26.016,26.016,0,0,1,44.385,7.27a24.707,24.707,0,0,1,5.572,7.889,23.861,23.861,0,0,1,0,19.322,24.707,24.707,0,0,1-5.572,7.889,26.015,26.015,0,0,1-8.264,5.319A26.9,26.9,0,0,1,26,49.639ZM18.129,13.365c-1.179,0-2.151.977-3.008,1.84-.161.162-.314.316-.466.461A2.678,2.678,0,0,0,14,17.646c0,2.487,1.833,7.142,7,12.079s10.052,6.691,12.655,6.691a2.98,2.98,0,0,0,2.074-.623c.151-.144.311-.289.48-.442.926-.84,1.976-1.793,1.928-2.957a3.534,3.534,0,0,0-1.691-2.463,5.819,5.819,0,0,0-3.255-1.526,3.645,3.645,0,0,0-2.464,1.418l-.265.256a1.015,1.015,0,0,1-.727.269c-1.1,0-2.961-1.24-5.524-3.685s-3.861-4.223-3.862-5.275a.921.921,0,0,1,.28-.693l.268-.253c1.454-1.367,2.5-2.354-.112-5.46A3.658,3.658,0,0,0,18.129,13.365Z" transform="translate(52.5 47.5)" fill="#fff"/>
  </g>
</svg>
