<svg id="FTRsnapchat" xmlns="http://www.w3.org/2000/svg" width="32" height="32" viewBox="0 0 32 32">
  <rect id="base" width="32" height="32" rx="16" fill="#fff"/>
  <path id="Path_1385" data-name="Path 1385" d="M-5.3-6.577a.421.421,0,0,0-.3-.611c-2.684-.442-3.892-3.2-3.942-3.314l-.009-.02a.876.876,0,0,1-.095-.723c.155-.365.726-.546,1.1-.666.106-.034.2-.065.287-.1.669-.264,1-.589,1-.965a.8.8,0,0,0-.6-.689h0a1.044,1.044,0,0,0-.79,0,2.3,2.3,0,0,1-.851.241.756.756,0,0,1-.332-.082c.079-1.4.273-3.368-.22-4.473a5.217,5.217,0,0,0-4.886-3.148l-.39,0a5.253,5.253,0,0,0-4.877,3.146c-.493,1.106-.3,3.086-.219,4.472a.787.787,0,0,1-.384.084,2.207,2.207,0,0,1-.908-.243.992.992,0,0,0-1.273.6c-.054.284.073.7.988,1.061.354.14,1.2.3,1.39.763a.876.876,0,0,1-.095.723l-.009.02c-.05.117-1.259,2.872-3.942,3.314a.41.41,0,0,0-.343.4q0,.011,0,.023c.046.8,1.844,1.116,2.641,1.24a7.143,7.143,0,0,1,.252.93.458.458,0,0,0,.479.349,14.566,14.566,0,0,1,1.5-.182,3.048,3.048,0,0,1,2.169.794,4.429,4.429,0,0,0,2.81,1.057A4.343,4.343,0,0,0-12.3-3.631a3.052,3.052,0,0,1,2.169-.794c.758,0,1.136.167,1.5.167h.011A.446.446,0,0,0-8.151-4.6,7.23,7.23,0,0,1-7.9-5.523C-6.353-5.763-5.5-6.108-5.3-6.577Z" transform="translate(31.129 27.847)" fill="#3ca078"/>
</svg>
