<svg id="FTRyoutube" xmlns="http://www.w3.org/2000/svg" width="32" height="32" viewBox="0 0 32 32">
  <rect id="base" width="32" height="32" rx="16" fill="#fff"/>
  <path id="Path_1387" data-name="Path 1387" d="M-8.27-16.6A2.454,2.454,0,0,0-10-18.339c-1.523-.411-7.632-.411-7.632-.411s-6.108,0-7.632.411A2.454,2.454,0,0,0-26.988-16.6a25.748,25.748,0,0,0-.408,4.732,25.748,25.748,0,0,0,.408,4.732,2.418,2.418,0,0,0,1.727,1.71c1.523.411,7.632.411,7.632.411s6.108,0,7.632-.411A2.418,2.418,0,0,0-8.27-7.136a25.748,25.748,0,0,0,.408-4.732A25.748,25.748,0,0,0-8.27-16.6ZM-19.627-8.964v-5.809l5.106,2.9Z" transform="translate(33.629 27.883)" fill="#3ca078"/>
</svg>
