<svg id="Google_Play" data-name="Google Play" xmlns="http://www.w3.org/2000/svg" width="127.941" height="37.897" viewBox="0 0 127.941 37.897">
  <path id="Path_451" data-name="Path 451" d="M771.591,1093.711H654.008a5.194,5.194,0,0,0-5.179,5.179v27.539a5.194,5.194,0,0,0,5.179,5.179H771.591a5.194,5.194,0,0,0,5.179-5.179V1098.89A5.194,5.194,0,0,0,771.591,1093.711Zm3.466,32.718a3.477,3.477,0,0,1-3.466,3.466H654.008a3.477,3.477,0,0,1-3.466-3.466V1098.89a3.477,3.477,0,0,1,3.466-3.467H771.591a3.477,3.477,0,0,1,3.466,3.467Z" transform="translate(-648.829 -1093.711)" fill="#53bb43"/>
  <path id="Path_452" data-name="Path 452" d="M916.172,1212.112h-5.99v1.777h4.248c-.21,2.492-2.284,3.556-4.241,3.556a4.748,4.748,0,0,1,.005-9.495,4.61,4.61,0,0,1,3.2,1.285l1.245-1.289a6.328,6.328,0,0,0-4.511-1.778,6.53,6.53,0,1,0,.095,13.059,5.749,5.749,0,0,0,6.055-5.936,5.325,5.325,0,0,0-.109-1.179Z" transform="translate(-869.956 -1191.336)" fill="#53bb43"/>
  <path id="Path_453" data-name="Path 453" d="M1010.077,1241.477a4.2,4.2,0,1,0,4.211,4.211A4.147,4.147,0,0,0,1010.077,1241.477Zm.019,6.747a2.554,2.554,0,0,1,.006-5.1h0a2.557,2.557,0,0,1-.006,5.1Z" transform="translate(-958.769 -1221.988)" fill="#53bb43"/>
  <path id="Path_454" data-name="Path 454" d="M1080.408,1241.477a4.2,4.2,0,1,0,4.211,4.211A4.147,4.147,0,0,0,1080.408,1241.477Zm.019,6.747a2.554,2.554,0,0,1,.006-5.1h0a2.557,2.557,0,0,1-.006,5.1Z" transform="translate(-1019.824 -1221.988)" fill="#53bb43"/>
  <path id="Path_455" data-name="Path 455" d="M1152.812,1242.473a2.969,2.969,0,0,0-2.263-.963h0a4.2,4.2,0,0,0-.039,8.4,2.773,2.773,0,0,0,2.3-1.02v.828a2.106,2.106,0,0,1-2.206,2.315,2.327,2.327,0,0,1-2.148-1.494l-1.613.674a4.038,4.038,0,0,0,3.775,2.472c2.243,0,3.953-1.413,3.953-4.376v-7.542h-1.76Zm-2.124,5.782a2.385,2.385,0,0,1-2.322-2.527,2.419,2.419,0,0,1,2.346-2.573,2.374,2.374,0,0,1,2.242,2.557A2.346,2.346,0,0,1,1150.688,1248.255Z" transform="translate(-1080.879 -1222.017)" fill="#53bb43"/>
  <path id="Path_456" data-name="Path 456" d="M1247.422,1243.893a3.8,3.8,0,0,0-3.49-2.459h0a3.968,3.968,0,0,0-3.915,4.191,4.059,4.059,0,0,0,4.119,4.212,4.259,4.259,0,0,0,3.516-1.842l-1.451-.966a2.349,2.349,0,0,1-2.056,1.155,2.159,2.159,0,0,1-2.059-1.272l5.628-2.335Zm-5.622,1.622a2.331,2.331,0,0,1,2.205-2.467h0a1.673,1.673,0,0,1,1.553.9Z" transform="translate(-1162.045 -1221.951)" fill="#53bb43"/>
  <rect id="Rectangle_311" data-name="Rectangle 311" width="1.849" height="12.371" transform="translate(75.104 15.266)" fill="#53bb43"/>
  <rect id="Rectangle_312" data-name="Rectangle 312" width="1.849" height="12.371" transform="translate(99.888 15.266)" fill="#53bb43"/>
  <path id="Path_457" data-name="Path 457" d="M1336.335,1209.458h-4.472v12.371h1.849v-4.489h2.623a3.941,3.941,0,0,0,0-7.882Zm0,6.033h-2.623v-4.185h2.623a2.092,2.092,0,1,1,0,4.185Z" transform="translate(-1241.778 -1194.192)" fill="#53bb43"/>
  <path id="Path_458" data-name="Path 458" d="M1501.365,1246.947l-2.422-5.512h-2.019l3.432,7.809-1.921,4.371h2.019l5.353-12.18h-2.019Z" transform="translate(-1385.068 -1221.952)" fill="#53bb43"/>
  <path id="Path_459" data-name="Path 459" d="M1432.976,1238.985l1.487,1c1.076-1.882,4.148-1.449,4.35.568a8.192,8.192,0,0,0-2.832-.33,2.987,2.987,0,0,0-2.833,2.526,3.065,3.065,0,0,0,.632,2.385,3.494,3.494,0,0,0,3.471.742,3.182,3.182,0,0,0,1.606-1.079v1h1.849v-4.449C1440.995,1236.757,1435.177,1235.677,1432.976,1238.985Zm3.836,5.278c-2.138.583-2.669-2.89.507-2.413a7.924,7.924,0,0,1,1.538.369A2.782,2.782,0,0,1,1436.812,1244.263Z" transform="translate(-1329.555 -1218.158)" fill="#53bb43"/>
  <path id="Path_460" data-name="Path 460" d="M909.423,1137.821a2.616,2.616,0,0,0,2.756-2.7,2.432,2.432,0,0,0-.049-.536H909.4v.809h1.933a1.79,1.79,0,0,1-1.93,1.618,2.161,2.161,0,0,1,0-4.321,2.1,2.1,0,0,1,1.458.584l.566-.586a2.88,2.88,0,0,0-2.053-.809,2.972,2.972,0,1,0,.043,5.943Z" transform="translate(-872.417 -1126.844)" fill="#53bb43"/>
  <rect id="Rectangle_313" data-name="Rectangle 313" width="0.841" height="5.63" transform="translate(50.854 5.231)" fill="#53bb43"/>
  <path id="Path_461" data-name="Path 461" d="M991.822,1133.376h-3.6v.841H989.6v4.789h.841v-4.789h1.381Z" transform="translate(-943.457 -1128.145)" fill="#53bb43"/>
  <path id="Path_462" data-name="Path 462" d="M960.258,1138.165h-2.385v-1.553h2.1v-.841h-2.1v-1.553h2.385v-.841h-3.226v5.63h3.226Z" transform="translate(-916.383 -1128.145)" fill="#53bb43"/>
  <path id="Path_463" data-name="Path 463" d="M1045.981,1134.217h1.381v4.789h.841v-4.789h1.381v-.841h-3.6Z" transform="translate(-993.6 -1128.145)" fill="#53bb43"/>
  <path id="Path_464" data-name="Path 464" d="M1092.705,1137.82a2.971,2.971,0,1,0-2.994-2.978A3.01,3.01,0,0,0,1092.705,1137.82Zm0-5.131a2.161,2.161,0,1,1-2.108,2.167A2.129,2.129,0,0,1,1092.705,1132.69Z" transform="translate(-1031.563 -1126.844)" fill="#53bb43"/>
  <path id="Path_465" data-name="Path 465" d="M1142.332,1134.9l2.7,4.1h.84v-5.63h-.841v4.1l-2.7-4.1h-.841v5.63h.841Z" transform="translate(-1076.513 -1128.145)" fill="#53bb43"/>
  <path id="Path_466" data-name="Path 466" d="M749.323,1190.689l-11.558-6.306a1.162,1.162,0,0,0-.4-.127l9.22,9.207Z" transform="translate(-725.685 -1172.315)" fill="#53bb43"/>
  <path id="Path_467" data-name="Path 467" d="M817.063,1237.29l-3.933-2.146-2.856,2.891,2.859,2.855,3.931-2.151C817.536,1238.479,818.032,1237.818,817.063,1237.29Z" transform="translate(-788.98 -1216.49)" fill="#53bb43"/>
  <path id="Path_468" data-name="Path 468" d="M738.509,1269.259a1.975,1.975,0,0,0,.252-.117l11.561-6.328-2.741-2.737Z" transform="translate(-726.681 -1238.136)" fill="#53bb43"/>
  <path id="Path_469" data-name="Path 469" d="M729.151,1185.121a1.1,1.1,0,0,0-.466,1.027c.005,1.12.081,16.051.086,16.992a1.2,1.2,0,0,0,.427,1.046l9.459-9.574Z" transform="translate(-718.153 -1173.065)" fill="#53bb43"/>
</svg>
