<svg xmlns="http://www.w3.org/2000/svg" width="70.666" height="61.022" viewBox="0 0 70.666 61.022">
  <g id="honeSerIcon1" transform="translate(17.196 16.381)">
    <rect id="base" width="44" height="44" rx="22" transform="translate(9.47 -16.381)" fill="#3ca078" opacity="0.2"/>
    <g id="icon" transform="translate(-27.897 -10.069)">
      <g id="Group_23134" data-name="Group 23134" transform="translate(6.076 -0.687)">
        <path id="Path_1364" data-name="Path 1364" d="M47.819,38.047a.733.733,0,0,0-.1-.926L32.588,21.283a.983.983,0,0,0-1-.232.818.818,0,0,0-.585.763l.17,21.033a.819.819,0,0,0,.625.762l.284.04a.934.934,0,0,0,.72-.33l4-4.882,2.856,7.133a2.036,2.036,0,0,0,2.514,1.064,1.715,1.715,0,0,0,1.191-2.248l-2.805-7,6.321,1.053a.941.941,0,0,0,.942-.392Z" transform="translate(10.016 7.642)" fill="none" stroke="#3ca078" stroke-width="2"/>
        <path id="Path_1365" data-name="Path 1365" d="M20.32,2.255a1.38,1.38,0,1,0-2.759,0V6.049H14.776c-1.5,0-2.7,0-3.678.08A7.073,7.073,0,0,0,8.392,6.8,6.9,6.9,0,0,0,5.377,9.816,7.072,7.072,0,0,0,4.7,12.522c-.08.977-.08,2.183-.08,3.678V45.224c0,1.5,0,2.7.08,3.678a7.073,7.073,0,0,0,.672,2.706,6.9,6.9,0,0,0,3.015,3.015A7.073,7.073,0,0,0,11.1,55.3c.977.08,2.183.08,3.678.08H34.117V52.616H14.835c-1.568,0-2.661,0-3.513-.071a4.4,4.4,0,0,1-1.678-.381,4.139,4.139,0,0,1-1.809-1.809,4.4,4.4,0,0,1-.381-1.678c-.07-.851-.071-1.944-.071-3.513V16.259c0-1.568,0-2.661.071-3.512a4.4,4.4,0,0,1,.381-1.678A4.139,4.139,0,0,1,9.645,9.26a4.4,4.4,0,0,1,1.678-.381c.851-.07,1.944-.071,3.513-.071H17.56v1.207a1.38,1.38,0,1,0,2.759,0V8.809H38.256v1.207a1.38,1.38,0,0,0,2.759,0V8.809h2.725c1.568,0,2.661,0,3.513.071a4.4,4.4,0,0,1,1.678.381,4.139,4.139,0,0,1,1.809,1.809,4.4,4.4,0,0,1,.381,1.678c.07.851.071,1.944.071,3.512V24.5h2.759V16.2c0-1.5,0-2.7-.08-3.678A7.074,7.074,0,0,0,53.2,9.816,6.9,6.9,0,0,0,50.184,6.8a7.073,7.073,0,0,0-2.706-.672c-.977-.08-2.183-.08-3.678-.08H41.016V2.255a1.38,1.38,0,0,0-2.759,0V6.049H20.32ZM16.353,18.984a1.38,1.38,0,1,0,0,2.759h25.87a1.38,1.38,0,1,0,0-2.759Zm-1.38,11.728a1.38,1.38,0,0,1,1.38-1.38h1.174a1.38,1.38,0,0,1,0,2.759H16.353A1.38,1.38,0,0,1,14.973,30.712Z" transform="translate(0 0)" fill="#3ca078" fill-rule="evenodd"/>
        <path id="Path_1366" data-name="Path 1366" d="M14.973,30.712a1.38,1.38,0,0,1,1.38-1.38h1.174a1.38,1.38,0,0,1,0,2.759H16.353A1.38,1.38,0,0,1,14.973,30.712Z" transform="translate(7)" fill="#3ca078" fill-rule="evenodd"/>
        <path id="Path_1367" data-name="Path 1367" d="M14.973,30.712a1.38,1.38,0,0,1,1.38-1.38h1.174a1.38,1.38,0,0,1,0,2.759H16.353A1.38,1.38,0,0,1,14.973,30.712Z" transform="translate(14)" fill="#3ca078" fill-rule="evenodd"/>
        <path id="Path_1368" data-name="Path 1368" d="M14.973,30.712a1.38,1.38,0,0,1,1.38-1.38h1.174a1.38,1.38,0,0,1,0,2.759H16.353A1.38,1.38,0,0,1,14.973,30.712Z" transform="translate(7 7)" fill="#3ca078" fill-rule="evenodd"/>
        <path id="Path_1369" data-name="Path 1369" d="M14.973,30.712a1.38,1.38,0,0,1,1.38-1.38h1.174a1.38,1.38,0,0,1,0,2.759H16.353A1.38,1.38,0,0,1,14.973,30.712Z" transform="translate(0 7)" fill="#3ca078" fill-rule="evenodd"/>
      </g>
    </g>
  </g>
</svg>
