<svg xmlns="http://www.w3.org/2000/svg" width="77.98" height="61.192" viewBox="0 0 77.98 61.192">
  <g id="honeSerIcon3" transform="translate(24.509 16.381)">
    <rect id="base" width="44" height="44" rx="22" transform="translate(9.47 -16.381)" fill="#3ca078" opacity="0.2"/>
    <g id="icon" transform="translate(-31.584 -9.687)">
      <g id="Group_23131" data-name="Group 23131" transform="translate(7.075 -0.243)">
        <g id="Group_42" data-name="Group 42">
          <path id="Path_145" data-name="Path 145" d="M55.546,6.227H13.568a1.219,1.219,0,0,0-1.219,1.219V31.687H1.219A1.219,1.219,0,0,0,0,32.907V53.574a7.4,7.4,0,0,0,7.394,7.394H49.372a7.4,7.4,0,0,0,7.394-7.394V7.446A1.219,1.219,0,0,0,55.546,6.227ZM2.439,53.574V34.126h9.91V53.574a4.955,4.955,0,1,1-9.91,0Zm51.888,0a4.961,4.961,0,0,1-4.955,4.955H12.877a7.366,7.366,0,0,0,1.911-4.955V8.666h39.54Z" transform="translate(0 -6.227)" fill="#3ca078"/>
          <path id="Path_146" data-name="Path 146" d="M195.742,80.294H211.37a1.219,1.219,0,1,0,0-2.439H195.742a1.219,1.219,0,1,0,0,2.439Z" transform="translate(-162.898 -66.21)" fill="#3ca078"/>
          <path id="Path_147" data-name="Path 147" d="M195.742,162.687H211.37a1.219,1.219,0,1,0,0-2.439H195.742a1.219,1.219,0,1,0,0,2.439Z" transform="translate(-162.898 -135.207)" fill="#3ca078"/>
          <path id="Path_148" data-name="Path 148" d="M195.742,245.082H211.37a1.219,1.219,0,1,0,0-2.439H195.742a1.219,1.219,0,1,0,0,2.439Z" transform="translate(-162.898 -204.207)" fill="#3ca078"/>
          <path id="Path_149" data-name="Path 149" d="M117.135,52.917a1.22,1.22,0,0,0,.887.382h.01a1.22,1.22,0,0,0,.89-.4l6.7-7.336a1.219,1.219,0,0,0-1.8-1.644l-5.812,6.366L116.2,48.372a1.219,1.219,0,0,0-1.773,1.674Z" transform="translate(-95.542 -37.461)" fill="#3ca078"/>
          <path id="Path_150" data-name="Path 150" d="M123.819,129.895l-5.813,6.366-1.81-1.916a1.219,1.219,0,1,0-1.773,1.674l2.711,2.87a1.22,1.22,0,0,0,.887.382h.01a1.22,1.22,0,0,0,.89-.4l6.7-7.335a1.219,1.219,0,1,0-1.8-1.644Z" transform="translate(-95.542 -109.456)" fill="#3ca078"/>
          <path id="Path_151" data-name="Path 151" d="M123.819,215.868l-5.813,6.366-1.81-1.916a1.219,1.219,0,1,0-1.773,1.674l2.711,2.87a1.22,1.22,0,0,0,.887.382h.01a1.22,1.22,0,0,0,.89-.4l6.7-7.335a1.219,1.219,0,0,0-1.8-1.644Z" transform="translate(-95.542 -181.452)" fill="#3ca078"/>
        </g>
      </g>
    </g>
  </g>
</svg>
