<svg xmlns="http://www.w3.org/2000/svg" width="64.5" height="60.534" viewBox="0 0 64.5 60.534">
  <g id="honeSerIcon4" transform="translate(11.03 16.381)">
    <rect id="base" width="44" height="44" rx="22" transform="translate(9.47 -16.381)" fill="#3ca078" opacity="0.2"/>
    <g id="SASO_Qm" transform="translate(-11.03 -10.382)">
      <g id="Group_125761" data-name="Group 125761">
        <path id="Path_129903" data-name="Path 129903" d="M37.585,45.527a3.37,3.37,0,0,0-.331-.762.69.69,0,0,0-.682-.263,1.078,1.078,0,0,0-.538.513,1.1,1.1,0,0,0,.368,1.441H34.992v-3.39l-.51.5s.193,2.357-.214,2.907a6.389,6.389,0,0,0-1.006-3.065s-.146.517-.185.673a1.316,1.316,0,0,0,.063.621,4.9,4.9,0,0,0,.317.766l.058-.206a4.132,4.132,0,0,1,.559,1.509s-.227.412-1.057.462l.744,1.549a2.389,2.389,0,0,0,1.082-1.04v.863h2.908V46.428s-.145.01-.421,0a.788.788,0,0,1-.707-.618.371.371,0,0,1,.339-.521.968.968,0,0,1,.621.239" transform="translate(-11.844 -15.448)" fill="#3ca078"/>
        <path id="Path_129904" data-name="Path 129904" d="M15.787,27.406A11.371,11.371,0,1,1,27.032,16.035,11.321,11.321,0,0,1,15.787,27.406m0-21.8a10.433,10.433,0,0,0,0,20.864,10.433,10.433,0,0,0,0-20.864" transform="translate(-1.63 -1.674)" fill="#3ca078"/>
        <path id="Path_129905" data-name="Path 129905" d="M24.5,11.015,22.927,14.1H22.2a11.367,11.367,0,0,0-3.829.666,8.707,8.707,0,0,0-3.419,2.116A4.051,4.051,0,0,0,13.665,19.7a3.208,3.208,0,0,0,1.764,2.841A8.83,8.83,0,0,0,20.1,23.618a21.539,21.539,0,0,0,4.029-.4,11.586,11.586,0,0,0-1.164.934c-.111.1-.514.492-1.2,1.18-.2.215-.461.478-.776.8a1.437,1.437,0,0,1-.82.454,14.561,14.561,0,0,1-2.25.223,9.224,9.224,0,0,1-2.627-.374,5.416,5.416,0,0,1-1.987-1.007,5.085,5.085,0,0,1-1.273-1.912,6.662,6.662,0,0,1-.493-2.528q0-3.939,3.92-7.121a7.151,7.151,0,0,0-1.171-.108,5.163,5.163,0,0,0-2.506.577l.659-1.82a2.276,2.276,0,0,1,.9-1.245,3.373,3.373,0,0,1,1.73-.347c.216,0,.494.008.825.037l2.243.17c.829.071,1.64.1,2.446.1.476,0,1.032,0,1.655-.013a14.571,14.571,0,0,0,2.255-.207M19.638,19.5l-1.481,1.4-2.086-1.8,1.524-1.436Z" transform="translate(-4.141 -3.92)" fill="#3ca078"/>
        <path id="Path_129906" data-name="Path 129906" d="M21.682,47.482,21.2,48.573l-.124-4.758.587-.734Z" transform="translate(-7.562 -15.454)" fill="#3ca078"/>
        <path id="Path_129907" data-name="Path 129907" d="M15.649,52.284l-.362.557.421.585.346-.575Z" transform="translate(-5.484 -18.755)" fill="#3ca078"/>
        <path id="Path_129908" data-name="Path 129908" d="M9.073,49.319H7.53l-.163-2.38s.171.224.265.244.871,0,.929,0a7.718,7.718,0,0,0-.5-1.159l.464-.86a14.843,14.843,0,0,1,.44,1.435,5.835,5.835,0,0,1,.08.689c.006.187.026,2.036.026,2.036" transform="translate(-2.643 -16.199)" fill="#3ca078"/>
        <path id="Path_129909" data-name="Path 129909" d="M5.406,46.657a2.007,2.007,0,0,0-.358-.877,2.549,2.549,0,0,0-1.019-.847l-.54,1c.1.024.407.149.407.149a4.53,4.53,0,0,0-.461,1.953A1.71,1.71,0,0,0,4.022,49.2a.959.959,0,0,0,.761.1,1.062,1.062,0,0,0,.463-.287c.026-.226.187-1.855.192-1.931a1.669,1.669,0,0,0-.032-.426m-1.183.609c-.195-.082-.195-.514-.19-.578a1.721,1.721,0,0,1,.221-.481,4.284,4.284,0,0,1,.718.92.676.676,0,0,1-.749.139" transform="translate(-1.23 -16.118)" fill="#3ca078"/>
        <path id="Path_129910" data-name="Path 129910" d="M16.3,43.792v2.649H15.221c-.2-.084-.381-.521-.571-1.009a6.553,6.553,0,0,0-.473-1.03.317.317,0,0,0-.592-.017c-.159.255-.534,1.052-.534,1.052a.978.978,0,0,1,.476-.165c.225.026.337.165.493.4a6.788,6.788,0,0,1,.36.741H12.515a4.425,4.425,0,0,0-.4-1.646.339.339,0,0,0-.46-.169,1.449,1.449,0,0,0-.354.5,5.036,5.036,0,0,0-.43,1.819,1.948,1.948,0,0,0,.371,1.149c.2.267.715.233.715.233a2.552,2.552,0,0,1-1.118,1.455l1.176.309a3.126,3.126,0,0,0,.451-1.463h4.392v-5.55Zm-4.724,2.5a.5.5,0,0,1-.25-.292.65.65,0,0,1,.084-.465c.1-.108.2-.063.348.135a2.622,2.622,0,0,1,.253.756,1.013,1.013,0,0,1-.434-.134" transform="translate(-3.888 -15.443)" fill="#3ca078"/>
        <path id="Path_129911" data-name="Path 129911" d="M29.618,47.493a7.244,7.244,0,0,0-.462-1.513.508.508,0,0,0-.419-.33c-.119,0-.341.22-.48.449s-.63,1.053-.63,1.053H26.521l-.136-2.036-.494.467.049.565a5.057,5.057,0,0,0-1.034,1.02V48.9a3.061,3.061,0,0,0,.978.314l.3-1.006.12,1.116s1.024.02,1.14.01.16-.057.274-.176a2.848,2.848,0,0,0,.295-.542l.823.955L29.7,48.04Zm-4.239.012a1.929,1.929,0,0,1,.658-.517l.121.792a1.754,1.754,0,0,1-.779-.275m3.01-.476c-.068-.069-.01-.207.037-.264s.116-.154.236-.141.262.314.278.385a8.148,8.148,0,0,1,.18.867s-.669-.771-.731-.847" transform="translate(-8.934 -16.184)" fill="#3ca078"/>
        <path id="Path_129912" data-name="Path 129912" d="M25.216,43.561l.351-.56.348.4.3-.428.378.455-.351.574-.38-.409-.295.421Z" transform="translate(-9.045 -15.416)" fill="#3ca078"/>
        <path id="Path_129913" data-name="Path 129913" d="M3.793,43.243l.321-.51.315.371.282-.4.349.416-.33.523-.345-.369-.271.379Z" transform="translate(-1.361 -15.319)" fill="#3ca078"/>
        <path id="Path_129914" data-name="Path 129914" d="M28.127,54.535H0V14.216A14.155,14.155,0,0,1,14.06,0,14.158,14.158,0,0,1,28.127,14.216ZM.951,53.6H27.176V14.216A13.213,13.213,0,0,0,14.06.938,13.209,13.209,0,0,0,.951,14.216Z" fill="#3ca078"/>
        <path id="Path_129915" data-name="Path 129915" d="M4.482,74.47a.812.812,0,0,0-.769.522,3.806,3.806,0,0,0-.258,1.575,4.218,4.218,0,0,0,.258,1.678.866.866,0,0,0,.57.544l.178.586h.61l-.209-.668a.965.965,0,0,0,.383-.46A4.21,4.21,0,0,0,5.5,76.567v-.01a3.864,3.864,0,0,0-.242-1.6.808.808,0,0,0-.778-.49m.335,3.1c-.081.2-.19.291-.335.291s-.262-.1-.339-.291a2.309,2.309,0,0,1-.119-.842,2.525,2.525,0,0,1,.119-.873c.076-.2.19-.306.339-.306s.266.1.344.289a2.857,2.857,0,0,1,.105.891,2.4,2.4,0,0,1-.114.842m2.243-.484a1.211,1.211,0,0,1-.083.5.272.272,0,0,1-.251.173.266.266,0,0,1-.251-.173,1.2,1.2,0,0,1-.083-.5V74.56H5.82v2.586a2.751,2.751,0,0,0,.228,1.247.764.764,0,0,0,1.36,0,2.7,2.7,0,0,0,.226-1.247V74.56H7.061ZM8.5,74.56l-.662,4.152h.592l.123-.861h.8l.117.861h.61L9.419,74.56ZM8.7,76.85l0-.012.253-1.609h0l.252,1.609.009.012Zm2.18-2.291h-.57v4.152h1.334v-.99h-.764Zm1.091,4.152h.57V74.56h-.57Zm.866-3.158h.576v3.158h.569V75.554h.578V74.56H12.833Zm2.935.663v0l-.419-1.66h-.64l.778,2.6v1.549h.57V77.127l.78-2.568H16.2Zm3.473,1.343-.344-3H18v4.152h.569V75.878l.366,2.834h.606l.364-2.838v2.838h.568V74.56h-.891Zm2.1-3-.66,4.152h.592l.122-.861h.794l.122.861h.609l-.66-4.152Zm.194,2.291,0-.012.253-1.609.257,1.609,0,.012Zm3.163-.3a2.029,2.029,0,0,0,.18-.928,1.372,1.372,0,0,0-.186-.808.667.667,0,0,0-.589-.259H23.13v4.152H23.7V76.953h0l.551,1.759h.714l-.686-1.807a.6.6,0,0,0,.422-.351m-.455-.31a.2.2,0,0,1-.178.115H23.7v-.8h.371a.2.2,0,0,1,.18.1.46.46,0,0,1,.062.269.658.658,0,0,1-.063.323M27.1,74.56h-.726L25.79,76.6V74.56h-.569v4.152h.569V76.825l.612,1.887h.7l-.715-2.075Z" transform="translate(-1.239 -26.713)" fill="#3ca078"/>
        <path id="Path_129916" data-name="Path 129916" d="M3.4,62.3a3.381,3.381,0,0,0,.866.679,1.932,1.932,0,0,0,.891.212,1.28,1.28,0,0,0,.762-.2.634.634,0,0,0,.281-.542q0-.433-.956-.991-.316-.19-.49-.3a3.7,3.7,0,0,1-1.2-1.057,2.363,2.363,0,0,1-.328-1.286,2.512,2.512,0,0,1,.687-1.886,2.67,2.67,0,0,1,1.942-.67,3.674,3.674,0,0,1,1.238.19,2.319,2.319,0,0,1,.919.586V59a2.661,2.661,0,0,0-.792-.616,2.1,2.1,0,0,0-.913-.2,1.317,1.317,0,0,0-.7.154.485.485,0,0,0-.248.438q0,.479.972,1.016c.171.093.3.165.394.217A3.512,3.512,0,0,1,7.9,61.033a2.313,2.313,0,0,1,.328,1.281,2.818,2.818,0,0,1-.692,2.043,2.651,2.651,0,0,1-1.989.711,3.659,3.659,0,0,1-1.186-.178,2.917,2.917,0,0,1-.959-.552Z" transform="translate(-1.156 -20.182)" fill="#3ca078"/>
        <path id="Path_129917" data-name="Path 129917" d="M14.764,57.665H14.7q-.025.378-.08.786t-.149,1.019l-.3,1.873h1.125l-.3-1.873q-.1-.613-.147-1.019c-.031-.271-.06-.534-.083-.786M11.456,65l1.619-8.485h3.313L18.011,65h-2.2l-.376-1.872H14.038L13.643,65Z" transform="translate(-4.109 -20.271)" fill="#3ca078" fill-rule="evenodd"/>
        <path id="Path_129918" data-name="Path 129918" d="M22.257,62.3a3.414,3.414,0,0,0,.866.679,1.934,1.934,0,0,0,.891.212,1.284,1.284,0,0,0,.762-.2.635.635,0,0,0,.28-.542q0-.433-.956-.991c-.214-.127-.375-.227-.49-.3a3.7,3.7,0,0,1-1.2-1.057,2.363,2.363,0,0,1-.324-1.286,2.51,2.51,0,0,1,.683-1.886,2.67,2.67,0,0,1,1.942-.67,3.674,3.674,0,0,1,1.238.19,2.342,2.342,0,0,1,.919.586V59a2.661,2.661,0,0,0-.792-.616,2.1,2.1,0,0,0-.913-.2,1.317,1.317,0,0,0-.7.154.484.484,0,0,0-.247.438q0,.479.971,1.016c.171.093.3.165.394.217a3.512,3.512,0,0,1,1.172,1.015,2.3,2.3,0,0,1,.328,1.281,2.815,2.815,0,0,1-.692,2.043,2.649,2.649,0,0,1-1.987.711,3.663,3.663,0,0,1-1.188-.178,2.916,2.916,0,0,1-.959-.552Z" transform="translate(-7.922 -20.182)" fill="#3ca078"/>
        <path id="Path_129919" data-name="Path 129919" d="M34.179,63.124a.746.746,0,0,0,.725-.546,5.675,5.675,0,0,0,.217-1.889,6,6,0,0,0-.2-1.982.824.824,0,0,0-1.483.011,5.945,5.945,0,0,0-.205,1.971,5.785,5.785,0,0,0,.217,1.889.754.754,0,0,0,.732.546m0,1.953a2.724,2.724,0,0,1-2.438-1.113,6.649,6.649,0,0,1-.754-3.627,5.107,5.107,0,0,1,.762-3.138,2.9,2.9,0,0,1,2.43-.973A2.888,2.888,0,0,1,36.6,57.2a5.1,5.1,0,0,1,.762,3.123,6.683,6.683,0,0,1-.755,3.633,2.718,2.718,0,0,1-2.432,1.118" transform="translate(-11.115 -20.169)" fill="#3ca078" fill-rule="evenodd"/>
      </g>
    </g>
  </g>
</svg>
