<svg xmlns="http://www.w3.org/2000/svg" width="82.024" height="60.019" viewBox="0 0 82.024 60.019">
  <g id="honeSerIcon2" transform="translate(28.554 16.381)">
    <rect id="base" width="44" height="44" rx="22" transform="translate(9.47 -16.381)" fill="#3ca078" opacity="0.2"/>
    <g id="icon" transform="translate(-35.084 -6.687)">
      <g id="Group_23135" data-name="Group 23135" transform="translate(6.531 -2.667)">
        <path id="Path_1370" data-name="Path 1370" d="M55.651,7.219H22.887a1.2,1.2,0,0,0,0,2.409H55.651a3.618,3.618,0,0,1,3.614,3.614V46.969a3.618,3.618,0,0,1-3.614,3.614H6.023a3.618,3.618,0,0,1-3.614-3.614V13.242A3.618,3.618,0,0,1,6.023,9.628H13.25a1.2,1.2,0,1,0,0-2.409H6.023A6.03,6.03,0,0,0,0,13.242V46.969a6.03,6.03,0,0,0,6.023,6.023H55.651a6.03,6.03,0,0,0,6.023-6.023V13.242A6.03,6.03,0,0,0,55.651,7.219Z" fill="#3ca078"/>
        <path id="Path_1371" data-name="Path 1371" d="M17.47,12.906A11.564,11.564,0,1,0,29.034,24.47,11.577,11.577,0,0,0,17.47,12.906ZM12.24,31.977a5.667,5.667,0,0,1,10.461,0,9.125,9.125,0,0,1-10.461,0Zm3.039-8.087v-.453a2.192,2.192,0,0,1,4.384,0v.453a2.192,2.192,0,0,1-4.384,0Zm9.27,6.378a8.086,8.086,0,0,0-3.584-3.39,4.579,4.579,0,0,0,1.106-2.987v-.453a4.6,4.6,0,0,0-9.2,0v.453a4.579,4.579,0,0,0,1.106,2.987,8.084,8.084,0,0,0-3.584,3.39,9.155,9.155,0,1,1,14.157,0Z" transform="translate(0.598 0.576)" fill="#3ca078"/>
        <path id="Path_1372" data-name="Path 1372" d="M33.361,30.2H50.707a1.2,1.2,0,0,0,1.2-1.2V19.361a1.2,1.2,0,0,0-1.2-1.2H33.361a1.2,1.2,0,0,0-1.2,1.2V29A1.2,1.2,0,0,0,33.361,30.2Zm1.2-9.637H49.5v7.227H34.565Z" transform="translate(3.258 1.108)" fill="#3ca078"/>
        <path id="Path_1373" data-name="Path 1373" d="M33.361,33.69H50.707a1.2,1.2,0,0,0,0-2.409H33.361a1.2,1.2,0,0,0,0,2.409Z" transform="translate(3.258 2.438)" fill="#3ca078"/>
        <path id="Path_1374" data-name="Path 1374" d="M32.509,37.712a1.2,1.2,0,1,0-.353-.852A1.214,1.214,0,0,0,32.509,37.712Z" transform="translate(3.258 2.881)" fill="#3ca078"/>
        <path id="Path_1375" data-name="Path 1375" d="M36.884,36.009a1.2,1.2,0,1,0,.852-.353A1.214,1.214,0,0,0,36.884,36.009Z" transform="translate(3.701 2.881)" fill="#3ca078"/>
        <path id="Path_1376" data-name="Path 1376" d="M49.82,35.656H42.111a1.2,1.2,0,0,0,0,2.409H49.82a1.2,1.2,0,0,0,0-2.409Z" transform="translate(4.144 2.881)" fill="#3ca078"/>
        <path id="Path_1377" data-name="Path 1377" d="M25.833,37.307a1.205,1.205,0,0,0-1.2-1.2H9.772a1.2,1.2,0,1,0,0,2.409H24.629A1.2,1.2,0,0,0,25.833,37.307Z" transform="translate(0.868 2.926)" fill="#3ca078"/>
        <path id="Path_1378" data-name="Path 1378" d="M11.522,40.478a1.2,1.2,0,0,0,0,2.409h11a1.2,1.2,0,1,0,0-2.409Z" transform="translate(1.045 3.37)" fill="#3ca078"/>
        <path id="Path_1379" data-name="Path 1379" d="M16.517,9.628a1.2,1.2,0,1,0-.852-.353A1.214,1.214,0,0,0,16.517,9.628Z" transform="translate(1.551)" fill="#3ca078"/>
      </g>
    </g>
  </g>
</svg>
