<svg xmlns="http://www.w3.org/2000/svg" xmlns:xlink="http://www.w3.org/1999/xlink" width="157" height="157" viewBox="0 0 157 157">
  <defs>
    <filter id="Icon" x="0" y="0" width="157" height="157" filterUnits="userSpaceOnUse">
      <feOffset dy="5" input="SourceAlpha"/>
      <feGaussianBlur stdDeviation="17.5" result="blur"/>
      <feFlood flood-color="#002a33" flood-opacity="0.149"/>
      <feComposite operator="in" in2="blur"/>
      <feComposite in="SourceGraphic"/>
    </filter>
  </defs>
  <g transform="matrix(1, 0, 0, 1, 0, 0)" filter="url(#Icon)">
    <path id="Icon-2" data-name="Icon" d="M26,52A26.007,26.007,0,0,1,15.88,2.043,26.007,26.007,0,0,1,36.121,49.957,25.837,25.837,0,0,1,26,52Zm1.512-38A12.474,12.474,0,0,0,15,26.7c0,6.305,4.287,10.709,10.425,10.709a13.9,13.9,0,0,0,8.5-2.647,1.077,1.077,0,0,0-1.2-1.786,11.646,11.646,0,0,1-7.3,2.28,8.251,8.251,0,0,1-5.9-2.281A8.617,8.617,0,0,1,17.156,26.7a10.529,10.529,0,0,1,3.1-7.566,10.265,10.265,0,0,1,7.253-2.982c4.763,0,7.963,3.216,7.963,8a7.758,7.758,0,0,1-1.217,4.531A3.615,3.615,0,0,1,31.3,30.3c-1.113,0-1.646-.43-1.726-1.394l1.274-6.23.466-1.83a1.076,1.076,0,0,0-.778-1.309,1.077,1.077,0,0,0-1.282.688,3.552,3.552,0,0,0-2.57-1.278c-.091-.006-.184-.009-.275-.009-2.652,0-5.055,2.418-5.714,5.749-.48,2.427-.193,4.472.808,5.758a3.987,3.987,0,0,0,3.093,1.492c.08,0,.161.006.241.006a4.053,4.053,0,0,0,3.009-1.326A3.64,3.64,0,0,0,31.3,32.457c3.73,0,6.335-3.413,6.335-8.3A9.7,9.7,0,0,0,27.512,14Zm-2.7,15.824h0l-.107,0a1.963,1.963,0,0,1-1.52-.746c-.618-.793-.755-2.167-.4-3.973.455-2.3,2.014-4.037,3.625-4.037.04,0,.084,0,.134,0a1.505,1.505,0,0,1,1.117.618,3.911,3.911,0,0,1,.435,3.1C27.431,28.13,26.325,29.824,24.811,29.824Z" transform="translate(52.5 47.5)" fill="#fff"/>
  </g>
</svg>
