<svg xmlns="http://www.w3.org/2000/svg" xmlns:xlink="http://www.w3.org/1999/xlink" width="1920" height="750" viewBox="0 0 1920 750">
  <defs>
    <clipPath id="clip-path">
      <rect id="img" width="1920" height="750" transform="translate(0 80)" fill="#066058"/>
    </clipPath>
  </defs>
  <g id="Mask_Group_12" data-name="Mask Group 12" transform="translate(0 -80)" clip-path="url(#clip-path)">
    <g id="Search-vs-navigation" transform="translate(876.7 -983.772)" opacity="0.3">
      <path id="Combined-Shape" d="M1302.428,1951.831l.262.686a43.859,43.859,0,0,1-25.51,56.027l-.682.255a43.348,43.348,0,0,1-14.067,2.729l-1.11.014a43.938,43.938,0,0,1-16.08-84.871l.841-.318A44.294,44.294,0,0,1,1302.428,1951.831ZM440.892,1813.574l.748.537a43.735,43.735,0,0,1,10.142,60.575l-.535.746a43.853,43.853,0,0,1-34.7,17.989l-.843.006a43.667,43.667,0,0,1-25.215-7.861l-.785-.561a43.868,43.868,0,0,1-10.056-60.7l.451-.628a44.031,44.031,0,0,1,60.791-10.108Zm476.587-14.1.728.026a43.968,43.968,0,0,1,41.973,45.155l-.028.726a43.861,43.861,0,0,1-43.928,41.925h-1.985v-.064a44.093,44.093,0,0,1-42.1-45.093l.024-.724A44.058,44.058,0,0,1,917.479,1799.471Zm197.964-5.674a43.713,43.713,0,0,1,18.456,27.1l.179.875a43.908,43.908,0,0,1-33.828,51.443l-.879.181a48.577,48.577,0,0,1-7.24.748l-1.215.018a43.846,43.846,0,0,1-9.231-86.766l.714-.147A44,44,0,0,1,1115.443,1793.8Zm-360.352-21.55.909.258a43.879,43.879,0,0,1,30.036,53.652l-.257.907a44.1,44.1,0,0,1-41.422,31.515l-.781.008A44.993,44.993,0,0,1,732.025,1857l-1.127-.324a43.689,43.689,0,0,1-29.847-53.592l.262-.905a43.953,43.953,0,0,1,53.779-29.93Zm517.242-37.507a43.947,43.947,0,0,1,24.523,21.835l.39.807a43.963,43.963,0,0,1-20.592,58.067l-.67.32a43.133,43.133,0,0,1-17.5,4.138l-1.07.012a43.835,43.835,0,0,1-19.57-83.207l.809-.386A44.142,44.142,0,0,1,1272.333,1734.739Zm-668.056-27.762.66.376a43.818,43.818,0,0,1,16.127,59.4l-.374.65a43.571,43.571,0,0,1-37.278,21.694h-.825a43.581,43.581,0,0,1-21.274-5.433l-.883-.5a43.816,43.816,0,0,1-16.223-59.29l.471-.821A44.206,44.206,0,0,1,604.278,1706.978Zm-319.351-19.1a44.064,44.064,0,0,1,29.93,13.447l.632.668a43.665,43.665,0,0,1-1.845,61.348l-.654.614A44.079,44.079,0,0,1,284.1,1775.62l-.947.012a43.8,43.8,0,0,1-31.817-13.542l-.587-.626a43.664,43.664,0,0,1,1.9-61.412l.658-.612A44.084,44.084,0,0,1,284.927,1687.878Zm1154.3-32.812.5.6a43.731,43.731,0,0,1-5.715,61.135l-.69.571a44.16,44.16,0,0,1-26.691,9.752l-.973.012a43.786,43.786,0,0,1-28.483-77.279l.692-.572A44.165,44.165,0,0,1,1439.229,1655.066Zm-550.817-37.445.722.076a44.13,44.13,0,0,1,38.5,48.1l-.078.72a44.066,44.066,0,0,1-42.94,38.726l-.732.008a37.259,37.259,0,0,1-4.258-.3l-1.056-.149a44.069,44.069,0,0,1-38.5-48.1l.08-.72A44.211,44.211,0,0,1,888.412,1617.621Zm209.466,28.21.147.71a43.97,43.97,0,0,1-34.059,51.413l-.712.147a43.127,43.127,0,0,1-7.238.813l-1.217.016a43.851,43.851,0,0,1-9.394-86.732l.877-.179A44.056,44.056,0,0,1,1097.878,1645.831Zm636.768-38.324.68.62a43.8,43.8,0,0,1,2.9,61.441l-.533.583a43.947,43.947,0,0,1-31.133,13.9l-.887.01a43.842,43.842,0,0,1-33.063-73.184l.533-.583a44.039,44.039,0,0,1,61.5-2.788Zm-1261.463-.014.668.634a43.981,43.981,0,0,1,1.575,61.571l-.549.581a44.907,44.907,0,0,1-30.783,13.258l-.917.014a43.879,43.879,0,0,1-30-11.8l-.672-.64a43.6,43.6,0,0,1-1.6-61.3l.636-.664a44.1,44.1,0,0,1,61.64-1.654Zm263.577-33,.863.388a43.711,43.711,0,0,1,21.843,57.4l-.392.859a44.062,44.062,0,0,1-39.143,25.516l-.817.008a44.459,44.459,0,0,1-18.506-4.083,43.711,43.711,0,0,1-21.843-57.4l.39-.859a44.063,44.063,0,0,1,57.6-21.829Zm490.684-20.459a43.975,43.975,0,0,1,26,20.071l.445.776a43.817,43.817,0,0,1-16.189,59.346l-.781.445a44.339,44.339,0,0,1-20.429,5.477l-1.024.01a43.841,43.841,0,0,1-22.3-81.745l.781-.442A44.126,44.126,0,0,1,1227.444,1554.032Zm326.238-31.261.738.549a43.675,43.675,0,0,1,8.939,60.717l-.551.734a43.856,43.856,0,0,1-34.186,17.351l-.841.006a43.829,43.829,0,0,1-35.58-69.712l.551-.736a44.031,44.031,0,0,1,60.93-8.909Zm-947.377-35.93.68.618a43.794,43.794,0,0,1,2.991,61.408l-.622.68a44.437,44.437,0,0,1-31.131,13.9l-.887.016a43.693,43.693,0,0,1-29.538-11.114l-.688-.628a43.663,43.663,0,0,1-2.927-61.284l.621-.678a44.1,44.1,0,0,1,61.5-2.915ZM342.89,1461.212A44.056,44.056,0,0,1,369.885,1480l.483.755a43.811,43.811,0,0,1-13.385,60.024l-.64.4a43.761,43.761,0,0,1-22.32,6.69l-.99.01a43.876,43.876,0,0,1-24.076-80.7l.64-.408A44.178,44.178,0,0,1,342.89,1461.212Zm1036.538-2.959.682.618a43.794,43.794,0,0,1,2.838,61.443l-.533.583a43.935,43.935,0,0,1-31.131,13.9l-.887.01a43.678,43.678,0,0,1-33.064-72.993l.533-.581a44.1,44.1,0,0,1,61.561-2.979Zm-1239.6-42.689.257.68a43.793,43.793,0,0,1-25.352,55.967l-.84.316a43.941,43.941,0,0,1-14.127,2.728l-1.114.016a43.933,43.933,0,0,1-15.864-84.927l.688-.261A44.233,44.233,0,0,1,139.831,1415.563Zm1493.121-48.484.682.286a43.844,43.844,0,0,1,23.081,56.751l-.284.678a43.742,43.742,0,0,1-39.6,26.416l-.811,0a45.858,45.858,0,0,1-17.225-3.255,43.974,43.974,0,0,1-23.087-57.07l.288-.682A43.99,43.99,0,0,1,1632.953,1367.079ZM483.388,1343.252a44.1,44.1,0,0,1,26.07,20.079l.449.778A43.821,43.821,0,0,1,493.46,1423.4l-.652.37a43.092,43.092,0,0,1-20.411,5.606l-.978.008a43.856,43.856,0,0,1-22.36-81.745l.779-.444A44.26,44.26,0,0,1,483.388,1343.252Zm979.942-33.772.861.391a43.837,43.837,0,0,1,21.779,57.464l-.39.859a43.935,43.935,0,0,1-39.143,25.518l-.817.006a44.493,44.493,0,0,1-18.506-4.275,43.84,43.84,0,0,1-21.694-57.524l.306-.672a43.994,43.994,0,0,1,57.6-21.767Zm-1184.777-2.675a43.945,43.945,0,0,1,21.725,24.615l.29.847a44,44,0,0,1-27.55,55.221l-.69.231a41.976,41.976,0,0,1-12.572,2.164l-1.068.006a43.864,43.864,0,0,1-14.618-85.283l.849-.288A44.2,44.2,0,0,1,278.553,1306.805ZM97.576,1252.554l.12.714a43.985,43.985,0,0,1-36.039,50.039l-.719.119a35.9,35.9,0,0,1-5.7.517l-1.147-.008a43.862,43.862,0,0,1-7.443-87.112l.719-.119A44.106,44.106,0,0,1,97.576,1252.554Zm1575.042-55.742.72.11a43.987,43.987,0,0,1,36.357,49.822l-.113.718a44.2,44.2,0,0,1-42.677,36.682l-.74.008a41.091,41.091,0,0,1-7.364-.638,43.728,43.728,0,0,1-36.264-49.633l.147-.905A44.1,44.1,0,0,1,1672.619,1196.812ZM455.327,1216.252l.147.708a43.842,43.842,0,0,1-33.828,51.379l-.881.181a42.681,42.681,0,0,1-7.236.869l-1.217.024a43.91,43.91,0,0,1-9.167-86.893l.714-.147A44.055,44.055,0,0,1,455.327,1216.252ZM1496.9,1140.179l.722.078a43.94,43.94,0,0,1,38.5,47.969l-.078.72v1.977a44,44,0,0,1-43.007,38.282l-.73.006a38.5,38.5,0,0,1-5.188-.064,44.064,44.064,0,0,1-38.5-48.221l.08-.722a2.544,2.544,0,0,0,.03-.553l-.03-.276v-.831A44.023,44.023,0,0,1,1496.9,1140.179Zm-1243.548,1.3a43.914,43.914,0,0,1,15.187,29.155l.077.9a43.883,43.883,0,0,1-39.811,46.968l-.724.06h-3.4a43.934,43.934,0,0,1-43.867-39.736l-.062-.72a43.887,43.887,0,0,1,39.578-47.016l.893-.077A44.218,44.218,0,0,1,253.348,1141.477Zm1601.832-30.022.921.024a43.972,43.972,0,0,1,42.355,44.709l-.026.917v1.98a43.921,43.921,0,0,1-43.208,42.172l-.722.006a9,9,0,0,1-1.859-.127,43.9,43.9,0,0,1-42.228-44.708l.028-.917v-1.915a43.927,43.927,0,0,1,44.739-42.14ZM45.032,1039.276l.921.032a43.9,43.9,0,0,1,42.165,44.709l-.029.917a43.989,43.989,0,0,1-44.058,42.116H42.176A44.032,44.032,0,0,1,.015,1082.021l.024-.724a43.931,43.931,0,0,1,44.993-42.021Zm1672.619,20.687.064.722v1.086a1.875,1.875,0,0,1,.04.67l-.04.223a44.206,44.206,0,0,1-40.663,47.092h-3.329a44.057,44.057,0,0,1-43.866-40.52v-1.022a2.7,2.7,0,0,1-.024-.509l.024-.255a43.884,43.884,0,0,1,39.577-47.08l.893-.077A44.139,44.139,0,0,1,1717.651,1059.963ZM410.564,1011.471l.724.08a44,44,0,0,1,38.5,48.159l-.08.72a44.131,44.131,0,0,1-43.007,38.6l-.732.008a49.806,49.806,0,0,1-5.25-.384,43.748,43.748,0,0,1-38.527-47.9l.1-.913A44.021,44.021,0,0,1,410.564,1011.471Zm1118.6-7.332.151.712a43.969,43.969,0,0,1-34,51.475l-.714.149a43.555,43.555,0,0,1-7.348.76l-1.233,0a43.831,43.831,0,0,1-9.458-86.665l.877-.183A44.121,44.121,0,0,1,1529.167,1004.138ZM238.947,956.815l.72.113a44.112,44.112,0,0,1,36.357,49.884l-.113.718a44.136,44.136,0,0,1-42.677,36.682l-.74.01a39.293,39.293,0,0,1-7.364-.575,43.857,43.857,0,0,1-36.262-49.7l.145-.907A44.039,44.039,0,0,1,238.947,956.815Zm1648.669,14.393.118.716a43.856,43.856,0,0,1-35.743,50.071l-.887.149a49.441,49.441,0,0,1-5.478.432l-1.374.014a43.873,43.873,0,0,1-7.569-87.112l.718-.119A44.04,44.04,0,0,1,1887.617,971.208ZM78.03,865.259l.711.163a43.96,43.96,0,0,1,32.632,52.32l-.165.706a43.9,43.9,0,0,1-41.962,33.559l-.751.006a40.655,40.655,0,0,1-10.31-1.211,43.772,43.772,0,0,1-32.806-51.918l.211-.919A44.191,44.191,0,0,1,78.03,865.259Zm1603.27,13.2.233.686a43.929,43.929,0,0,1-27.359,55.219l-.688.233a43.633,43.633,0,0,1-12.691,2.16l-1.078.01a43.86,43.86,0,0,1-14.457-85.34l.69-.233A44.094,44.094,0,0,1,1681.3,878.455ZM470.355,850.76l.68.3a43.842,43.842,0,0,1,21.759,57.586l-.308.674a44,44,0,0,1-39.143,25.516l-.817.008A44.006,44.006,0,0,1,412.2,873.243l.3-.674A44.252,44.252,0,0,1,470.355,850.76ZM1438.7,811.205a44.04,44.04,0,0,1,26.064,20l.448.777a43.817,43.817,0,0,1-16.189,59.346l-.781.445a44.18,44.18,0,0,1-20.429,5.6l-1.024.014a43.961,43.961,0,0,1-38.014-21.686l-.408-.712a43.815,43.815,0,0,1,16.062-59.345l.778-.446A44.194,44.194,0,0,1,1438.7,811.205ZM298.348,792.393l.682.284a43.781,43.781,0,0,1,23.147,56.752l-.286.678a43.8,43.8,0,0,1-39.6,26.414l-.811.006a45.822,45.822,0,0,1-17.163-3.257A43.909,43.909,0,0,1,241.11,816.2l.286-.676A44.118,44.118,0,0,1,298.348,792.393Zm1519.629-24.756a43.834,43.834,0,0,1,22.565,23.881l.318.839a43.666,43.666,0,0,1-25.16,55.965l-.839.318a43.105,43.105,0,0,1-14.26,2.734l-1.046.01a43.835,43.835,0,0,1-16.143-84.68l.839-.318A44.062,44.062,0,0,1,1817.977,767.637ZM577.263,716.655l.585.533a43.79,43.79,0,0,1,2.84,61.441l-.533.583a44.061,44.061,0,0,1-31.131,14.024l-.889.014a43.978,43.978,0,0,1-33.19-73.182l.531-.583A44.3,44.3,0,0,1,577.263,716.655Zm-432.92-15.789.677.3a43.9,43.9,0,0,1,21.885,57.584l-.3.676a44.259,44.259,0,0,1-39.269,25.516l-.818.008a44.2,44.2,0,0,1-40.264-61.73l.3-.678A44.189,44.189,0,0,1,144.343,700.866Zm1457.568,10.07.41.635a43.815,43.815,0,0,1-13.013,60.137l-.756.485a44.936,44.936,0,0,1-22.445,6.684l-.994.016a43.973,43.973,0,0,1-36.888-19.854l-.445-.694a43.874,43.874,0,0,1,13.194-60.149l.638-.408A44.219,44.219,0,0,1,1601.911,710.936ZM1350.1,686.7l.684.618a43.8,43.8,0,0,1,2.838,61.443l-.533.583a44.062,44.062,0,0,1-31.13,14.025l-.889.014A43.891,43.891,0,0,1,1291.6,752.4l-.69-.624a43.79,43.79,0,0,1-2.965-61.441l.531-.583A44.168,44.168,0,0,1,1350.1,686.7ZM396.139,646.766l.74.547a43.8,43.8,0,0,1,8.851,60.833l-.463.618a43.919,43.919,0,0,1-34.311,17.416l-.845.006a43.841,43.841,0,0,1-35.518-69.714l.553-.734a44.159,44.159,0,0,1,60.992-8.972Zm1336.067-41.1a43.855,43.855,0,0,1,26.788,19.059l.474.76a43.751,43.751,0,0,1-13.767,59.9l-.642.4a44.518,44.518,0,0,1-22.038,6.373l-1.016.008a43.795,43.795,0,0,1-23.877-80.693l.76-.475A43.993,43.993,0,0,1,1732.207,605.67ZM720.153,621.841l.372.65a43.82,43.82,0,0,1-16.318,59.357l-.652.372a43.428,43.428,0,0,1-20.474,5.546l-.98.006a43.9,43.9,0,0,1-22.232-81.819l.65-.37A44.208,44.208,0,0,1,720.153,621.841Zm476.2-37.3.678.3a43.838,43.838,0,0,1,21.948,57.52l-.3.676a44,44,0,0,1-39.267,25.518l-.821.006a43.953,43.953,0,0,1-40.327-61.606l.306-.674A44.185,44.185,0,0,1,1196.349,584.539Zm288.464-17.15.575.543a43.793,43.793,0,0,1,1.51,61.449l-.551.577a44.132,44.132,0,0,1-30.8,13.391l-.9.008a43.87,43.87,0,0,1-32.267-73.737l.633-.666A44.23,44.23,0,0,1,1484.813,567.388Zm-598.9,8.32.147.71a43.906,43.906,0,0,1-33.995,51.415l-.712.145a42.93,42.93,0,0,1-7.348.762l-1.233,0a43.853,43.853,0,0,1-9.167-86.766l.714-.145A44.052,44.052,0,0,1,885.914,575.708Zm132.621-40.848.724.08a43.94,43.94,0,0,1,38.5,47.969l-.078.72a44.065,44.065,0,0,1-42.941,38.726l-.732.008a37.286,37.286,0,0,1-5.316-.32,43.939,43.939,0,0,1-38.5-48.1l.08-.72A44.023,44.023,0,0,1,1018.535,534.859Zm914.834-24.291.408.636a43.808,43.808,0,0,1-13.01,60.135l-.757.485a44.937,44.937,0,0,1-22.449,6.378l-.99,0a44.037,44.037,0,0,1-36.884-19.542l-.451-.688a43.81,43.81,0,0,1,13.142-60.073l.756-.483A44.15,44.15,0,0,1,1933.369,510.568ZM1646.6,476.937l.543.573a43.667,43.667,0,0,1-1.9,61.414l-.656.612a43.894,43.894,0,0,1-28.9,11.6l-.945.008a44,44,0,0,1-31.738-13.405l-.6-.634a43.665,43.665,0,0,1,1.843-61.35l.654-.612A44.236,44.236,0,0,1,1646.6,476.937Zm-310.156-21.272.823.469a43.691,43.691,0,0,1,16.287,59.228l-.471.819a43.96,43.96,0,0,1-37.278,21.692l-.825,0a43.815,43.815,0,0,1-38.443-65.1l.469-.819a44.08,44.08,0,0,1,59.437-16.294ZM655.331,422.581a43.936,43.936,0,0,1,24.525,21.833l.39.807a43.77,43.77,0,0,1-20.325,58l-.809.388a43.678,43.678,0,0,1-17.681,4.2l-1.082.012a43.881,43.881,0,0,1-19.508-83.268l.811-.388A44.13,44.13,0,0,1,655.331,422.581Zm-288.58,3.5.543.573A43.665,43.665,0,0,1,365.387,488l-.654.612a44.392,44.392,0,0,1-29.019,11.727l-.951.014a44.26,44.26,0,0,1-32.211-14.167,43.662,43.662,0,0,1,1.843-61.348l.654-.612A44.169,44.169,0,0,1,366.751,426.079Zm799.013-43.586.909.257a44.007,44.007,0,0,1,30.038,53.8l-.2.7a44.035,44.035,0,0,1-41.484,31.517l-.78.006a44.991,44.991,0,0,1-12.488-1.786,43.756,43.756,0,0,1-29.972-53.59l.26-.905a43.951,43.951,0,0,1,53.714-29.994ZM982.6,352.416l.73.022a43.9,43.9,0,0,1,42.039,44.837l-.032.917a43.858,43.858,0,0,1-43.928,42.051h-1.985a44.16,44.16,0,0,1-42.1-45.028l.022-.724A44.185,44.185,0,0,1,982.6,352.416Zm524.7,1.213.748.533a43.74,43.74,0,0,1,10.207,60.576l-.535.748a44.053,44.053,0,0,1-34.826,17.989l-.844,0a44.414,44.414,0,0,1-25.871-8.358,43.868,43.868,0,0,1-10.118-60.7l.448-.628a44.094,44.094,0,0,1,60.791-10.168Zm-160.471-93.766.678.3a43.9,43.9,0,0,1,21.886,57.584l-.3.676a44.324,44.324,0,0,1-39.271,25.516l-.817.008a44,44,0,0,1-17.42-3.683l-1.024-.465a43.9,43.9,0,0,1-21.884-57.584l.3-.676A44.184,44.184,0,0,1,1346.837,259.863ZM146.121,271.627l.5.6a43.8,43.8,0,0,1-5.712,61.2l-.691.571a43.89,43.89,0,0,1-26.783,9.754l-.945.008a43.837,43.837,0,0,1-28.458-77.414l.6-.5A44.23,44.23,0,0,1,146.121,271.627Zm447.391-25.514a43.974,43.974,0,0,1,22.57,23.875l.318.837a43.922,43.922,0,0,1-25.376,56.086l-.688.259a45.662,45.662,0,0,1-14.127,2.663l-1.112.018a43.865,43.865,0,0,1-16.145-84.742l.839-.32A44.213,44.213,0,0,1,593.512,246.112Zm594.4-46.968.921.211a43.772,43.772,0,0,1,32.808,51.981l-.213.919a44.151,44.151,0,0,1-42.087,33.683l-.754.008a47.219,47.219,0,0,1-10.245-1.211,44.09,44.09,0,0,1-32.758-52.32l.163-.708a44,44,0,0,1,52.166-32.563Zm-353.851-6.671a43.881,43.881,0,0,1,17.4,27.823l.147.883A43.855,43.855,0,0,1,815.8,271.188l-.885.147a50.583,50.583,0,0,1-5.425.533l-1.364.04a43.934,43.934,0,0,1-7.571-87.237l.72-.12A44.176,44.176,0,0,1,834.058,192.473ZM1209.821,1.537l.911.257a44.01,44.01,0,0,1,30.038,53.8l-.2.7a44.1,44.1,0,0,1-41.548,31.516l-.781.007a44.973,44.973,0,0,1-12.423-1.787,43.689,43.689,0,0,1-29.976-53.589l.262-.906a43.952,43.952,0,0,1,53.714-29.994Z" transform="translate(0 0)" fill="#3ca078"/>
    </g>
  </g>
</svg>
