<svg id="ScuccessIcon" xmlns="http://www.w3.org/2000/svg" width="22" height="22.001" viewBox="0 0 22 22.001">
  <path id="Path" d="M2.638,3.854A11,11,0,0,1,15.477.953a1,1,0,1,1-.814,1.827A9,9,0,1,0,20,11.277l0-.271v-.92a1,1,0,0,1,1.993-.117l.007.117v.921A11,11,0,1,1,2.638,3.854Z" transform="translate(0 0)" fill="#3ca078"/>
  <path id="Path-2" data-name="Path" d="M13.293.293a1,1,0,0,1,1.5,1.319l-.083.094-10,10.01a1,1,0,0,1-1.32.084l-.094-.083-3-3a1,1,0,0,1,1.32-1.5l.094.083L4,9.6Z" transform="translate(7 2.006)" fill="#3ca078"/>
</svg>
