<svg id="search" xmlns="http://www.w3.org/2000/svg" width="19.508" height="19.51" viewBox="0 0 19.508 19.51">
  <g id="magnifying-glass" transform="translate(-0.001 0)">
    <path id="Shape" d="M17.9,19.509a1.607,1.607,0,0,1-1.142-.472L12.42,14.7a1.616,1.616,0,0,1-.437-.809,7.633,7.633,0,1,1,1.909-1.908,1.615,1.615,0,0,1,.808.436l4.334,4.335A1.613,1.613,0,0,1,17.9,19.509ZM7.629,1.935A5.7,5.7,0,1,0,11.66,3.6,5.66,5.66,0,0,0,7.629,1.935Z" transform="translate(0.001 0)" fill="#3ca078"/>
  </g>
</svg>
