<svg xmlns="http://www.w3.org/2000/svg" width="60.367" height="49.641" viewBox="0 0 60.367 49.641">
  <g id="stats-icon" transform="translate(-1140.633 -438)">
    <rect id="base" width="41" height="41" rx="20.5" transform="translate(1160 438)" fill="#3ca078" opacity="0.2"/>
    <path id="Chart" d="M112.48,2581.123a3.759,3.759,0,0,0,.46.028,4.6,4.6,0,0,0,4.562-4.194,4.65,4.65,0,0,0-1.011-3.4,4.5,4.5,0,0,0-3.093-1.683,3.858,3.858,0,0,0-.46-.027h0a4.6,4.6,0,0,0-4.562,4.193,4.653,4.653,0,0,0,.925,3.265l-5.972,8.579a5.249,5.249,0,0,0-.941-.2c-.154-.009-.307-.018-.46-.018h0a4.494,4.494,0,0,0-2.747.947l-5.64-4.092a4.4,4.4,0,0,0,.092-.478,4.671,4.671,0,0,0-1.011-3.411,4.579,4.579,0,0,0-3.093-1.683c-.154-.009-.307-.019-.46-.019h0a4.589,4.589,0,0,0-4.561,4.184,4.656,4.656,0,0,0,.521,2.657l-3.279,3.991V2567.2a1.379,1.379,0,1,0-2.752,0v35.108a1.38,1.38,0,0,0,1.363,1.38h34.97a1.379,1.379,0,1,0,0-2.758H81.721l.027-6.814,5.259-6.4a4.581,4.581,0,0,0,1.6.488c.155.009.307.018.46.018a4.541,4.541,0,0,0,3.127-1.242l5.379,3.89a4.726,4.726,0,0,0-.21.975,4.672,4.672,0,0,0,1.011,3.411,4.583,4.583,0,0,0,3.093,1.683,4.071,4.071,0,0,0,.46.018,4.59,4.59,0,0,0,4.562-4.184,4.671,4.671,0,0,0-.92-3.274l5.971-8.57A4.517,4.517,0,0,0,112.48,2581.123Zm-23.407,4.313c-.061,0-.122-.009-.184-.009a1.864,1.864,0,0,1,.184-3.715,1.218,1.218,0,0,1,.184.009,1.864,1.864,0,0,1-.184,3.715Zm23.863-10.8a1.187,1.187,0,0,1,.184.009,1.859,1.859,0,0,1-.184,3.707,1.4,1.4,0,0,1-.184-.01,1.859,1.859,0,0,1,.18-3.707Zm-11,19.531a1.286,1.286,0,0,1-.184-.009,1.864,1.864,0,0,1,.184-3.715c.062,0,.123.009.184.009a1.864,1.864,0,0,1-.184,3.715Z" transform="translate(1061.639 -2116.048)" fill="#3ca078" fill-rule="evenodd"/>
  </g>
</svg>
