<svg xmlns="http://www.w3.org/2000/svg" width="32" height="32" viewBox="0 0 32 32">
  <g id="voicFooter" transform="translate(-247 3)">
    <circle id="Ellipse_11715" data-name="Ellipse 11715" cx="16" cy="16" r="16" transform="translate(247 -3)" fill="#fff"/>
    <g id="mic" transform="translate(256 2)">
      <path id="Path" d="M3,0A3,3,0,0,0,0,3v8a3,3,0,0,0,6,0V3A3,3,0,0,0,3,0Z" transform="translate(4)" fill="none" stroke="#0096b6" stroke-linecap="round" stroke-linejoin="round" stroke-miterlimit="10" stroke-width="2"/>
      <path id="Path-2" data-name="Path" d="M14,0V2A7,7,0,0,1,0,2V0" transform="translate(0 9)" fill="none" stroke="#0096b6" stroke-linecap="round" stroke-linejoin="round" stroke-miterlimit="10" stroke-width="2"/>
      <path id="Path-3" data-name="Path" d="M.5,0V4" transform="translate(6.5 18)" fill="none" stroke="#0096b6" stroke-linecap="round" stroke-linejoin="round" stroke-miterlimit="10" stroke-width="2"/>
      <path id="Path-4" data-name="Path" d="M0,.5H8" transform="translate(3 21.5)" fill="none" stroke="#0096b6" stroke-linecap="round" stroke-linejoin="round" stroke-miterlimit="10" stroke-width="2"/>
    </g>
  </g>
</svg>
