<svg id="audioIcon" xmlns="http://www.w3.org/2000/svg" xmlns:xlink="http://www.w3.org/1999/xlink" width="40" height="40" viewBox="0 0 40 40">
  <defs>
    <clipPath id="clip-path">
      <rect id="Icon" width="40" height="40" transform="translate(0 0)" fill="none"/>
    </clipPath>
  </defs>
  <g id="Podcast" transform="translate(0)" clip-path="url(#clip-path)">
    <path id="Circle" d="M20.016,0A20.016,20.016,0,1,1,0,20.016,20.016,20.016,0,0,1,20.016,0m7.205,22.415a7.478,7.478,0,0,1-2.662,4.033,7.392,7.392,0,0,1-9.087,0,7.478,7.478,0,0,1-2.662-4.033.882.882,0,1,0-1.71.436,9.239,9.239,0,0,0,8.029,6.888v1.8h-4a.886.886,0,1,0,0,1.772h9.782a.886.886,0,0,0,0-1.772h-4v-1.8a9.238,9.238,0,0,0,8.029-6.888.882.882,0,1,0-1.71-.436m-7.5-15.691A4.934,4.934,0,0,0,14.8,11.5h2.19a.886.886,0,1,1,0,1.772H14.8v2.1h2.192a.886.886,0,1,1,0,1.772H14.8v2.1h2.192a.886.886,0,1,1,0,1.772H14.8a4.934,4.934,0,0,0,4.917,4.78h.6a4.934,4.934,0,0,0,4.917-4.78h-2.19a.886.886,0,0,1,0-1.772h2.192v-2.1H23.042a.886.886,0,0,1,0-1.772h2.192v-2.1H23.042a.886.886,0,0,1,0-1.772h2.19a4.934,4.934,0,0,0-4.917-4.78Z" transform="translate(0 -0.033)" fill="#0096b6" fill-rule="evenodd"/>
  </g>
</svg>
