<svg id="Share" xmlns="http://www.w3.org/2000/svg" width="40" height="40" viewBox="0 0 40 40">
  <rect id="BG" width="40" height="40" rx="20" fill="#0096b6"/>
  <path id="Share-2" data-name="Share" d="M18.847,16.464a2.884,2.884,0,0,0-2.167,1.008l-8.119-4.45a3.619,3.619,0,0,0,0-1.046l8.119-4.45a2.884,2.884,0,0,0,2.167,1.008,3.169,3.169,0,0,0,3.014-3.3,3.169,3.169,0,0,0-3.014-3.3,3.169,3.169,0,0,0-3.014,3.3,3.639,3.639,0,0,0,.038.523L7.751,10.2A2.884,2.884,0,0,0,5.585,9.2a3.169,3.169,0,0,0-3.014,3.3,3.169,3.169,0,0,0,3.014,3.3,2.884,2.884,0,0,0,2.167-1.008l8.119,4.45a3.639,3.639,0,0,0-.038.523,3.169,3.169,0,0,0,3.014,3.3,3.169,3.169,0,0,0,3.014-3.3,3.169,3.169,0,0,0-3.014-3.3Z" transform="translate(7.752 7.5)" fill="#fff"/>
</svg>
