<svg xmlns="http://www.w3.org/2000/svg" width="50" height="50" viewBox="0 0 50 50">
  <g id="ic-2" transform="translate(-1490.415)">
    <circle id="Ellipse_11722" data-name="Ellipse 11722" cx="25" cy="25" r="25" transform="translate(1490.415)" fill="#f2f4f7"/>
    <g id="call-calling" transform="translate(1499.11 12.11)">
      <path id="Path_56768" data-name="Path 56768" d="M27.742,23.05a3.281,3.281,0,0,1-.322,1.405,5.319,5.319,0,0,1-.877,1.315,5.811,5.811,0,0,1-2.114,1.521,6.473,6.473,0,0,1-2.514.49,10.742,10.742,0,0,1-4.2-.941,22.641,22.641,0,0,1-4.434-2.552,37.06,37.06,0,0,1-4.228-3.609,36.626,36.626,0,0,1-3.6-4.215,22.98,22.98,0,0,1-2.526-4.4A10.857,10.857,0,0,1,2,7.852a6.668,6.668,0,0,1,.464-2.488A5.933,5.933,0,0,1,3.946,3.212,3.777,3.777,0,0,1,6.628,2a2.422,2.422,0,0,1,1.044.232,2.1,2.1,0,0,1,.864.722l2.991,4.215a4.411,4.411,0,0,1,.516.9,2.037,2.037,0,0,1,.18.786,1.75,1.75,0,0,1-.271.915,4.384,4.384,0,0,1-.722.915l-.98,1.018a.69.69,0,0,0-.206.516,1.17,1.17,0,0,0,.039.3c.039.1.077.18.1.258a10.7,10.7,0,0,0,1.2,1.65c.58.67,1.2,1.353,1.869,2.037.7.683,1.366,1.315,2.05,1.895a9.893,9.893,0,0,0,1.663,1.186c.064.026.142.064.232.1a.89.89,0,0,0,.322.052.709.709,0,0,0,.528-.219l.98-.967a3.955,3.955,0,0,1,.928-.722,1.717,1.717,0,0,1,.915-.271,2.057,2.057,0,0,1,.786.168,4.985,4.985,0,0,1,.9.5l4.267,3.029a1.955,1.955,0,0,1,.709.825A2.645,2.645,0,0,1,27.742,23.05Z" transform="translate(0 0)" fill="none" stroke="#0096b6" stroke-miterlimit="10" stroke-width="2"/>
      <path id="Path_56769" data-name="Path 56769" d="M19.512,10.012A5.111,5.111,0,0,0,18,7.085,4.4,4.4,0,0,0,15,5.5" transform="translate(3.757 1.012)" fill="none" stroke="#0096b6" stroke-linecap="round" stroke-linejoin="round" stroke-width="2" opacity="0.4"/>
      <path id="Path_56770" data-name="Path 56770" d="M24.023,11.023A9.016,9.016,0,0,0,15,2" transform="translate(3.757 0)" fill="none" stroke="#0096b6" stroke-linecap="round" stroke-linejoin="round" stroke-width="2" opacity="0.4"/>
    </g>
  </g>
</svg>
