<svg xmlns="http://www.w3.org/2000/svg" width="50" height="50" viewBox="0 0 50 50">
  <g id="ic-7" transform="translate(-1490 -270)">
    <circle id="Ellipse_11722" data-name="Ellipse 11722" cx="25" cy="25" r="25" transform="translate(1490 270)" fill="#f2f4f7"/>
    <g id="barcode_outline" data-name="barcode/outline" transform="translate(1500 280)">
      <g id="vuesax_outline_barcode" data-name="vuesax/outline/barcode">
        <g id="barcode">
          <path id="Vector" d="M19.688,23.125H7.188C2.625,23.125,0,20.5,0,15.938V7.188C0,2.625,2.625,0,7.188,0h12.5c4.563,0,7.188,2.625,7.188,7.188v8.75C26.875,20.5,24.25,23.125,19.688,23.125ZM7.188,1.875c-3.575,0-5.312,1.738-5.312,5.313v8.75c0,3.575,1.738,5.313,5.313,5.313h12.5c3.575,0,5.313-1.738,5.313-5.312V7.188c0-3.575-1.737-5.312-5.312-5.312Z" transform="translate(1.563 3.438)" fill="#0096b6"/>
          <path id="Vector-2" data-name="Vector" d="M.938,11.875A.944.944,0,0,1,0,10.938v-10A.944.944,0,0,1,.938,0a.944.944,0,0,1,.938.938v10A.944.944,0,0,1,.938,11.875Z" transform="translate(6.563 9.063)" fill="#0096b6"/>
          <path id="Vector-3" data-name="Vector" d="M.938,6.875A.944.944,0,0,1,0,5.938v-5A.944.944,0,0,1,.938,0a.944.944,0,0,1,.938.938v5A.944.944,0,0,1,.938,6.875Z" transform="translate(10.313 9.063)" fill="#0096b6"/>
          <path id="Vector-4" data-name="Vector" d="M.938,3.125A.944.944,0,0,1,0,2.188V.938A.944.944,0,0,1,.938,0a.944.944,0,0,1,.938.938v1.25A.944.944,0,0,1,.938,3.125Z" transform="translate(10.313 17.813)" fill="#0096b6"/>
          <path id="Vector-5" data-name="Vector" d="M.938,3.125A.944.944,0,0,1,0,2.188V.938A.944.944,0,0,1,.938,0a.944.944,0,0,1,.938.938v1.25A.944.944,0,0,1,.938,3.125Z" transform="translate(17.813 9.063)" fill="#0096b6"/>
          <path id="Vector-6" data-name="Vector" d="M.938,11.875A.944.944,0,0,1,0,10.938v-10A.944.944,0,0,1,.938,0a.944.944,0,0,1,.938.938v10A.944.944,0,0,1,.938,11.875Z" transform="translate(14.063 9.063)" fill="#0096b6"/>
          <path id="Vector-7" data-name="Vector" d="M.938,6.875A.944.944,0,0,1,0,5.938v-5A.944.944,0,0,1,.938,0a.944.944,0,0,1,.938.938v5A.944.944,0,0,1,.938,6.875Z" transform="translate(17.813 14.063)" fill="#0096b6"/>
          <path id="Vector-8" data-name="Vector" d="M.938,11.875A.944.944,0,0,1,0,10.938v-10A.944.944,0,0,1,.938,0a.944.944,0,0,1,.938.938v10A.944.944,0,0,1,.938,11.875Z" transform="translate(21.563 9.063)" fill="#0096b6"/>
          <path id="Vector-9" data-name="Vector" d="M0,0H30V30H0Z" fill="none" opacity="0"/>
        </g>
      </g>
    </g>
  </g>
</svg>
